%
M48
M72
T01C0.01969
T02C0.02362
T03C0.02756
T04C0.03150
T05C0.03200
T06C0.03937
T07C0.04000
T08C0.04331
T09C0.04724
T10C0.05512
T11C0.07874
T12C0.11024
T13C0.18898
%
T01
X107312Y137909
X116761Y146571
X117548Y152083
X118335Y157595
X101800Y158382
X148257Y172555
X169517Y203264
X178965Y200902
X189202Y203264
X176603Y182791
X179753Y164681
X190383Y150508
X195894Y115862
X188414Y103264
X191564Y91453
X175816Y107988
X216761Y99327
X242745Y98539
X242745Y114287
X256918Y118224
X257706Y103264
X272666Y108776
X239989Y39878
X248257Y34760
X245698Y17043
X247863Y9760
X235461Y9366
X223650Y27673
X225816Y39878
X210265Y20587
X187036Y33382
X219910Y148146
X248257Y214287
X249044Y220587
X293139Y210350
X295501Y204839
X151406Y209563
X44320Y199327
X23060Y258382
T02
X19910Y274917
X187627Y141847
X200619Y140272
X228572Y135547
X271091Y174130
X280540Y182791
X356131Y258382
T03
X363593Y59295
X347093Y59295
T04
X287832Y14041
X281627Y18889
X275422Y23736
X269217Y28584
X263012Y33432
X136662Y131847
X128788Y131847
T05
X127509Y107201
X137509Y107201
T06
X143433Y40449
X147399Y17962
X116586Y11329
X112211Y36143
X247194Y311532
X257194Y311532
X341843Y62295
X341843Y51295
X368843Y51295
X368843Y62295
T07
X371091Y98776
X371091Y108776
X371091Y118776
X336446Y157791
X336446Y167791
X336446Y177791
X336446Y187791
X336446Y197791
X336446Y207791
X251013Y75311
X228119Y53658
X218119Y53658
X208119Y53658
X198119Y53658
X188119Y53658
X178119Y53658
X168119Y53658
X158119Y53658
X148119Y53658
X138119Y53658
X128119Y53658
X118119Y53658
X108119Y53658
X98119Y53658
X88119Y53658
X78119Y53658
X68119Y53658
X58119Y53658
X124083Y178579
X124083Y188579
X134083Y188579
X134083Y178579
X144083Y178579
X144083Y188579
X148946Y226886
X138946Y226886
X128946Y226886
X118946Y226886
X108946Y226886
X98946Y226886
X88946Y226886
X78946Y226886
X68946Y226886
X58946Y226886
X158946Y226886
X168946Y226886
X178946Y226886
X188946Y226886
X198946Y226886
X208946Y226886
X218946Y226886
X228946Y226886
X172666Y278067
T08
X148296Y120587
X118296Y120587
T09
X124296Y164681
X133296Y164681
X142296Y164681
X135723Y27496
X106799Y22396
T10
X284149Y66880
X315173Y42641
T11
X46288Y55626
X341564Y224917
T12
X302194Y140272
X298257Y376492
X85658Y140272
X81721Y376492
T13
X36446Y285941
X60068Y262319
X327784Y262319
X351406Y285941
M30
