G75*
%MOIN*%
%OFA0B0*%
%FSLAX25Y25*%
%IPPOS*%
%LPD*%
%AMOC8*
5,1,8,0,0,1.08239X$1,22.5*
%
%ADD10C,0.00000*%
%ADD11C,0.28000*%
%ADD12R,0.05150X0.05150*%
%ADD13C,0.05150*%
%ADD14OC8,0.06000*%
%ADD15C,0.07600*%
%ADD16C,0.06693*%
%ADD17OC8,0.05200*%
%ADD18C,0.06000*%
%ADD19R,0.03200X0.07600*%
%ADD20R,0.01378X0.07480*%
%ADD21R,0.09000X0.17000*%
%ADD22C,0.05937*%
%ADD23R,0.06000X0.06000*%
%ADD24C,0.07000*%
%ADD25R,0.06600X0.06600*%
%ADD26OC8,0.06600*%
%ADD27R,0.04134X0.04252*%
%ADD28R,0.05118X0.05906*%
%ADD29C,0.08268*%
%ADD30R,0.06496X0.05906*%
%ADD31R,0.01400X0.06200*%
%ADD32C,0.05937*%
%ADD33R,0.03937X0.03543*%
%ADD34R,0.04252X0.04134*%
%ADD35R,0.13780X0.06299*%
%ADD36C,0.01600*%
%ADD37C,0.02400*%
%ADD38C,0.03169*%
%ADD39C,0.03562*%
%ADD40C,0.01000*%
D10*
X0036446Y0055626D02*
X0036446Y0230683D01*
X0033563Y0237643D02*
X0013779Y0257427D01*
X0013380Y0257835D01*
X0012991Y0258253D01*
X0012613Y0258680D01*
X0012245Y0259117D01*
X0011887Y0259562D01*
X0011541Y0260015D01*
X0011205Y0260477D01*
X0010881Y0260947D01*
X0010568Y0261425D01*
X0010267Y0261909D01*
X0009977Y0262401D01*
X0009700Y0262900D01*
X0009435Y0263406D01*
X0009182Y0263918D01*
X0008941Y0264435D01*
X0008713Y0264959D01*
X0008498Y0265487D01*
X0008295Y0266021D01*
X0008106Y0266559D01*
X0007930Y0267102D01*
X0007766Y0267649D01*
X0007616Y0268200D01*
X0007480Y0268754D01*
X0007357Y0269312D01*
X0007247Y0269872D01*
X0007151Y0270435D01*
X0007068Y0271000D01*
X0007000Y0271566D01*
X0006944Y0272134D01*
X0006903Y0272704D01*
X0006876Y0273274D01*
X0006862Y0273845D01*
X0006862Y0274415D01*
X0006876Y0274986D01*
X0006903Y0275556D01*
X0006944Y0276126D01*
X0007000Y0276694D01*
X0007068Y0277260D01*
X0007151Y0277825D01*
X0007247Y0278388D01*
X0007357Y0278948D01*
X0007480Y0279506D01*
X0007616Y0280060D01*
X0007766Y0280611D01*
X0007930Y0281158D01*
X0008106Y0281701D01*
X0008295Y0282239D01*
X0008498Y0282773D01*
X0008713Y0283301D01*
X0008941Y0283825D01*
X0009182Y0284342D01*
X0009435Y0284854D01*
X0009700Y0285360D01*
X0009977Y0285859D01*
X0010267Y0286351D01*
X0010568Y0286835D01*
X0010881Y0287313D01*
X0011205Y0287783D01*
X0011541Y0288245D01*
X0011887Y0288698D01*
X0012245Y0289143D01*
X0012613Y0289580D01*
X0012991Y0290007D01*
X0013380Y0290425D01*
X0013779Y0290833D01*
X0019742Y0296797D01*
X0019743Y0296796D02*
X0020151Y0297195D01*
X0020569Y0297584D01*
X0020996Y0297962D01*
X0021433Y0298330D01*
X0021878Y0298688D01*
X0022331Y0299034D01*
X0022793Y0299370D01*
X0023263Y0299694D01*
X0023741Y0300007D01*
X0024225Y0300308D01*
X0024717Y0300598D01*
X0025216Y0300875D01*
X0025722Y0301140D01*
X0026234Y0301393D01*
X0026751Y0301634D01*
X0027275Y0301862D01*
X0027803Y0302077D01*
X0028337Y0302280D01*
X0028875Y0302469D01*
X0029418Y0302645D01*
X0029965Y0302809D01*
X0030516Y0302959D01*
X0031070Y0303095D01*
X0031628Y0303218D01*
X0032188Y0303328D01*
X0032751Y0303424D01*
X0033316Y0303507D01*
X0033882Y0303575D01*
X0034450Y0303631D01*
X0035020Y0303672D01*
X0035590Y0303699D01*
X0036161Y0303713D01*
X0036731Y0303713D01*
X0037302Y0303699D01*
X0037872Y0303672D01*
X0038442Y0303631D01*
X0039010Y0303575D01*
X0039576Y0303507D01*
X0040141Y0303424D01*
X0040704Y0303328D01*
X0041264Y0303218D01*
X0041822Y0303095D01*
X0042376Y0302959D01*
X0042927Y0302809D01*
X0043474Y0302645D01*
X0044017Y0302469D01*
X0044555Y0302280D01*
X0045089Y0302077D01*
X0045617Y0301862D01*
X0046141Y0301634D01*
X0046658Y0301393D01*
X0047170Y0301140D01*
X0047676Y0300875D01*
X0048175Y0300598D01*
X0048667Y0300308D01*
X0049151Y0300007D01*
X0049629Y0299694D01*
X0050099Y0299370D01*
X0050561Y0299034D01*
X0051014Y0298688D01*
X0051459Y0298330D01*
X0051896Y0297962D01*
X0052323Y0297584D01*
X0052741Y0297195D01*
X0053149Y0296796D01*
X0053149Y0296797D02*
X0112303Y0237643D01*
X0119263Y0234760D02*
X0186052Y0234760D01*
X0186052Y0246571D01*
X0193926Y0246571D02*
X0193926Y0234760D01*
X0268589Y0234760D01*
X0268589Y0234759D02*
X0268823Y0234762D01*
X0269057Y0234770D01*
X0269291Y0234784D01*
X0269525Y0234804D01*
X0269758Y0234829D01*
X0269990Y0234859D01*
X0270221Y0234895D01*
X0270452Y0234937D01*
X0270681Y0234984D01*
X0270910Y0235036D01*
X0271137Y0235094D01*
X0271362Y0235158D01*
X0271586Y0235226D01*
X0271808Y0235300D01*
X0272029Y0235380D01*
X0272247Y0235464D01*
X0272464Y0235554D01*
X0272678Y0235648D01*
X0272890Y0235748D01*
X0273099Y0235853D01*
X0273306Y0235963D01*
X0273511Y0236078D01*
X0273712Y0236197D01*
X0273911Y0236322D01*
X0274106Y0236451D01*
X0274299Y0236584D01*
X0274488Y0236722D01*
X0274674Y0236865D01*
X0274856Y0237012D01*
X0275035Y0237163D01*
X0275210Y0237319D01*
X0275381Y0237478D01*
X0275549Y0237642D01*
X0275549Y0237643D02*
X0334703Y0296797D01*
X0334703Y0296796D02*
X0335111Y0297195D01*
X0335529Y0297584D01*
X0335956Y0297962D01*
X0336393Y0298330D01*
X0336838Y0298688D01*
X0337291Y0299034D01*
X0337753Y0299370D01*
X0338223Y0299694D01*
X0338701Y0300007D01*
X0339185Y0300308D01*
X0339677Y0300598D01*
X0340176Y0300875D01*
X0340682Y0301140D01*
X0341194Y0301393D01*
X0341711Y0301634D01*
X0342235Y0301862D01*
X0342763Y0302077D01*
X0343297Y0302280D01*
X0343835Y0302469D01*
X0344378Y0302645D01*
X0344925Y0302809D01*
X0345476Y0302959D01*
X0346030Y0303095D01*
X0346588Y0303218D01*
X0347148Y0303328D01*
X0347711Y0303424D01*
X0348276Y0303507D01*
X0348842Y0303575D01*
X0349410Y0303631D01*
X0349980Y0303672D01*
X0350550Y0303699D01*
X0351121Y0303713D01*
X0351691Y0303713D01*
X0352262Y0303699D01*
X0352832Y0303672D01*
X0353402Y0303631D01*
X0353970Y0303575D01*
X0354536Y0303507D01*
X0355101Y0303424D01*
X0355664Y0303328D01*
X0356224Y0303218D01*
X0356782Y0303095D01*
X0357336Y0302959D01*
X0357887Y0302809D01*
X0358434Y0302645D01*
X0358977Y0302469D01*
X0359515Y0302280D01*
X0360049Y0302077D01*
X0360577Y0301862D01*
X0361101Y0301634D01*
X0361618Y0301393D01*
X0362130Y0301140D01*
X0362636Y0300875D01*
X0363135Y0300598D01*
X0363627Y0300308D01*
X0364111Y0300007D01*
X0364589Y0299694D01*
X0365059Y0299370D01*
X0365521Y0299034D01*
X0365974Y0298688D01*
X0366419Y0298330D01*
X0366856Y0297962D01*
X0367283Y0297584D01*
X0367701Y0297195D01*
X0368109Y0296796D01*
X0368110Y0296797D02*
X0374073Y0290833D01*
X0374472Y0290425D01*
X0374861Y0290007D01*
X0375239Y0289580D01*
X0375607Y0289143D01*
X0375965Y0288698D01*
X0376311Y0288245D01*
X0376647Y0287783D01*
X0376971Y0287313D01*
X0377284Y0286835D01*
X0377585Y0286351D01*
X0377875Y0285859D01*
X0378152Y0285360D01*
X0378417Y0284854D01*
X0378670Y0284342D01*
X0378911Y0283825D01*
X0379139Y0283301D01*
X0379354Y0282773D01*
X0379557Y0282239D01*
X0379746Y0281701D01*
X0379922Y0281158D01*
X0380086Y0280611D01*
X0380236Y0280060D01*
X0380372Y0279506D01*
X0380495Y0278948D01*
X0380605Y0278388D01*
X0380701Y0277825D01*
X0380784Y0277260D01*
X0380852Y0276694D01*
X0380908Y0276126D01*
X0380949Y0275556D01*
X0380976Y0274986D01*
X0380990Y0274415D01*
X0380990Y0273845D01*
X0380976Y0273274D01*
X0380949Y0272704D01*
X0380908Y0272134D01*
X0380852Y0271566D01*
X0380784Y0271000D01*
X0380701Y0270435D01*
X0380605Y0269872D01*
X0380495Y0269312D01*
X0380372Y0268754D01*
X0380236Y0268200D01*
X0380086Y0267649D01*
X0379922Y0267102D01*
X0379746Y0266559D01*
X0379557Y0266021D01*
X0379354Y0265487D01*
X0379139Y0264959D01*
X0378911Y0264435D01*
X0378670Y0263918D01*
X0378417Y0263406D01*
X0378152Y0262900D01*
X0377875Y0262401D01*
X0377585Y0261909D01*
X0377284Y0261425D01*
X0376971Y0260947D01*
X0376647Y0260477D01*
X0376311Y0260015D01*
X0375965Y0259562D01*
X0375607Y0259117D01*
X0375239Y0258680D01*
X0374861Y0258253D01*
X0374472Y0257835D01*
X0374073Y0257427D01*
X0354289Y0237643D01*
X0351406Y0230683D02*
X0351406Y0149274D01*
X0355528Y0141265D02*
X0374844Y0127468D01*
X0378965Y0119459D02*
X0378965Y0055626D01*
X0378966Y0055626D02*
X0378963Y0055388D01*
X0378955Y0055150D01*
X0378940Y0054913D01*
X0378920Y0054676D01*
X0378894Y0054440D01*
X0378863Y0054204D01*
X0378826Y0053969D01*
X0378783Y0053735D01*
X0378734Y0053502D01*
X0378680Y0053270D01*
X0378620Y0053040D01*
X0378555Y0052811D01*
X0378484Y0052584D01*
X0378408Y0052359D01*
X0378326Y0052136D01*
X0378239Y0051914D01*
X0378147Y0051695D01*
X0378049Y0051478D01*
X0377947Y0051264D01*
X0377839Y0051052D01*
X0377725Y0050842D01*
X0377607Y0050636D01*
X0377484Y0050432D01*
X0377356Y0050232D01*
X0377224Y0050035D01*
X0377086Y0049840D01*
X0376944Y0049650D01*
X0376797Y0049462D01*
X0376646Y0049279D01*
X0376491Y0049099D01*
X0376331Y0048923D01*
X0376167Y0048751D01*
X0375998Y0048582D01*
X0375826Y0048418D01*
X0375650Y0048258D01*
X0375470Y0048103D01*
X0375287Y0047952D01*
X0375099Y0047805D01*
X0374909Y0047663D01*
X0374714Y0047525D01*
X0374517Y0047393D01*
X0374317Y0047265D01*
X0374113Y0047142D01*
X0373907Y0047024D01*
X0373697Y0046910D01*
X0373485Y0046802D01*
X0373271Y0046700D01*
X0373054Y0046602D01*
X0372835Y0046510D01*
X0372613Y0046423D01*
X0372390Y0046341D01*
X0372165Y0046265D01*
X0371938Y0046194D01*
X0371709Y0046129D01*
X0371479Y0046069D01*
X0371247Y0046015D01*
X0371014Y0045966D01*
X0370780Y0045923D01*
X0370545Y0045886D01*
X0370309Y0045855D01*
X0370073Y0045829D01*
X0369836Y0045809D01*
X0369599Y0045794D01*
X0369361Y0045786D01*
X0369123Y0045783D01*
X0369123Y0045784D02*
X0331861Y0045784D01*
X0324901Y0042901D02*
X0291297Y0009296D01*
X0284337Y0006413D02*
X0112391Y0006413D01*
X0112151Y0006416D01*
X0111910Y0006425D01*
X0111670Y0006439D01*
X0111431Y0006460D01*
X0111192Y0006486D01*
X0110953Y0006519D01*
X0110716Y0006557D01*
X0110479Y0006600D01*
X0110244Y0006650D01*
X0110010Y0006705D01*
X0109777Y0006766D01*
X0109546Y0006833D01*
X0109317Y0006905D01*
X0109089Y0006983D01*
X0108864Y0007067D01*
X0108640Y0007156D01*
X0108419Y0007250D01*
X0108200Y0007350D01*
X0107984Y0007455D01*
X0107770Y0007565D01*
X0107559Y0007681D01*
X0107351Y0007801D01*
X0107146Y0007927D01*
X0106944Y0008057D01*
X0106746Y0008193D01*
X0106550Y0008333D01*
X0106358Y0008478D01*
X0106170Y0008628D01*
X0105986Y0008782D01*
X0105805Y0008941D01*
X0105628Y0009104D01*
X0105456Y0009271D01*
X0105287Y0009443D01*
X0105123Y0009619D01*
X0104963Y0009798D01*
X0104807Y0009982D01*
X0104656Y0010169D01*
X0104510Y0010359D01*
X0104368Y0010554D01*
X0104231Y0010751D01*
X0104099Y0010952D01*
X0103972Y0011157D01*
X0103850Y0011364D01*
X0103733Y0011574D01*
X0103621Y0011787D01*
X0103514Y0012002D01*
X0103413Y0012221D01*
X0103317Y0012441D01*
X0103227Y0012664D01*
X0103142Y0012889D01*
X0103062Y0013116D01*
X0102988Y0013345D01*
X0102920Y0013575D01*
X0102857Y0013808D01*
X0102800Y0014041D01*
X0102749Y0014276D01*
X0102704Y0014512D01*
X0098533Y0037685D01*
X0104437Y0022396D02*
X0104439Y0022493D01*
X0104445Y0022590D01*
X0104455Y0022686D01*
X0104469Y0022782D01*
X0104487Y0022878D01*
X0104508Y0022972D01*
X0104534Y0023066D01*
X0104563Y0023158D01*
X0104597Y0023249D01*
X0104633Y0023339D01*
X0104674Y0023427D01*
X0104718Y0023513D01*
X0104766Y0023598D01*
X0104817Y0023680D01*
X0104871Y0023761D01*
X0104929Y0023839D01*
X0104990Y0023914D01*
X0105053Y0023987D01*
X0105120Y0024058D01*
X0105190Y0024125D01*
X0105262Y0024190D01*
X0105337Y0024251D01*
X0105415Y0024310D01*
X0105494Y0024365D01*
X0105576Y0024417D01*
X0105660Y0024465D01*
X0105746Y0024510D01*
X0105834Y0024552D01*
X0105923Y0024590D01*
X0106014Y0024624D01*
X0106106Y0024654D01*
X0106199Y0024681D01*
X0106294Y0024703D01*
X0106389Y0024722D01*
X0106485Y0024737D01*
X0106581Y0024748D01*
X0106678Y0024755D01*
X0106775Y0024758D01*
X0106872Y0024757D01*
X0106969Y0024752D01*
X0107065Y0024743D01*
X0107161Y0024730D01*
X0107257Y0024713D01*
X0107352Y0024692D01*
X0107445Y0024668D01*
X0107538Y0024639D01*
X0107630Y0024607D01*
X0107720Y0024571D01*
X0107808Y0024532D01*
X0107895Y0024488D01*
X0107980Y0024442D01*
X0108063Y0024391D01*
X0108144Y0024338D01*
X0108222Y0024281D01*
X0108299Y0024221D01*
X0108372Y0024158D01*
X0108443Y0024092D01*
X0108511Y0024023D01*
X0108577Y0023951D01*
X0108639Y0023877D01*
X0108698Y0023800D01*
X0108754Y0023721D01*
X0108807Y0023639D01*
X0108857Y0023556D01*
X0108902Y0023470D01*
X0108945Y0023383D01*
X0108984Y0023294D01*
X0109019Y0023204D01*
X0109050Y0023112D01*
X0109077Y0023019D01*
X0109101Y0022925D01*
X0109121Y0022830D01*
X0109137Y0022734D01*
X0109149Y0022638D01*
X0109157Y0022541D01*
X0109161Y0022444D01*
X0109161Y0022348D01*
X0109157Y0022251D01*
X0109149Y0022154D01*
X0109137Y0022058D01*
X0109121Y0021962D01*
X0109101Y0021867D01*
X0109077Y0021773D01*
X0109050Y0021680D01*
X0109019Y0021588D01*
X0108984Y0021498D01*
X0108945Y0021409D01*
X0108902Y0021322D01*
X0108857Y0021236D01*
X0108807Y0021153D01*
X0108754Y0021071D01*
X0108698Y0020992D01*
X0108639Y0020915D01*
X0108577Y0020841D01*
X0108511Y0020769D01*
X0108443Y0020700D01*
X0108372Y0020634D01*
X0108299Y0020571D01*
X0108222Y0020511D01*
X0108144Y0020454D01*
X0108063Y0020401D01*
X0107980Y0020350D01*
X0107895Y0020304D01*
X0107808Y0020260D01*
X0107720Y0020221D01*
X0107630Y0020185D01*
X0107538Y0020153D01*
X0107445Y0020124D01*
X0107352Y0020100D01*
X0107257Y0020079D01*
X0107161Y0020062D01*
X0107065Y0020049D01*
X0106969Y0020040D01*
X0106872Y0020035D01*
X0106775Y0020034D01*
X0106678Y0020037D01*
X0106581Y0020044D01*
X0106485Y0020055D01*
X0106389Y0020070D01*
X0106294Y0020089D01*
X0106199Y0020111D01*
X0106106Y0020138D01*
X0106014Y0020168D01*
X0105923Y0020202D01*
X0105834Y0020240D01*
X0105746Y0020282D01*
X0105660Y0020327D01*
X0105576Y0020375D01*
X0105494Y0020427D01*
X0105415Y0020482D01*
X0105337Y0020541D01*
X0105262Y0020602D01*
X0105190Y0020667D01*
X0105120Y0020734D01*
X0105053Y0020805D01*
X0104990Y0020878D01*
X0104929Y0020953D01*
X0104871Y0021031D01*
X0104817Y0021112D01*
X0104766Y0021194D01*
X0104718Y0021279D01*
X0104674Y0021365D01*
X0104633Y0021453D01*
X0104597Y0021543D01*
X0104563Y0021634D01*
X0104534Y0021726D01*
X0104508Y0021820D01*
X0104487Y0021914D01*
X0104469Y0022010D01*
X0104455Y0022106D01*
X0104445Y0022202D01*
X0104439Y0022299D01*
X0104437Y0022396D01*
X0098534Y0037685D02*
X0098489Y0037921D01*
X0098438Y0038156D01*
X0098381Y0038389D01*
X0098318Y0038622D01*
X0098250Y0038852D01*
X0098176Y0039081D01*
X0098096Y0039308D01*
X0098011Y0039533D01*
X0097921Y0039756D01*
X0097825Y0039976D01*
X0097724Y0040195D01*
X0097617Y0040410D01*
X0097505Y0040623D01*
X0097388Y0040833D01*
X0097266Y0041040D01*
X0097139Y0041245D01*
X0097007Y0041446D01*
X0096870Y0041643D01*
X0096728Y0041838D01*
X0096582Y0042028D01*
X0096431Y0042215D01*
X0096275Y0042399D01*
X0096115Y0042578D01*
X0095951Y0042754D01*
X0095782Y0042926D01*
X0095610Y0043093D01*
X0095433Y0043256D01*
X0095252Y0043415D01*
X0095068Y0043569D01*
X0094880Y0043719D01*
X0094688Y0043864D01*
X0094492Y0044004D01*
X0094294Y0044140D01*
X0094092Y0044270D01*
X0093887Y0044396D01*
X0093679Y0044516D01*
X0093468Y0044632D01*
X0093254Y0044742D01*
X0093038Y0044847D01*
X0092819Y0044947D01*
X0092598Y0045041D01*
X0092374Y0045130D01*
X0092149Y0045214D01*
X0091921Y0045292D01*
X0091692Y0045364D01*
X0091461Y0045431D01*
X0091228Y0045492D01*
X0090994Y0045547D01*
X0090759Y0045597D01*
X0090522Y0045640D01*
X0090285Y0045678D01*
X0090046Y0045711D01*
X0089807Y0045737D01*
X0089568Y0045758D01*
X0089328Y0045772D01*
X0089087Y0045781D01*
X0088847Y0045784D01*
X0046288Y0045784D01*
X0042351Y0055626D02*
X0042353Y0055751D01*
X0042359Y0055876D01*
X0042369Y0056000D01*
X0042383Y0056124D01*
X0042400Y0056248D01*
X0042422Y0056371D01*
X0042448Y0056493D01*
X0042477Y0056615D01*
X0042510Y0056735D01*
X0042548Y0056854D01*
X0042588Y0056973D01*
X0042633Y0057089D01*
X0042681Y0057204D01*
X0042733Y0057318D01*
X0042789Y0057430D01*
X0042848Y0057540D01*
X0042910Y0057648D01*
X0042976Y0057755D01*
X0043045Y0057859D01*
X0043118Y0057960D01*
X0043193Y0058060D01*
X0043272Y0058157D01*
X0043354Y0058251D01*
X0043439Y0058343D01*
X0043526Y0058432D01*
X0043617Y0058518D01*
X0043710Y0058601D01*
X0043806Y0058682D01*
X0043904Y0058759D01*
X0044004Y0058833D01*
X0044107Y0058904D01*
X0044212Y0058971D01*
X0044320Y0059036D01*
X0044429Y0059096D01*
X0044540Y0059154D01*
X0044653Y0059207D01*
X0044767Y0059257D01*
X0044883Y0059304D01*
X0045000Y0059346D01*
X0045119Y0059385D01*
X0045239Y0059421D01*
X0045360Y0059452D01*
X0045482Y0059480D01*
X0045604Y0059503D01*
X0045728Y0059523D01*
X0045852Y0059539D01*
X0045976Y0059551D01*
X0046101Y0059559D01*
X0046226Y0059563D01*
X0046350Y0059563D01*
X0046475Y0059559D01*
X0046600Y0059551D01*
X0046724Y0059539D01*
X0046848Y0059523D01*
X0046972Y0059503D01*
X0047094Y0059480D01*
X0047216Y0059452D01*
X0047337Y0059421D01*
X0047457Y0059385D01*
X0047576Y0059346D01*
X0047693Y0059304D01*
X0047809Y0059257D01*
X0047923Y0059207D01*
X0048036Y0059154D01*
X0048147Y0059096D01*
X0048257Y0059036D01*
X0048364Y0058971D01*
X0048469Y0058904D01*
X0048572Y0058833D01*
X0048672Y0058759D01*
X0048770Y0058682D01*
X0048866Y0058601D01*
X0048959Y0058518D01*
X0049050Y0058432D01*
X0049137Y0058343D01*
X0049222Y0058251D01*
X0049304Y0058157D01*
X0049383Y0058060D01*
X0049458Y0057960D01*
X0049531Y0057859D01*
X0049600Y0057755D01*
X0049666Y0057648D01*
X0049728Y0057540D01*
X0049787Y0057430D01*
X0049843Y0057318D01*
X0049895Y0057204D01*
X0049943Y0057089D01*
X0049988Y0056973D01*
X0050028Y0056854D01*
X0050066Y0056735D01*
X0050099Y0056615D01*
X0050128Y0056493D01*
X0050154Y0056371D01*
X0050176Y0056248D01*
X0050193Y0056124D01*
X0050207Y0056000D01*
X0050217Y0055876D01*
X0050223Y0055751D01*
X0050225Y0055626D01*
X0050223Y0055501D01*
X0050217Y0055376D01*
X0050207Y0055252D01*
X0050193Y0055128D01*
X0050176Y0055004D01*
X0050154Y0054881D01*
X0050128Y0054759D01*
X0050099Y0054637D01*
X0050066Y0054517D01*
X0050028Y0054398D01*
X0049988Y0054279D01*
X0049943Y0054163D01*
X0049895Y0054048D01*
X0049843Y0053934D01*
X0049787Y0053822D01*
X0049728Y0053712D01*
X0049666Y0053604D01*
X0049600Y0053497D01*
X0049531Y0053393D01*
X0049458Y0053292D01*
X0049383Y0053192D01*
X0049304Y0053095D01*
X0049222Y0053001D01*
X0049137Y0052909D01*
X0049050Y0052820D01*
X0048959Y0052734D01*
X0048866Y0052651D01*
X0048770Y0052570D01*
X0048672Y0052493D01*
X0048572Y0052419D01*
X0048469Y0052348D01*
X0048364Y0052281D01*
X0048256Y0052216D01*
X0048147Y0052156D01*
X0048036Y0052098D01*
X0047923Y0052045D01*
X0047809Y0051995D01*
X0047693Y0051948D01*
X0047576Y0051906D01*
X0047457Y0051867D01*
X0047337Y0051831D01*
X0047216Y0051800D01*
X0047094Y0051772D01*
X0046972Y0051749D01*
X0046848Y0051729D01*
X0046724Y0051713D01*
X0046600Y0051701D01*
X0046475Y0051693D01*
X0046350Y0051689D01*
X0046226Y0051689D01*
X0046101Y0051693D01*
X0045976Y0051701D01*
X0045852Y0051713D01*
X0045728Y0051729D01*
X0045604Y0051749D01*
X0045482Y0051772D01*
X0045360Y0051800D01*
X0045239Y0051831D01*
X0045119Y0051867D01*
X0045000Y0051906D01*
X0044883Y0051948D01*
X0044767Y0051995D01*
X0044653Y0052045D01*
X0044540Y0052098D01*
X0044429Y0052156D01*
X0044319Y0052216D01*
X0044212Y0052281D01*
X0044107Y0052348D01*
X0044004Y0052419D01*
X0043904Y0052493D01*
X0043806Y0052570D01*
X0043710Y0052651D01*
X0043617Y0052734D01*
X0043526Y0052820D01*
X0043439Y0052909D01*
X0043354Y0053001D01*
X0043272Y0053095D01*
X0043193Y0053192D01*
X0043118Y0053292D01*
X0043045Y0053393D01*
X0042976Y0053497D01*
X0042910Y0053604D01*
X0042848Y0053712D01*
X0042789Y0053822D01*
X0042733Y0053934D01*
X0042681Y0054048D01*
X0042633Y0054163D01*
X0042588Y0054279D01*
X0042548Y0054398D01*
X0042510Y0054517D01*
X0042477Y0054637D01*
X0042448Y0054759D01*
X0042422Y0054881D01*
X0042400Y0055004D01*
X0042383Y0055128D01*
X0042369Y0055252D01*
X0042359Y0055376D01*
X0042353Y0055501D01*
X0042351Y0055626D01*
X0036445Y0055626D02*
X0036448Y0055388D01*
X0036456Y0055150D01*
X0036471Y0054913D01*
X0036491Y0054676D01*
X0036517Y0054440D01*
X0036548Y0054204D01*
X0036585Y0053969D01*
X0036628Y0053735D01*
X0036677Y0053502D01*
X0036731Y0053270D01*
X0036791Y0053040D01*
X0036856Y0052811D01*
X0036927Y0052584D01*
X0037003Y0052359D01*
X0037085Y0052136D01*
X0037172Y0051914D01*
X0037264Y0051695D01*
X0037362Y0051478D01*
X0037464Y0051264D01*
X0037572Y0051052D01*
X0037686Y0050842D01*
X0037804Y0050636D01*
X0037927Y0050432D01*
X0038055Y0050232D01*
X0038187Y0050035D01*
X0038325Y0049840D01*
X0038467Y0049650D01*
X0038614Y0049462D01*
X0038765Y0049279D01*
X0038920Y0049099D01*
X0039080Y0048923D01*
X0039244Y0048751D01*
X0039413Y0048582D01*
X0039585Y0048418D01*
X0039761Y0048258D01*
X0039941Y0048103D01*
X0040124Y0047952D01*
X0040312Y0047805D01*
X0040502Y0047663D01*
X0040697Y0047525D01*
X0040894Y0047393D01*
X0041094Y0047265D01*
X0041298Y0047142D01*
X0041504Y0047024D01*
X0041714Y0046910D01*
X0041926Y0046802D01*
X0042140Y0046700D01*
X0042357Y0046602D01*
X0042576Y0046510D01*
X0042798Y0046423D01*
X0043021Y0046341D01*
X0043246Y0046265D01*
X0043473Y0046194D01*
X0043702Y0046129D01*
X0043932Y0046069D01*
X0044164Y0046015D01*
X0044397Y0045966D01*
X0044631Y0045923D01*
X0044866Y0045886D01*
X0045102Y0045855D01*
X0045338Y0045829D01*
X0045575Y0045809D01*
X0045812Y0045794D01*
X0046050Y0045786D01*
X0046288Y0045783D01*
X0080146Y0140272D02*
X0080148Y0140420D01*
X0080154Y0140568D01*
X0080164Y0140716D01*
X0080178Y0140863D01*
X0080196Y0141010D01*
X0080217Y0141156D01*
X0080243Y0141302D01*
X0080273Y0141447D01*
X0080306Y0141591D01*
X0080344Y0141734D01*
X0080385Y0141876D01*
X0080430Y0142017D01*
X0080478Y0142157D01*
X0080531Y0142296D01*
X0080587Y0142433D01*
X0080647Y0142568D01*
X0080710Y0142702D01*
X0080777Y0142834D01*
X0080848Y0142964D01*
X0080922Y0143092D01*
X0080999Y0143218D01*
X0081080Y0143342D01*
X0081164Y0143464D01*
X0081251Y0143583D01*
X0081342Y0143700D01*
X0081436Y0143815D01*
X0081532Y0143927D01*
X0081632Y0144037D01*
X0081734Y0144143D01*
X0081840Y0144247D01*
X0081948Y0144348D01*
X0082059Y0144446D01*
X0082172Y0144542D01*
X0082288Y0144634D01*
X0082406Y0144723D01*
X0082527Y0144808D01*
X0082650Y0144891D01*
X0082775Y0144970D01*
X0082902Y0145046D01*
X0083031Y0145118D01*
X0083162Y0145187D01*
X0083295Y0145252D01*
X0083430Y0145313D01*
X0083566Y0145371D01*
X0083703Y0145426D01*
X0083842Y0145476D01*
X0083983Y0145523D01*
X0084124Y0145566D01*
X0084267Y0145606D01*
X0084411Y0145641D01*
X0084555Y0145673D01*
X0084701Y0145700D01*
X0084847Y0145724D01*
X0084994Y0145744D01*
X0085141Y0145760D01*
X0085288Y0145772D01*
X0085436Y0145780D01*
X0085584Y0145784D01*
X0085732Y0145784D01*
X0085880Y0145780D01*
X0086028Y0145772D01*
X0086175Y0145760D01*
X0086322Y0145744D01*
X0086469Y0145724D01*
X0086615Y0145700D01*
X0086761Y0145673D01*
X0086905Y0145641D01*
X0087049Y0145606D01*
X0087192Y0145566D01*
X0087333Y0145523D01*
X0087474Y0145476D01*
X0087613Y0145426D01*
X0087750Y0145371D01*
X0087886Y0145313D01*
X0088021Y0145252D01*
X0088154Y0145187D01*
X0088285Y0145118D01*
X0088414Y0145046D01*
X0088541Y0144970D01*
X0088666Y0144891D01*
X0088789Y0144808D01*
X0088910Y0144723D01*
X0089028Y0144634D01*
X0089144Y0144542D01*
X0089257Y0144446D01*
X0089368Y0144348D01*
X0089476Y0144247D01*
X0089582Y0144143D01*
X0089684Y0144037D01*
X0089784Y0143927D01*
X0089880Y0143815D01*
X0089974Y0143700D01*
X0090065Y0143583D01*
X0090152Y0143464D01*
X0090236Y0143342D01*
X0090317Y0143218D01*
X0090394Y0143092D01*
X0090468Y0142964D01*
X0090539Y0142834D01*
X0090606Y0142702D01*
X0090669Y0142568D01*
X0090729Y0142433D01*
X0090785Y0142296D01*
X0090838Y0142157D01*
X0090886Y0142017D01*
X0090931Y0141876D01*
X0090972Y0141734D01*
X0091010Y0141591D01*
X0091043Y0141447D01*
X0091073Y0141302D01*
X0091099Y0141156D01*
X0091120Y0141010D01*
X0091138Y0140863D01*
X0091152Y0140716D01*
X0091162Y0140568D01*
X0091168Y0140420D01*
X0091170Y0140272D01*
X0091168Y0140124D01*
X0091162Y0139976D01*
X0091152Y0139828D01*
X0091138Y0139681D01*
X0091120Y0139534D01*
X0091099Y0139388D01*
X0091073Y0139242D01*
X0091043Y0139097D01*
X0091010Y0138953D01*
X0090972Y0138810D01*
X0090931Y0138668D01*
X0090886Y0138527D01*
X0090838Y0138387D01*
X0090785Y0138248D01*
X0090729Y0138111D01*
X0090669Y0137976D01*
X0090606Y0137842D01*
X0090539Y0137710D01*
X0090468Y0137580D01*
X0090394Y0137452D01*
X0090317Y0137326D01*
X0090236Y0137202D01*
X0090152Y0137080D01*
X0090065Y0136961D01*
X0089974Y0136844D01*
X0089880Y0136729D01*
X0089784Y0136617D01*
X0089684Y0136507D01*
X0089582Y0136401D01*
X0089476Y0136297D01*
X0089368Y0136196D01*
X0089257Y0136098D01*
X0089144Y0136002D01*
X0089028Y0135910D01*
X0088910Y0135821D01*
X0088789Y0135736D01*
X0088666Y0135653D01*
X0088541Y0135574D01*
X0088414Y0135498D01*
X0088285Y0135426D01*
X0088154Y0135357D01*
X0088021Y0135292D01*
X0087886Y0135231D01*
X0087750Y0135173D01*
X0087613Y0135118D01*
X0087474Y0135068D01*
X0087333Y0135021D01*
X0087192Y0134978D01*
X0087049Y0134938D01*
X0086905Y0134903D01*
X0086761Y0134871D01*
X0086615Y0134844D01*
X0086469Y0134820D01*
X0086322Y0134800D01*
X0086175Y0134784D01*
X0086028Y0134772D01*
X0085880Y0134764D01*
X0085732Y0134760D01*
X0085584Y0134760D01*
X0085436Y0134764D01*
X0085288Y0134772D01*
X0085141Y0134784D01*
X0084994Y0134800D01*
X0084847Y0134820D01*
X0084701Y0134844D01*
X0084555Y0134871D01*
X0084411Y0134903D01*
X0084267Y0134938D01*
X0084124Y0134978D01*
X0083983Y0135021D01*
X0083842Y0135068D01*
X0083703Y0135118D01*
X0083566Y0135173D01*
X0083430Y0135231D01*
X0083295Y0135292D01*
X0083162Y0135357D01*
X0083031Y0135426D01*
X0082902Y0135498D01*
X0082775Y0135574D01*
X0082650Y0135653D01*
X0082527Y0135736D01*
X0082406Y0135821D01*
X0082288Y0135910D01*
X0082172Y0136002D01*
X0082059Y0136098D01*
X0081948Y0136196D01*
X0081840Y0136297D01*
X0081734Y0136401D01*
X0081632Y0136507D01*
X0081532Y0136617D01*
X0081436Y0136729D01*
X0081342Y0136844D01*
X0081251Y0136961D01*
X0081164Y0137080D01*
X0081080Y0137202D01*
X0080999Y0137326D01*
X0080922Y0137452D01*
X0080848Y0137580D01*
X0080777Y0137710D01*
X0080710Y0137842D01*
X0080647Y0137976D01*
X0080587Y0138111D01*
X0080531Y0138248D01*
X0080478Y0138387D01*
X0080430Y0138527D01*
X0080385Y0138668D01*
X0080344Y0138810D01*
X0080306Y0138953D01*
X0080273Y0139097D01*
X0080243Y0139242D01*
X0080217Y0139388D01*
X0080196Y0139534D01*
X0080178Y0139681D01*
X0080164Y0139828D01*
X0080154Y0139976D01*
X0080148Y0140124D01*
X0080146Y0140272D01*
X0036446Y0230683D02*
X0036443Y0230917D01*
X0036435Y0231151D01*
X0036421Y0231385D01*
X0036401Y0231619D01*
X0036376Y0231852D01*
X0036346Y0232084D01*
X0036310Y0232315D01*
X0036268Y0232546D01*
X0036221Y0232775D01*
X0036169Y0233004D01*
X0036111Y0233231D01*
X0036047Y0233456D01*
X0035979Y0233680D01*
X0035905Y0233902D01*
X0035825Y0234123D01*
X0035741Y0234341D01*
X0035651Y0234558D01*
X0035557Y0234772D01*
X0035457Y0234984D01*
X0035352Y0235193D01*
X0035242Y0235400D01*
X0035127Y0235605D01*
X0035008Y0235806D01*
X0034883Y0236005D01*
X0034754Y0236200D01*
X0034621Y0236393D01*
X0034483Y0236582D01*
X0034340Y0236768D01*
X0034193Y0236950D01*
X0034042Y0237129D01*
X0033886Y0237304D01*
X0033727Y0237475D01*
X0033563Y0237643D01*
X0101406Y0343028D02*
X0101406Y0376492D01*
X0101400Y0376968D01*
X0101383Y0377443D01*
X0101354Y0377918D01*
X0101314Y0378392D01*
X0101262Y0378865D01*
X0101199Y0379336D01*
X0101125Y0379806D01*
X0101039Y0380274D01*
X0100942Y0380740D01*
X0100834Y0381203D01*
X0100715Y0381663D01*
X0100584Y0382121D01*
X0100443Y0382575D01*
X0100290Y0383026D01*
X0100127Y0383472D01*
X0099953Y0383915D01*
X0099768Y0384353D01*
X0099573Y0384787D01*
X0099367Y0385216D01*
X0099151Y0385640D01*
X0098925Y0386059D01*
X0098689Y0386472D01*
X0098443Y0386879D01*
X0098187Y0387280D01*
X0097921Y0387674D01*
X0097646Y0388063D01*
X0097362Y0388444D01*
X0097069Y0388818D01*
X0096767Y0389186D01*
X0096455Y0389546D01*
X0096136Y0389898D01*
X0095808Y0390242D01*
X0095471Y0390579D01*
X0095127Y0390907D01*
X0094775Y0391226D01*
X0094415Y0391538D01*
X0094047Y0391840D01*
X0093673Y0392133D01*
X0093292Y0392417D01*
X0092903Y0392692D01*
X0092509Y0392958D01*
X0092108Y0393214D01*
X0091701Y0393460D01*
X0091288Y0393696D01*
X0090869Y0393922D01*
X0090445Y0394138D01*
X0090016Y0394344D01*
X0089582Y0394539D01*
X0089144Y0394724D01*
X0088701Y0394898D01*
X0088255Y0395061D01*
X0087804Y0395214D01*
X0087350Y0395355D01*
X0086892Y0395486D01*
X0086432Y0395605D01*
X0085969Y0395713D01*
X0085503Y0395810D01*
X0085035Y0395896D01*
X0084565Y0395970D01*
X0084094Y0396033D01*
X0083621Y0396085D01*
X0083147Y0396125D01*
X0082672Y0396154D01*
X0082197Y0396171D01*
X0081721Y0396177D01*
X0079753Y0396177D01*
X0079277Y0396171D01*
X0078802Y0396154D01*
X0078327Y0396125D01*
X0077853Y0396085D01*
X0077380Y0396033D01*
X0076909Y0395970D01*
X0076439Y0395896D01*
X0075971Y0395810D01*
X0075505Y0395713D01*
X0075042Y0395605D01*
X0074582Y0395486D01*
X0074124Y0395355D01*
X0073670Y0395214D01*
X0073219Y0395061D01*
X0072773Y0394898D01*
X0072330Y0394724D01*
X0071892Y0394539D01*
X0071458Y0394344D01*
X0071029Y0394138D01*
X0070605Y0393922D01*
X0070186Y0393696D01*
X0069773Y0393460D01*
X0069366Y0393214D01*
X0068965Y0392958D01*
X0068571Y0392692D01*
X0068182Y0392417D01*
X0067801Y0392133D01*
X0067427Y0391840D01*
X0067059Y0391538D01*
X0066699Y0391226D01*
X0066347Y0390907D01*
X0066003Y0390579D01*
X0065666Y0390242D01*
X0065338Y0389898D01*
X0065019Y0389546D01*
X0064707Y0389186D01*
X0064405Y0388818D01*
X0064112Y0388444D01*
X0063828Y0388063D01*
X0063553Y0387674D01*
X0063287Y0387280D01*
X0063031Y0386879D01*
X0062785Y0386472D01*
X0062549Y0386059D01*
X0062323Y0385640D01*
X0062107Y0385216D01*
X0061901Y0384787D01*
X0061706Y0384353D01*
X0061521Y0383915D01*
X0061347Y0383472D01*
X0061184Y0383026D01*
X0061031Y0382575D01*
X0060890Y0382121D01*
X0060759Y0381663D01*
X0060640Y0381203D01*
X0060532Y0380740D01*
X0060435Y0380274D01*
X0060349Y0379806D01*
X0060275Y0379336D01*
X0060212Y0378865D01*
X0060160Y0378392D01*
X0060120Y0377918D01*
X0060091Y0377443D01*
X0060074Y0376968D01*
X0060068Y0376492D01*
X0060068Y0372555D01*
X0076209Y0376492D02*
X0076211Y0376640D01*
X0076217Y0376788D01*
X0076227Y0376936D01*
X0076241Y0377083D01*
X0076259Y0377230D01*
X0076280Y0377376D01*
X0076306Y0377522D01*
X0076336Y0377667D01*
X0076369Y0377811D01*
X0076407Y0377954D01*
X0076448Y0378096D01*
X0076493Y0378237D01*
X0076541Y0378377D01*
X0076594Y0378516D01*
X0076650Y0378653D01*
X0076710Y0378788D01*
X0076773Y0378922D01*
X0076840Y0379054D01*
X0076911Y0379184D01*
X0076985Y0379312D01*
X0077062Y0379438D01*
X0077143Y0379562D01*
X0077227Y0379684D01*
X0077314Y0379803D01*
X0077405Y0379920D01*
X0077499Y0380035D01*
X0077595Y0380147D01*
X0077695Y0380257D01*
X0077797Y0380363D01*
X0077903Y0380467D01*
X0078011Y0380568D01*
X0078122Y0380666D01*
X0078235Y0380762D01*
X0078351Y0380854D01*
X0078469Y0380943D01*
X0078590Y0381028D01*
X0078713Y0381111D01*
X0078838Y0381190D01*
X0078965Y0381266D01*
X0079094Y0381338D01*
X0079225Y0381407D01*
X0079358Y0381472D01*
X0079493Y0381533D01*
X0079629Y0381591D01*
X0079766Y0381646D01*
X0079905Y0381696D01*
X0080046Y0381743D01*
X0080187Y0381786D01*
X0080330Y0381826D01*
X0080474Y0381861D01*
X0080618Y0381893D01*
X0080764Y0381920D01*
X0080910Y0381944D01*
X0081057Y0381964D01*
X0081204Y0381980D01*
X0081351Y0381992D01*
X0081499Y0382000D01*
X0081647Y0382004D01*
X0081795Y0382004D01*
X0081943Y0382000D01*
X0082091Y0381992D01*
X0082238Y0381980D01*
X0082385Y0381964D01*
X0082532Y0381944D01*
X0082678Y0381920D01*
X0082824Y0381893D01*
X0082968Y0381861D01*
X0083112Y0381826D01*
X0083255Y0381786D01*
X0083396Y0381743D01*
X0083537Y0381696D01*
X0083676Y0381646D01*
X0083813Y0381591D01*
X0083949Y0381533D01*
X0084084Y0381472D01*
X0084217Y0381407D01*
X0084348Y0381338D01*
X0084477Y0381266D01*
X0084604Y0381190D01*
X0084729Y0381111D01*
X0084852Y0381028D01*
X0084973Y0380943D01*
X0085091Y0380854D01*
X0085207Y0380762D01*
X0085320Y0380666D01*
X0085431Y0380568D01*
X0085539Y0380467D01*
X0085645Y0380363D01*
X0085747Y0380257D01*
X0085847Y0380147D01*
X0085943Y0380035D01*
X0086037Y0379920D01*
X0086128Y0379803D01*
X0086215Y0379684D01*
X0086299Y0379562D01*
X0086380Y0379438D01*
X0086457Y0379312D01*
X0086531Y0379184D01*
X0086602Y0379054D01*
X0086669Y0378922D01*
X0086732Y0378788D01*
X0086792Y0378653D01*
X0086848Y0378516D01*
X0086901Y0378377D01*
X0086949Y0378237D01*
X0086994Y0378096D01*
X0087035Y0377954D01*
X0087073Y0377811D01*
X0087106Y0377667D01*
X0087136Y0377522D01*
X0087162Y0377376D01*
X0087183Y0377230D01*
X0087201Y0377083D01*
X0087215Y0376936D01*
X0087225Y0376788D01*
X0087231Y0376640D01*
X0087233Y0376492D01*
X0087231Y0376344D01*
X0087225Y0376196D01*
X0087215Y0376048D01*
X0087201Y0375901D01*
X0087183Y0375754D01*
X0087162Y0375608D01*
X0087136Y0375462D01*
X0087106Y0375317D01*
X0087073Y0375173D01*
X0087035Y0375030D01*
X0086994Y0374888D01*
X0086949Y0374747D01*
X0086901Y0374607D01*
X0086848Y0374468D01*
X0086792Y0374331D01*
X0086732Y0374196D01*
X0086669Y0374062D01*
X0086602Y0373930D01*
X0086531Y0373800D01*
X0086457Y0373672D01*
X0086380Y0373546D01*
X0086299Y0373422D01*
X0086215Y0373300D01*
X0086128Y0373181D01*
X0086037Y0373064D01*
X0085943Y0372949D01*
X0085847Y0372837D01*
X0085747Y0372727D01*
X0085645Y0372621D01*
X0085539Y0372517D01*
X0085431Y0372416D01*
X0085320Y0372318D01*
X0085207Y0372222D01*
X0085091Y0372130D01*
X0084973Y0372041D01*
X0084852Y0371956D01*
X0084729Y0371873D01*
X0084604Y0371794D01*
X0084477Y0371718D01*
X0084348Y0371646D01*
X0084217Y0371577D01*
X0084084Y0371512D01*
X0083949Y0371451D01*
X0083813Y0371393D01*
X0083676Y0371338D01*
X0083537Y0371288D01*
X0083396Y0371241D01*
X0083255Y0371198D01*
X0083112Y0371158D01*
X0082968Y0371123D01*
X0082824Y0371091D01*
X0082678Y0371064D01*
X0082532Y0371040D01*
X0082385Y0371020D01*
X0082238Y0371004D01*
X0082091Y0370992D01*
X0081943Y0370984D01*
X0081795Y0370980D01*
X0081647Y0370980D01*
X0081499Y0370984D01*
X0081351Y0370992D01*
X0081204Y0371004D01*
X0081057Y0371020D01*
X0080910Y0371040D01*
X0080764Y0371064D01*
X0080618Y0371091D01*
X0080474Y0371123D01*
X0080330Y0371158D01*
X0080187Y0371198D01*
X0080046Y0371241D01*
X0079905Y0371288D01*
X0079766Y0371338D01*
X0079629Y0371393D01*
X0079493Y0371451D01*
X0079358Y0371512D01*
X0079225Y0371577D01*
X0079094Y0371646D01*
X0078965Y0371718D01*
X0078838Y0371794D01*
X0078713Y0371873D01*
X0078590Y0371956D01*
X0078469Y0372041D01*
X0078351Y0372130D01*
X0078235Y0372222D01*
X0078122Y0372318D01*
X0078011Y0372416D01*
X0077903Y0372517D01*
X0077797Y0372621D01*
X0077695Y0372727D01*
X0077595Y0372837D01*
X0077499Y0372949D01*
X0077405Y0373064D01*
X0077314Y0373181D01*
X0077227Y0373300D01*
X0077143Y0373422D01*
X0077062Y0373546D01*
X0076985Y0373672D01*
X0076911Y0373800D01*
X0076840Y0373930D01*
X0076773Y0374062D01*
X0076710Y0374196D01*
X0076650Y0374331D01*
X0076594Y0374468D01*
X0076541Y0374607D01*
X0076493Y0374747D01*
X0076448Y0374888D01*
X0076407Y0375030D01*
X0076369Y0375173D01*
X0076336Y0375317D01*
X0076306Y0375462D01*
X0076280Y0375608D01*
X0076259Y0375754D01*
X0076241Y0375901D01*
X0076227Y0376048D01*
X0076217Y0376196D01*
X0076211Y0376344D01*
X0076209Y0376492D01*
X0101406Y0343028D02*
X0101409Y0342790D01*
X0101417Y0342552D01*
X0101432Y0342315D01*
X0101452Y0342078D01*
X0101478Y0341842D01*
X0101509Y0341606D01*
X0101546Y0341371D01*
X0101589Y0341137D01*
X0101638Y0340904D01*
X0101692Y0340672D01*
X0101752Y0340442D01*
X0101817Y0340213D01*
X0101888Y0339986D01*
X0101964Y0339761D01*
X0102046Y0339538D01*
X0102133Y0339316D01*
X0102225Y0339097D01*
X0102323Y0338880D01*
X0102425Y0338666D01*
X0102533Y0338454D01*
X0102647Y0338244D01*
X0102765Y0338038D01*
X0102888Y0337834D01*
X0103016Y0337634D01*
X0103148Y0337437D01*
X0103286Y0337242D01*
X0103428Y0337052D01*
X0103575Y0336864D01*
X0103726Y0336681D01*
X0103881Y0336501D01*
X0104041Y0336325D01*
X0104205Y0336153D01*
X0104374Y0335984D01*
X0104546Y0335820D01*
X0104722Y0335660D01*
X0104902Y0335505D01*
X0105085Y0335354D01*
X0105273Y0335207D01*
X0105463Y0335065D01*
X0105658Y0334927D01*
X0105855Y0334795D01*
X0106055Y0334667D01*
X0106259Y0334544D01*
X0106465Y0334426D01*
X0106675Y0334312D01*
X0106887Y0334204D01*
X0107101Y0334102D01*
X0107318Y0334004D01*
X0107537Y0333912D01*
X0107759Y0333825D01*
X0107982Y0333743D01*
X0108207Y0333667D01*
X0108434Y0333596D01*
X0108663Y0333531D01*
X0108893Y0333471D01*
X0109125Y0333417D01*
X0109358Y0333368D01*
X0109592Y0333325D01*
X0109827Y0333288D01*
X0110063Y0333257D01*
X0110299Y0333231D01*
X0110536Y0333211D01*
X0110773Y0333196D01*
X0111011Y0333188D01*
X0111249Y0333185D01*
X0140776Y0333185D01*
X0140900Y0333187D01*
X0141023Y0333193D01*
X0141147Y0333202D01*
X0141269Y0333216D01*
X0141392Y0333233D01*
X0141514Y0333255D01*
X0141635Y0333280D01*
X0141755Y0333309D01*
X0141874Y0333341D01*
X0141993Y0333378D01*
X0142110Y0333418D01*
X0142225Y0333461D01*
X0142340Y0333509D01*
X0142452Y0333560D01*
X0142563Y0333614D01*
X0142673Y0333672D01*
X0142780Y0333733D01*
X0142886Y0333798D01*
X0142989Y0333866D01*
X0143090Y0333937D01*
X0143189Y0334011D01*
X0143286Y0334088D01*
X0143380Y0334169D01*
X0143471Y0334252D01*
X0143560Y0334338D01*
X0143646Y0334427D01*
X0143729Y0334518D01*
X0143810Y0334612D01*
X0143887Y0334709D01*
X0143961Y0334808D01*
X0144032Y0334909D01*
X0144100Y0335012D01*
X0144165Y0335118D01*
X0144226Y0335225D01*
X0144284Y0335335D01*
X0144338Y0335446D01*
X0144389Y0335558D01*
X0144437Y0335673D01*
X0144480Y0335788D01*
X0144520Y0335905D01*
X0144557Y0336024D01*
X0144589Y0336143D01*
X0144618Y0336263D01*
X0144643Y0336384D01*
X0144665Y0336506D01*
X0144682Y0336629D01*
X0144696Y0336751D01*
X0144705Y0336875D01*
X0144711Y0336998D01*
X0144713Y0337122D01*
X0144713Y0392240D01*
X0144715Y0392364D01*
X0144721Y0392487D01*
X0144730Y0392611D01*
X0144744Y0392733D01*
X0144761Y0392856D01*
X0144783Y0392978D01*
X0144808Y0393099D01*
X0144837Y0393219D01*
X0144869Y0393338D01*
X0144906Y0393457D01*
X0144946Y0393574D01*
X0144989Y0393689D01*
X0145037Y0393804D01*
X0145088Y0393916D01*
X0145142Y0394027D01*
X0145200Y0394137D01*
X0145261Y0394244D01*
X0145326Y0394350D01*
X0145394Y0394453D01*
X0145465Y0394554D01*
X0145539Y0394653D01*
X0145616Y0394750D01*
X0145697Y0394844D01*
X0145780Y0394935D01*
X0145866Y0395024D01*
X0145955Y0395110D01*
X0146046Y0395193D01*
X0146140Y0395274D01*
X0146237Y0395351D01*
X0146336Y0395425D01*
X0146437Y0395496D01*
X0146540Y0395564D01*
X0146646Y0395629D01*
X0146753Y0395690D01*
X0146863Y0395748D01*
X0146974Y0395802D01*
X0147086Y0395853D01*
X0147201Y0395901D01*
X0147316Y0395944D01*
X0147433Y0395984D01*
X0147552Y0396021D01*
X0147671Y0396053D01*
X0147791Y0396082D01*
X0147912Y0396107D01*
X0148034Y0396129D01*
X0148157Y0396146D01*
X0148279Y0396160D01*
X0148403Y0396169D01*
X0148526Y0396175D01*
X0148650Y0396177D01*
X0231328Y0396177D01*
X0231452Y0396175D01*
X0231575Y0396169D01*
X0231699Y0396160D01*
X0231821Y0396146D01*
X0231944Y0396129D01*
X0232066Y0396107D01*
X0232187Y0396082D01*
X0232307Y0396053D01*
X0232426Y0396021D01*
X0232545Y0395984D01*
X0232662Y0395944D01*
X0232777Y0395901D01*
X0232892Y0395853D01*
X0233004Y0395802D01*
X0233115Y0395748D01*
X0233225Y0395690D01*
X0233332Y0395629D01*
X0233438Y0395564D01*
X0233541Y0395496D01*
X0233642Y0395425D01*
X0233741Y0395351D01*
X0233838Y0395274D01*
X0233932Y0395193D01*
X0234023Y0395110D01*
X0234112Y0395024D01*
X0234198Y0394935D01*
X0234281Y0394844D01*
X0234362Y0394750D01*
X0234439Y0394653D01*
X0234513Y0394554D01*
X0234584Y0394453D01*
X0234652Y0394350D01*
X0234717Y0394244D01*
X0234778Y0394137D01*
X0234836Y0394027D01*
X0234890Y0393916D01*
X0234941Y0393804D01*
X0234989Y0393689D01*
X0235032Y0393574D01*
X0235072Y0393457D01*
X0235109Y0393338D01*
X0235141Y0393219D01*
X0235170Y0393099D01*
X0235195Y0392978D01*
X0235217Y0392856D01*
X0235234Y0392733D01*
X0235248Y0392611D01*
X0235257Y0392487D01*
X0235263Y0392364D01*
X0235265Y0392240D01*
X0235265Y0337122D01*
X0235267Y0336998D01*
X0235273Y0336875D01*
X0235282Y0336751D01*
X0235296Y0336629D01*
X0235313Y0336506D01*
X0235335Y0336384D01*
X0235360Y0336263D01*
X0235389Y0336143D01*
X0235421Y0336024D01*
X0235458Y0335905D01*
X0235498Y0335788D01*
X0235541Y0335673D01*
X0235589Y0335558D01*
X0235640Y0335446D01*
X0235694Y0335335D01*
X0235752Y0335225D01*
X0235813Y0335118D01*
X0235878Y0335012D01*
X0235946Y0334909D01*
X0236017Y0334808D01*
X0236091Y0334709D01*
X0236168Y0334612D01*
X0236249Y0334518D01*
X0236332Y0334427D01*
X0236418Y0334338D01*
X0236507Y0334252D01*
X0236598Y0334169D01*
X0236692Y0334088D01*
X0236789Y0334011D01*
X0236888Y0333937D01*
X0236989Y0333866D01*
X0237092Y0333798D01*
X0237198Y0333733D01*
X0237305Y0333672D01*
X0237415Y0333614D01*
X0237526Y0333560D01*
X0237638Y0333509D01*
X0237753Y0333461D01*
X0237868Y0333418D01*
X0237985Y0333378D01*
X0238104Y0333341D01*
X0238223Y0333309D01*
X0238343Y0333280D01*
X0238464Y0333255D01*
X0238586Y0333233D01*
X0238709Y0333216D01*
X0238831Y0333202D01*
X0238955Y0333193D01*
X0239078Y0333187D01*
X0239202Y0333185D01*
X0268729Y0333185D01*
X0268967Y0333188D01*
X0269205Y0333196D01*
X0269442Y0333211D01*
X0269679Y0333231D01*
X0269915Y0333257D01*
X0270151Y0333288D01*
X0270386Y0333325D01*
X0270620Y0333368D01*
X0270853Y0333417D01*
X0271085Y0333471D01*
X0271315Y0333531D01*
X0271544Y0333596D01*
X0271771Y0333667D01*
X0271996Y0333743D01*
X0272219Y0333825D01*
X0272441Y0333912D01*
X0272660Y0334004D01*
X0272877Y0334102D01*
X0273091Y0334204D01*
X0273303Y0334312D01*
X0273513Y0334426D01*
X0273719Y0334544D01*
X0273923Y0334667D01*
X0274123Y0334795D01*
X0274320Y0334927D01*
X0274515Y0335065D01*
X0274705Y0335207D01*
X0274893Y0335354D01*
X0275076Y0335505D01*
X0275256Y0335660D01*
X0275432Y0335820D01*
X0275604Y0335984D01*
X0275773Y0336153D01*
X0275937Y0336325D01*
X0276097Y0336501D01*
X0276252Y0336681D01*
X0276403Y0336864D01*
X0276550Y0337052D01*
X0276692Y0337242D01*
X0276830Y0337437D01*
X0276962Y0337634D01*
X0277090Y0337834D01*
X0277213Y0338038D01*
X0277331Y0338244D01*
X0277445Y0338454D01*
X0277553Y0338666D01*
X0277655Y0338880D01*
X0277753Y0339097D01*
X0277845Y0339316D01*
X0277932Y0339538D01*
X0278014Y0339761D01*
X0278090Y0339986D01*
X0278161Y0340213D01*
X0278226Y0340442D01*
X0278286Y0340672D01*
X0278340Y0340904D01*
X0278389Y0341137D01*
X0278432Y0341371D01*
X0278469Y0341606D01*
X0278500Y0341842D01*
X0278526Y0342078D01*
X0278546Y0342315D01*
X0278561Y0342552D01*
X0278569Y0342790D01*
X0278572Y0343028D01*
X0278572Y0376492D01*
X0278578Y0376968D01*
X0278595Y0377443D01*
X0278624Y0377918D01*
X0278664Y0378392D01*
X0278716Y0378865D01*
X0278779Y0379336D01*
X0278853Y0379806D01*
X0278939Y0380274D01*
X0279036Y0380740D01*
X0279144Y0381203D01*
X0279263Y0381663D01*
X0279394Y0382121D01*
X0279535Y0382575D01*
X0279688Y0383026D01*
X0279851Y0383472D01*
X0280025Y0383915D01*
X0280210Y0384353D01*
X0280405Y0384787D01*
X0280611Y0385216D01*
X0280827Y0385640D01*
X0281053Y0386059D01*
X0281289Y0386472D01*
X0281535Y0386879D01*
X0281791Y0387280D01*
X0282057Y0387674D01*
X0282332Y0388063D01*
X0282616Y0388444D01*
X0282909Y0388818D01*
X0283211Y0389186D01*
X0283523Y0389546D01*
X0283842Y0389898D01*
X0284170Y0390242D01*
X0284507Y0390579D01*
X0284851Y0390907D01*
X0285203Y0391226D01*
X0285563Y0391538D01*
X0285931Y0391840D01*
X0286305Y0392133D01*
X0286686Y0392417D01*
X0287075Y0392692D01*
X0287469Y0392958D01*
X0287870Y0393214D01*
X0288277Y0393460D01*
X0288690Y0393696D01*
X0289109Y0393922D01*
X0289533Y0394138D01*
X0289962Y0394344D01*
X0290396Y0394539D01*
X0290834Y0394724D01*
X0291277Y0394898D01*
X0291723Y0395061D01*
X0292174Y0395214D01*
X0292628Y0395355D01*
X0293086Y0395486D01*
X0293546Y0395605D01*
X0294009Y0395713D01*
X0294475Y0395810D01*
X0294943Y0395896D01*
X0295413Y0395970D01*
X0295884Y0396033D01*
X0296357Y0396085D01*
X0296831Y0396125D01*
X0297306Y0396154D01*
X0297781Y0396171D01*
X0298257Y0396177D01*
X0300225Y0396177D01*
X0300701Y0396171D01*
X0301176Y0396154D01*
X0301651Y0396125D01*
X0302125Y0396085D01*
X0302598Y0396033D01*
X0303069Y0395970D01*
X0303539Y0395896D01*
X0304007Y0395810D01*
X0304473Y0395713D01*
X0304936Y0395605D01*
X0305396Y0395486D01*
X0305854Y0395355D01*
X0306308Y0395214D01*
X0306759Y0395061D01*
X0307205Y0394898D01*
X0307648Y0394724D01*
X0308086Y0394539D01*
X0308520Y0394344D01*
X0308949Y0394138D01*
X0309373Y0393922D01*
X0309792Y0393696D01*
X0310205Y0393460D01*
X0310612Y0393214D01*
X0311013Y0392958D01*
X0311407Y0392692D01*
X0311796Y0392417D01*
X0312177Y0392133D01*
X0312551Y0391840D01*
X0312919Y0391538D01*
X0313279Y0391226D01*
X0313631Y0390907D01*
X0313975Y0390579D01*
X0314312Y0390242D01*
X0314640Y0389898D01*
X0314959Y0389546D01*
X0315271Y0389186D01*
X0315573Y0388818D01*
X0315866Y0388444D01*
X0316150Y0388063D01*
X0316425Y0387674D01*
X0316691Y0387280D01*
X0316947Y0386879D01*
X0317193Y0386472D01*
X0317429Y0386059D01*
X0317655Y0385640D01*
X0317871Y0385216D01*
X0318077Y0384787D01*
X0318272Y0384353D01*
X0318457Y0383915D01*
X0318631Y0383472D01*
X0318794Y0383026D01*
X0318947Y0382575D01*
X0319088Y0382121D01*
X0319219Y0381663D01*
X0319338Y0381203D01*
X0319446Y0380740D01*
X0319543Y0380274D01*
X0319629Y0379806D01*
X0319703Y0379336D01*
X0319766Y0378865D01*
X0319818Y0378392D01*
X0319858Y0377918D01*
X0319887Y0377443D01*
X0319904Y0376968D01*
X0319910Y0376492D01*
X0319910Y0372555D01*
X0292745Y0376492D02*
X0292747Y0376640D01*
X0292753Y0376788D01*
X0292763Y0376936D01*
X0292777Y0377083D01*
X0292795Y0377230D01*
X0292816Y0377376D01*
X0292842Y0377522D01*
X0292872Y0377667D01*
X0292905Y0377811D01*
X0292943Y0377954D01*
X0292984Y0378096D01*
X0293029Y0378237D01*
X0293077Y0378377D01*
X0293130Y0378516D01*
X0293186Y0378653D01*
X0293246Y0378788D01*
X0293309Y0378922D01*
X0293376Y0379054D01*
X0293447Y0379184D01*
X0293521Y0379312D01*
X0293598Y0379438D01*
X0293679Y0379562D01*
X0293763Y0379684D01*
X0293850Y0379803D01*
X0293941Y0379920D01*
X0294035Y0380035D01*
X0294131Y0380147D01*
X0294231Y0380257D01*
X0294333Y0380363D01*
X0294439Y0380467D01*
X0294547Y0380568D01*
X0294658Y0380666D01*
X0294771Y0380762D01*
X0294887Y0380854D01*
X0295005Y0380943D01*
X0295126Y0381028D01*
X0295249Y0381111D01*
X0295374Y0381190D01*
X0295501Y0381266D01*
X0295630Y0381338D01*
X0295761Y0381407D01*
X0295894Y0381472D01*
X0296029Y0381533D01*
X0296165Y0381591D01*
X0296302Y0381646D01*
X0296441Y0381696D01*
X0296582Y0381743D01*
X0296723Y0381786D01*
X0296866Y0381826D01*
X0297010Y0381861D01*
X0297154Y0381893D01*
X0297300Y0381920D01*
X0297446Y0381944D01*
X0297593Y0381964D01*
X0297740Y0381980D01*
X0297887Y0381992D01*
X0298035Y0382000D01*
X0298183Y0382004D01*
X0298331Y0382004D01*
X0298479Y0382000D01*
X0298627Y0381992D01*
X0298774Y0381980D01*
X0298921Y0381964D01*
X0299068Y0381944D01*
X0299214Y0381920D01*
X0299360Y0381893D01*
X0299504Y0381861D01*
X0299648Y0381826D01*
X0299791Y0381786D01*
X0299932Y0381743D01*
X0300073Y0381696D01*
X0300212Y0381646D01*
X0300349Y0381591D01*
X0300485Y0381533D01*
X0300620Y0381472D01*
X0300753Y0381407D01*
X0300884Y0381338D01*
X0301013Y0381266D01*
X0301140Y0381190D01*
X0301265Y0381111D01*
X0301388Y0381028D01*
X0301509Y0380943D01*
X0301627Y0380854D01*
X0301743Y0380762D01*
X0301856Y0380666D01*
X0301967Y0380568D01*
X0302075Y0380467D01*
X0302181Y0380363D01*
X0302283Y0380257D01*
X0302383Y0380147D01*
X0302479Y0380035D01*
X0302573Y0379920D01*
X0302664Y0379803D01*
X0302751Y0379684D01*
X0302835Y0379562D01*
X0302916Y0379438D01*
X0302993Y0379312D01*
X0303067Y0379184D01*
X0303138Y0379054D01*
X0303205Y0378922D01*
X0303268Y0378788D01*
X0303328Y0378653D01*
X0303384Y0378516D01*
X0303437Y0378377D01*
X0303485Y0378237D01*
X0303530Y0378096D01*
X0303571Y0377954D01*
X0303609Y0377811D01*
X0303642Y0377667D01*
X0303672Y0377522D01*
X0303698Y0377376D01*
X0303719Y0377230D01*
X0303737Y0377083D01*
X0303751Y0376936D01*
X0303761Y0376788D01*
X0303767Y0376640D01*
X0303769Y0376492D01*
X0303767Y0376344D01*
X0303761Y0376196D01*
X0303751Y0376048D01*
X0303737Y0375901D01*
X0303719Y0375754D01*
X0303698Y0375608D01*
X0303672Y0375462D01*
X0303642Y0375317D01*
X0303609Y0375173D01*
X0303571Y0375030D01*
X0303530Y0374888D01*
X0303485Y0374747D01*
X0303437Y0374607D01*
X0303384Y0374468D01*
X0303328Y0374331D01*
X0303268Y0374196D01*
X0303205Y0374062D01*
X0303138Y0373930D01*
X0303067Y0373800D01*
X0302993Y0373672D01*
X0302916Y0373546D01*
X0302835Y0373422D01*
X0302751Y0373300D01*
X0302664Y0373181D01*
X0302573Y0373064D01*
X0302479Y0372949D01*
X0302383Y0372837D01*
X0302283Y0372727D01*
X0302181Y0372621D01*
X0302075Y0372517D01*
X0301967Y0372416D01*
X0301856Y0372318D01*
X0301743Y0372222D01*
X0301627Y0372130D01*
X0301509Y0372041D01*
X0301388Y0371956D01*
X0301265Y0371873D01*
X0301140Y0371794D01*
X0301013Y0371718D01*
X0300884Y0371646D01*
X0300753Y0371577D01*
X0300620Y0371512D01*
X0300485Y0371451D01*
X0300349Y0371393D01*
X0300212Y0371338D01*
X0300073Y0371288D01*
X0299932Y0371241D01*
X0299791Y0371198D01*
X0299648Y0371158D01*
X0299504Y0371123D01*
X0299360Y0371091D01*
X0299214Y0371064D01*
X0299068Y0371040D01*
X0298921Y0371020D01*
X0298774Y0371004D01*
X0298627Y0370992D01*
X0298479Y0370984D01*
X0298331Y0370980D01*
X0298183Y0370980D01*
X0298035Y0370984D01*
X0297887Y0370992D01*
X0297740Y0371004D01*
X0297593Y0371020D01*
X0297446Y0371040D01*
X0297300Y0371064D01*
X0297154Y0371091D01*
X0297010Y0371123D01*
X0296866Y0371158D01*
X0296723Y0371198D01*
X0296582Y0371241D01*
X0296441Y0371288D01*
X0296302Y0371338D01*
X0296165Y0371393D01*
X0296029Y0371451D01*
X0295894Y0371512D01*
X0295761Y0371577D01*
X0295630Y0371646D01*
X0295501Y0371718D01*
X0295374Y0371794D01*
X0295249Y0371873D01*
X0295126Y0371956D01*
X0295005Y0372041D01*
X0294887Y0372130D01*
X0294771Y0372222D01*
X0294658Y0372318D01*
X0294547Y0372416D01*
X0294439Y0372517D01*
X0294333Y0372621D01*
X0294231Y0372727D01*
X0294131Y0372837D01*
X0294035Y0372949D01*
X0293941Y0373064D01*
X0293850Y0373181D01*
X0293763Y0373300D01*
X0293679Y0373422D01*
X0293598Y0373546D01*
X0293521Y0373672D01*
X0293447Y0373800D01*
X0293376Y0373930D01*
X0293309Y0374062D01*
X0293246Y0374196D01*
X0293186Y0374331D01*
X0293130Y0374468D01*
X0293077Y0374607D01*
X0293029Y0374747D01*
X0292984Y0374888D01*
X0292943Y0375030D01*
X0292905Y0375173D01*
X0292872Y0375317D01*
X0292842Y0375462D01*
X0292816Y0375608D01*
X0292795Y0375754D01*
X0292777Y0375901D01*
X0292763Y0376048D01*
X0292753Y0376196D01*
X0292747Y0376344D01*
X0292745Y0376492D01*
X0319910Y0372555D02*
X0319873Y0369511D01*
X0319763Y0366468D01*
X0319579Y0363429D01*
X0319322Y0360396D01*
X0318991Y0357369D01*
X0318588Y0354352D01*
X0318112Y0351345D01*
X0317563Y0348350D01*
X0316942Y0345370D01*
X0316249Y0342405D01*
X0315485Y0339458D01*
X0314650Y0336530D01*
X0313744Y0333624D01*
X0312768Y0330740D01*
X0311723Y0327880D01*
X0310609Y0325047D01*
X0309427Y0322241D01*
X0308178Y0319465D01*
X0306861Y0316720D01*
X0305479Y0314007D01*
X0304032Y0311329D01*
X0302520Y0308686D01*
X0300945Y0306081D01*
X0299308Y0303514D01*
X0297609Y0300988D01*
X0295849Y0298503D01*
X0294030Y0296062D01*
X0292152Y0293666D01*
X0290218Y0291315D01*
X0288226Y0289012D01*
X0286180Y0286758D01*
X0284080Y0284554D01*
X0281927Y0282401D01*
X0279723Y0280301D01*
X0277469Y0278255D01*
X0275166Y0276263D01*
X0272815Y0274329D01*
X0270419Y0272451D01*
X0267978Y0270632D01*
X0265493Y0268872D01*
X0262967Y0267173D01*
X0260400Y0265536D01*
X0257795Y0263961D01*
X0255152Y0262449D01*
X0252474Y0261002D01*
X0249761Y0259620D01*
X0247016Y0258303D01*
X0244240Y0257054D01*
X0241434Y0255872D01*
X0238601Y0254758D01*
X0235741Y0253713D01*
X0232857Y0252737D01*
X0229951Y0251831D01*
X0227023Y0250996D01*
X0224076Y0250232D01*
X0221111Y0249539D01*
X0218131Y0248918D01*
X0215136Y0248369D01*
X0212129Y0247893D01*
X0209112Y0247490D01*
X0206085Y0247159D01*
X0203052Y0246902D01*
X0200013Y0246718D01*
X0196970Y0246608D01*
X0193926Y0246571D01*
X0119263Y0234759D02*
X0119029Y0234762D01*
X0118795Y0234770D01*
X0118561Y0234784D01*
X0118327Y0234804D01*
X0118094Y0234829D01*
X0117862Y0234859D01*
X0117631Y0234895D01*
X0117400Y0234937D01*
X0117171Y0234984D01*
X0116942Y0235036D01*
X0116715Y0235094D01*
X0116490Y0235158D01*
X0116266Y0235226D01*
X0116044Y0235300D01*
X0115823Y0235380D01*
X0115605Y0235464D01*
X0115388Y0235554D01*
X0115174Y0235648D01*
X0114962Y0235748D01*
X0114753Y0235853D01*
X0114546Y0235963D01*
X0114341Y0236078D01*
X0114140Y0236197D01*
X0113941Y0236322D01*
X0113746Y0236451D01*
X0113553Y0236584D01*
X0113364Y0236722D01*
X0113178Y0236865D01*
X0112996Y0237012D01*
X0112817Y0237163D01*
X0112642Y0237319D01*
X0112471Y0237478D01*
X0112303Y0237642D01*
X0186052Y0246571D02*
X0183008Y0246608D01*
X0179965Y0246718D01*
X0176926Y0246902D01*
X0173893Y0247159D01*
X0170866Y0247490D01*
X0167849Y0247893D01*
X0164842Y0248369D01*
X0161847Y0248918D01*
X0158867Y0249539D01*
X0155902Y0250232D01*
X0152955Y0250996D01*
X0150027Y0251831D01*
X0147121Y0252737D01*
X0144237Y0253713D01*
X0141377Y0254758D01*
X0138544Y0255872D01*
X0135738Y0257054D01*
X0132962Y0258303D01*
X0130217Y0259620D01*
X0127504Y0261002D01*
X0124826Y0262449D01*
X0122183Y0263961D01*
X0119578Y0265536D01*
X0117011Y0267173D01*
X0114485Y0268872D01*
X0112000Y0270632D01*
X0109559Y0272451D01*
X0107163Y0274329D01*
X0104812Y0276263D01*
X0102509Y0278255D01*
X0100255Y0280301D01*
X0098051Y0282401D01*
X0095898Y0284554D01*
X0093798Y0286758D01*
X0091752Y0289012D01*
X0089760Y0291315D01*
X0087826Y0293666D01*
X0085948Y0296062D01*
X0084129Y0298503D01*
X0082369Y0300988D01*
X0080670Y0303514D01*
X0079033Y0306081D01*
X0077458Y0308686D01*
X0075946Y0311329D01*
X0074499Y0314007D01*
X0073117Y0316720D01*
X0071800Y0319465D01*
X0070551Y0322241D01*
X0069369Y0325047D01*
X0068255Y0327880D01*
X0067210Y0330740D01*
X0066234Y0333624D01*
X0065328Y0336530D01*
X0064493Y0339458D01*
X0063729Y0342405D01*
X0063036Y0345370D01*
X0062415Y0348350D01*
X0061866Y0351345D01*
X0061390Y0354352D01*
X0060987Y0357369D01*
X0060656Y0360396D01*
X0060399Y0363429D01*
X0060215Y0366468D01*
X0060105Y0369511D01*
X0060068Y0372555D01*
X0296682Y0140272D02*
X0296684Y0140420D01*
X0296690Y0140568D01*
X0296700Y0140716D01*
X0296714Y0140863D01*
X0296732Y0141010D01*
X0296753Y0141156D01*
X0296779Y0141302D01*
X0296809Y0141447D01*
X0296842Y0141591D01*
X0296880Y0141734D01*
X0296921Y0141876D01*
X0296966Y0142017D01*
X0297014Y0142157D01*
X0297067Y0142296D01*
X0297123Y0142433D01*
X0297183Y0142568D01*
X0297246Y0142702D01*
X0297313Y0142834D01*
X0297384Y0142964D01*
X0297458Y0143092D01*
X0297535Y0143218D01*
X0297616Y0143342D01*
X0297700Y0143464D01*
X0297787Y0143583D01*
X0297878Y0143700D01*
X0297972Y0143815D01*
X0298068Y0143927D01*
X0298168Y0144037D01*
X0298270Y0144143D01*
X0298376Y0144247D01*
X0298484Y0144348D01*
X0298595Y0144446D01*
X0298708Y0144542D01*
X0298824Y0144634D01*
X0298942Y0144723D01*
X0299063Y0144808D01*
X0299186Y0144891D01*
X0299311Y0144970D01*
X0299438Y0145046D01*
X0299567Y0145118D01*
X0299698Y0145187D01*
X0299831Y0145252D01*
X0299966Y0145313D01*
X0300102Y0145371D01*
X0300239Y0145426D01*
X0300378Y0145476D01*
X0300519Y0145523D01*
X0300660Y0145566D01*
X0300803Y0145606D01*
X0300947Y0145641D01*
X0301091Y0145673D01*
X0301237Y0145700D01*
X0301383Y0145724D01*
X0301530Y0145744D01*
X0301677Y0145760D01*
X0301824Y0145772D01*
X0301972Y0145780D01*
X0302120Y0145784D01*
X0302268Y0145784D01*
X0302416Y0145780D01*
X0302564Y0145772D01*
X0302711Y0145760D01*
X0302858Y0145744D01*
X0303005Y0145724D01*
X0303151Y0145700D01*
X0303297Y0145673D01*
X0303441Y0145641D01*
X0303585Y0145606D01*
X0303728Y0145566D01*
X0303869Y0145523D01*
X0304010Y0145476D01*
X0304149Y0145426D01*
X0304286Y0145371D01*
X0304422Y0145313D01*
X0304557Y0145252D01*
X0304690Y0145187D01*
X0304821Y0145118D01*
X0304950Y0145046D01*
X0305077Y0144970D01*
X0305202Y0144891D01*
X0305325Y0144808D01*
X0305446Y0144723D01*
X0305564Y0144634D01*
X0305680Y0144542D01*
X0305793Y0144446D01*
X0305904Y0144348D01*
X0306012Y0144247D01*
X0306118Y0144143D01*
X0306220Y0144037D01*
X0306320Y0143927D01*
X0306416Y0143815D01*
X0306510Y0143700D01*
X0306601Y0143583D01*
X0306688Y0143464D01*
X0306772Y0143342D01*
X0306853Y0143218D01*
X0306930Y0143092D01*
X0307004Y0142964D01*
X0307075Y0142834D01*
X0307142Y0142702D01*
X0307205Y0142568D01*
X0307265Y0142433D01*
X0307321Y0142296D01*
X0307374Y0142157D01*
X0307422Y0142017D01*
X0307467Y0141876D01*
X0307508Y0141734D01*
X0307546Y0141591D01*
X0307579Y0141447D01*
X0307609Y0141302D01*
X0307635Y0141156D01*
X0307656Y0141010D01*
X0307674Y0140863D01*
X0307688Y0140716D01*
X0307698Y0140568D01*
X0307704Y0140420D01*
X0307706Y0140272D01*
X0307704Y0140124D01*
X0307698Y0139976D01*
X0307688Y0139828D01*
X0307674Y0139681D01*
X0307656Y0139534D01*
X0307635Y0139388D01*
X0307609Y0139242D01*
X0307579Y0139097D01*
X0307546Y0138953D01*
X0307508Y0138810D01*
X0307467Y0138668D01*
X0307422Y0138527D01*
X0307374Y0138387D01*
X0307321Y0138248D01*
X0307265Y0138111D01*
X0307205Y0137976D01*
X0307142Y0137842D01*
X0307075Y0137710D01*
X0307004Y0137580D01*
X0306930Y0137452D01*
X0306853Y0137326D01*
X0306772Y0137202D01*
X0306688Y0137080D01*
X0306601Y0136961D01*
X0306510Y0136844D01*
X0306416Y0136729D01*
X0306320Y0136617D01*
X0306220Y0136507D01*
X0306118Y0136401D01*
X0306012Y0136297D01*
X0305904Y0136196D01*
X0305793Y0136098D01*
X0305680Y0136002D01*
X0305564Y0135910D01*
X0305446Y0135821D01*
X0305325Y0135736D01*
X0305202Y0135653D01*
X0305077Y0135574D01*
X0304950Y0135498D01*
X0304821Y0135426D01*
X0304690Y0135357D01*
X0304557Y0135292D01*
X0304422Y0135231D01*
X0304286Y0135173D01*
X0304149Y0135118D01*
X0304010Y0135068D01*
X0303869Y0135021D01*
X0303728Y0134978D01*
X0303585Y0134938D01*
X0303441Y0134903D01*
X0303297Y0134871D01*
X0303151Y0134844D01*
X0303005Y0134820D01*
X0302858Y0134800D01*
X0302711Y0134784D01*
X0302564Y0134772D01*
X0302416Y0134764D01*
X0302268Y0134760D01*
X0302120Y0134760D01*
X0301972Y0134764D01*
X0301824Y0134772D01*
X0301677Y0134784D01*
X0301530Y0134800D01*
X0301383Y0134820D01*
X0301237Y0134844D01*
X0301091Y0134871D01*
X0300947Y0134903D01*
X0300803Y0134938D01*
X0300660Y0134978D01*
X0300519Y0135021D01*
X0300378Y0135068D01*
X0300239Y0135118D01*
X0300102Y0135173D01*
X0299966Y0135231D01*
X0299831Y0135292D01*
X0299698Y0135357D01*
X0299567Y0135426D01*
X0299438Y0135498D01*
X0299311Y0135574D01*
X0299186Y0135653D01*
X0299063Y0135736D01*
X0298942Y0135821D01*
X0298824Y0135910D01*
X0298708Y0136002D01*
X0298595Y0136098D01*
X0298484Y0136196D01*
X0298376Y0136297D01*
X0298270Y0136401D01*
X0298168Y0136507D01*
X0298068Y0136617D01*
X0297972Y0136729D01*
X0297878Y0136844D01*
X0297787Y0136961D01*
X0297700Y0137080D01*
X0297616Y0137202D01*
X0297535Y0137326D01*
X0297458Y0137452D01*
X0297384Y0137580D01*
X0297313Y0137710D01*
X0297246Y0137842D01*
X0297183Y0137976D01*
X0297123Y0138111D01*
X0297067Y0138248D01*
X0297014Y0138387D01*
X0296966Y0138527D01*
X0296921Y0138668D01*
X0296880Y0138810D01*
X0296842Y0138953D01*
X0296809Y0139097D01*
X0296779Y0139242D01*
X0296753Y0139388D01*
X0296732Y0139534D01*
X0296714Y0139681D01*
X0296700Y0139828D01*
X0296690Y0139976D01*
X0296684Y0140124D01*
X0296682Y0140272D01*
X0345715Y0059295D02*
X0345717Y0059369D01*
X0345723Y0059443D01*
X0345733Y0059516D01*
X0345747Y0059589D01*
X0345764Y0059661D01*
X0345786Y0059731D01*
X0345811Y0059801D01*
X0345840Y0059869D01*
X0345873Y0059935D01*
X0345909Y0060000D01*
X0345949Y0060062D01*
X0345991Y0060123D01*
X0346037Y0060181D01*
X0346086Y0060236D01*
X0346138Y0060289D01*
X0346193Y0060339D01*
X0346250Y0060385D01*
X0346310Y0060429D01*
X0346372Y0060469D01*
X0346436Y0060506D01*
X0346502Y0060540D01*
X0346570Y0060570D01*
X0346639Y0060596D01*
X0346710Y0060619D01*
X0346781Y0060637D01*
X0346854Y0060652D01*
X0346927Y0060663D01*
X0347001Y0060670D01*
X0347075Y0060673D01*
X0347148Y0060672D01*
X0347222Y0060667D01*
X0347296Y0060658D01*
X0347369Y0060645D01*
X0347441Y0060628D01*
X0347512Y0060608D01*
X0347582Y0060583D01*
X0347650Y0060555D01*
X0347717Y0060524D01*
X0347782Y0060488D01*
X0347845Y0060450D01*
X0347906Y0060408D01*
X0347965Y0060362D01*
X0348021Y0060314D01*
X0348074Y0060263D01*
X0348124Y0060209D01*
X0348172Y0060152D01*
X0348216Y0060093D01*
X0348258Y0060031D01*
X0348296Y0059968D01*
X0348330Y0059902D01*
X0348361Y0059835D01*
X0348388Y0059766D01*
X0348411Y0059696D01*
X0348431Y0059625D01*
X0348447Y0059552D01*
X0348459Y0059479D01*
X0348467Y0059406D01*
X0348471Y0059332D01*
X0348471Y0059258D01*
X0348467Y0059184D01*
X0348459Y0059111D01*
X0348447Y0059038D01*
X0348431Y0058965D01*
X0348411Y0058894D01*
X0348388Y0058824D01*
X0348361Y0058755D01*
X0348330Y0058688D01*
X0348296Y0058622D01*
X0348258Y0058559D01*
X0348216Y0058497D01*
X0348172Y0058438D01*
X0348124Y0058381D01*
X0348074Y0058327D01*
X0348021Y0058276D01*
X0347965Y0058228D01*
X0347906Y0058182D01*
X0347845Y0058140D01*
X0347782Y0058102D01*
X0347717Y0058066D01*
X0347650Y0058035D01*
X0347582Y0058007D01*
X0347512Y0057982D01*
X0347441Y0057962D01*
X0347369Y0057945D01*
X0347296Y0057932D01*
X0347222Y0057923D01*
X0347148Y0057918D01*
X0347075Y0057917D01*
X0347001Y0057920D01*
X0346927Y0057927D01*
X0346854Y0057938D01*
X0346781Y0057953D01*
X0346710Y0057971D01*
X0346639Y0057994D01*
X0346570Y0058020D01*
X0346502Y0058050D01*
X0346436Y0058084D01*
X0346372Y0058121D01*
X0346310Y0058161D01*
X0346250Y0058205D01*
X0346193Y0058251D01*
X0346138Y0058301D01*
X0346086Y0058354D01*
X0346037Y0058409D01*
X0345991Y0058467D01*
X0345949Y0058528D01*
X0345909Y0058590D01*
X0345873Y0058655D01*
X0345840Y0058721D01*
X0345811Y0058789D01*
X0345786Y0058859D01*
X0345764Y0058929D01*
X0345747Y0059001D01*
X0345733Y0059074D01*
X0345723Y0059147D01*
X0345717Y0059221D01*
X0345715Y0059295D01*
X0331861Y0045784D02*
X0331627Y0045781D01*
X0331393Y0045773D01*
X0331159Y0045759D01*
X0330925Y0045739D01*
X0330692Y0045714D01*
X0330460Y0045684D01*
X0330229Y0045648D01*
X0329998Y0045606D01*
X0329769Y0045559D01*
X0329540Y0045507D01*
X0329313Y0045449D01*
X0329088Y0045385D01*
X0328864Y0045317D01*
X0328642Y0045243D01*
X0328421Y0045163D01*
X0328203Y0045079D01*
X0327986Y0044989D01*
X0327772Y0044895D01*
X0327560Y0044795D01*
X0327351Y0044690D01*
X0327144Y0044580D01*
X0326939Y0044465D01*
X0326738Y0044346D01*
X0326539Y0044221D01*
X0326344Y0044092D01*
X0326151Y0043959D01*
X0325962Y0043821D01*
X0325776Y0043678D01*
X0325594Y0043531D01*
X0325415Y0043380D01*
X0325240Y0043224D01*
X0325069Y0043065D01*
X0324901Y0042901D01*
X0362215Y0059295D02*
X0362217Y0059369D01*
X0362223Y0059443D01*
X0362233Y0059516D01*
X0362247Y0059589D01*
X0362264Y0059661D01*
X0362286Y0059731D01*
X0362311Y0059801D01*
X0362340Y0059869D01*
X0362373Y0059935D01*
X0362409Y0060000D01*
X0362449Y0060062D01*
X0362491Y0060123D01*
X0362537Y0060181D01*
X0362586Y0060236D01*
X0362638Y0060289D01*
X0362693Y0060339D01*
X0362750Y0060385D01*
X0362810Y0060429D01*
X0362872Y0060469D01*
X0362936Y0060506D01*
X0363002Y0060540D01*
X0363070Y0060570D01*
X0363139Y0060596D01*
X0363210Y0060619D01*
X0363281Y0060637D01*
X0363354Y0060652D01*
X0363427Y0060663D01*
X0363501Y0060670D01*
X0363575Y0060673D01*
X0363648Y0060672D01*
X0363722Y0060667D01*
X0363796Y0060658D01*
X0363869Y0060645D01*
X0363941Y0060628D01*
X0364012Y0060608D01*
X0364082Y0060583D01*
X0364150Y0060555D01*
X0364217Y0060524D01*
X0364282Y0060488D01*
X0364345Y0060450D01*
X0364406Y0060408D01*
X0364465Y0060362D01*
X0364521Y0060314D01*
X0364574Y0060263D01*
X0364624Y0060209D01*
X0364672Y0060152D01*
X0364716Y0060093D01*
X0364758Y0060031D01*
X0364796Y0059968D01*
X0364830Y0059902D01*
X0364861Y0059835D01*
X0364888Y0059766D01*
X0364911Y0059696D01*
X0364931Y0059625D01*
X0364947Y0059552D01*
X0364959Y0059479D01*
X0364967Y0059406D01*
X0364971Y0059332D01*
X0364971Y0059258D01*
X0364967Y0059184D01*
X0364959Y0059111D01*
X0364947Y0059038D01*
X0364931Y0058965D01*
X0364911Y0058894D01*
X0364888Y0058824D01*
X0364861Y0058755D01*
X0364830Y0058688D01*
X0364796Y0058622D01*
X0364758Y0058559D01*
X0364716Y0058497D01*
X0364672Y0058438D01*
X0364624Y0058381D01*
X0364574Y0058327D01*
X0364521Y0058276D01*
X0364465Y0058228D01*
X0364406Y0058182D01*
X0364345Y0058140D01*
X0364282Y0058102D01*
X0364217Y0058066D01*
X0364150Y0058035D01*
X0364082Y0058007D01*
X0364012Y0057982D01*
X0363941Y0057962D01*
X0363869Y0057945D01*
X0363796Y0057932D01*
X0363722Y0057923D01*
X0363648Y0057918D01*
X0363575Y0057917D01*
X0363501Y0057920D01*
X0363427Y0057927D01*
X0363354Y0057938D01*
X0363281Y0057953D01*
X0363210Y0057971D01*
X0363139Y0057994D01*
X0363070Y0058020D01*
X0363002Y0058050D01*
X0362936Y0058084D01*
X0362872Y0058121D01*
X0362810Y0058161D01*
X0362750Y0058205D01*
X0362693Y0058251D01*
X0362638Y0058301D01*
X0362586Y0058354D01*
X0362537Y0058409D01*
X0362491Y0058467D01*
X0362449Y0058528D01*
X0362409Y0058590D01*
X0362373Y0058655D01*
X0362340Y0058721D01*
X0362311Y0058789D01*
X0362286Y0058859D01*
X0362264Y0058929D01*
X0362247Y0059001D01*
X0362233Y0059074D01*
X0362223Y0059147D01*
X0362217Y0059221D01*
X0362215Y0059295D01*
X0378966Y0119459D02*
X0378963Y0119699D01*
X0378954Y0119939D01*
X0378940Y0120178D01*
X0378919Y0120417D01*
X0378893Y0120656D01*
X0378861Y0120893D01*
X0378823Y0121130D01*
X0378779Y0121366D01*
X0378730Y0121601D01*
X0378675Y0121834D01*
X0378614Y0122066D01*
X0378548Y0122297D01*
X0378476Y0122526D01*
X0378399Y0122753D01*
X0378315Y0122978D01*
X0378227Y0123201D01*
X0378133Y0123422D01*
X0378034Y0123640D01*
X0377929Y0123856D01*
X0377820Y0124069D01*
X0377705Y0124280D01*
X0377585Y0124488D01*
X0377460Y0124692D01*
X0377329Y0124894D01*
X0377195Y0125092D01*
X0377055Y0125287D01*
X0376911Y0125479D01*
X0376762Y0125667D01*
X0376608Y0125851D01*
X0376450Y0126032D01*
X0376288Y0126208D01*
X0376121Y0126381D01*
X0375950Y0126549D01*
X0375775Y0126714D01*
X0375597Y0126874D01*
X0375414Y0127029D01*
X0375228Y0127180D01*
X0375038Y0127327D01*
X0374844Y0127469D01*
X0355528Y0141264D02*
X0355334Y0141406D01*
X0355144Y0141553D01*
X0354958Y0141704D01*
X0354775Y0141859D01*
X0354597Y0142019D01*
X0354422Y0142184D01*
X0354251Y0142352D01*
X0354084Y0142525D01*
X0353922Y0142701D01*
X0353764Y0142882D01*
X0353610Y0143066D01*
X0353461Y0143254D01*
X0353317Y0143446D01*
X0353177Y0143641D01*
X0353043Y0143839D01*
X0352912Y0144041D01*
X0352787Y0144245D01*
X0352667Y0144453D01*
X0352552Y0144664D01*
X0352443Y0144877D01*
X0352338Y0145093D01*
X0352239Y0145311D01*
X0352145Y0145532D01*
X0352057Y0145755D01*
X0351973Y0145980D01*
X0351896Y0146207D01*
X0351824Y0146436D01*
X0351758Y0146667D01*
X0351697Y0146899D01*
X0351642Y0147132D01*
X0351593Y0147367D01*
X0351549Y0147603D01*
X0351511Y0147840D01*
X0351479Y0148077D01*
X0351453Y0148316D01*
X0351432Y0148555D01*
X0351418Y0148794D01*
X0351409Y0149034D01*
X0351406Y0149274D01*
X0337627Y0224917D02*
X0337629Y0225042D01*
X0337635Y0225167D01*
X0337645Y0225291D01*
X0337659Y0225415D01*
X0337676Y0225539D01*
X0337698Y0225662D01*
X0337724Y0225784D01*
X0337753Y0225906D01*
X0337786Y0226026D01*
X0337824Y0226145D01*
X0337864Y0226264D01*
X0337909Y0226380D01*
X0337957Y0226495D01*
X0338009Y0226609D01*
X0338065Y0226721D01*
X0338124Y0226831D01*
X0338186Y0226939D01*
X0338252Y0227046D01*
X0338321Y0227150D01*
X0338394Y0227251D01*
X0338469Y0227351D01*
X0338548Y0227448D01*
X0338630Y0227542D01*
X0338715Y0227634D01*
X0338802Y0227723D01*
X0338893Y0227809D01*
X0338986Y0227892D01*
X0339082Y0227973D01*
X0339180Y0228050D01*
X0339280Y0228124D01*
X0339383Y0228195D01*
X0339488Y0228262D01*
X0339596Y0228327D01*
X0339705Y0228387D01*
X0339816Y0228445D01*
X0339929Y0228498D01*
X0340043Y0228548D01*
X0340159Y0228595D01*
X0340276Y0228637D01*
X0340395Y0228676D01*
X0340515Y0228712D01*
X0340636Y0228743D01*
X0340758Y0228771D01*
X0340880Y0228794D01*
X0341004Y0228814D01*
X0341128Y0228830D01*
X0341252Y0228842D01*
X0341377Y0228850D01*
X0341502Y0228854D01*
X0341626Y0228854D01*
X0341751Y0228850D01*
X0341876Y0228842D01*
X0342000Y0228830D01*
X0342124Y0228814D01*
X0342248Y0228794D01*
X0342370Y0228771D01*
X0342492Y0228743D01*
X0342613Y0228712D01*
X0342733Y0228676D01*
X0342852Y0228637D01*
X0342969Y0228595D01*
X0343085Y0228548D01*
X0343199Y0228498D01*
X0343312Y0228445D01*
X0343423Y0228387D01*
X0343533Y0228327D01*
X0343640Y0228262D01*
X0343745Y0228195D01*
X0343848Y0228124D01*
X0343948Y0228050D01*
X0344046Y0227973D01*
X0344142Y0227892D01*
X0344235Y0227809D01*
X0344326Y0227723D01*
X0344413Y0227634D01*
X0344498Y0227542D01*
X0344580Y0227448D01*
X0344659Y0227351D01*
X0344734Y0227251D01*
X0344807Y0227150D01*
X0344876Y0227046D01*
X0344942Y0226939D01*
X0345004Y0226831D01*
X0345063Y0226721D01*
X0345119Y0226609D01*
X0345171Y0226495D01*
X0345219Y0226380D01*
X0345264Y0226264D01*
X0345304Y0226145D01*
X0345342Y0226026D01*
X0345375Y0225906D01*
X0345404Y0225784D01*
X0345430Y0225662D01*
X0345452Y0225539D01*
X0345469Y0225415D01*
X0345483Y0225291D01*
X0345493Y0225167D01*
X0345499Y0225042D01*
X0345501Y0224917D01*
X0345499Y0224792D01*
X0345493Y0224667D01*
X0345483Y0224543D01*
X0345469Y0224419D01*
X0345452Y0224295D01*
X0345430Y0224172D01*
X0345404Y0224050D01*
X0345375Y0223928D01*
X0345342Y0223808D01*
X0345304Y0223689D01*
X0345264Y0223570D01*
X0345219Y0223454D01*
X0345171Y0223339D01*
X0345119Y0223225D01*
X0345063Y0223113D01*
X0345004Y0223003D01*
X0344942Y0222895D01*
X0344876Y0222788D01*
X0344807Y0222684D01*
X0344734Y0222583D01*
X0344659Y0222483D01*
X0344580Y0222386D01*
X0344498Y0222292D01*
X0344413Y0222200D01*
X0344326Y0222111D01*
X0344235Y0222025D01*
X0344142Y0221942D01*
X0344046Y0221861D01*
X0343948Y0221784D01*
X0343848Y0221710D01*
X0343745Y0221639D01*
X0343640Y0221572D01*
X0343532Y0221507D01*
X0343423Y0221447D01*
X0343312Y0221389D01*
X0343199Y0221336D01*
X0343085Y0221286D01*
X0342969Y0221239D01*
X0342852Y0221197D01*
X0342733Y0221158D01*
X0342613Y0221122D01*
X0342492Y0221091D01*
X0342370Y0221063D01*
X0342248Y0221040D01*
X0342124Y0221020D01*
X0342000Y0221004D01*
X0341876Y0220992D01*
X0341751Y0220984D01*
X0341626Y0220980D01*
X0341502Y0220980D01*
X0341377Y0220984D01*
X0341252Y0220992D01*
X0341128Y0221004D01*
X0341004Y0221020D01*
X0340880Y0221040D01*
X0340758Y0221063D01*
X0340636Y0221091D01*
X0340515Y0221122D01*
X0340395Y0221158D01*
X0340276Y0221197D01*
X0340159Y0221239D01*
X0340043Y0221286D01*
X0339929Y0221336D01*
X0339816Y0221389D01*
X0339705Y0221447D01*
X0339595Y0221507D01*
X0339488Y0221572D01*
X0339383Y0221639D01*
X0339280Y0221710D01*
X0339180Y0221784D01*
X0339082Y0221861D01*
X0338986Y0221942D01*
X0338893Y0222025D01*
X0338802Y0222111D01*
X0338715Y0222200D01*
X0338630Y0222292D01*
X0338548Y0222386D01*
X0338469Y0222483D01*
X0338394Y0222583D01*
X0338321Y0222684D01*
X0338252Y0222788D01*
X0338186Y0222895D01*
X0338124Y0223003D01*
X0338065Y0223113D01*
X0338009Y0223225D01*
X0337957Y0223339D01*
X0337909Y0223454D01*
X0337864Y0223570D01*
X0337824Y0223689D01*
X0337786Y0223808D01*
X0337753Y0223928D01*
X0337724Y0224050D01*
X0337698Y0224172D01*
X0337676Y0224295D01*
X0337659Y0224419D01*
X0337645Y0224543D01*
X0337635Y0224667D01*
X0337629Y0224792D01*
X0337627Y0224917D01*
X0351406Y0230683D02*
X0351409Y0230917D01*
X0351417Y0231151D01*
X0351431Y0231385D01*
X0351451Y0231619D01*
X0351476Y0231852D01*
X0351506Y0232084D01*
X0351542Y0232315D01*
X0351584Y0232546D01*
X0351631Y0232775D01*
X0351683Y0233004D01*
X0351741Y0233231D01*
X0351805Y0233456D01*
X0351873Y0233680D01*
X0351947Y0233902D01*
X0352027Y0234123D01*
X0352111Y0234341D01*
X0352201Y0234558D01*
X0352295Y0234772D01*
X0352395Y0234984D01*
X0352500Y0235193D01*
X0352610Y0235400D01*
X0352725Y0235605D01*
X0352844Y0235806D01*
X0352969Y0236005D01*
X0353098Y0236200D01*
X0353231Y0236393D01*
X0353369Y0236582D01*
X0353512Y0236768D01*
X0353659Y0236950D01*
X0353810Y0237129D01*
X0353966Y0237304D01*
X0354125Y0237475D01*
X0354289Y0237643D01*
X0291297Y0009296D02*
X0291129Y0009132D01*
X0290958Y0008973D01*
X0290783Y0008817D01*
X0290604Y0008666D01*
X0290422Y0008519D01*
X0290236Y0008376D01*
X0290047Y0008238D01*
X0289854Y0008105D01*
X0289659Y0007976D01*
X0289460Y0007851D01*
X0289259Y0007732D01*
X0289054Y0007617D01*
X0288847Y0007507D01*
X0288638Y0007402D01*
X0288426Y0007302D01*
X0288212Y0007208D01*
X0287995Y0007118D01*
X0287777Y0007034D01*
X0287556Y0006954D01*
X0287334Y0006880D01*
X0287110Y0006812D01*
X0286885Y0006748D01*
X0286658Y0006690D01*
X0286429Y0006638D01*
X0286200Y0006591D01*
X0285969Y0006549D01*
X0285738Y0006513D01*
X0285506Y0006483D01*
X0285273Y0006458D01*
X0285039Y0006438D01*
X0284805Y0006424D01*
X0284571Y0006416D01*
X0284337Y0006413D01*
X0133361Y0027496D02*
X0133363Y0027593D01*
X0133369Y0027690D01*
X0133379Y0027786D01*
X0133393Y0027882D01*
X0133411Y0027978D01*
X0133432Y0028072D01*
X0133458Y0028166D01*
X0133487Y0028258D01*
X0133521Y0028349D01*
X0133557Y0028439D01*
X0133598Y0028527D01*
X0133642Y0028613D01*
X0133690Y0028698D01*
X0133741Y0028780D01*
X0133795Y0028861D01*
X0133853Y0028939D01*
X0133914Y0029014D01*
X0133977Y0029087D01*
X0134044Y0029158D01*
X0134114Y0029225D01*
X0134186Y0029290D01*
X0134261Y0029351D01*
X0134339Y0029410D01*
X0134418Y0029465D01*
X0134500Y0029517D01*
X0134584Y0029565D01*
X0134670Y0029610D01*
X0134758Y0029652D01*
X0134847Y0029690D01*
X0134938Y0029724D01*
X0135030Y0029754D01*
X0135123Y0029781D01*
X0135218Y0029803D01*
X0135313Y0029822D01*
X0135409Y0029837D01*
X0135505Y0029848D01*
X0135602Y0029855D01*
X0135699Y0029858D01*
X0135796Y0029857D01*
X0135893Y0029852D01*
X0135989Y0029843D01*
X0136085Y0029830D01*
X0136181Y0029813D01*
X0136276Y0029792D01*
X0136369Y0029768D01*
X0136462Y0029739D01*
X0136554Y0029707D01*
X0136644Y0029671D01*
X0136732Y0029632D01*
X0136819Y0029588D01*
X0136904Y0029542D01*
X0136987Y0029491D01*
X0137068Y0029438D01*
X0137146Y0029381D01*
X0137223Y0029321D01*
X0137296Y0029258D01*
X0137367Y0029192D01*
X0137435Y0029123D01*
X0137501Y0029051D01*
X0137563Y0028977D01*
X0137622Y0028900D01*
X0137678Y0028821D01*
X0137731Y0028739D01*
X0137781Y0028656D01*
X0137826Y0028570D01*
X0137869Y0028483D01*
X0137908Y0028394D01*
X0137943Y0028304D01*
X0137974Y0028212D01*
X0138001Y0028119D01*
X0138025Y0028025D01*
X0138045Y0027930D01*
X0138061Y0027834D01*
X0138073Y0027738D01*
X0138081Y0027641D01*
X0138085Y0027544D01*
X0138085Y0027448D01*
X0138081Y0027351D01*
X0138073Y0027254D01*
X0138061Y0027158D01*
X0138045Y0027062D01*
X0138025Y0026967D01*
X0138001Y0026873D01*
X0137974Y0026780D01*
X0137943Y0026688D01*
X0137908Y0026598D01*
X0137869Y0026509D01*
X0137826Y0026422D01*
X0137781Y0026336D01*
X0137731Y0026253D01*
X0137678Y0026171D01*
X0137622Y0026092D01*
X0137563Y0026015D01*
X0137501Y0025941D01*
X0137435Y0025869D01*
X0137367Y0025800D01*
X0137296Y0025734D01*
X0137223Y0025671D01*
X0137146Y0025611D01*
X0137068Y0025554D01*
X0136987Y0025501D01*
X0136904Y0025450D01*
X0136819Y0025404D01*
X0136732Y0025360D01*
X0136644Y0025321D01*
X0136554Y0025285D01*
X0136462Y0025253D01*
X0136369Y0025224D01*
X0136276Y0025200D01*
X0136181Y0025179D01*
X0136085Y0025162D01*
X0135989Y0025149D01*
X0135893Y0025140D01*
X0135796Y0025135D01*
X0135699Y0025134D01*
X0135602Y0025137D01*
X0135505Y0025144D01*
X0135409Y0025155D01*
X0135313Y0025170D01*
X0135218Y0025189D01*
X0135123Y0025211D01*
X0135030Y0025238D01*
X0134938Y0025268D01*
X0134847Y0025302D01*
X0134758Y0025340D01*
X0134670Y0025382D01*
X0134584Y0025427D01*
X0134500Y0025475D01*
X0134418Y0025527D01*
X0134339Y0025582D01*
X0134261Y0025641D01*
X0134186Y0025702D01*
X0134114Y0025767D01*
X0134044Y0025834D01*
X0133977Y0025905D01*
X0133914Y0025978D01*
X0133853Y0026053D01*
X0133795Y0026131D01*
X0133741Y0026212D01*
X0133690Y0026294D01*
X0133642Y0026379D01*
X0133598Y0026465D01*
X0133557Y0026553D01*
X0133521Y0026643D01*
X0133487Y0026734D01*
X0133458Y0026826D01*
X0133432Y0026920D01*
X0133411Y0027014D01*
X0133393Y0027110D01*
X0133379Y0027206D01*
X0133369Y0027302D01*
X0133363Y0027399D01*
X0133361Y0027496D01*
D11*
X0060068Y0262319D03*
X0036446Y0285941D03*
X0327784Y0262319D03*
X0351406Y0285941D03*
D12*
X0136662Y0131847D03*
D13*
X0128788Y0131847D03*
X0263012Y0033432D03*
X0269217Y0028584D03*
X0275422Y0023736D03*
X0281627Y0018889D03*
X0287832Y0014041D03*
D14*
X0251013Y0075311D03*
X0172666Y0278067D03*
D15*
X0142296Y0164681D03*
X0133296Y0164681D03*
X0124296Y0164681D03*
D16*
X0118296Y0120587D03*
X0148296Y0120587D03*
D17*
X0137509Y0107201D03*
X0127509Y0107201D03*
D18*
X0128119Y0056658D02*
X0128119Y0050658D01*
X0118119Y0050658D02*
X0118119Y0056658D01*
X0108119Y0056658D02*
X0108119Y0050658D01*
X0098119Y0050658D02*
X0098119Y0056658D01*
X0088119Y0056658D02*
X0088119Y0050658D01*
X0078119Y0050658D02*
X0078119Y0056658D01*
X0068119Y0056658D02*
X0068119Y0050658D01*
X0058119Y0050658D02*
X0058119Y0056658D01*
X0138119Y0056658D02*
X0138119Y0050658D01*
X0148119Y0050658D02*
X0148119Y0056658D01*
X0158119Y0056658D02*
X0158119Y0050658D01*
X0168119Y0050658D02*
X0168119Y0056658D01*
X0178119Y0056658D02*
X0178119Y0050658D01*
X0188119Y0050658D02*
X0188119Y0056658D01*
X0198119Y0056658D02*
X0198119Y0050658D01*
X0208119Y0050658D02*
X0208119Y0056658D01*
X0218119Y0056658D02*
X0218119Y0050658D01*
X0228119Y0050658D02*
X0228119Y0056658D01*
X0333446Y0157791D02*
X0339446Y0157791D01*
X0339446Y0167791D02*
X0333446Y0167791D01*
X0333446Y0177791D02*
X0339446Y0177791D01*
X0339446Y0187791D02*
X0333446Y0187791D01*
X0333446Y0197791D02*
X0339446Y0197791D01*
X0339446Y0207791D02*
X0333446Y0207791D01*
X0228946Y0223886D02*
X0228946Y0229886D01*
X0218946Y0229886D02*
X0218946Y0223886D01*
X0208946Y0223886D02*
X0208946Y0229886D01*
X0198946Y0229886D02*
X0198946Y0223886D01*
X0188946Y0223886D02*
X0188946Y0229886D01*
X0178946Y0229886D02*
X0178946Y0223886D01*
X0168946Y0223886D02*
X0168946Y0229886D01*
X0158946Y0229886D02*
X0158946Y0223886D01*
X0148946Y0223886D02*
X0148946Y0229886D01*
X0138946Y0229886D02*
X0138946Y0223886D01*
X0128946Y0223886D02*
X0128946Y0229886D01*
X0118946Y0229886D02*
X0118946Y0223886D01*
X0108946Y0223886D02*
X0108946Y0229886D01*
X0098946Y0229886D02*
X0098946Y0223886D01*
X0088946Y0223886D02*
X0088946Y0229886D01*
X0078946Y0229886D02*
X0078946Y0223886D01*
X0068946Y0223886D02*
X0068946Y0229886D01*
X0058946Y0229886D02*
X0058946Y0223886D01*
D19*
X0349275Y0062828D03*
X0361411Y0062828D03*
D20*
X0357902Y0062728D03*
X0355343Y0062728D03*
X0352784Y0062728D03*
D21*
X0341091Y0056795D03*
X0369591Y0056795D03*
D22*
X0368843Y0051295D03*
X0368843Y0062295D03*
X0341843Y0062295D03*
X0341843Y0051295D03*
D23*
X0371091Y0098776D03*
D24*
X0371091Y0108776D03*
X0371091Y0118776D03*
D25*
X0247194Y0311532D03*
X0144083Y0188579D03*
D26*
X0134083Y0188579D03*
X0134083Y0178579D03*
X0144083Y0178579D03*
X0124083Y0178579D03*
X0124083Y0188579D03*
X0257194Y0311532D03*
D27*
X0351898Y0071768D03*
X0358788Y0071768D03*
X0236347Y0039878D03*
X0229457Y0039878D03*
X0223946Y0012319D03*
X0217056Y0012319D03*
D28*
X0350816Y0079642D03*
X0358296Y0079642D03*
D29*
X0315173Y0042641D03*
X0284149Y0066880D03*
D30*
X0232118Y0025261D03*
D31*
X0230882Y0017025D03*
X0233441Y0017025D03*
X0236000Y0017025D03*
X0228323Y0017025D03*
X0228323Y0033511D03*
X0230882Y0033511D03*
X0233441Y0033511D03*
X0236000Y0033511D03*
D32*
X0150322Y0018477D02*
X0144475Y0017446D01*
X0140510Y0039934D02*
X0146357Y0040965D01*
X0119510Y0011845D02*
X0113663Y0010814D01*
X0109287Y0035628D02*
X0115134Y0036659D01*
D33*
X0151209Y0028264D03*
X0157902Y0028264D03*
D34*
X0241564Y0020095D03*
X0241564Y0013205D03*
D35*
X0218139Y0033382D03*
X0196879Y0033382D03*
X0184871Y0020784D03*
X0163611Y0020784D03*
D36*
X0157902Y0028264D01*
X0161871Y0028793D02*
X0188600Y0028793D01*
X0189161Y0028232D02*
X0187989Y0029404D01*
X0187989Y0029897D01*
X0187749Y0029798D01*
X0186323Y0029798D01*
X0185006Y0030343D01*
X0183998Y0031352D01*
X0183452Y0032669D01*
X0183452Y0034095D01*
X0183998Y0035412D01*
X0185006Y0036421D01*
X0186323Y0036966D01*
X0187749Y0036966D01*
X0187989Y0036867D01*
X0187989Y0037360D01*
X0189161Y0038532D01*
X0204597Y0038532D01*
X0205768Y0037360D01*
X0205768Y0029404D01*
X0204597Y0028232D01*
X0189161Y0028232D01*
X0192589Y0025933D02*
X0177153Y0025933D01*
X0175981Y0024762D01*
X0175981Y0016805D01*
X0177153Y0015634D01*
X0192589Y0015634D01*
X0193761Y0016805D01*
X0193761Y0017915D01*
X0207978Y0017804D01*
X0208234Y0017548D01*
X0209552Y0017002D01*
X0210978Y0017002D01*
X0212295Y0017548D01*
X0213303Y0018556D01*
X0213849Y0019874D01*
X0213849Y0021300D01*
X0213303Y0022617D01*
X0212295Y0023625D01*
X0210978Y0024171D01*
X0209552Y0024171D01*
X0208234Y0023625D01*
X0208013Y0023404D01*
X0193761Y0023515D01*
X0193761Y0024762D01*
X0192589Y0025933D01*
X0192927Y0025596D02*
X0220659Y0025596D01*
X0220612Y0025643D02*
X0221620Y0024635D01*
X0222937Y0024089D01*
X0224363Y0024089D01*
X0225681Y0024635D01*
X0226689Y0025643D01*
X0226870Y0026080D01*
X0226870Y0021769D01*
X0226518Y0021565D01*
X0226182Y0021230D01*
X0225945Y0020820D01*
X0225823Y0020362D01*
X0225823Y0017025D01*
X0228082Y0017025D01*
X0228082Y0017025D01*
X0225823Y0017025D01*
X0225823Y0016445D01*
X0221050Y0016445D01*
X0220359Y0015754D01*
X0220228Y0015885D01*
X0219818Y0016122D01*
X0219360Y0016245D01*
X0217289Y0016245D01*
X0217289Y0012552D01*
X0216822Y0012552D01*
X0216822Y0012085D01*
X0217289Y0012085D01*
X0217289Y0008393D01*
X0219360Y0008393D01*
X0219818Y0008516D01*
X0220228Y0008753D01*
X0220359Y0008884D01*
X0221030Y0008213D01*
X0123032Y0008213D01*
X0124146Y0009804D01*
X0124574Y0011734D01*
X0124231Y0013681D01*
X0123169Y0015348D01*
X0121550Y0016482D01*
X0119620Y0016909D01*
X0111827Y0015535D01*
X0110160Y0014473D01*
X0109026Y0012854D01*
X0108598Y0010924D01*
X0108922Y0009089D01*
X0108379Y0009286D01*
X0106242Y0011073D01*
X0104842Y0013482D01*
X0104476Y0014831D01*
X0103597Y0019712D01*
X0104441Y0018868D01*
X0105971Y0018234D01*
X0107627Y0018234D01*
X0109157Y0018868D01*
X0110328Y0020039D01*
X0110961Y0021568D01*
X0110961Y0023224D01*
X0110328Y0024754D01*
X0109157Y0025925D01*
X0107627Y0026558D01*
X0105971Y0026558D01*
X0104441Y0025925D01*
X0103271Y0024754D01*
X0102866Y0023777D01*
X0100437Y0037270D01*
X0100305Y0038003D01*
X0099942Y0040019D01*
X0097885Y0043560D01*
X0097076Y0044237D01*
X0097076Y0045678D01*
X0097124Y0045658D01*
X0099113Y0045658D01*
X0100951Y0046419D01*
X0101103Y0046571D01*
X0105134Y0046571D01*
X0105287Y0046419D01*
X0107124Y0045658D01*
X0109113Y0045658D01*
X0110951Y0046419D01*
X0111103Y0046571D01*
X0115134Y0046571D01*
X0115287Y0046419D01*
X0117124Y0045658D01*
X0119113Y0045658D01*
X0120951Y0046419D01*
X0121103Y0046571D01*
X0125134Y0046571D01*
X0125287Y0046419D01*
X0127124Y0045658D01*
X0129113Y0045658D01*
X0130951Y0046419D01*
X0131103Y0046571D01*
X0135134Y0046571D01*
X0135287Y0046419D01*
X0137124Y0045658D01*
X0139113Y0045658D01*
X0140951Y0046419D01*
X0141103Y0046571D01*
X0142745Y0046571D01*
X0142942Y0046768D01*
X0145313Y0046763D01*
X0145603Y0046552D01*
X0146276Y0046209D01*
X0146995Y0045976D01*
X0147741Y0045858D01*
X0147919Y0045858D01*
X0147919Y0046757D01*
X0148319Y0046756D01*
X0148319Y0045858D01*
X0148497Y0045858D01*
X0149243Y0045976D01*
X0149961Y0046209D01*
X0150635Y0046552D01*
X0150908Y0046751D01*
X0154963Y0046742D01*
X0155287Y0046419D01*
X0157124Y0045658D01*
X0159113Y0045658D01*
X0160951Y0046419D01*
X0161262Y0046729D01*
X0164984Y0046721D01*
X0165287Y0046419D01*
X0167124Y0045658D01*
X0169113Y0045658D01*
X0170951Y0046419D01*
X0171240Y0046708D01*
X0175005Y0046700D01*
X0175287Y0046419D01*
X0177124Y0045658D01*
X0179113Y0045658D01*
X0180951Y0046419D01*
X0181219Y0046687D01*
X0185026Y0046679D01*
X0185287Y0046419D01*
X0187124Y0045658D01*
X0189113Y0045658D01*
X0190951Y0046419D01*
X0191198Y0046666D01*
X0195048Y0046658D01*
X0195287Y0046419D01*
X0197124Y0045658D01*
X0199113Y0045658D01*
X0200951Y0046419D01*
X0201177Y0046645D01*
X0205069Y0046637D01*
X0205287Y0046419D01*
X0207124Y0045658D01*
X0209113Y0045658D01*
X0210951Y0046419D01*
X0211156Y0046624D01*
X0215090Y0046616D01*
X0215287Y0046419D01*
X0217124Y0045658D01*
X0219113Y0045658D01*
X0220951Y0046419D01*
X0221135Y0046603D01*
X0225111Y0046594D01*
X0225287Y0046419D01*
X0227124Y0045658D01*
X0229113Y0045658D01*
X0230951Y0046419D01*
X0231114Y0046582D01*
X0232091Y0046580D01*
X0229437Y0044257D01*
X0229348Y0044220D01*
X0229204Y0044076D01*
X0229082Y0044004D01*
X0226562Y0044004D01*
X0226020Y0043462D01*
X0225103Y0043462D01*
X0223785Y0042917D01*
X0222777Y0041908D01*
X0222231Y0040591D01*
X0222231Y0039165D01*
X0222494Y0038532D01*
X0210420Y0038532D01*
X0209249Y0037360D01*
X0209249Y0029404D01*
X0210420Y0028232D01*
X0219218Y0028232D01*
X0220066Y0027354D01*
X0220066Y0026960D01*
X0220612Y0025643D01*
X0220066Y0027194D02*
X0162241Y0027194D01*
X0161871Y0027679D02*
X0163203Y0025933D01*
X0171329Y0025933D01*
X0172501Y0024762D01*
X0172501Y0016805D01*
X0171329Y0015634D01*
X0155893Y0015634D01*
X0154983Y0016544D01*
X0154959Y0016437D01*
X0153825Y0014818D01*
X0152158Y0013756D01*
X0144365Y0012382D01*
X0142435Y0012809D01*
X0140816Y0013943D01*
X0139754Y0015610D01*
X0139411Y0017557D01*
X0139838Y0019486D01*
X0140972Y0021106D01*
X0142639Y0022168D01*
X0150433Y0023542D01*
X0152362Y0023114D01*
X0153981Y0021980D01*
X0154721Y0020819D01*
X0154721Y0024762D01*
X0154779Y0024819D01*
X0154556Y0025042D01*
X0154006Y0024492D01*
X0148413Y0024492D01*
X0147241Y0025664D01*
X0147241Y0027118D01*
X0139588Y0030944D01*
X0131924Y0032951D01*
X0118786Y0033212D01*
X0118637Y0032999D01*
X0116970Y0031937D01*
X0109177Y0030563D01*
X0107247Y0030991D01*
X0105628Y0032125D01*
X0104566Y0033792D01*
X0104223Y0035738D01*
X0104651Y0037668D01*
X0105784Y0039287D01*
X0107451Y0040349D01*
X0115245Y0041723D01*
X0117174Y0041296D01*
X0118794Y0040162D01*
X0119664Y0038796D01*
X0132148Y0038548D01*
X0132482Y0038594D01*
X0132700Y0038537D01*
X0132924Y0038533D01*
X0133233Y0038397D01*
X0136362Y0037578D01*
X0136123Y0038027D01*
X0135879Y0038736D01*
X0135846Y0038924D01*
X0143284Y0040236D01*
X0143220Y0040599D01*
X0142424Y0045113D01*
X0139312Y0044565D01*
X0138603Y0044320D01*
X0137940Y0043968D01*
X0137341Y0043516D01*
X0136819Y0042976D01*
X0136389Y0042362D01*
X0136060Y0041687D01*
X0135840Y0040969D01*
X0135736Y0040226D01*
X0135749Y0039475D01*
X0135782Y0039287D01*
X0143220Y0040599D01*
X0143583Y0040663D01*
X0151021Y0041974D01*
X0150988Y0042162D01*
X0150743Y0042872D01*
X0150391Y0043535D01*
X0149939Y0044134D01*
X0149399Y0044656D01*
X0148784Y0045086D01*
X0148110Y0045415D01*
X0147392Y0045635D01*
X0146649Y0045739D01*
X0145898Y0045726D01*
X0142787Y0045177D01*
X0143583Y0040663D01*
X0143647Y0040300D01*
X0151085Y0041611D01*
X0151118Y0041423D01*
X0151131Y0040673D01*
X0151027Y0039930D01*
X0150807Y0039212D01*
X0150478Y0038537D01*
X0150048Y0037922D01*
X0149526Y0037382D01*
X0148927Y0036931D01*
X0148264Y0036578D01*
X0147554Y0036334D01*
X0144443Y0035785D01*
X0143647Y0040300D01*
X0143284Y0040236D01*
X0144080Y0035721D01*
X0142953Y0035523D01*
X0149927Y0032035D01*
X0154006Y0032035D01*
X0154556Y0031486D01*
X0155105Y0032035D01*
X0160699Y0032035D01*
X0161871Y0030864D01*
X0161871Y0027679D01*
X0161871Y0030391D02*
X0184958Y0030391D01*
X0183733Y0031990D02*
X0160745Y0031990D01*
X0155060Y0031990D02*
X0154052Y0031990D01*
X0151209Y0028264D02*
X0140580Y0033579D01*
X0132312Y0035744D01*
X0112211Y0036143D01*
X0114435Y0041581D02*
X0099035Y0041581D01*
X0099942Y0040019D02*
X0099942Y0040019D01*
X0099949Y0039982D02*
X0106875Y0039982D01*
X0105152Y0038384D02*
X0100236Y0038384D01*
X0100437Y0037270D02*
X0100437Y0037270D01*
X0100524Y0036785D02*
X0104455Y0036785D01*
X0104320Y0035187D02*
X0100812Y0035187D01*
X0101100Y0033588D02*
X0104696Y0033588D01*
X0105821Y0031990D02*
X0101387Y0031990D01*
X0101675Y0030391D02*
X0132732Y0030391D01*
X0132194Y0029854D02*
X0131561Y0028324D01*
X0131561Y0026668D01*
X0132194Y0025139D01*
X0133365Y0023968D01*
X0134895Y0023334D01*
X0136551Y0023334D01*
X0138081Y0023968D01*
X0139252Y0025139D01*
X0139885Y0026668D01*
X0139885Y0028324D01*
X0139252Y0029854D01*
X0138081Y0031025D01*
X0136551Y0031659D01*
X0134895Y0031659D01*
X0133365Y0031025D01*
X0132194Y0029854D01*
X0131755Y0028793D02*
X0101963Y0028793D01*
X0102251Y0027194D02*
X0131561Y0027194D01*
X0132005Y0025596D02*
X0109486Y0025596D01*
X0110641Y0023997D02*
X0133336Y0023997D01*
X0135596Y0031990D02*
X0117052Y0031990D01*
X0110961Y0022399D02*
X0143949Y0022399D01*
X0140758Y0020800D02*
X0110643Y0020800D01*
X0109491Y0019202D02*
X0139775Y0019202D01*
X0139421Y0017603D02*
X0103977Y0017603D01*
X0104108Y0019202D02*
X0103689Y0019202D01*
X0104265Y0016005D02*
X0114488Y0016005D01*
X0110113Y0014406D02*
X0104591Y0014406D01*
X0105234Y0012807D02*
X0109016Y0012807D01*
X0108661Y0011209D02*
X0106163Y0011209D01*
X0107991Y0009610D02*
X0108830Y0009610D01*
X0102957Y0023997D02*
X0102826Y0023997D01*
X0102538Y0025596D02*
X0104112Y0025596D01*
X0098106Y0043179D02*
X0137015Y0043179D01*
X0136027Y0041581D02*
X0115888Y0041581D01*
X0118908Y0039982D02*
X0135740Y0039982D01*
X0136001Y0038384D02*
X0133285Y0038384D01*
X0135389Y0046376D02*
X0130849Y0046376D01*
X0128119Y0053658D02*
X0145894Y0090665D01*
X0191564Y0091453D01*
X0194320Y0094332D02*
X0218311Y0094332D01*
X0216869Y0095343D02*
X0245613Y0075189D01*
X0245613Y0073074D01*
X0246815Y0071872D01*
X0245107Y0070193D01*
X0139775Y0070534D01*
X0147924Y0087500D01*
X0189171Y0088211D01*
X0189307Y0088075D01*
X0190771Y0087469D01*
X0192356Y0087469D01*
X0193821Y0088075D01*
X0194941Y0089196D01*
X0195548Y0090660D01*
X0195548Y0092245D01*
X0194941Y0093710D01*
X0193821Y0094830D01*
X0192356Y0095437D01*
X0190771Y0095437D01*
X0189307Y0094830D01*
X0189087Y0094611D01*
X0145955Y0093867D01*
X0145435Y0093896D01*
X0145322Y0093856D01*
X0145203Y0093854D01*
X0144725Y0093646D01*
X0144234Y0093474D01*
X0144145Y0093394D01*
X0144035Y0093347D01*
X0143674Y0092972D01*
X0143286Y0092625D01*
X0143234Y0092517D01*
X0143151Y0092431D01*
X0142960Y0091947D01*
X0132686Y0070557D01*
X0130667Y0070563D01*
X0146248Y0100064D01*
X0185980Y0100064D01*
X0186157Y0099886D01*
X0187622Y0099280D01*
X0189207Y0099280D01*
X0190671Y0099886D01*
X0191792Y0101007D01*
X0192398Y0102471D01*
X0192398Y0104056D01*
X0192160Y0104632D01*
X0192365Y0104749D01*
X0192816Y0104936D01*
X0192981Y0105102D01*
X0203388Y0111049D01*
X0203839Y0111236D01*
X0204005Y0111401D01*
X0204208Y0111517D01*
X0204507Y0111903D01*
X0204852Y0112248D01*
X0204941Y0112464D01*
X0205085Y0112649D01*
X0205213Y0113120D01*
X0205400Y0113571D01*
X0205400Y0113805D01*
X0205462Y0114031D01*
X0205400Y0114515D01*
X0205400Y0122693D01*
X0205465Y0123149D01*
X0205400Y0123403D01*
X0205400Y0123665D01*
X0205224Y0124090D01*
X0205110Y0124536D01*
X0204952Y0124746D01*
X0204852Y0124988D01*
X0204526Y0125314D01*
X0191808Y0142272D01*
X0191808Y0142678D01*
X0191171Y0144215D01*
X0189995Y0145391D01*
X0188708Y0145924D01*
X0156097Y0180018D01*
X0174117Y0179642D01*
X0174346Y0179414D01*
X0175811Y0178807D01*
X0177396Y0178807D01*
X0178860Y0179414D01*
X0179981Y0180534D01*
X0180587Y0181999D01*
X0180587Y0183584D01*
X0179981Y0185048D01*
X0178860Y0186169D01*
X0177396Y0186776D01*
X0175811Y0186776D01*
X0174346Y0186169D01*
X0174219Y0186042D01*
X0149783Y0186551D01*
X0149783Y0192356D01*
X0149685Y0192595D01*
X0182429Y0192195D01*
X0182623Y0192139D01*
X0183060Y0192188D01*
X0183500Y0192182D01*
X0183687Y0192257D01*
X0183888Y0192280D01*
X0184274Y0192492D01*
X0184682Y0192655D01*
X0184826Y0192796D01*
X0185004Y0192894D01*
X0185278Y0193237D01*
X0185593Y0193544D01*
X0185672Y0193730D01*
X0190171Y0199353D01*
X0191458Y0199886D01*
X0192579Y0201007D01*
X0193186Y0202471D01*
X0193186Y0204056D01*
X0192579Y0205521D01*
X0191458Y0206641D01*
X0189994Y0207248D01*
X0188409Y0207248D01*
X0186945Y0206641D01*
X0185824Y0205521D01*
X0185217Y0204056D01*
X0185217Y0203406D01*
X0182950Y0200571D01*
X0182950Y0201694D01*
X0182343Y0203159D01*
X0181222Y0204279D01*
X0179758Y0204886D01*
X0178173Y0204886D01*
X0176708Y0204279D01*
X0175588Y0203159D01*
X0175113Y0202012D01*
X0174787Y0201768D01*
X0173227Y0201810D01*
X0173501Y0202471D01*
X0173501Y0204056D01*
X0172894Y0205521D01*
X0171773Y0206641D01*
X0170309Y0207248D01*
X0168724Y0207248D01*
X0167260Y0206641D01*
X0166402Y0205784D01*
X0165973Y0205676D01*
X0152491Y0205676D01*
X0152517Y0205711D01*
X0153663Y0206185D01*
X0154784Y0207306D01*
X0155391Y0208771D01*
X0155391Y0210356D01*
X0154784Y0211820D01*
X0153663Y0212941D01*
X0152199Y0213547D01*
X0150614Y0213547D01*
X0149149Y0212941D01*
X0148029Y0211820D01*
X0147422Y0210356D01*
X0147422Y0209613D01*
X0113137Y0209613D01*
X0112820Y0209676D01*
X0112507Y0209613D01*
X0112187Y0209613D01*
X0111889Y0209490D01*
X0111572Y0209426D01*
X0111306Y0209249D01*
X0111011Y0209126D01*
X0110783Y0208898D01*
X0110514Y0208718D01*
X0110337Y0208452D01*
X0110111Y0208226D01*
X0109987Y0207928D01*
X0099313Y0191917D01*
X0099087Y0191691D01*
X0098964Y0191392D01*
X0098784Y0191123D01*
X0098722Y0190810D01*
X0098600Y0190515D01*
X0098600Y0190191D01*
X0098537Y0189875D01*
X0098600Y0189561D01*
X0098600Y0160817D01*
X0098422Y0160639D01*
X0097816Y0159174D01*
X0097816Y0157589D01*
X0098422Y0156125D01*
X0099543Y0155004D01*
X0101007Y0154398D01*
X0102593Y0154398D01*
X0104057Y0155004D01*
X0104942Y0155889D01*
X0112361Y0146879D01*
X0106923Y0141894D01*
X0106519Y0141894D01*
X0105055Y0141287D01*
X0103934Y0140166D01*
X0103328Y0138702D01*
X0103328Y0137117D01*
X0103934Y0135653D01*
X0105055Y0134532D01*
X0106519Y0133925D01*
X0108104Y0133925D01*
X0109569Y0134532D01*
X0110689Y0135653D01*
X0111296Y0137117D01*
X0111296Y0137221D01*
X0117150Y0142587D01*
X0117553Y0142587D01*
X0119018Y0143193D01*
X0120138Y0144314D01*
X0120745Y0145778D01*
X0120745Y0147363D01*
X0120138Y0148828D01*
X0120033Y0148933D01*
X0120926Y0149826D01*
X0121532Y0151290D01*
X0121532Y0152875D01*
X0120926Y0154340D01*
X0120820Y0154445D01*
X0121713Y0155338D01*
X0122320Y0156802D01*
X0122320Y0158387D01*
X0121786Y0159675D01*
X0122146Y0159491D01*
X0122985Y0159219D01*
X0123855Y0159081D01*
X0123915Y0159081D01*
X0123915Y0164300D01*
X0124677Y0164300D01*
X0124677Y0159081D01*
X0124737Y0159081D01*
X0125607Y0159219D01*
X0126446Y0159491D01*
X0127231Y0159892D01*
X0127944Y0160410D01*
X0128372Y0160837D01*
X0129042Y0160167D01*
X0125696Y0135789D01*
X0124571Y0134664D01*
X0123813Y0132836D01*
X0123813Y0130857D01*
X0124571Y0129029D01*
X0125970Y0127629D01*
X0127799Y0126872D01*
X0129778Y0126872D01*
X0131606Y0127629D01*
X0132005Y0128028D01*
X0132053Y0127912D01*
X0132728Y0127237D01*
X0133610Y0126872D01*
X0139714Y0126872D01*
X0140596Y0127237D01*
X0141272Y0127912D01*
X0141637Y0128794D01*
X0141637Y0134899D01*
X0141272Y0135781D01*
X0140596Y0136456D01*
X0139714Y0136821D01*
X0133610Y0136821D01*
X0133074Y0136599D01*
X0136172Y0159162D01*
X0136808Y0159425D01*
X0137796Y0160413D01*
X0138784Y0159425D01*
X0141063Y0158481D01*
X0143529Y0158481D01*
X0145808Y0159425D01*
X0147552Y0161169D01*
X0148177Y0162676D01*
X0148994Y0160225D01*
X0148994Y0130238D01*
X0148939Y0129808D01*
X0148994Y0129607D01*
X0148994Y0129399D01*
X0149160Y0128998D01*
X0149274Y0128579D01*
X0149401Y0128415D01*
X0149481Y0128223D01*
X0149788Y0127916D01*
X0150053Y0127573D01*
X0150234Y0127470D01*
X0150381Y0127323D01*
X0150782Y0127157D01*
X0172281Y0114871D01*
X0172428Y0114724D01*
X0172829Y0114558D01*
X0173206Y0114343D01*
X0173412Y0114317D01*
X0173604Y0114237D01*
X0174038Y0114237D01*
X0174469Y0114182D01*
X0174669Y0114237D01*
X0192255Y0114237D01*
X0192517Y0113605D01*
X0192820Y0113302D01*
X0189820Y0111588D01*
X0177536Y0111588D01*
X0176608Y0111972D01*
X0175023Y0111972D01*
X0173559Y0111366D01*
X0172438Y0110245D01*
X0171831Y0108781D01*
X0171831Y0107196D01*
X0172135Y0106464D01*
X0144469Y0106464D01*
X0143984Y0106509D01*
X0143837Y0106464D01*
X0143683Y0106464D01*
X0143233Y0106277D01*
X0142767Y0106134D01*
X0142649Y0106035D01*
X0142509Y0105977D01*
X0142509Y0109272D01*
X0139580Y0112201D01*
X0135438Y0112201D01*
X0132509Y0109272D01*
X0132509Y0105130D01*
X0135438Y0102201D01*
X0139580Y0102201D01*
X0140766Y0103387D01*
X0123442Y0070587D01*
X0038246Y0070862D01*
X0038246Y0205376D01*
X0040416Y0200313D01*
X0040335Y0200119D01*
X0040335Y0198534D01*
X0040942Y0197070D01*
X0042063Y0195949D01*
X0043527Y0195343D01*
X0045112Y0195343D01*
X0046577Y0195949D01*
X0047697Y0197070D01*
X0048304Y0198534D01*
X0048304Y0200119D01*
X0047697Y0201584D01*
X0046577Y0202704D01*
X0046305Y0202817D01*
X0042795Y0211007D01*
X0042795Y0236262D01*
X0042821Y0236825D01*
X0042795Y0236896D01*
X0042795Y0236971D01*
X0042579Y0237492D01*
X0042388Y0238022D01*
X0042337Y0238078D01*
X0042308Y0238147D01*
X0041909Y0238546D01*
X0026260Y0255686D01*
X0026260Y0255947D01*
X0026438Y0256125D01*
X0027044Y0257589D01*
X0027044Y0259174D01*
X0026438Y0260639D01*
X0025317Y0261760D01*
X0023852Y0262366D01*
X0022267Y0262366D01*
X0020803Y0261760D01*
X0019682Y0260639D01*
X0019076Y0259174D01*
X0019076Y0257589D01*
X0019682Y0256125D01*
X0019860Y0255947D01*
X0019860Y0254518D01*
X0019834Y0253954D01*
X0019856Y0253896D01*
X0015579Y0258172D01*
X0015052Y0258699D01*
X0013421Y0260524D01*
X0010821Y0264662D01*
X0009207Y0269274D01*
X0008660Y0274130D01*
X0009207Y0278986D01*
X0010821Y0283598D01*
X0013421Y0287736D01*
X0015052Y0289560D01*
X0021015Y0295524D01*
X0022840Y0297155D01*
X0026977Y0299754D01*
X0028485Y0300282D01*
X0026376Y0299064D01*
X0023322Y0296011D01*
X0021163Y0292271D01*
X0020046Y0288100D01*
X0020046Y0283782D01*
X0021163Y0279611D01*
X0023322Y0275871D01*
X0026376Y0272818D01*
X0030116Y0270659D01*
X0034287Y0269541D01*
X0038605Y0269541D01*
X0042776Y0270659D01*
X0046516Y0272818D01*
X0049569Y0275871D01*
X0051728Y0279611D01*
X0052846Y0283782D01*
X0052846Y0288100D01*
X0051728Y0292271D01*
X0049569Y0296011D01*
X0046516Y0299064D01*
X0044406Y0300282D01*
X0045914Y0299754D01*
X0050052Y0297155D01*
X0051876Y0295524D01*
X0051876Y0295524D01*
X0052403Y0294997D01*
X0052403Y0294997D01*
X0110503Y0236897D01*
X0110786Y0236614D01*
X0111557Y0235843D01*
X0112114Y0235286D01*
X0114769Y0233753D01*
X0115090Y0233667D01*
X0114368Y0232945D01*
X0113946Y0231926D01*
X0113524Y0232945D01*
X0112005Y0234464D01*
X0110020Y0235286D01*
X0107872Y0235286D01*
X0105887Y0234464D01*
X0104368Y0232945D01*
X0103946Y0231926D01*
X0103524Y0232945D01*
X0102005Y0234464D01*
X0100020Y0235286D01*
X0097872Y0235286D01*
X0095887Y0234464D01*
X0094368Y0232945D01*
X0093946Y0231926D01*
X0093524Y0232945D01*
X0092005Y0234464D01*
X0090020Y0235286D01*
X0087872Y0235286D01*
X0085887Y0234464D01*
X0084368Y0232945D01*
X0083946Y0231926D01*
X0083524Y0232945D01*
X0082005Y0234464D01*
X0080020Y0235286D01*
X0077872Y0235286D01*
X0075887Y0234464D01*
X0074368Y0232945D01*
X0073946Y0231926D01*
X0073524Y0232945D01*
X0072005Y0234464D01*
X0070020Y0235286D01*
X0067872Y0235286D01*
X0065887Y0234464D01*
X0064368Y0232945D01*
X0063946Y0231926D01*
X0063524Y0232945D01*
X0062005Y0234464D01*
X0060020Y0235286D01*
X0057872Y0235286D01*
X0055887Y0234464D01*
X0054368Y0232945D01*
X0053546Y0230960D01*
X0053546Y0222812D01*
X0054368Y0220827D01*
X0055887Y0219308D01*
X0057872Y0218486D01*
X0060020Y0218486D01*
X0062005Y0219308D01*
X0063524Y0220827D01*
X0063946Y0221846D01*
X0064368Y0220827D01*
X0065887Y0219308D01*
X0067872Y0218486D01*
X0070020Y0218486D01*
X0072005Y0219308D01*
X0073524Y0220827D01*
X0073946Y0221846D01*
X0074368Y0220827D01*
X0075887Y0219308D01*
X0077872Y0218486D01*
X0080020Y0218486D01*
X0082005Y0219308D01*
X0083524Y0220827D01*
X0083946Y0221846D01*
X0084368Y0220827D01*
X0085887Y0219308D01*
X0087872Y0218486D01*
X0090020Y0218486D01*
X0092005Y0219308D01*
X0093524Y0220827D01*
X0093946Y0221846D01*
X0094368Y0220827D01*
X0095887Y0219308D01*
X0097872Y0218486D01*
X0100020Y0218486D01*
X0102005Y0219308D01*
X0103524Y0220827D01*
X0103946Y0221846D01*
X0104368Y0220827D01*
X0105887Y0219308D01*
X0107872Y0218486D01*
X0110020Y0218486D01*
X0112005Y0219308D01*
X0113524Y0220827D01*
X0113946Y0221846D01*
X0114368Y0220827D01*
X0115887Y0219308D01*
X0117872Y0218486D01*
X0120020Y0218486D01*
X0122005Y0219308D01*
X0123524Y0220827D01*
X0123946Y0221846D01*
X0124368Y0220827D01*
X0125887Y0219308D01*
X0127872Y0218486D01*
X0130020Y0218486D01*
X0132005Y0219308D01*
X0133524Y0220827D01*
X0133946Y0221846D01*
X0134368Y0220827D01*
X0135887Y0219308D01*
X0137872Y0218486D01*
X0140020Y0218486D01*
X0142005Y0219308D01*
X0143524Y0220827D01*
X0143946Y0221846D01*
X0144368Y0220827D01*
X0145887Y0219308D01*
X0147872Y0218486D01*
X0150020Y0218486D01*
X0152005Y0219308D01*
X0153524Y0220827D01*
X0153946Y0221846D01*
X0154368Y0220827D01*
X0155887Y0219308D01*
X0157872Y0218486D01*
X0160020Y0218486D01*
X0162005Y0219308D01*
X0163524Y0220827D01*
X0163946Y0221846D01*
X0164368Y0220827D01*
X0165887Y0219308D01*
X0167872Y0218486D01*
X0170020Y0218486D01*
X0172005Y0219308D01*
X0173524Y0220827D01*
X0173946Y0221846D01*
X0174368Y0220827D01*
X0175887Y0219308D01*
X0177872Y0218486D01*
X0180020Y0218486D01*
X0182005Y0219308D01*
X0183524Y0220827D01*
X0183946Y0221846D01*
X0184368Y0220827D01*
X0185887Y0219308D01*
X0187872Y0218486D01*
X0190020Y0218486D01*
X0192005Y0219308D01*
X0193524Y0220827D01*
X0194291Y0222679D01*
X0194497Y0222043D01*
X0194840Y0221370D01*
X0195284Y0220759D01*
X0195819Y0220225D01*
X0196430Y0219781D01*
X0197103Y0219438D01*
X0197822Y0219204D01*
X0198568Y0219086D01*
X0198746Y0219086D01*
X0198746Y0226686D01*
X0199146Y0226686D01*
X0199146Y0219086D01*
X0199323Y0219086D01*
X0200070Y0219204D01*
X0200788Y0219438D01*
X0201461Y0219781D01*
X0202073Y0220225D01*
X0202607Y0220759D01*
X0203051Y0221370D01*
X0203394Y0222043D01*
X0203601Y0222679D01*
X0204368Y0220827D01*
X0205887Y0219308D01*
X0207872Y0218486D01*
X0210020Y0218486D01*
X0212005Y0219308D01*
X0213524Y0220827D01*
X0213946Y0221846D01*
X0214368Y0220827D01*
X0215596Y0219599D01*
X0216293Y0149825D01*
X0215926Y0148938D01*
X0215926Y0147353D01*
X0216533Y0145889D01*
X0217653Y0144768D01*
X0219118Y0144161D01*
X0220703Y0144161D01*
X0222167Y0144768D01*
X0223288Y0145889D01*
X0223894Y0147353D01*
X0223894Y0148938D01*
X0223493Y0149908D01*
X0222791Y0220094D01*
X0223524Y0220827D01*
X0223946Y0221846D01*
X0224368Y0220827D01*
X0225534Y0219661D01*
X0225750Y0211451D01*
X0225689Y0211149D01*
X0225768Y0210742D01*
X0225779Y0210328D01*
X0225905Y0210046D01*
X0225964Y0209743D01*
X0226193Y0209398D01*
X0226362Y0209019D01*
X0226585Y0208807D01*
X0226756Y0208550D01*
X0227100Y0208319D01*
X0227401Y0208033D01*
X0227689Y0207923D01*
X0363993Y0116270D01*
X0364178Y0116066D01*
X0364582Y0115874D01*
X0364952Y0115625D01*
X0365223Y0115570D01*
X0365472Y0115452D01*
X0365918Y0115430D01*
X0366138Y0115385D01*
X0367747Y0113776D01*
X0366090Y0112118D01*
X0365191Y0109949D01*
X0365191Y0107602D01*
X0366090Y0105434D01*
X0367426Y0104098D01*
X0366732Y0103810D01*
X0366057Y0103135D01*
X0365691Y0102253D01*
X0365691Y0099418D01*
X0359910Y0095419D01*
X0359603Y0095292D01*
X0359327Y0095016D01*
X0359006Y0094794D01*
X0358826Y0094514D01*
X0358591Y0094279D01*
X0358441Y0093918D01*
X0358229Y0093590D01*
X0358170Y0093263D01*
X0358043Y0092956D01*
X0358043Y0092566D01*
X0357972Y0092181D01*
X0358043Y0091856D01*
X0358043Y0084995D01*
X0355260Y0084995D01*
X0354378Y0084629D01*
X0354031Y0084282D01*
X0353612Y0084395D01*
X0351295Y0084395D01*
X0351295Y0080121D01*
X0350336Y0080121D01*
X0350336Y0079162D01*
X0346457Y0079162D01*
X0346457Y0076452D01*
X0346579Y0075994D01*
X0346816Y0075584D01*
X0347151Y0075249D01*
X0347562Y0075012D01*
X0348020Y0074889D01*
X0348328Y0074889D01*
X0348154Y0074589D01*
X0348031Y0074131D01*
X0348031Y0072001D01*
X0351665Y0072001D01*
X0351665Y0071534D01*
X0348031Y0071534D01*
X0348031Y0069405D01*
X0348154Y0068947D01*
X0348391Y0068537D01*
X0348499Y0068428D01*
X0347438Y0068428D01*
X0346980Y0068306D01*
X0346570Y0068069D01*
X0346235Y0067734D01*
X0346185Y0067647D01*
X0346069Y0067695D01*
X0336114Y0067695D01*
X0335658Y0067507D01*
X0335658Y0096965D01*
X0292351Y0116650D01*
X0275866Y0100439D01*
X0275866Y0106341D01*
X0276044Y0106519D01*
X0276650Y0107983D01*
X0276650Y0109568D01*
X0276044Y0111033D01*
X0274923Y0112153D01*
X0273459Y0112760D01*
X0271874Y0112760D01*
X0270409Y0112153D01*
X0269288Y0111033D01*
X0268682Y0109568D01*
X0268682Y0107983D01*
X0269288Y0106519D01*
X0269466Y0106341D01*
X0269466Y0094146D01*
X0254516Y0079445D01*
X0253249Y0080711D01*
X0248885Y0080711D01*
X0220557Y0100573D01*
X0220138Y0101584D01*
X0219018Y0102704D01*
X0217553Y0103311D01*
X0215968Y0103311D01*
X0214504Y0102704D01*
X0213383Y0101584D01*
X0212776Y0100119D01*
X0212776Y0098534D01*
X0213383Y0097070D01*
X0214504Y0095949D01*
X0215968Y0095343D01*
X0216869Y0095343D01*
X0214550Y0095930D02*
X0144065Y0095930D01*
X0143221Y0094332D02*
X0172905Y0094332D01*
X0173304Y0087938D02*
X0189639Y0087938D01*
X0193488Y0087938D02*
X0227430Y0087938D01*
X0225151Y0089536D02*
X0195082Y0089536D01*
X0195548Y0091135D02*
X0222871Y0091135D01*
X0220591Y0092733D02*
X0195346Y0092733D01*
X0191511Y0100726D02*
X0213028Y0100726D01*
X0212776Y0099127D02*
X0145754Y0099127D01*
X0144909Y0097529D02*
X0213193Y0097529D01*
X0216761Y0099327D02*
X0251013Y0075311D01*
X0245613Y0075149D02*
X0141992Y0075149D01*
X0141224Y0073551D02*
X0245613Y0073551D01*
X0246735Y0071952D02*
X0140456Y0071952D01*
X0142760Y0076748D02*
X0243389Y0076748D01*
X0241109Y0078346D02*
X0143527Y0078346D01*
X0144295Y0079945D02*
X0238830Y0079945D01*
X0236550Y0081543D02*
X0145063Y0081543D01*
X0145831Y0083142D02*
X0234270Y0083142D01*
X0231990Y0084740D02*
X0146599Y0084740D01*
X0147366Y0086339D02*
X0229710Y0086339D01*
X0234019Y0091135D02*
X0266404Y0091135D01*
X0268029Y0092733D02*
X0231739Y0092733D01*
X0229459Y0094332D02*
X0269466Y0094332D01*
X0269466Y0095930D02*
X0245770Y0095930D01*
X0246123Y0096283D02*
X0246729Y0097747D01*
X0246729Y0099332D01*
X0246123Y0100796D01*
X0245945Y0100974D01*
X0245945Y0111853D01*
X0246123Y0112031D01*
X0246729Y0113495D01*
X0246729Y0115080D01*
X0246123Y0116544D01*
X0245002Y0117665D01*
X0243537Y0118272D01*
X0241952Y0118272D01*
X0240488Y0117665D01*
X0239367Y0116544D01*
X0238761Y0115080D01*
X0238761Y0113495D01*
X0239367Y0112031D01*
X0239545Y0111853D01*
X0239545Y0100974D01*
X0239367Y0100796D01*
X0238761Y0099332D01*
X0238761Y0097747D01*
X0239367Y0096283D01*
X0240488Y0095162D01*
X0241952Y0094555D01*
X0243537Y0094555D01*
X0245002Y0095162D01*
X0246123Y0096283D01*
X0246639Y0097529D02*
X0269466Y0097529D01*
X0269466Y0099127D02*
X0246729Y0099127D01*
X0246152Y0100726D02*
X0254609Y0100726D01*
X0254328Y0101007D02*
X0255449Y0099886D01*
X0256913Y0099280D01*
X0258498Y0099280D01*
X0259962Y0099886D01*
X0261083Y0101007D01*
X0261690Y0102471D01*
X0261690Y0104056D01*
X0261083Y0105521D01*
X0269466Y0105521D01*
X0269466Y0103923D02*
X0261690Y0103923D01*
X0261629Y0102324D02*
X0269466Y0102324D01*
X0269466Y0100726D02*
X0260802Y0100726D01*
X0257706Y0103264D02*
X0256918Y0118224D01*
X0253233Y0116711D02*
X0245956Y0116711D01*
X0246716Y0115112D02*
X0253877Y0115112D01*
X0253849Y0115659D02*
X0254380Y0105572D01*
X0254328Y0105521D01*
X0245945Y0105521D01*
X0245945Y0103923D02*
X0253721Y0103923D01*
X0253721Y0104056D02*
X0253721Y0102471D01*
X0254328Y0101007D01*
X0253782Y0102324D02*
X0245945Y0102324D01*
X0245945Y0107120D02*
X0254298Y0107120D01*
X0254328Y0105521D02*
X0253721Y0104056D01*
X0254214Y0108718D02*
X0245945Y0108718D01*
X0245945Y0110317D02*
X0254130Y0110317D01*
X0254046Y0111915D02*
X0246007Y0111915D01*
X0246729Y0113514D02*
X0253962Y0113514D01*
X0253849Y0115659D02*
X0253540Y0115968D01*
X0252934Y0117432D01*
X0252934Y0119017D01*
X0253540Y0120481D01*
X0254661Y0121602D01*
X0256126Y0122209D01*
X0257711Y0122209D01*
X0259175Y0121602D01*
X0260296Y0120481D01*
X0260902Y0119017D01*
X0260902Y0117432D01*
X0260296Y0115968D01*
X0260244Y0115916D01*
X0260775Y0105829D01*
X0261083Y0105521D01*
X0260707Y0107120D02*
X0269040Y0107120D01*
X0268682Y0108718D02*
X0260623Y0108718D01*
X0260539Y0110317D02*
X0268992Y0110317D01*
X0270171Y0111915D02*
X0260455Y0111915D01*
X0260370Y0113514D02*
X0289162Y0113514D01*
X0290788Y0115112D02*
X0260286Y0115112D01*
X0260604Y0116711D02*
X0363337Y0116711D01*
X0360960Y0118309D02*
X0260902Y0118309D01*
X0260533Y0119908D02*
X0358583Y0119908D01*
X0356206Y0121506D02*
X0259271Y0121506D01*
X0254565Y0121506D02*
X0205400Y0121506D01*
X0205400Y0119908D02*
X0253303Y0119908D01*
X0252934Y0118309D02*
X0205400Y0118309D01*
X0205400Y0116711D02*
X0239534Y0116711D01*
X0238774Y0115112D02*
X0205400Y0115112D01*
X0205376Y0113514D02*
X0238761Y0113514D01*
X0239483Y0111915D02*
X0204519Y0111915D01*
X0202107Y0110317D02*
X0239545Y0110317D01*
X0239545Y0108718D02*
X0199310Y0108718D01*
X0196512Y0107120D02*
X0239545Y0107120D01*
X0239545Y0105521D02*
X0193715Y0105521D01*
X0192398Y0103923D02*
X0239545Y0103923D01*
X0239545Y0102324D02*
X0219398Y0102324D01*
X0220494Y0100726D02*
X0239338Y0100726D01*
X0238761Y0099127D02*
X0222619Y0099127D01*
X0224899Y0097529D02*
X0238851Y0097529D01*
X0239720Y0095930D02*
X0227179Y0095930D01*
X0236299Y0089536D02*
X0264778Y0089536D01*
X0263152Y0087938D02*
X0238578Y0087938D01*
X0240858Y0086339D02*
X0261527Y0086339D01*
X0259901Y0084740D02*
X0243138Y0084740D01*
X0245418Y0083142D02*
X0258276Y0083142D01*
X0256650Y0081543D02*
X0247698Y0081543D01*
X0254015Y0079945D02*
X0255024Y0079945D01*
X0245271Y0070354D02*
X0195380Y0070354D01*
X0195389Y0046376D02*
X0190849Y0046376D01*
X0185389Y0046376D02*
X0180849Y0046376D01*
X0175389Y0046376D02*
X0170849Y0046376D01*
X0165389Y0046376D02*
X0160849Y0046376D01*
X0155389Y0046376D02*
X0150289Y0046376D01*
X0149225Y0044778D02*
X0230032Y0044778D01*
X0230849Y0046376D02*
X0231859Y0046376D01*
X0234083Y0044602D02*
X0230934Y0041847D01*
X0229457Y0039878D01*
X0225816Y0039878D01*
X0224419Y0043179D02*
X0150580Y0043179D01*
X0150911Y0041581D02*
X0148788Y0041581D01*
X0151090Y0041581D02*
X0222641Y0041581D01*
X0222231Y0039982D02*
X0151034Y0039982D01*
X0150371Y0038384D02*
X0189013Y0038384D01*
X0185886Y0036785D02*
X0148653Y0036785D01*
X0146822Y0033588D02*
X0183452Y0033588D01*
X0183904Y0035187D02*
X0143625Y0035187D01*
X0143892Y0036785D02*
X0144267Y0036785D01*
X0143985Y0038384D02*
X0143611Y0038384D01*
X0143703Y0039982D02*
X0143329Y0039982D01*
X0143433Y0040449D02*
X0148060Y0047949D01*
X0148119Y0053658D01*
X0147919Y0046376D02*
X0148319Y0046376D01*
X0145949Y0046376D02*
X0140849Y0046376D01*
X0140520Y0044778D02*
X0097076Y0044778D01*
X0097885Y0043560D02*
X0097885Y0043560D01*
X0100849Y0046376D02*
X0105389Y0046376D01*
X0110849Y0046376D02*
X0115389Y0046376D01*
X0120849Y0046376D02*
X0125389Y0046376D01*
X0118119Y0053658D02*
X0144320Y0103264D01*
X0188414Y0103264D01*
X0192337Y0102324D02*
X0214123Y0102324D01*
X0205459Y0123105D02*
X0353828Y0123105D01*
X0351451Y0124703D02*
X0204984Y0124703D01*
X0203785Y0126302D02*
X0349074Y0126302D01*
X0346697Y0127900D02*
X0202586Y0127900D01*
X0201388Y0129499D02*
X0344319Y0129499D01*
X0341942Y0131097D02*
X0200189Y0131097D01*
X0198990Y0132696D02*
X0339565Y0132696D01*
X0337187Y0134294D02*
X0306557Y0134294D01*
X0306336Y0134073D02*
X0308392Y0136130D01*
X0309505Y0138817D01*
X0309505Y0141726D01*
X0308392Y0144414D01*
X0306336Y0146470D01*
X0303648Y0147584D01*
X0300739Y0147584D01*
X0298052Y0146470D01*
X0295995Y0144414D01*
X0294882Y0141726D01*
X0294882Y0138817D01*
X0295995Y0136130D01*
X0298052Y0134073D01*
X0300739Y0132960D01*
X0303648Y0132960D01*
X0306336Y0134073D01*
X0308155Y0135893D02*
X0334810Y0135893D01*
X0332433Y0137491D02*
X0308956Y0137491D01*
X0309505Y0139090D02*
X0330056Y0139090D01*
X0327678Y0140688D02*
X0309505Y0140688D01*
X0309273Y0142287D02*
X0325301Y0142287D01*
X0322924Y0143885D02*
X0308611Y0143885D01*
X0307322Y0145484D02*
X0320547Y0145484D01*
X0318169Y0147082D02*
X0304858Y0147082D01*
X0299530Y0147082D02*
X0223782Y0147082D01*
X0223894Y0148681D02*
X0315792Y0148681D01*
X0313415Y0150279D02*
X0223489Y0150279D01*
X0223473Y0151878D02*
X0311037Y0151878D01*
X0308660Y0153476D02*
X0223457Y0153476D01*
X0223441Y0155075D02*
X0306283Y0155075D01*
X0303906Y0156673D02*
X0223425Y0156673D01*
X0223409Y0158272D02*
X0301528Y0158272D01*
X0299151Y0159871D02*
X0223393Y0159871D01*
X0223377Y0161469D02*
X0296774Y0161469D01*
X0294397Y0163068D02*
X0223361Y0163068D01*
X0223345Y0164666D02*
X0292019Y0164666D01*
X0289642Y0166265D02*
X0223329Y0166265D01*
X0223313Y0167863D02*
X0287265Y0167863D01*
X0284887Y0169462D02*
X0223297Y0169462D01*
X0223281Y0171060D02*
X0282510Y0171060D01*
X0280133Y0172659D02*
X0223265Y0172659D01*
X0223249Y0174257D02*
X0277756Y0174257D01*
X0275378Y0175856D02*
X0223233Y0175856D01*
X0223217Y0177454D02*
X0273001Y0177454D01*
X0270624Y0179053D02*
X0223201Y0179053D01*
X0223185Y0180651D02*
X0268247Y0180651D01*
X0265869Y0182250D02*
X0223169Y0182250D01*
X0223153Y0183848D02*
X0263492Y0183848D01*
X0261115Y0185447D02*
X0223137Y0185447D01*
X0223121Y0187045D02*
X0258737Y0187045D01*
X0256360Y0188644D02*
X0223105Y0188644D01*
X0223089Y0190242D02*
X0253983Y0190242D01*
X0251606Y0191841D02*
X0223073Y0191841D01*
X0223057Y0193439D02*
X0249228Y0193439D01*
X0246851Y0195038D02*
X0223041Y0195038D01*
X0223025Y0196636D02*
X0244474Y0196636D01*
X0242097Y0198235D02*
X0223010Y0198235D01*
X0222994Y0199833D02*
X0239719Y0199833D01*
X0237342Y0201432D02*
X0222978Y0201432D01*
X0222962Y0203030D02*
X0234965Y0203030D01*
X0232587Y0204629D02*
X0222946Y0204629D01*
X0222930Y0206227D02*
X0230210Y0206227D01*
X0227833Y0207826D02*
X0222914Y0207826D01*
X0222898Y0209424D02*
X0226175Y0209424D01*
X0225713Y0211023D02*
X0222882Y0211023D01*
X0222866Y0212621D02*
X0225719Y0212621D01*
X0225677Y0214220D02*
X0222850Y0214220D01*
X0222834Y0215818D02*
X0225635Y0215818D01*
X0225593Y0217417D02*
X0222818Y0217417D01*
X0222802Y0219015D02*
X0225551Y0219015D01*
X0224581Y0220614D02*
X0223310Y0220614D01*
X0218946Y0226886D02*
X0208946Y0226886D01*
X0213310Y0220614D02*
X0214581Y0220614D01*
X0215601Y0219015D02*
X0211298Y0219015D01*
X0215617Y0217417D02*
X0042795Y0217417D01*
X0042795Y0219015D02*
X0056593Y0219015D01*
X0054581Y0220614D02*
X0042795Y0220614D01*
X0042795Y0222212D02*
X0053794Y0222212D01*
X0053546Y0223811D02*
X0042795Y0223811D01*
X0042795Y0225409D02*
X0053546Y0225409D01*
X0053546Y0227008D02*
X0042795Y0227008D01*
X0042795Y0228607D02*
X0053546Y0228607D01*
X0053546Y0230205D02*
X0042795Y0230205D01*
X0042795Y0231804D02*
X0053895Y0231804D01*
X0054825Y0233402D02*
X0042795Y0233402D01*
X0042795Y0235001D02*
X0057183Y0235001D01*
X0060709Y0235001D02*
X0067183Y0235001D01*
X0064825Y0233402D02*
X0063066Y0233402D01*
X0070709Y0235001D02*
X0077183Y0235001D01*
X0074825Y0233402D02*
X0073066Y0233402D01*
X0080709Y0235001D02*
X0087183Y0235001D01*
X0084825Y0233402D02*
X0083066Y0233402D01*
X0090709Y0235001D02*
X0097183Y0235001D01*
X0094825Y0233402D02*
X0093066Y0233402D01*
X0100709Y0235001D02*
X0107183Y0235001D01*
X0104825Y0233402D02*
X0103066Y0233402D01*
X0109203Y0238198D02*
X0042258Y0238198D01*
X0042811Y0236599D02*
X0110801Y0236599D01*
X0110709Y0235001D02*
X0112609Y0235001D01*
X0112114Y0235286D02*
X0112114Y0235286D01*
X0113066Y0233402D02*
X0114825Y0233402D01*
X0114769Y0233753D02*
X0114769Y0233753D01*
X0107604Y0239796D02*
X0040768Y0239796D01*
X0039309Y0241395D02*
X0106006Y0241395D01*
X0104407Y0242993D02*
X0037849Y0242993D01*
X0036390Y0244592D02*
X0102809Y0244592D01*
X0101210Y0246190D02*
X0063239Y0246190D01*
X0062227Y0245919D02*
X0066398Y0247037D01*
X0070138Y0249196D01*
X0073191Y0252249D01*
X0075350Y0255989D01*
X0076468Y0260160D01*
X0076468Y0264478D01*
X0075350Y0268649D01*
X0073191Y0272389D01*
X0070138Y0275442D01*
X0066398Y0277601D01*
X0062227Y0278719D01*
X0057909Y0278719D01*
X0053738Y0277601D01*
X0049998Y0275442D01*
X0046944Y0272389D01*
X0044785Y0268649D01*
X0043668Y0264478D01*
X0043668Y0260160D01*
X0044785Y0255989D01*
X0046944Y0252249D01*
X0049998Y0249196D01*
X0053738Y0247037D01*
X0057909Y0245919D01*
X0062227Y0245919D01*
X0056897Y0246190D02*
X0034930Y0246190D01*
X0033470Y0247789D02*
X0052435Y0247789D01*
X0049806Y0249387D02*
X0032011Y0249387D01*
X0030551Y0250986D02*
X0048208Y0250986D01*
X0046751Y0252584D02*
X0029092Y0252584D01*
X0027632Y0254183D02*
X0045828Y0254183D01*
X0044905Y0255781D02*
X0026260Y0255781D01*
X0026957Y0257380D02*
X0044413Y0257380D01*
X0043984Y0258978D02*
X0027044Y0258978D01*
X0026463Y0260577D02*
X0043668Y0260577D01*
X0043668Y0262175D02*
X0024313Y0262175D01*
X0021806Y0262175D02*
X0012384Y0262175D01*
X0013388Y0260577D02*
X0019656Y0260577D01*
X0019076Y0258978D02*
X0014803Y0258978D01*
X0015579Y0258172D02*
X0015579Y0258172D01*
X0016371Y0257380D02*
X0019162Y0257380D01*
X0019860Y0255781D02*
X0017970Y0255781D01*
X0019568Y0254183D02*
X0019845Y0254183D01*
X0023060Y0254445D02*
X0023060Y0258382D01*
X0023060Y0254445D02*
X0039595Y0236335D01*
X0039595Y0210350D01*
X0044320Y0199327D01*
X0047264Y0196636D02*
X0102460Y0196636D01*
X0101394Y0195038D02*
X0038246Y0195038D01*
X0038246Y0196636D02*
X0041376Y0196636D01*
X0040459Y0198235D02*
X0038246Y0198235D01*
X0038246Y0199833D02*
X0040335Y0199833D01*
X0039936Y0201432D02*
X0038246Y0201432D01*
X0038246Y0203030D02*
X0039251Y0203030D01*
X0038566Y0204629D02*
X0038246Y0204629D01*
X0042795Y0211023D02*
X0147698Y0211023D01*
X0148830Y0212621D02*
X0042795Y0212621D01*
X0042795Y0214220D02*
X0215649Y0214220D01*
X0215633Y0215818D02*
X0042795Y0215818D01*
X0043474Y0209424D02*
X0111569Y0209424D01*
X0109919Y0207826D02*
X0044159Y0207826D01*
X0044844Y0206227D02*
X0108854Y0206227D01*
X0107788Y0204629D02*
X0045529Y0204629D01*
X0046214Y0203030D02*
X0106722Y0203030D01*
X0105657Y0201432D02*
X0047760Y0201432D01*
X0048304Y0199833D02*
X0104591Y0199833D01*
X0103525Y0198235D02*
X0048180Y0198235D01*
X0038246Y0193439D02*
X0100328Y0193439D01*
X0099237Y0191841D02*
X0038246Y0191841D01*
X0038246Y0190242D02*
X0098600Y0190242D01*
X0098600Y0188644D02*
X0038246Y0188644D01*
X0038246Y0187045D02*
X0098600Y0187045D01*
X0098600Y0185447D02*
X0038246Y0185447D01*
X0038246Y0183848D02*
X0098600Y0183848D01*
X0098600Y0182250D02*
X0038246Y0182250D01*
X0038246Y0180651D02*
X0098600Y0180651D01*
X0098600Y0179053D02*
X0038246Y0179053D01*
X0038246Y0177454D02*
X0098600Y0177454D01*
X0098600Y0175856D02*
X0038246Y0175856D01*
X0038246Y0174257D02*
X0098600Y0174257D01*
X0098600Y0172659D02*
X0038246Y0172659D01*
X0038246Y0171060D02*
X0098600Y0171060D01*
X0098600Y0169462D02*
X0038246Y0169462D01*
X0038246Y0167863D02*
X0098600Y0167863D01*
X0098600Y0166265D02*
X0038246Y0166265D01*
X0038246Y0164666D02*
X0098600Y0164666D01*
X0098600Y0163068D02*
X0038246Y0163068D01*
X0038246Y0161469D02*
X0098600Y0161469D01*
X0098104Y0159871D02*
X0038246Y0159871D01*
X0038246Y0158272D02*
X0097816Y0158272D01*
X0098195Y0156673D02*
X0038246Y0156673D01*
X0038246Y0155075D02*
X0099472Y0155075D01*
X0101800Y0158382D02*
X0101800Y0189878D01*
X0112824Y0206413D01*
X0149044Y0206413D01*
X0151406Y0209563D01*
X0155114Y0211023D02*
X0215681Y0211023D01*
X0215665Y0212621D02*
X0153983Y0212621D01*
X0155391Y0209424D02*
X0215697Y0209424D01*
X0215713Y0207826D02*
X0154999Y0207826D01*
X0153705Y0206227D02*
X0166845Y0206227D01*
X0166367Y0202476D02*
X0114398Y0202476D01*
X0105737Y0189091D01*
X0105737Y0159957D01*
X0116761Y0146571D01*
X0107312Y0137909D01*
X0104456Y0140688D02*
X0092970Y0140688D01*
X0092970Y0141726D02*
X0092970Y0138817D01*
X0091857Y0136130D01*
X0089800Y0134073D01*
X0087113Y0132960D01*
X0084204Y0132960D01*
X0081516Y0134073D01*
X0079460Y0136130D01*
X0078346Y0138817D01*
X0078346Y0141726D01*
X0079460Y0144414D01*
X0081516Y0146470D01*
X0084204Y0147584D01*
X0087113Y0147584D01*
X0089800Y0146470D01*
X0091857Y0144414D01*
X0092970Y0141726D01*
X0092738Y0142287D02*
X0107352Y0142287D01*
X0109095Y0143885D02*
X0092076Y0143885D01*
X0090787Y0145484D02*
X0110839Y0145484D01*
X0112194Y0147082D02*
X0088322Y0147082D01*
X0082994Y0147082D02*
X0038246Y0147082D01*
X0038246Y0145484D02*
X0080530Y0145484D01*
X0079241Y0143885D02*
X0038246Y0143885D01*
X0038246Y0142287D02*
X0078579Y0142287D01*
X0078346Y0140688D02*
X0038246Y0140688D01*
X0038246Y0139090D02*
X0078346Y0139090D01*
X0078896Y0137491D02*
X0038246Y0137491D01*
X0038246Y0135893D02*
X0079697Y0135893D01*
X0081295Y0134294D02*
X0038246Y0134294D01*
X0038246Y0132696D02*
X0123813Y0132696D01*
X0123813Y0131097D02*
X0038246Y0131097D01*
X0038246Y0129499D02*
X0124376Y0129499D01*
X0125699Y0127900D02*
X0038246Y0127900D01*
X0038246Y0126302D02*
X0117077Y0126302D01*
X0117153Y0126333D02*
X0115041Y0125458D01*
X0113424Y0123842D01*
X0112550Y0121730D01*
X0112550Y0119444D01*
X0113424Y0117332D01*
X0115041Y0115715D01*
X0117153Y0114840D01*
X0119439Y0114840D01*
X0121551Y0115715D01*
X0123168Y0117332D01*
X0124043Y0119444D01*
X0124043Y0121730D01*
X0123168Y0123842D01*
X0121551Y0125458D01*
X0119439Y0126333D01*
X0117153Y0126333D01*
X0119515Y0126302D02*
X0147077Y0126302D01*
X0147153Y0126333D02*
X0145041Y0125458D01*
X0143424Y0123842D01*
X0142550Y0121730D01*
X0142550Y0119444D01*
X0143424Y0117332D01*
X0145041Y0115715D01*
X0147153Y0114840D01*
X0149439Y0114840D01*
X0151551Y0115715D01*
X0153168Y0117332D01*
X0154043Y0119444D01*
X0154043Y0121730D01*
X0153168Y0123842D01*
X0151551Y0125458D01*
X0149439Y0126333D01*
X0147153Y0126333D01*
X0149515Y0126302D02*
X0152278Y0126302D01*
X0152306Y0124703D02*
X0155075Y0124703D01*
X0153473Y0123105D02*
X0157873Y0123105D01*
X0160670Y0121506D02*
X0154043Y0121506D01*
X0154043Y0119908D02*
X0163467Y0119908D01*
X0166265Y0118309D02*
X0153573Y0118309D01*
X0152547Y0116711D02*
X0169062Y0116711D01*
X0171860Y0115112D02*
X0150096Y0115112D01*
X0146496Y0115112D02*
X0120096Y0115112D01*
X0122547Y0116711D02*
X0144045Y0116711D01*
X0143019Y0118309D02*
X0123573Y0118309D01*
X0124043Y0119908D02*
X0142550Y0119908D01*
X0142550Y0121506D02*
X0124043Y0121506D01*
X0123473Y0123105D02*
X0143119Y0123105D01*
X0144286Y0124703D02*
X0122306Y0124703D01*
X0114286Y0124703D02*
X0038246Y0124703D01*
X0038246Y0123105D02*
X0113119Y0123105D01*
X0112550Y0121506D02*
X0038246Y0121506D01*
X0038246Y0119908D02*
X0112550Y0119908D01*
X0113019Y0118309D02*
X0038246Y0118309D01*
X0038246Y0116711D02*
X0114045Y0116711D01*
X0116496Y0115112D02*
X0038246Y0115112D01*
X0038246Y0113514D02*
X0192608Y0113514D01*
X0190393Y0111915D02*
X0176747Y0111915D01*
X0174885Y0111915D02*
X0139865Y0111915D01*
X0141464Y0110317D02*
X0172510Y0110317D01*
X0171831Y0108718D02*
X0142509Y0108718D01*
X0142509Y0107120D02*
X0171863Y0107120D01*
X0174241Y0117437D02*
X0194713Y0117437D01*
X0195894Y0115862D01*
X0197791Y0134294D02*
X0297831Y0134294D01*
X0296232Y0135893D02*
X0196592Y0135893D01*
X0195393Y0137491D02*
X0295431Y0137491D01*
X0294882Y0139090D02*
X0194194Y0139090D01*
X0192995Y0140688D02*
X0294882Y0140688D01*
X0295114Y0142287D02*
X0191808Y0142287D01*
X0191308Y0143885D02*
X0295776Y0143885D01*
X0297065Y0145484D02*
X0222883Y0145484D01*
X0216937Y0145484D02*
X0189771Y0145484D01*
X0189590Y0146524D02*
X0191175Y0146524D01*
X0192640Y0147130D01*
X0193760Y0148251D01*
X0194367Y0149715D01*
X0194367Y0151300D01*
X0193760Y0152765D01*
X0192640Y0153886D01*
X0191493Y0154360D01*
X0183737Y0164702D01*
X0183737Y0165474D01*
X0183130Y0166938D01*
X0182010Y0168059D01*
X0180545Y0168665D01*
X0178960Y0168665D01*
X0177496Y0168059D01*
X0176375Y0166938D01*
X0175769Y0165474D01*
X0175769Y0163889D01*
X0176375Y0162424D01*
X0177496Y0161303D01*
X0178642Y0160829D01*
X0186398Y0150487D01*
X0186398Y0149715D01*
X0187005Y0148251D01*
X0188126Y0147130D01*
X0189590Y0146524D01*
X0188241Y0147082D02*
X0187600Y0147082D01*
X0186827Y0148681D02*
X0186071Y0148681D01*
X0186398Y0150279D02*
X0184542Y0150279D01*
X0185355Y0151878D02*
X0183013Y0151878D01*
X0184156Y0153476D02*
X0181484Y0153476D01*
X0182957Y0155075D02*
X0179955Y0155075D01*
X0178426Y0156673D02*
X0181758Y0156673D01*
X0180560Y0158272D02*
X0176897Y0158272D01*
X0175368Y0159871D02*
X0179361Y0159871D01*
X0177330Y0161469D02*
X0173839Y0161469D01*
X0172310Y0163068D02*
X0176109Y0163068D01*
X0175769Y0164666D02*
X0170781Y0164666D01*
X0169252Y0166265D02*
X0176096Y0166265D01*
X0177300Y0167863D02*
X0167723Y0167863D01*
X0166194Y0169462D02*
X0216097Y0169462D01*
X0216081Y0171060D02*
X0164665Y0171060D01*
X0163136Y0172659D02*
X0216065Y0172659D01*
X0216049Y0174257D02*
X0161607Y0174257D01*
X0160078Y0175856D02*
X0216033Y0175856D01*
X0216017Y0177454D02*
X0158549Y0177454D01*
X0157020Y0179053D02*
X0175218Y0179053D01*
X0177988Y0179053D02*
X0216001Y0179053D01*
X0215985Y0180651D02*
X0180029Y0180651D01*
X0180587Y0182250D02*
X0215969Y0182250D01*
X0215953Y0183848D02*
X0180478Y0183848D01*
X0179582Y0185447D02*
X0215937Y0185447D01*
X0215921Y0187045D02*
X0149783Y0187045D01*
X0149783Y0188644D02*
X0215905Y0188644D01*
X0215889Y0190242D02*
X0149783Y0190242D01*
X0149783Y0191841D02*
X0215873Y0191841D01*
X0215857Y0193439D02*
X0185485Y0193439D01*
X0186719Y0195038D02*
X0215841Y0195038D01*
X0215825Y0196636D02*
X0187998Y0196636D01*
X0189276Y0198235D02*
X0215809Y0198235D01*
X0215793Y0199833D02*
X0191331Y0199833D01*
X0192755Y0201432D02*
X0215777Y0201432D01*
X0215761Y0203030D02*
X0193186Y0203030D01*
X0192949Y0204629D02*
X0215745Y0204629D01*
X0215729Y0206227D02*
X0191873Y0206227D01*
X0189202Y0203264D02*
X0182902Y0195390D01*
X0118335Y0196177D01*
X0113611Y0188303D01*
X0113611Y0162319D01*
X0118335Y0157595D01*
X0119843Y0161282D02*
X0119128Y0161579D01*
X0118877Y0161579D01*
X0116811Y0163644D01*
X0116811Y0187417D01*
X0118383Y0190038D01*
X0118383Y0186218D01*
X0121447Y0183155D01*
X0118983Y0180691D01*
X0118983Y0178779D01*
X0123883Y0178779D01*
X0123883Y0178379D01*
X0118983Y0178379D01*
X0118983Y0176466D01*
X0121971Y0173479D01*
X0123883Y0173479D01*
X0123883Y0178379D01*
X0124283Y0178379D01*
X0124283Y0173479D01*
X0126196Y0173479D01*
X0128659Y0175942D01*
X0131722Y0172879D01*
X0136444Y0172879D01*
X0139083Y0175518D01*
X0141722Y0172879D01*
X0144272Y0172879D01*
X0144272Y0171763D01*
X0144867Y0170327D01*
X0143529Y0170881D01*
X0141063Y0170881D01*
X0138784Y0169937D01*
X0137796Y0168949D01*
X0136808Y0169937D01*
X0134529Y0170881D01*
X0132063Y0170881D01*
X0129784Y0169937D01*
X0128372Y0168525D01*
X0127944Y0168953D01*
X0127231Y0169471D01*
X0126446Y0169871D01*
X0125607Y0170143D01*
X0124737Y0170281D01*
X0124677Y0170281D01*
X0124677Y0165062D01*
X0123915Y0165062D01*
X0123915Y0164300D01*
X0118696Y0164300D01*
X0118696Y0164240D01*
X0118834Y0163370D01*
X0119106Y0162531D01*
X0119507Y0161746D01*
X0119843Y0161282D01*
X0119708Y0161469D02*
X0119393Y0161469D01*
X0118932Y0163068D02*
X0117388Y0163068D01*
X0116811Y0164666D02*
X0123915Y0164666D01*
X0123915Y0165062D02*
X0118696Y0165062D01*
X0118696Y0165122D01*
X0118834Y0165992D01*
X0119106Y0166831D01*
X0119507Y0167616D01*
X0120025Y0168329D01*
X0120648Y0168953D01*
X0121361Y0169471D01*
X0122146Y0169871D01*
X0122985Y0170143D01*
X0123855Y0170281D01*
X0123915Y0170281D01*
X0123915Y0165062D01*
X0123915Y0166265D02*
X0124677Y0166265D01*
X0124677Y0167863D02*
X0123915Y0167863D01*
X0123915Y0169462D02*
X0124677Y0169462D01*
X0127244Y0169462D02*
X0129308Y0169462D01*
X0130344Y0174257D02*
X0126974Y0174257D01*
X0128573Y0175856D02*
X0128746Y0175856D01*
X0124283Y0175856D02*
X0123883Y0175856D01*
X0123883Y0177454D02*
X0124283Y0177454D01*
X0124283Y0174257D02*
X0123883Y0174257D01*
X0121193Y0174257D02*
X0116811Y0174257D01*
X0116811Y0172659D02*
X0144272Y0172659D01*
X0144563Y0171060D02*
X0116811Y0171060D01*
X0116811Y0169462D02*
X0121348Y0169462D01*
X0119686Y0167863D02*
X0116811Y0167863D01*
X0116811Y0166265D02*
X0118922Y0166265D01*
X0123915Y0163068D02*
X0124677Y0163068D01*
X0124677Y0161469D02*
X0123915Y0161469D01*
X0123915Y0159871D02*
X0124677Y0159871D01*
X0127190Y0159871D02*
X0129002Y0159871D01*
X0128782Y0158272D02*
X0122320Y0158272D01*
X0122266Y0156673D02*
X0128563Y0156673D01*
X0128343Y0155075D02*
X0121450Y0155075D01*
X0121283Y0153476D02*
X0128124Y0153476D01*
X0127905Y0151878D02*
X0121532Y0151878D01*
X0121114Y0150279D02*
X0127685Y0150279D01*
X0127466Y0148681D02*
X0120199Y0148681D01*
X0120745Y0147082D02*
X0127246Y0147082D01*
X0127027Y0145484D02*
X0120623Y0145484D01*
X0119710Y0143885D02*
X0126807Y0143885D01*
X0126588Y0142287D02*
X0116823Y0142287D01*
X0115079Y0140688D02*
X0126368Y0140688D01*
X0126149Y0139090D02*
X0113335Y0139090D01*
X0111591Y0137491D02*
X0125929Y0137491D01*
X0125710Y0135893D02*
X0110789Y0135893D01*
X0108995Y0134294D02*
X0124417Y0134294D01*
X0133197Y0137491D02*
X0148994Y0137491D01*
X0148994Y0135893D02*
X0141160Y0135893D01*
X0141637Y0134294D02*
X0148994Y0134294D01*
X0148994Y0132696D02*
X0141637Y0132696D01*
X0141637Y0131097D02*
X0148994Y0131097D01*
X0148994Y0129499D02*
X0141637Y0129499D01*
X0141260Y0127900D02*
X0149800Y0127900D01*
X0152194Y0130035D02*
X0174241Y0117437D01*
X0192524Y0147082D02*
X0216038Y0147082D01*
X0215926Y0148681D02*
X0193938Y0148681D01*
X0194367Y0150279D02*
X0216289Y0150279D01*
X0216273Y0151878D02*
X0194128Y0151878D01*
X0193049Y0153476D02*
X0216257Y0153476D01*
X0216241Y0155075D02*
X0190957Y0155075D01*
X0189758Y0156673D02*
X0216225Y0156673D01*
X0216209Y0158272D02*
X0188560Y0158272D01*
X0187361Y0159871D02*
X0216193Y0159871D01*
X0216177Y0161469D02*
X0186162Y0161469D01*
X0184963Y0163068D02*
X0216161Y0163068D01*
X0216145Y0164666D02*
X0183764Y0164666D01*
X0183409Y0166265D02*
X0216129Y0166265D01*
X0216113Y0167863D02*
X0182205Y0167863D01*
X0179753Y0164681D02*
X0190383Y0150508D01*
X0176603Y0182791D02*
X0138808Y0183579D01*
X0134083Y0178579D01*
X0137823Y0174257D02*
X0140344Y0174257D01*
X0138308Y0169462D02*
X0137284Y0169462D01*
X0137254Y0159871D02*
X0138339Y0159871D01*
X0136050Y0158272D02*
X0148994Y0158272D01*
X0148994Y0156673D02*
X0135830Y0156673D01*
X0135611Y0155075D02*
X0148994Y0155075D01*
X0148994Y0153476D02*
X0135392Y0153476D01*
X0135172Y0151878D02*
X0148994Y0151878D01*
X0148994Y0150279D02*
X0134953Y0150279D01*
X0134733Y0148681D02*
X0148994Y0148681D01*
X0148994Y0147082D02*
X0134514Y0147082D01*
X0134294Y0145484D02*
X0148994Y0145484D01*
X0148994Y0143885D02*
X0134075Y0143885D01*
X0133855Y0142287D02*
X0148994Y0142287D01*
X0148994Y0140688D02*
X0133636Y0140688D01*
X0133416Y0139090D02*
X0148994Y0139090D01*
X0152194Y0130035D02*
X0152194Y0160744D01*
X0148257Y0172555D01*
X0148579Y0161469D02*
X0147676Y0161469D01*
X0148994Y0159871D02*
X0146254Y0159871D01*
X0132065Y0127900D02*
X0131877Y0127900D01*
X0129580Y0112201D02*
X0125438Y0112201D01*
X0122509Y0109272D01*
X0122509Y0105130D01*
X0125438Y0102201D01*
X0129580Y0102201D01*
X0132509Y0105130D01*
X0132509Y0109272D01*
X0129580Y0112201D01*
X0129865Y0111915D02*
X0135152Y0111915D01*
X0133553Y0110317D02*
X0131464Y0110317D01*
X0132509Y0108718D02*
X0132509Y0108718D01*
X0132509Y0107120D02*
X0132509Y0107120D01*
X0132509Y0105521D02*
X0132509Y0105521D01*
X0131302Y0103923D02*
X0133716Y0103923D01*
X0135314Y0102324D02*
X0129703Y0102324D01*
X0125314Y0102324D02*
X0038246Y0102324D01*
X0038246Y0100726D02*
X0139360Y0100726D01*
X0139703Y0102324D02*
X0140204Y0102324D01*
X0138516Y0099127D02*
X0038246Y0099127D01*
X0038246Y0097529D02*
X0137672Y0097529D01*
X0136827Y0095930D02*
X0038246Y0095930D01*
X0038246Y0094332D02*
X0135983Y0094332D01*
X0135139Y0092733D02*
X0038246Y0092733D01*
X0038246Y0091135D02*
X0134294Y0091135D01*
X0133450Y0089536D02*
X0038246Y0089536D01*
X0038246Y0087938D02*
X0132606Y0087938D01*
X0131762Y0086339D02*
X0038246Y0086339D01*
X0038246Y0084740D02*
X0130917Y0084740D01*
X0130073Y0083142D02*
X0038246Y0083142D01*
X0038246Y0081543D02*
X0129229Y0081543D01*
X0128384Y0079945D02*
X0038246Y0079945D01*
X0038246Y0078346D02*
X0127540Y0078346D01*
X0126696Y0076748D02*
X0038246Y0076748D01*
X0038246Y0075149D02*
X0125851Y0075149D01*
X0125007Y0073551D02*
X0038246Y0073551D01*
X0038246Y0071952D02*
X0124163Y0071952D01*
X0131401Y0071952D02*
X0133356Y0071952D01*
X0134124Y0073551D02*
X0132245Y0073551D01*
X0133089Y0075149D02*
X0134892Y0075149D01*
X0135660Y0076748D02*
X0133934Y0076748D01*
X0134778Y0078346D02*
X0136427Y0078346D01*
X0137195Y0079945D02*
X0135622Y0079945D01*
X0136466Y0081543D02*
X0137963Y0081543D01*
X0137311Y0083142D02*
X0138731Y0083142D01*
X0138155Y0084740D02*
X0139499Y0084740D01*
X0138999Y0086339D02*
X0140266Y0086339D01*
X0139844Y0087938D02*
X0141034Y0087938D01*
X0140688Y0089536D02*
X0141802Y0089536D01*
X0141532Y0091135D02*
X0142570Y0091135D01*
X0142377Y0092733D02*
X0143407Y0092733D01*
X0123716Y0103923D02*
X0038246Y0103923D01*
X0038246Y0105521D02*
X0122509Y0105521D01*
X0122509Y0107120D02*
X0038246Y0107120D01*
X0038246Y0108718D02*
X0122509Y0108718D01*
X0123553Y0110317D02*
X0038246Y0110317D01*
X0038246Y0111915D02*
X0125152Y0111915D01*
X0105628Y0134294D02*
X0090021Y0134294D01*
X0091620Y0135893D02*
X0103835Y0135893D01*
X0103328Y0137491D02*
X0092421Y0137491D01*
X0092970Y0139090D02*
X0103488Y0139090D01*
X0110877Y0148681D02*
X0038246Y0148681D01*
X0038246Y0150279D02*
X0109561Y0150279D01*
X0108245Y0151878D02*
X0038246Y0151878D01*
X0038246Y0153476D02*
X0106928Y0153476D01*
X0105612Y0155075D02*
X0104128Y0155075D01*
X0109674Y0161532D02*
X0117548Y0152083D01*
X0109674Y0161532D02*
X0109674Y0188303D01*
X0116761Y0200114D01*
X0175816Y0198539D01*
X0178965Y0200902D01*
X0177552Y0204629D02*
X0173264Y0204629D01*
X0173501Y0203030D02*
X0175535Y0203030D01*
X0172188Y0206227D02*
X0186531Y0206227D01*
X0185454Y0204629D02*
X0180378Y0204629D01*
X0182396Y0203030D02*
X0184917Y0203030D01*
X0183638Y0201432D02*
X0182950Y0201432D01*
X0169517Y0203264D02*
X0166367Y0202476D01*
X0166593Y0219015D02*
X0161298Y0219015D01*
X0163310Y0220614D02*
X0164581Y0220614D01*
X0171298Y0219015D02*
X0176593Y0219015D01*
X0174581Y0220614D02*
X0173310Y0220614D01*
X0181298Y0219015D02*
X0186593Y0219015D01*
X0184581Y0220614D02*
X0183310Y0220614D01*
X0191298Y0219015D02*
X0206593Y0219015D01*
X0204581Y0220614D02*
X0202462Y0220614D01*
X0203449Y0222212D02*
X0203794Y0222212D01*
X0199146Y0222212D02*
X0198746Y0222212D01*
X0198746Y0220614D02*
X0199146Y0220614D01*
X0199146Y0223811D02*
X0198746Y0223811D01*
X0198746Y0225409D02*
X0199146Y0225409D01*
X0194442Y0222212D02*
X0194097Y0222212D01*
X0193310Y0220614D02*
X0195429Y0220614D01*
X0192126Y0246833D02*
X0187852Y0246880D01*
X0187852Y0247316D01*
X0186798Y0248371D01*
X0186052Y0248371D01*
X0179553Y0248541D01*
X0166625Y0249900D01*
X0153911Y0252602D01*
X0141548Y0256619D01*
X0129673Y0261906D01*
X0118416Y0268405D01*
X0107900Y0276046D01*
X0098240Y0284744D01*
X0089543Y0294403D01*
X0081902Y0304920D01*
X0075403Y0316177D01*
X0070116Y0328052D01*
X0066099Y0340414D01*
X0063397Y0353128D01*
X0062038Y0366056D01*
X0061868Y0372555D01*
X0061868Y0376492D01*
X0061980Y0378495D01*
X0062871Y0382399D01*
X0064609Y0386008D01*
X0067106Y0389139D01*
X0070237Y0391636D01*
X0073846Y0393374D01*
X0076549Y0393990D01*
X0084838Y0394010D01*
X0087628Y0393374D01*
X0091237Y0391636D01*
X0094368Y0389139D01*
X0096865Y0386008D01*
X0098603Y0382399D01*
X0099494Y0378495D01*
X0099606Y0376492D01*
X0099606Y0341184D01*
X0100746Y0337676D01*
X0102914Y0334692D01*
X0105897Y0332525D01*
X0105897Y0332525D01*
X0109405Y0331385D01*
X0141918Y0331385D01*
X0144026Y0332258D01*
X0145640Y0333872D01*
X0145640Y0333872D01*
X0146513Y0335981D01*
X0146513Y0392240D01*
X0146554Y0392657D01*
X0146874Y0393427D01*
X0147463Y0394017D01*
X0147812Y0394161D01*
X0231482Y0394362D01*
X0231744Y0394336D01*
X0232515Y0394017D01*
X0233104Y0393427D01*
X0233423Y0392657D01*
X0233465Y0392240D01*
X0233465Y0335981D01*
X0234338Y0333872D01*
X0235952Y0332258D01*
X0238060Y0331385D01*
X0270573Y0331385D01*
X0274081Y0332525D01*
X0277064Y0334692D01*
X0279232Y0337676D01*
X0280372Y0341184D01*
X0280372Y0376492D01*
X0280484Y0378495D01*
X0281375Y0382399D01*
X0283113Y0386008D01*
X0285610Y0389139D01*
X0288741Y0391636D01*
X0292350Y0393374D01*
X0296254Y0394265D01*
X0298257Y0394377D01*
X0300225Y0394377D01*
X0302228Y0394265D01*
X0306132Y0393374D01*
X0309741Y0391636D01*
X0312872Y0389139D01*
X0315369Y0386008D01*
X0317107Y0382399D01*
X0317998Y0378495D01*
X0318110Y0376492D01*
X0318110Y0372555D01*
X0317940Y0366056D01*
X0316581Y0353128D01*
X0313879Y0340414D01*
X0309862Y0328052D01*
X0304575Y0316177D01*
X0298076Y0304920D01*
X0290435Y0294403D01*
X0281738Y0284744D01*
X0272078Y0276046D01*
X0261562Y0268405D01*
X0250304Y0261906D01*
X0238430Y0256619D01*
X0226067Y0252602D01*
X0213353Y0249900D01*
X0200425Y0248541D01*
X0193926Y0248371D01*
X0193180Y0248371D01*
X0192126Y0247316D01*
X0192126Y0246833D01*
X0192598Y0247789D02*
X0187380Y0247789D01*
X0171503Y0249387D02*
X0208475Y0249387D01*
X0218461Y0250986D02*
X0161517Y0250986D01*
X0153996Y0252584D02*
X0225982Y0252584D01*
X0230931Y0254183D02*
X0149047Y0254183D01*
X0144127Y0255781D02*
X0235851Y0255781D01*
X0240138Y0257380D02*
X0139840Y0257380D01*
X0136250Y0258978D02*
X0243728Y0258978D01*
X0247318Y0260577D02*
X0132659Y0260577D01*
X0129207Y0262175D02*
X0250770Y0262175D01*
X0253539Y0263774D02*
X0126439Y0263774D01*
X0123670Y0265372D02*
X0256308Y0265372D01*
X0259077Y0266971D02*
X0120901Y0266971D01*
X0118191Y0268569D02*
X0261787Y0268569D01*
X0263987Y0270168D02*
X0115991Y0270168D01*
X0113791Y0271766D02*
X0266187Y0271766D01*
X0268388Y0273365D02*
X0175601Y0273365D01*
X0174903Y0272667D02*
X0177103Y0274867D01*
X0201559Y0274867D01*
X0201951Y0274808D01*
X0202190Y0274867D01*
X0202437Y0274867D01*
X0202802Y0275018D01*
X0203186Y0275114D01*
X0203385Y0275260D01*
X0203613Y0275354D01*
X0203893Y0275634D01*
X0244855Y0305832D01*
X0250971Y0305832D01*
X0251853Y0306197D01*
X0252528Y0306872D01*
X0252894Y0307754D01*
X0252894Y0308619D01*
X0255081Y0306432D01*
X0257009Y0306432D01*
X0257009Y0311347D01*
X0257378Y0311347D01*
X0257378Y0306432D01*
X0259306Y0306432D01*
X0262294Y0309419D01*
X0262294Y0311347D01*
X0257378Y0311347D01*
X0257378Y0311716D01*
X0257009Y0311716D01*
X0257009Y0316632D01*
X0255081Y0316632D01*
X0252894Y0314444D01*
X0252894Y0315309D01*
X0252528Y0316191D01*
X0251853Y0316866D01*
X0250971Y0317232D01*
X0243416Y0317232D01*
X0242534Y0316866D01*
X0241859Y0316191D01*
X0241494Y0315309D01*
X0241494Y0311305D01*
X0200748Y0281267D01*
X0177103Y0281267D01*
X0174903Y0283467D01*
X0170429Y0283467D01*
X0167266Y0280304D01*
X0167266Y0275830D01*
X0170429Y0272667D01*
X0174903Y0272667D01*
X0169732Y0273365D02*
X0111590Y0273365D01*
X0109390Y0274963D02*
X0168133Y0274963D01*
X0167266Y0276562D02*
X0107327Y0276562D01*
X0105552Y0278160D02*
X0167266Y0278160D01*
X0167266Y0279759D02*
X0103777Y0279759D01*
X0102001Y0281357D02*
X0168320Y0281357D01*
X0169918Y0282956D02*
X0100226Y0282956D01*
X0098451Y0284554D02*
X0205207Y0284554D01*
X0203039Y0282956D02*
X0175414Y0282956D01*
X0177012Y0281357D02*
X0200871Y0281357D01*
X0201800Y0278067D02*
X0172666Y0278067D01*
X0201800Y0278067D02*
X0247194Y0311532D01*
X0241494Y0311729D02*
X0077971Y0311729D01*
X0078894Y0310131D02*
X0239901Y0310131D01*
X0237732Y0308532D02*
X0079817Y0308532D01*
X0080740Y0306934D02*
X0235564Y0306934D01*
X0233396Y0305335D02*
X0081662Y0305335D01*
X0082762Y0303737D02*
X0231227Y0303737D01*
X0229059Y0302138D02*
X0083923Y0302138D01*
X0085085Y0300540D02*
X0226891Y0300540D01*
X0224722Y0298941D02*
X0086246Y0298941D01*
X0087407Y0297342D02*
X0222554Y0297342D01*
X0220386Y0295744D02*
X0088569Y0295744D01*
X0089775Y0294145D02*
X0218217Y0294145D01*
X0216049Y0292547D02*
X0091214Y0292547D01*
X0092654Y0290948D02*
X0213881Y0290948D01*
X0211712Y0289350D02*
X0094093Y0289350D01*
X0095532Y0287751D02*
X0209544Y0287751D01*
X0207376Y0286153D02*
X0096972Y0286153D01*
X0078831Y0268569D02*
X0075371Y0268569D01*
X0075800Y0266971D02*
X0080429Y0266971D01*
X0082028Y0265372D02*
X0076228Y0265372D01*
X0076468Y0263774D02*
X0083626Y0263774D01*
X0085225Y0262175D02*
X0076468Y0262175D01*
X0076468Y0260577D02*
X0086823Y0260577D01*
X0088422Y0258978D02*
X0076151Y0258978D01*
X0075723Y0257380D02*
X0090020Y0257380D01*
X0091619Y0255781D02*
X0075230Y0255781D01*
X0074307Y0254183D02*
X0093217Y0254183D01*
X0094816Y0252584D02*
X0073384Y0252584D01*
X0071928Y0250986D02*
X0096414Y0250986D01*
X0098013Y0249387D02*
X0070329Y0249387D01*
X0067700Y0247789D02*
X0099611Y0247789D01*
X0103310Y0220614D02*
X0104581Y0220614D01*
X0106593Y0219015D02*
X0101298Y0219015D01*
X0096593Y0219015D02*
X0091298Y0219015D01*
X0093310Y0220614D02*
X0094581Y0220614D01*
X0086593Y0219015D02*
X0081298Y0219015D01*
X0083310Y0220614D02*
X0084581Y0220614D01*
X0076593Y0219015D02*
X0071298Y0219015D01*
X0073310Y0220614D02*
X0074581Y0220614D01*
X0066593Y0219015D02*
X0061298Y0219015D01*
X0063310Y0220614D02*
X0064581Y0220614D01*
X0043668Y0263774D02*
X0011379Y0263774D01*
X0010573Y0265372D02*
X0043907Y0265372D01*
X0044336Y0266971D02*
X0010013Y0266971D01*
X0009454Y0268569D02*
X0044764Y0268569D01*
X0045662Y0270168D02*
X0040944Y0270168D01*
X0044694Y0271766D02*
X0046585Y0271766D01*
X0047063Y0273365D02*
X0047920Y0273365D01*
X0048661Y0274963D02*
X0049519Y0274963D01*
X0049968Y0276562D02*
X0051937Y0276562D01*
X0050891Y0278160D02*
X0055824Y0278160D01*
X0051768Y0279759D02*
X0067641Y0279759D01*
X0066043Y0281357D02*
X0052196Y0281357D01*
X0052624Y0282956D02*
X0064444Y0282956D01*
X0062846Y0284554D02*
X0052846Y0284554D01*
X0052846Y0286153D02*
X0061247Y0286153D01*
X0059649Y0287751D02*
X0052846Y0287751D01*
X0052511Y0289350D02*
X0058050Y0289350D01*
X0056452Y0290948D02*
X0052082Y0290948D01*
X0051569Y0292547D02*
X0054853Y0292547D01*
X0053255Y0294145D02*
X0050646Y0294145D01*
X0049723Y0295744D02*
X0051630Y0295744D01*
X0051876Y0295524D02*
X0051876Y0295524D01*
X0049752Y0297342D02*
X0048237Y0297342D01*
X0047208Y0298941D02*
X0046639Y0298941D01*
X0026253Y0298941D02*
X0025683Y0298941D01*
X0024654Y0297342D02*
X0023139Y0297342D01*
X0023168Y0295744D02*
X0021261Y0295744D01*
X0022245Y0294145D02*
X0019637Y0294145D01*
X0018038Y0292547D02*
X0021323Y0292547D01*
X0020809Y0290948D02*
X0016440Y0290948D01*
X0014864Y0289350D02*
X0020381Y0289350D01*
X0020046Y0287751D02*
X0013435Y0287751D01*
X0012426Y0286153D02*
X0020046Y0286153D01*
X0020046Y0284554D02*
X0011422Y0284554D01*
X0010596Y0282956D02*
X0020267Y0282956D01*
X0020695Y0281357D02*
X0010037Y0281357D01*
X0009478Y0279759D02*
X0021124Y0279759D01*
X0022001Y0278160D02*
X0009114Y0278160D01*
X0008934Y0276562D02*
X0022924Y0276562D01*
X0024230Y0274963D02*
X0008754Y0274963D01*
X0008746Y0273365D02*
X0025829Y0273365D01*
X0028197Y0271766D02*
X0008926Y0271766D01*
X0009107Y0270168D02*
X0031947Y0270168D01*
X0064311Y0278160D02*
X0069240Y0278160D01*
X0068198Y0276562D02*
X0070838Y0276562D01*
X0070616Y0274963D02*
X0072437Y0274963D01*
X0072215Y0273365D02*
X0074035Y0273365D01*
X0073550Y0271766D02*
X0075634Y0271766D01*
X0074473Y0270168D02*
X0077232Y0270168D01*
X0077048Y0313328D02*
X0241494Y0313328D01*
X0241494Y0314926D02*
X0076125Y0314926D01*
X0075248Y0316525D02*
X0242193Y0316525D01*
X0244181Y0305335D02*
X0298316Y0305335D01*
X0299238Y0306934D02*
X0259808Y0306934D01*
X0261407Y0308532D02*
X0300161Y0308532D01*
X0301084Y0310131D02*
X0262294Y0310131D01*
X0262294Y0311716D02*
X0257378Y0311716D01*
X0257378Y0316632D01*
X0259306Y0316632D01*
X0262294Y0313644D01*
X0262294Y0311716D01*
X0262294Y0311729D02*
X0302007Y0311729D01*
X0302930Y0313328D02*
X0262294Y0313328D01*
X0261012Y0314926D02*
X0303853Y0314926D01*
X0304730Y0316525D02*
X0259413Y0316525D01*
X0257378Y0316525D02*
X0257009Y0316525D01*
X0257009Y0314926D02*
X0257378Y0314926D01*
X0257378Y0313328D02*
X0257009Y0313328D01*
X0257009Y0311729D02*
X0257378Y0311729D01*
X0257378Y0310131D02*
X0257009Y0310131D01*
X0257009Y0308532D02*
X0257378Y0308532D01*
X0257378Y0306934D02*
X0257009Y0306934D01*
X0254579Y0306934D02*
X0252554Y0306934D01*
X0252894Y0308532D02*
X0252981Y0308532D01*
X0252894Y0314926D02*
X0253376Y0314926D01*
X0252195Y0316525D02*
X0254974Y0316525D01*
X0242013Y0303737D02*
X0297216Y0303737D01*
X0296055Y0302138D02*
X0239844Y0302138D01*
X0237676Y0300540D02*
X0294893Y0300540D01*
X0293732Y0298941D02*
X0235508Y0298941D01*
X0233339Y0297342D02*
X0292571Y0297342D01*
X0291409Y0295744D02*
X0231171Y0295744D01*
X0229003Y0294145D02*
X0290203Y0294145D01*
X0288764Y0292547D02*
X0226834Y0292547D01*
X0224666Y0290948D02*
X0287324Y0290948D01*
X0285885Y0289350D02*
X0222498Y0289350D01*
X0220329Y0287751D02*
X0284446Y0287751D01*
X0283006Y0286153D02*
X0218161Y0286153D01*
X0215993Y0284554D02*
X0281527Y0284554D01*
X0279752Y0282956D02*
X0213824Y0282956D01*
X0211656Y0281357D02*
X0277977Y0281357D01*
X0276201Y0279759D02*
X0209488Y0279759D01*
X0207319Y0278160D02*
X0274426Y0278160D01*
X0272651Y0276562D02*
X0205151Y0276562D01*
X0202669Y0274963D02*
X0270588Y0274963D01*
X0289839Y0249387D02*
X0317523Y0249387D01*
X0317714Y0249196D02*
X0321454Y0247037D01*
X0325625Y0245919D01*
X0329943Y0245919D01*
X0334114Y0247037D01*
X0337854Y0249196D01*
X0340908Y0252249D01*
X0343067Y0255989D01*
X0344184Y0260160D01*
X0344184Y0264478D01*
X0343067Y0268649D01*
X0340908Y0272389D01*
X0337854Y0275442D01*
X0334114Y0277601D01*
X0329943Y0278719D01*
X0325625Y0278719D01*
X0321454Y0277601D01*
X0317714Y0275442D01*
X0314661Y0272389D01*
X0312502Y0268649D01*
X0311384Y0264478D01*
X0311384Y0260160D01*
X0312502Y0255989D01*
X0314661Y0252249D01*
X0317714Y0249196D01*
X0315924Y0250986D02*
X0291437Y0250986D01*
X0293036Y0252584D02*
X0314468Y0252584D01*
X0313545Y0254183D02*
X0294635Y0254183D01*
X0296233Y0255781D02*
X0312622Y0255781D01*
X0312129Y0257380D02*
X0297832Y0257380D01*
X0299430Y0258978D02*
X0311701Y0258978D01*
X0311384Y0260577D02*
X0301029Y0260577D01*
X0302627Y0262175D02*
X0311384Y0262175D01*
X0311384Y0263774D02*
X0304226Y0263774D01*
X0305824Y0265372D02*
X0311624Y0265372D01*
X0312052Y0266971D02*
X0307423Y0266971D01*
X0309021Y0268569D02*
X0312480Y0268569D01*
X0313379Y0270168D02*
X0310620Y0270168D01*
X0312218Y0271766D02*
X0314302Y0271766D01*
X0313817Y0273365D02*
X0315637Y0273365D01*
X0315415Y0274963D02*
X0317236Y0274963D01*
X0317014Y0276562D02*
X0319654Y0276562D01*
X0318612Y0278160D02*
X0323541Y0278160D01*
X0321809Y0281357D02*
X0335656Y0281357D01*
X0336084Y0279759D02*
X0320211Y0279759D01*
X0323408Y0282956D02*
X0335228Y0282956D01*
X0335006Y0283782D02*
X0336124Y0279611D01*
X0338283Y0275871D01*
X0341336Y0272818D01*
X0345076Y0270659D01*
X0349247Y0269541D01*
X0353565Y0269541D01*
X0357736Y0270659D01*
X0361476Y0272818D01*
X0364530Y0275871D01*
X0366689Y0279611D01*
X0367806Y0283782D01*
X0367806Y0288100D01*
X0366689Y0292271D01*
X0364530Y0296011D01*
X0361476Y0299064D01*
X0359367Y0300282D01*
X0360875Y0299754D01*
X0365012Y0297155D01*
X0366837Y0295524D01*
X0367232Y0295128D01*
X0367364Y0294997D01*
X0372800Y0289560D01*
X0374431Y0287736D01*
X0377031Y0283598D01*
X0378645Y0278986D01*
X0379192Y0274130D01*
X0378645Y0269274D01*
X0377031Y0264662D01*
X0374431Y0260524D01*
X0372800Y0258699D01*
X0372273Y0258172D01*
X0353544Y0239443D01*
X0353544Y0239443D01*
X0353016Y0238915D01*
X0351932Y0237832D01*
X0350400Y0235177D01*
X0349606Y0232216D01*
X0349606Y0147414D01*
X0350765Y0143879D01*
X0352968Y0140881D01*
X0352968Y0140881D01*
X0352968Y0140881D01*
X0354482Y0139800D01*
X0354996Y0139432D01*
X0373191Y0126436D01*
X0373797Y0126003D01*
X0374771Y0125184D01*
X0376274Y0123139D01*
X0377065Y0120727D01*
X0377165Y0119459D01*
X0377165Y0055626D01*
X0377066Y0054368D01*
X0376491Y0052598D01*
X0376491Y0065773D01*
X0376126Y0066655D01*
X0375451Y0067330D01*
X0374569Y0067695D01*
X0365167Y0067695D01*
X0365122Y0067805D01*
X0365227Y0072589D01*
X0365243Y0072626D01*
X0365243Y0073303D01*
X0365257Y0073979D01*
X0365243Y0074018D01*
X0365243Y0090353D01*
X0369613Y0093376D01*
X0374569Y0093376D01*
X0375451Y0093741D01*
X0376126Y0094416D01*
X0376491Y0095298D01*
X0376491Y0102253D01*
X0376126Y0103135D01*
X0375451Y0103810D01*
X0374757Y0104098D01*
X0376093Y0105434D01*
X0376991Y0107602D01*
X0376991Y0109949D01*
X0376093Y0112118D01*
X0374435Y0113776D01*
X0376093Y0115434D01*
X0376991Y0117602D01*
X0376991Y0119949D01*
X0376093Y0122118D01*
X0374433Y0123777D01*
X0372265Y0124676D01*
X0369918Y0124676D01*
X0367749Y0123777D01*
X0366938Y0122966D01*
X0232909Y0213089D01*
X0232727Y0220030D01*
X0233524Y0220827D01*
X0234346Y0222812D01*
X0234346Y0230960D01*
X0233750Y0232398D01*
X0266367Y0232398D01*
X0266962Y0232960D01*
X0270122Y0232960D01*
X0273083Y0233753D01*
X0275738Y0235286D01*
X0276295Y0235843D01*
X0276822Y0236370D01*
X0277349Y0236897D01*
X0335449Y0294997D01*
X0335976Y0295524D01*
X0337800Y0297155D01*
X0341938Y0299754D01*
X0343445Y0300282D01*
X0341336Y0299064D01*
X0338283Y0296011D01*
X0336124Y0292271D01*
X0335006Y0288100D01*
X0335006Y0283782D01*
X0335006Y0284554D02*
X0325006Y0284554D01*
X0326605Y0286153D02*
X0335006Y0286153D01*
X0335006Y0287751D02*
X0328203Y0287751D01*
X0329802Y0289350D02*
X0335341Y0289350D01*
X0335770Y0290948D02*
X0331400Y0290948D01*
X0332999Y0292547D02*
X0336283Y0292547D01*
X0337206Y0294145D02*
X0334597Y0294145D01*
X0335449Y0294997D02*
X0335449Y0294997D01*
X0336222Y0295744D02*
X0338129Y0295744D01*
X0338100Y0297342D02*
X0339615Y0297342D01*
X0340644Y0298941D02*
X0341213Y0298941D01*
X0336961Y0278160D02*
X0332028Y0278160D01*
X0335915Y0276562D02*
X0337884Y0276562D01*
X0338333Y0274963D02*
X0339191Y0274963D01*
X0339931Y0273365D02*
X0340789Y0273365D01*
X0341267Y0271766D02*
X0343158Y0271766D01*
X0342190Y0270168D02*
X0346908Y0270168D01*
X0343088Y0268569D02*
X0378398Y0268569D01*
X0378745Y0270168D02*
X0355905Y0270168D01*
X0359655Y0271766D02*
X0378925Y0271766D01*
X0379106Y0273365D02*
X0362023Y0273365D01*
X0363622Y0274963D02*
X0379098Y0274963D01*
X0378918Y0276562D02*
X0364928Y0276562D01*
X0365851Y0278160D02*
X0378738Y0278160D01*
X0378374Y0279759D02*
X0366728Y0279759D01*
X0367157Y0281357D02*
X0377815Y0281357D01*
X0377255Y0282956D02*
X0367585Y0282956D01*
X0367806Y0284554D02*
X0376430Y0284554D01*
X0375425Y0286153D02*
X0367806Y0286153D01*
X0367806Y0287751D02*
X0374417Y0287751D01*
X0372988Y0289350D02*
X0367471Y0289350D01*
X0367043Y0290948D02*
X0371412Y0290948D01*
X0369814Y0292547D02*
X0366529Y0292547D01*
X0365607Y0294145D02*
X0368215Y0294145D01*
X0366591Y0295744D02*
X0364684Y0295744D01*
X0364713Y0297342D02*
X0363198Y0297342D01*
X0362169Y0298941D02*
X0361599Y0298941D01*
X0377839Y0266971D02*
X0343516Y0266971D01*
X0343945Y0265372D02*
X0377279Y0265372D01*
X0376473Y0263774D02*
X0344184Y0263774D01*
X0344184Y0262175D02*
X0375468Y0262175D01*
X0374464Y0260577D02*
X0344184Y0260577D01*
X0343868Y0258978D02*
X0373049Y0258978D01*
X0372273Y0258172D02*
X0372273Y0258172D01*
X0371481Y0257380D02*
X0343439Y0257380D01*
X0342947Y0255781D02*
X0369882Y0255781D01*
X0368284Y0254183D02*
X0342024Y0254183D01*
X0341101Y0252584D02*
X0366685Y0252584D01*
X0365087Y0250986D02*
X0339644Y0250986D01*
X0338046Y0249387D02*
X0363488Y0249387D01*
X0361889Y0247789D02*
X0335417Y0247789D01*
X0330955Y0246190D02*
X0360291Y0246190D01*
X0358692Y0244592D02*
X0285043Y0244592D01*
X0283445Y0242993D02*
X0357094Y0242993D01*
X0355495Y0241395D02*
X0281846Y0241395D01*
X0280248Y0239796D02*
X0353897Y0239796D01*
X0352298Y0238198D02*
X0278649Y0238198D01*
X0277051Y0236599D02*
X0351221Y0236599D01*
X0351932Y0237832D02*
X0351932Y0237832D01*
X0350352Y0235001D02*
X0275243Y0235001D01*
X0275738Y0235286D02*
X0275738Y0235286D01*
X0273083Y0233753D02*
X0273083Y0233753D01*
X0271772Y0233402D02*
X0349924Y0233402D01*
X0349606Y0231804D02*
X0233996Y0231804D01*
X0234346Y0230205D02*
X0339338Y0230205D01*
X0338314Y0229781D02*
X0336700Y0228167D01*
X0335827Y0226059D01*
X0335827Y0223776D01*
X0336700Y0221668D01*
X0338314Y0220054D01*
X0340423Y0219180D01*
X0342705Y0219180D01*
X0344814Y0220054D01*
X0346427Y0221668D01*
X0347301Y0223776D01*
X0347301Y0226059D01*
X0346427Y0228167D01*
X0344814Y0229781D01*
X0342705Y0230654D01*
X0340423Y0230654D01*
X0338314Y0229781D01*
X0337140Y0228607D02*
X0234346Y0228607D01*
X0234346Y0227008D02*
X0336220Y0227008D01*
X0335827Y0225409D02*
X0234346Y0225409D01*
X0234346Y0223811D02*
X0246634Y0223811D01*
X0246787Y0223964D02*
X0245666Y0222844D01*
X0245060Y0221379D01*
X0245060Y0219794D01*
X0245666Y0218330D01*
X0246234Y0217762D01*
X0246000Y0217665D01*
X0244879Y0216544D01*
X0244272Y0215080D01*
X0244272Y0213495D01*
X0244879Y0212031D01*
X0246000Y0210910D01*
X0247464Y0210303D01*
X0249049Y0210303D01*
X0249965Y0210682D01*
X0292537Y0202168D01*
X0293244Y0201461D01*
X0294708Y0200854D01*
X0296293Y0200854D01*
X0297758Y0201461D01*
X0298878Y0202582D01*
X0299485Y0204046D01*
X0299485Y0205631D01*
X0298878Y0207096D01*
X0297758Y0208216D01*
X0296741Y0208637D01*
X0297123Y0209558D01*
X0297123Y0211143D01*
X0296516Y0212607D01*
X0295395Y0213728D01*
X0293931Y0214335D01*
X0292346Y0214335D01*
X0291549Y0214005D01*
X0252104Y0223161D01*
X0251301Y0223964D01*
X0249837Y0224571D01*
X0248252Y0224571D01*
X0246787Y0223964D01*
X0245405Y0222212D02*
X0234097Y0222212D01*
X0233310Y0220614D02*
X0245060Y0220614D01*
X0245382Y0219015D02*
X0232754Y0219015D01*
X0232795Y0217417D02*
X0245752Y0217417D01*
X0244578Y0215818D02*
X0232837Y0215818D01*
X0232879Y0214220D02*
X0244272Y0214220D01*
X0244634Y0212621D02*
X0233604Y0212621D01*
X0235982Y0211023D02*
X0245887Y0211023D01*
X0248257Y0214287D02*
X0295501Y0204839D01*
X0299238Y0206227D02*
X0328249Y0206227D01*
X0328046Y0206717D02*
X0328868Y0204733D01*
X0330387Y0203213D01*
X0331406Y0202791D01*
X0330387Y0202369D01*
X0328868Y0200850D01*
X0328046Y0198866D01*
X0328046Y0196717D01*
X0328868Y0194733D01*
X0330387Y0193213D01*
X0331406Y0192791D01*
X0330387Y0192369D01*
X0328868Y0190850D01*
X0328046Y0188866D01*
X0328046Y0186717D01*
X0328868Y0184733D01*
X0330387Y0183213D01*
X0331406Y0182791D01*
X0330387Y0182369D01*
X0328868Y0180850D01*
X0328046Y0178866D01*
X0328046Y0176717D01*
X0328868Y0174733D01*
X0330387Y0173213D01*
X0331406Y0172791D01*
X0330387Y0172369D01*
X0328868Y0170850D01*
X0328046Y0168866D01*
X0328046Y0166717D01*
X0328868Y0164733D01*
X0330387Y0163213D01*
X0332239Y0162446D01*
X0331603Y0162240D01*
X0330930Y0161897D01*
X0330319Y0161453D01*
X0329784Y0160918D01*
X0329340Y0160307D01*
X0328997Y0159634D01*
X0328764Y0158915D01*
X0328646Y0158169D01*
X0328646Y0157991D01*
X0336246Y0157991D01*
X0336246Y0157591D01*
X0336646Y0157591D01*
X0336646Y0157991D01*
X0344246Y0157991D01*
X0344246Y0158169D01*
X0344127Y0158915D01*
X0343894Y0159634D01*
X0343551Y0160307D01*
X0343107Y0160918D01*
X0342573Y0161453D01*
X0341961Y0161897D01*
X0341288Y0162240D01*
X0340652Y0162446D01*
X0342505Y0163213D01*
X0344024Y0164733D01*
X0344846Y0166717D01*
X0344846Y0168866D01*
X0344024Y0170850D01*
X0342505Y0172369D01*
X0341485Y0172791D01*
X0342505Y0173213D01*
X0344024Y0174733D01*
X0344846Y0176717D01*
X0344846Y0178866D01*
X0344024Y0180850D01*
X0342505Y0182369D01*
X0341485Y0182791D01*
X0342505Y0183213D01*
X0344024Y0184733D01*
X0344846Y0186717D01*
X0344846Y0188866D01*
X0344024Y0190850D01*
X0342505Y0192369D01*
X0341485Y0192791D01*
X0342505Y0193213D01*
X0344024Y0194733D01*
X0344846Y0196717D01*
X0344846Y0198866D01*
X0344024Y0200850D01*
X0342505Y0202369D01*
X0341485Y0202791D01*
X0342505Y0203213D01*
X0344024Y0204733D01*
X0344846Y0206717D01*
X0344846Y0208866D01*
X0344024Y0210850D01*
X0342505Y0212369D01*
X0340520Y0213191D01*
X0332372Y0213191D01*
X0330387Y0212369D01*
X0328868Y0210850D01*
X0328046Y0208866D01*
X0328046Y0206717D01*
X0328046Y0207826D02*
X0298148Y0207826D01*
X0297067Y0209424D02*
X0328277Y0209424D01*
X0329040Y0211023D02*
X0297123Y0211023D01*
X0296502Y0212621D02*
X0330995Y0212621D01*
X0337754Y0220614D02*
X0263078Y0220614D01*
X0256192Y0222212D02*
X0336474Y0222212D01*
X0335827Y0223811D02*
X0251454Y0223811D01*
X0249044Y0220587D02*
X0293139Y0210350D01*
X0294208Y0214220D02*
X0349606Y0214220D01*
X0349606Y0215818D02*
X0283735Y0215818D01*
X0290621Y0214220D02*
X0292069Y0214220D01*
X0288225Y0203030D02*
X0247868Y0203030D01*
X0250245Y0201432D02*
X0293314Y0201432D01*
X0297687Y0201432D02*
X0329449Y0201432D01*
X0328447Y0199833D02*
X0252623Y0199833D01*
X0255000Y0198235D02*
X0328046Y0198235D01*
X0328079Y0196636D02*
X0257377Y0196636D01*
X0259754Y0195038D02*
X0328741Y0195038D01*
X0330161Y0193439D02*
X0262132Y0193439D01*
X0264509Y0191841D02*
X0329858Y0191841D01*
X0328616Y0190242D02*
X0266886Y0190242D01*
X0269263Y0188644D02*
X0328046Y0188644D01*
X0328046Y0187045D02*
X0271641Y0187045D01*
X0274018Y0185447D02*
X0328572Y0185447D01*
X0329752Y0183848D02*
X0276395Y0183848D01*
X0278773Y0182250D02*
X0330267Y0182250D01*
X0328785Y0180651D02*
X0281150Y0180651D01*
X0283527Y0179053D02*
X0328123Y0179053D01*
X0328046Y0177454D02*
X0285904Y0177454D01*
X0288282Y0175856D02*
X0328403Y0175856D01*
X0329343Y0174257D02*
X0290659Y0174257D01*
X0293036Y0172659D02*
X0331085Y0172659D01*
X0329078Y0171060D02*
X0295413Y0171060D01*
X0297791Y0169462D02*
X0328293Y0169462D01*
X0328046Y0167863D02*
X0300168Y0167863D01*
X0302545Y0166265D02*
X0328233Y0166265D01*
X0328934Y0164666D02*
X0304923Y0164666D01*
X0307300Y0163068D02*
X0330739Y0163068D01*
X0330341Y0161469D02*
X0309677Y0161469D01*
X0312054Y0159871D02*
X0329118Y0159871D01*
X0328662Y0158272D02*
X0314432Y0158272D01*
X0316809Y0156673D02*
X0328763Y0156673D01*
X0328764Y0156667D02*
X0328997Y0155949D01*
X0329340Y0155276D01*
X0329784Y0154664D01*
X0330319Y0154130D01*
X0330930Y0153686D01*
X0331603Y0153343D01*
X0332322Y0153110D01*
X0333068Y0152991D01*
X0336246Y0152991D01*
X0336246Y0157591D01*
X0328646Y0157591D01*
X0328646Y0157414D01*
X0328764Y0156667D01*
X0329486Y0155075D02*
X0319186Y0155075D01*
X0321563Y0153476D02*
X0331341Y0153476D01*
X0336246Y0153476D02*
X0336646Y0153476D01*
X0336646Y0152991D02*
X0339823Y0152991D01*
X0340570Y0153110D01*
X0341288Y0153343D01*
X0341961Y0153686D01*
X0342573Y0154130D01*
X0343107Y0154664D01*
X0343551Y0155276D01*
X0343894Y0155949D01*
X0344127Y0156667D01*
X0344246Y0157414D01*
X0344246Y0157591D01*
X0336646Y0157591D01*
X0336646Y0152991D01*
X0336646Y0155075D02*
X0336246Y0155075D01*
X0336246Y0156673D02*
X0336646Y0156673D01*
X0341550Y0153476D02*
X0349606Y0153476D01*
X0349606Y0151878D02*
X0323941Y0151878D01*
X0326318Y0150279D02*
X0349606Y0150279D01*
X0349606Y0148681D02*
X0328695Y0148681D01*
X0331073Y0147082D02*
X0349715Y0147082D01*
X0350239Y0145484D02*
X0333450Y0145484D01*
X0335827Y0143885D02*
X0350763Y0143885D01*
X0350765Y0143879D02*
X0350765Y0143879D01*
X0351935Y0142287D02*
X0338204Y0142287D01*
X0340582Y0140688D02*
X0353238Y0140688D01*
X0355476Y0139090D02*
X0342959Y0139090D01*
X0345336Y0137491D02*
X0357714Y0137491D01*
X0359952Y0135893D02*
X0347713Y0135893D01*
X0350091Y0134294D02*
X0362190Y0134294D01*
X0364427Y0132696D02*
X0352468Y0132696D01*
X0354845Y0131097D02*
X0366665Y0131097D01*
X0368903Y0129499D02*
X0357223Y0129499D01*
X0359600Y0127900D02*
X0371141Y0127900D01*
X0373191Y0126436D02*
X0373191Y0126436D01*
X0373379Y0126302D02*
X0361977Y0126302D01*
X0364354Y0124703D02*
X0375124Y0124703D01*
X0375106Y0123105D02*
X0376285Y0123105D01*
X0376346Y0121506D02*
X0376809Y0121506D01*
X0376991Y0119908D02*
X0377130Y0119908D01*
X0377165Y0118309D02*
X0376991Y0118309D01*
X0377165Y0116711D02*
X0376622Y0116711D01*
X0377165Y0115112D02*
X0375772Y0115112D01*
X0374697Y0113514D02*
X0377165Y0113514D01*
X0377165Y0111915D02*
X0376177Y0111915D01*
X0376839Y0110317D02*
X0377165Y0110317D01*
X0377165Y0108718D02*
X0376991Y0108718D01*
X0377165Y0107120D02*
X0376792Y0107120D01*
X0377165Y0105521D02*
X0376129Y0105521D01*
X0375180Y0103923D02*
X0377165Y0103923D01*
X0377165Y0102324D02*
X0376462Y0102324D01*
X0376491Y0100726D02*
X0377165Y0100726D01*
X0377165Y0099127D02*
X0376491Y0099127D01*
X0376491Y0097529D02*
X0377165Y0097529D01*
X0377165Y0095930D02*
X0376491Y0095930D01*
X0376041Y0094332D02*
X0377165Y0094332D01*
X0377165Y0092733D02*
X0368684Y0092733D01*
X0366372Y0091135D02*
X0377165Y0091135D01*
X0377165Y0089536D02*
X0365243Y0089536D01*
X0365243Y0087938D02*
X0377165Y0087938D01*
X0377165Y0086339D02*
X0365243Y0086339D01*
X0365243Y0084740D02*
X0377165Y0084740D01*
X0377165Y0083142D02*
X0365243Y0083142D01*
X0365243Y0081543D02*
X0377165Y0081543D01*
X0377165Y0079945D02*
X0365243Y0079945D01*
X0365243Y0078346D02*
X0377165Y0078346D01*
X0377165Y0076748D02*
X0365243Y0076748D01*
X0365243Y0075149D02*
X0377165Y0075149D01*
X0377165Y0073551D02*
X0365248Y0073551D01*
X0365213Y0071952D02*
X0377165Y0071952D01*
X0377165Y0070354D02*
X0365178Y0070354D01*
X0365143Y0068755D02*
X0377165Y0068755D01*
X0377165Y0067157D02*
X0375624Y0067157D01*
X0376491Y0065558D02*
X0377165Y0065558D01*
X0377165Y0063960D02*
X0376491Y0063960D01*
X0376491Y0062361D02*
X0377165Y0062361D01*
X0377165Y0060763D02*
X0376491Y0060763D01*
X0376491Y0059164D02*
X0377165Y0059164D01*
X0377165Y0057566D02*
X0376491Y0057566D01*
X0376491Y0055967D02*
X0377165Y0055967D01*
X0377066Y0054369D02*
X0376491Y0054369D01*
X0376491Y0052770D02*
X0376547Y0052770D01*
X0361643Y0073343D02*
X0358788Y0071768D01*
X0361643Y0078854D02*
X0358296Y0079642D01*
X0354646Y0084740D02*
X0335658Y0084740D01*
X0335658Y0083142D02*
X0346540Y0083142D01*
X0346579Y0083289D02*
X0346457Y0082832D01*
X0346457Y0080121D01*
X0350336Y0080121D01*
X0350336Y0084395D01*
X0348020Y0084395D01*
X0347562Y0084272D01*
X0347151Y0084035D01*
X0346816Y0083700D01*
X0346579Y0083289D01*
X0346457Y0081543D02*
X0335658Y0081543D01*
X0335658Y0079945D02*
X0350336Y0079945D01*
X0350816Y0079642D02*
X0347632Y0079319D01*
X0346457Y0078346D02*
X0335658Y0078346D01*
X0335658Y0076748D02*
X0346457Y0076748D01*
X0347323Y0075149D02*
X0335658Y0075149D01*
X0335658Y0073551D02*
X0348031Y0073551D01*
X0348031Y0070354D02*
X0335658Y0070354D01*
X0335658Y0071952D02*
X0351665Y0071952D01*
X0351898Y0071768D02*
X0349084Y0069433D01*
X0348265Y0068755D02*
X0335658Y0068755D01*
X0329246Y0068755D02*
X0290011Y0068755D01*
X0290283Y0068100D02*
X0289349Y0070354D01*
X0329228Y0070354D01*
X0329210Y0071952D02*
X0287750Y0071952D01*
X0287623Y0072080D02*
X0285369Y0073013D01*
X0282929Y0073013D01*
X0280674Y0072080D01*
X0278949Y0070354D01*
X0278015Y0068100D01*
X0278015Y0065660D01*
X0278949Y0063405D01*
X0280674Y0061680D01*
X0282929Y0060746D01*
X0285369Y0060746D01*
X0287623Y0061680D01*
X0289349Y0063405D01*
X0290283Y0065660D01*
X0290283Y0068100D01*
X0290283Y0067157D02*
X0329264Y0067157D01*
X0329283Y0065558D02*
X0290241Y0065558D01*
X0289578Y0063960D02*
X0329301Y0063960D01*
X0329319Y0062361D02*
X0288305Y0062361D01*
X0285410Y0060763D02*
X0329337Y0060763D01*
X0329356Y0059164D02*
X0266701Y0059164D01*
X0266605Y0058798D02*
X0274167Y0087702D01*
X0294517Y0108972D01*
X0328965Y0093421D01*
X0329490Y0047359D01*
X0327367Y0046790D01*
X0324712Y0045257D01*
X0323629Y0044173D01*
X0323629Y0044173D01*
X0323101Y0043646D01*
X0321307Y0041851D01*
X0321307Y0043861D01*
X0320373Y0046116D01*
X0318647Y0047841D01*
X0316393Y0048775D01*
X0313953Y0048775D01*
X0311698Y0047841D01*
X0309973Y0046116D01*
X0309039Y0043861D01*
X0309039Y0041421D01*
X0309973Y0039166D01*
X0311698Y0037441D01*
X0313953Y0036507D01*
X0315962Y0036507D01*
X0291919Y0012464D01*
X0292099Y0013016D01*
X0292206Y0013696D01*
X0292206Y0014385D01*
X0292099Y0015065D01*
X0291886Y0015720D01*
X0291573Y0016334D01*
X0291169Y0016891D01*
X0290682Y0017378D01*
X0290527Y0017490D01*
X0287832Y0014041D01*
X0287832Y0014041D01*
X0290527Y0017490D01*
X0290125Y0017782D01*
X0289511Y0018095D01*
X0288856Y0018308D01*
X0288176Y0018416D01*
X0287487Y0018416D01*
X0286807Y0018308D01*
X0286202Y0018111D01*
X0286202Y0019799D01*
X0285505Y0021480D01*
X0284218Y0022767D01*
X0282537Y0023463D01*
X0280717Y0023463D01*
X0279997Y0023165D01*
X0279997Y0024646D01*
X0279300Y0026328D01*
X0278013Y0027615D01*
X0276332Y0028311D01*
X0274512Y0028311D01*
X0273792Y0028013D01*
X0273792Y0029494D01*
X0273096Y0031175D01*
X0271809Y0032462D01*
X0270127Y0033159D01*
X0268307Y0033159D01*
X0267587Y0032861D01*
X0267587Y0034342D01*
X0266891Y0036023D01*
X0265604Y0037310D01*
X0263922Y0038007D01*
X0262102Y0038007D01*
X0260421Y0037310D01*
X0259134Y0036023D01*
X0258438Y0034342D01*
X0258438Y0032522D01*
X0259134Y0030840D01*
X0260421Y0029553D01*
X0262102Y0028857D01*
X0263922Y0028857D01*
X0264642Y0029155D01*
X0264642Y0027674D01*
X0265339Y0025993D01*
X0266626Y0024706D01*
X0268307Y0024009D01*
X0270127Y0024009D01*
X0270847Y0024307D01*
X0270847Y0022826D01*
X0271544Y0021145D01*
X0272831Y0019858D01*
X0274512Y0019161D01*
X0276332Y0019161D01*
X0277052Y0019460D01*
X0277052Y0017979D01*
X0277749Y0016297D01*
X0279035Y0015010D01*
X0280717Y0014314D01*
X0282537Y0014314D01*
X0283509Y0014717D01*
X0283457Y0014385D01*
X0283457Y0013696D01*
X0283565Y0013016D01*
X0283777Y0012361D01*
X0284090Y0011748D01*
X0284495Y0011191D01*
X0284982Y0010704D01*
X0285137Y0010591D01*
X0285539Y0010299D01*
X0286152Y0009987D01*
X0286807Y0009774D01*
X0287487Y0009666D01*
X0288176Y0009666D01*
X0288856Y0009774D01*
X0289271Y0009909D01*
X0289233Y0009875D01*
X0287415Y0008826D01*
X0285387Y0008282D01*
X0284337Y0008213D01*
X0251102Y0008213D01*
X0251447Y0009047D01*
X0251447Y0010473D01*
X0250902Y0011790D01*
X0249893Y0012798D01*
X0248576Y0013344D01*
X0247150Y0013344D01*
X0245833Y0012798D01*
X0245690Y0012656D01*
X0245690Y0013459D01*
X0246411Y0013459D01*
X0247728Y0014005D01*
X0248736Y0015013D01*
X0249282Y0016330D01*
X0249282Y0017756D01*
X0248736Y0019074D01*
X0247728Y0020082D01*
X0246411Y0020628D01*
X0245750Y0020628D01*
X0245690Y0020677D01*
X0245690Y0022990D01*
X0244518Y0024161D01*
X0238609Y0024161D01*
X0237438Y0022990D01*
X0237438Y0022401D01*
X0237366Y0022392D01*
X0237366Y0028411D01*
X0237528Y0028411D01*
X0238362Y0029245D01*
X0250511Y0028456D01*
X0250547Y0028440D01*
X0251065Y0028420D01*
X0251584Y0028386D01*
X0251621Y0028399D01*
X0251660Y0028397D01*
X0252147Y0028578D01*
X0252638Y0028745D01*
X0252668Y0028771D01*
X0252704Y0028784D01*
X0253085Y0029137D01*
X0253475Y0029480D01*
X0253493Y0029515D01*
X0253521Y0029541D01*
X0253738Y0030014D01*
X0253967Y0030479D01*
X0253970Y0030518D01*
X0257058Y0037239D01*
X0258977Y0040729D01*
X0259082Y0040832D01*
X0259244Y0041213D01*
X0259443Y0041576D01*
X0259459Y0041722D01*
X0266250Y0057756D01*
X0266376Y0057922D01*
X0266465Y0058264D01*
X0266603Y0058590D01*
X0266605Y0058798D01*
X0266169Y0057566D02*
X0329374Y0057566D01*
X0329392Y0055967D02*
X0265492Y0055967D01*
X0264815Y0054369D02*
X0329410Y0054369D01*
X0329428Y0052770D02*
X0264138Y0052770D01*
X0263461Y0051172D02*
X0329447Y0051172D01*
X0329465Y0049573D02*
X0262784Y0049573D01*
X0262107Y0047975D02*
X0312021Y0047975D01*
X0310233Y0046376D02*
X0261430Y0046376D01*
X0260753Y0044778D02*
X0309419Y0044778D01*
X0309039Y0043179D02*
X0260076Y0043179D01*
X0259444Y0041581D02*
X0309039Y0041581D01*
X0309635Y0039982D02*
X0258567Y0039982D01*
X0257687Y0038384D02*
X0310755Y0038384D01*
X0313281Y0036785D02*
X0266129Y0036785D01*
X0267237Y0035187D02*
X0314642Y0035187D01*
X0313043Y0033588D02*
X0267587Y0033588D01*
X0272281Y0031990D02*
X0311445Y0031990D01*
X0309846Y0030391D02*
X0273420Y0030391D01*
X0273792Y0028793D02*
X0308248Y0028793D01*
X0306649Y0027194D02*
X0278434Y0027194D01*
X0279604Y0025596D02*
X0305051Y0025596D01*
X0303452Y0023997D02*
X0279997Y0023997D01*
X0284587Y0022399D02*
X0301854Y0022399D01*
X0300255Y0020800D02*
X0285787Y0020800D01*
X0286202Y0019202D02*
X0298657Y0019202D01*
X0297058Y0017603D02*
X0290372Y0017603D01*
X0289366Y0016005D02*
X0289366Y0016005D01*
X0288117Y0014406D02*
X0288117Y0014406D01*
X0287832Y0014041D02*
X0287824Y0023343D01*
X0264398Y0039681D01*
X0258493Y0036532D01*
X0258099Y0035350D01*
X0257115Y0032201D01*
X0256918Y0031807D01*
X0254069Y0026290D01*
X0231721Y0025311D01*
X0232115Y0025902D02*
X0228375Y0022752D01*
X0221879Y0020390D01*
X0220603Y0021116D01*
X0217154Y0016650D01*
X0217056Y0012319D01*
X0216822Y0012552D02*
X0213189Y0012552D01*
X0213189Y0014682D01*
X0213312Y0015140D01*
X0213549Y0015550D01*
X0213884Y0015885D01*
X0214294Y0016122D01*
X0214752Y0016245D01*
X0216822Y0016245D01*
X0216822Y0012552D01*
X0216822Y0012807D02*
X0217289Y0012807D01*
X0216822Y0012085D02*
X0213189Y0012085D01*
X0213189Y0009956D01*
X0213312Y0009498D01*
X0213549Y0009088D01*
X0213884Y0008753D01*
X0214294Y0008516D01*
X0214752Y0008393D01*
X0216822Y0008393D01*
X0216822Y0012085D01*
X0216822Y0011209D02*
X0217289Y0011209D01*
X0217289Y0009610D02*
X0216822Y0009610D01*
X0213282Y0009610D02*
X0124011Y0009610D01*
X0124458Y0011209D02*
X0213189Y0011209D01*
X0213189Y0012807D02*
X0146780Y0012807D01*
X0142443Y0012807D02*
X0124385Y0012807D01*
X0123769Y0014406D02*
X0140521Y0014406D01*
X0139684Y0016005D02*
X0122231Y0016005D01*
X0138110Y0023997D02*
X0154721Y0023997D01*
X0154721Y0022399D02*
X0153384Y0022399D01*
X0147309Y0025596D02*
X0139441Y0025596D01*
X0139885Y0027194D02*
X0147088Y0027194D01*
X0143891Y0028793D02*
X0139691Y0028793D01*
X0138714Y0030391D02*
X0140694Y0030391D01*
X0139723Y0039982D02*
X0141845Y0039982D01*
X0143433Y0040449D02*
X0204753Y0040075D01*
X0207706Y0037319D01*
X0207706Y0028461D01*
X0220603Y0021116D01*
X0220610Y0016005D02*
X0220022Y0016005D01*
X0217289Y0016005D02*
X0216822Y0016005D01*
X0216822Y0014406D02*
X0217289Y0014406D01*
X0214090Y0016005D02*
X0192960Y0016005D01*
X0193761Y0017603D02*
X0208179Y0017603D01*
X0210265Y0020587D02*
X0184871Y0020784D01*
X0175981Y0020800D02*
X0172501Y0020800D01*
X0172501Y0019202D02*
X0175981Y0019202D01*
X0175981Y0017603D02*
X0172501Y0017603D01*
X0171700Y0016005D02*
X0176782Y0016005D01*
X0175981Y0022399D02*
X0172501Y0022399D01*
X0172501Y0023997D02*
X0175981Y0023997D01*
X0176815Y0025596D02*
X0171667Y0025596D01*
X0187036Y0033382D02*
X0196879Y0033382D01*
X0205768Y0033588D02*
X0209249Y0033588D01*
X0209249Y0031990D02*
X0205768Y0031990D01*
X0205768Y0030391D02*
X0209249Y0030391D01*
X0209860Y0028793D02*
X0205157Y0028793D01*
X0209132Y0023997D02*
X0193761Y0023997D01*
X0205768Y0035187D02*
X0209249Y0035187D01*
X0209249Y0036785D02*
X0205768Y0036785D01*
X0204745Y0038384D02*
X0210273Y0038384D01*
X0210849Y0046376D02*
X0215389Y0046376D01*
X0220849Y0046376D02*
X0225389Y0046376D01*
X0230934Y0041847D02*
X0230934Y0037909D01*
X0230882Y0033511D01*
X0233441Y0033511D02*
X0233493Y0037122D01*
X0235658Y0039878D01*
X0236347Y0039878D02*
X0233493Y0037122D01*
X0236347Y0039878D02*
X0239989Y0039878D01*
X0243532Y0044406D02*
X0234083Y0044602D01*
X0243532Y0044406D02*
X0248257Y0034760D01*
X0251209Y0031217D02*
X0254556Y0038500D01*
X0256721Y0042437D01*
X0263808Y0059169D01*
X0272666Y0093028D01*
X0272666Y0108776D01*
X0276340Y0110317D02*
X0285911Y0110317D01*
X0287536Y0111915D02*
X0275161Y0111915D01*
X0276650Y0108718D02*
X0284285Y0108718D01*
X0282660Y0107120D02*
X0276293Y0107120D01*
X0275866Y0105521D02*
X0281034Y0105521D01*
X0279408Y0103923D02*
X0275866Y0103923D01*
X0275866Y0102324D02*
X0277783Y0102324D01*
X0276157Y0100726D02*
X0275866Y0100726D01*
X0282039Y0095930D02*
X0323408Y0095930D01*
X0326949Y0094332D02*
X0280509Y0094332D01*
X0278980Y0092733D02*
X0328973Y0092733D01*
X0328991Y0091135D02*
X0277451Y0091135D01*
X0275921Y0089536D02*
X0329010Y0089536D01*
X0329028Y0087938D02*
X0274392Y0087938D01*
X0273810Y0086339D02*
X0329046Y0086339D01*
X0329064Y0084740D02*
X0273392Y0084740D01*
X0272974Y0083142D02*
X0329082Y0083142D01*
X0329101Y0081543D02*
X0272556Y0081543D01*
X0272138Y0079945D02*
X0329119Y0079945D01*
X0329137Y0078346D02*
X0271719Y0078346D01*
X0271301Y0076748D02*
X0329155Y0076748D01*
X0329173Y0075149D02*
X0270883Y0075149D01*
X0270465Y0073551D02*
X0329192Y0073551D01*
X0335658Y0086339D02*
X0358043Y0086339D01*
X0358043Y0087938D02*
X0335658Y0087938D01*
X0335658Y0089536D02*
X0358043Y0089536D01*
X0358043Y0091135D02*
X0335658Y0091135D01*
X0335658Y0092733D02*
X0358043Y0092733D01*
X0358643Y0094332D02*
X0335658Y0094332D01*
X0335658Y0095930D02*
X0360649Y0095930D01*
X0362960Y0097529D02*
X0334418Y0097529D01*
X0330901Y0099127D02*
X0365271Y0099127D01*
X0365691Y0100726D02*
X0327384Y0100726D01*
X0323867Y0102324D02*
X0365721Y0102324D01*
X0367003Y0103923D02*
X0320351Y0103923D01*
X0316834Y0105521D02*
X0366053Y0105521D01*
X0365391Y0107120D02*
X0313317Y0107120D01*
X0309800Y0108718D02*
X0365191Y0108718D01*
X0365344Y0110317D02*
X0306284Y0110317D01*
X0302767Y0111915D02*
X0366006Y0111915D01*
X0367486Y0113514D02*
X0299250Y0113514D01*
X0295734Y0115112D02*
X0366411Y0115112D01*
X0366732Y0123105D02*
X0367077Y0123105D01*
X0349606Y0155075D02*
X0343405Y0155075D01*
X0344128Y0156673D02*
X0349606Y0156673D01*
X0349606Y0158272D02*
X0344229Y0158272D01*
X0343773Y0159871D02*
X0349606Y0159871D01*
X0349606Y0161469D02*
X0342550Y0161469D01*
X0342152Y0163068D02*
X0349606Y0163068D01*
X0349606Y0164666D02*
X0343957Y0164666D01*
X0344658Y0166265D02*
X0349606Y0166265D01*
X0349606Y0167863D02*
X0344846Y0167863D01*
X0344599Y0169462D02*
X0349606Y0169462D01*
X0349606Y0171060D02*
X0343814Y0171060D01*
X0341806Y0172659D02*
X0349606Y0172659D01*
X0349606Y0174257D02*
X0343548Y0174257D01*
X0344489Y0175856D02*
X0349606Y0175856D01*
X0349606Y0177454D02*
X0344846Y0177454D01*
X0344768Y0179053D02*
X0349606Y0179053D01*
X0349606Y0180651D02*
X0344106Y0180651D01*
X0342624Y0182250D02*
X0349606Y0182250D01*
X0349606Y0183848D02*
X0343139Y0183848D01*
X0344319Y0185447D02*
X0349606Y0185447D01*
X0349606Y0187045D02*
X0344846Y0187045D01*
X0344846Y0188644D02*
X0349606Y0188644D01*
X0349606Y0190242D02*
X0344275Y0190242D01*
X0343033Y0191841D02*
X0349606Y0191841D01*
X0349606Y0193439D02*
X0342730Y0193439D01*
X0344150Y0195038D02*
X0349606Y0195038D01*
X0349606Y0196636D02*
X0344812Y0196636D01*
X0344846Y0198235D02*
X0349606Y0198235D01*
X0349606Y0199833D02*
X0344445Y0199833D01*
X0343442Y0201432D02*
X0349606Y0201432D01*
X0349606Y0203030D02*
X0342062Y0203030D01*
X0343920Y0204629D02*
X0349606Y0204629D01*
X0349606Y0206227D02*
X0344643Y0206227D01*
X0344846Y0207826D02*
X0349606Y0207826D01*
X0349606Y0209424D02*
X0344614Y0209424D01*
X0343851Y0211023D02*
X0349606Y0211023D01*
X0349606Y0212621D02*
X0341896Y0212621D01*
X0345374Y0220614D02*
X0349606Y0220614D01*
X0349606Y0222212D02*
X0346653Y0222212D01*
X0347301Y0223811D02*
X0349606Y0223811D01*
X0349606Y0225409D02*
X0347301Y0225409D01*
X0346908Y0227008D02*
X0349606Y0227008D01*
X0349606Y0228607D02*
X0345988Y0228607D01*
X0343790Y0230205D02*
X0349606Y0230205D01*
X0349606Y0219015D02*
X0269964Y0219015D01*
X0276849Y0217417D02*
X0349606Y0217417D01*
X0330829Y0203030D02*
X0299064Y0203030D01*
X0299485Y0204629D02*
X0328971Y0204629D01*
X0324613Y0246190D02*
X0286642Y0246190D01*
X0288240Y0247789D02*
X0320151Y0247789D01*
X0280233Y0204629D02*
X0245491Y0204629D01*
X0243113Y0206227D02*
X0272240Y0206227D01*
X0264248Y0207826D02*
X0240736Y0207826D01*
X0238359Y0209424D02*
X0256255Y0209424D01*
X0242745Y0114287D02*
X0242745Y0098539D01*
X0270046Y0071952D02*
X0280547Y0071952D01*
X0278949Y0070354D02*
X0269628Y0070354D01*
X0269210Y0068755D02*
X0278286Y0068755D01*
X0278015Y0067157D02*
X0268792Y0067157D01*
X0268374Y0065558D02*
X0278057Y0065558D01*
X0278719Y0063960D02*
X0267955Y0063960D01*
X0267537Y0062361D02*
X0279992Y0062361D01*
X0282887Y0060763D02*
X0267119Y0060763D01*
X0259896Y0036785D02*
X0256849Y0036785D01*
X0256115Y0035187D02*
X0258788Y0035187D01*
X0258438Y0033588D02*
X0255380Y0033588D01*
X0254646Y0031990D02*
X0258658Y0031990D01*
X0259583Y0030391D02*
X0253924Y0030391D01*
X0252713Y0028793D02*
X0264642Y0028793D01*
X0264841Y0027194D02*
X0237366Y0027194D01*
X0237366Y0025596D02*
X0265736Y0025596D01*
X0270847Y0023997D02*
X0244683Y0023997D01*
X0245690Y0022399D02*
X0271024Y0022399D01*
X0271889Y0020800D02*
X0245690Y0020800D01*
X0248608Y0019202D02*
X0274415Y0019202D01*
X0276429Y0019202D02*
X0277052Y0019202D01*
X0277208Y0017603D02*
X0249282Y0017603D01*
X0249147Y0016005D02*
X0278041Y0016005D01*
X0280494Y0014406D02*
X0248129Y0014406D01*
X0249872Y0012807D02*
X0283632Y0012807D01*
X0283460Y0014406D02*
X0282760Y0014406D01*
X0284482Y0011209D02*
X0251142Y0011209D01*
X0251447Y0009610D02*
X0288774Y0009610D01*
X0285619Y0011209D02*
X0285619Y0011209D01*
X0285137Y0010591D02*
X0287832Y0014041D01*
X0285137Y0010591D01*
X0286868Y0012807D02*
X0286868Y0012807D01*
X0287832Y0014041D02*
X0287832Y0014041D01*
X0291741Y0016005D02*
X0295460Y0016005D01*
X0293861Y0014406D02*
X0292203Y0014406D01*
X0292263Y0012807D02*
X0292031Y0012807D01*
X0318324Y0047975D02*
X0329483Y0047975D01*
X0327367Y0046790D02*
X0327367Y0046790D01*
X0326650Y0046376D02*
X0320112Y0046376D01*
X0320927Y0044778D02*
X0324233Y0044778D01*
X0324712Y0045257D02*
X0324712Y0045257D01*
X0323101Y0043646D02*
X0323101Y0043646D01*
X0322634Y0043179D02*
X0321307Y0043179D01*
X0289349Y0070354D02*
X0287623Y0072080D01*
X0283568Y0097529D02*
X0319867Y0097529D01*
X0316326Y0099127D02*
X0285097Y0099127D01*
X0286627Y0100726D02*
X0312785Y0100726D01*
X0309244Y0102324D02*
X0288156Y0102324D01*
X0289685Y0103923D02*
X0305703Y0103923D01*
X0302162Y0105521D02*
X0291215Y0105521D01*
X0292744Y0107120D02*
X0298621Y0107120D01*
X0295080Y0108718D02*
X0294273Y0108718D01*
X0251209Y0031217D02*
X0236052Y0032201D01*
X0236000Y0033511D01*
X0237910Y0028793D02*
X0245328Y0028793D01*
X0238445Y0023997D02*
X0237366Y0023997D01*
X0237366Y0022399D02*
X0237422Y0022399D01*
X0236052Y0019406D02*
X0236000Y0017025D01*
X0236052Y0019406D02*
X0241564Y0020095D01*
X0242351Y0019799D01*
X0245698Y0017043D01*
X0245690Y0012807D02*
X0245854Y0012807D01*
X0245304Y0009366D02*
X0240383Y0009366D01*
X0235461Y0009366D01*
X0233493Y0012909D01*
X0233441Y0017025D01*
X0230882Y0017025D02*
X0230934Y0012909D01*
X0230343Y0012319D01*
X0229162Y0011335D01*
X0226209Y0011335D01*
X0223946Y0012319D01*
X0225823Y0017603D02*
X0212350Y0017603D01*
X0213570Y0019202D02*
X0225823Y0019202D01*
X0225940Y0020800D02*
X0213849Y0020800D01*
X0213394Y0022399D02*
X0226870Y0022399D01*
X0228375Y0022752D02*
X0228323Y0017025D01*
X0226870Y0023997D02*
X0211397Y0023997D01*
X0213189Y0014406D02*
X0153179Y0014406D01*
X0154656Y0016005D02*
X0155522Y0016005D01*
X0143421Y0041581D02*
X0143047Y0041581D01*
X0143139Y0043179D02*
X0142765Y0043179D01*
X0142857Y0044778D02*
X0142483Y0044778D01*
X0200849Y0046376D02*
X0205389Y0046376D01*
X0218139Y0033382D02*
X0223650Y0027673D01*
X0226642Y0025596D02*
X0226870Y0025596D01*
X0228178Y0028461D02*
X0232115Y0025902D01*
X0232902Y0025902D01*
X0233690Y0025508D01*
X0254069Y0026290D01*
X0247863Y0009760D02*
X0245304Y0009366D01*
X0240383Y0009366D02*
X0241564Y0013205D01*
X0228178Y0028461D02*
X0228178Y0033511D01*
X0228323Y0033511D01*
X0119594Y0175856D02*
X0116811Y0175856D01*
X0116811Y0177454D02*
X0118983Y0177454D01*
X0118983Y0179053D02*
X0116811Y0179053D01*
X0116811Y0180651D02*
X0118983Y0180651D01*
X0120542Y0182250D02*
X0116811Y0182250D01*
X0116811Y0183848D02*
X0120753Y0183848D01*
X0119155Y0185447D02*
X0116811Y0185447D01*
X0116811Y0187045D02*
X0118383Y0187045D01*
X0118383Y0188644D02*
X0117547Y0188644D01*
X0116593Y0219015D02*
X0111298Y0219015D01*
X0113310Y0220614D02*
X0114581Y0220614D01*
X0121298Y0219015D02*
X0126593Y0219015D01*
X0124581Y0220614D02*
X0123310Y0220614D01*
X0131298Y0219015D02*
X0136593Y0219015D01*
X0134581Y0220614D02*
X0133310Y0220614D01*
X0141298Y0219015D02*
X0146593Y0219015D01*
X0144581Y0220614D02*
X0143310Y0220614D01*
X0151298Y0219015D02*
X0156593Y0219015D01*
X0154581Y0220614D02*
X0153310Y0220614D01*
X0144026Y0332258D02*
X0144026Y0332258D01*
X0144277Y0332510D02*
X0235701Y0332510D01*
X0235952Y0332258D02*
X0235952Y0332258D01*
X0234338Y0333872D02*
X0234338Y0333872D01*
X0234240Y0334108D02*
X0145738Y0334108D01*
X0146400Y0335707D02*
X0233578Y0335707D01*
X0233465Y0337305D02*
X0146513Y0337305D01*
X0146513Y0338904D02*
X0233465Y0338904D01*
X0233465Y0340502D02*
X0146513Y0340502D01*
X0146513Y0342101D02*
X0233465Y0342101D01*
X0233465Y0343699D02*
X0146513Y0343699D01*
X0146513Y0345298D02*
X0233465Y0345298D01*
X0233465Y0346896D02*
X0146513Y0346896D01*
X0146513Y0348495D02*
X0233465Y0348495D01*
X0233465Y0350093D02*
X0146513Y0350093D01*
X0146513Y0351692D02*
X0233465Y0351692D01*
X0233465Y0353290D02*
X0146513Y0353290D01*
X0146513Y0354889D02*
X0233465Y0354889D01*
X0233465Y0356487D02*
X0146513Y0356487D01*
X0146513Y0358086D02*
X0233465Y0358086D01*
X0233465Y0359684D02*
X0146513Y0359684D01*
X0146513Y0361283D02*
X0233465Y0361283D01*
X0233465Y0362881D02*
X0146513Y0362881D01*
X0146513Y0364480D02*
X0233465Y0364480D01*
X0233465Y0366078D02*
X0146513Y0366078D01*
X0146513Y0367677D02*
X0233465Y0367677D01*
X0233465Y0369276D02*
X0146513Y0369276D01*
X0146513Y0370874D02*
X0233465Y0370874D01*
X0233465Y0372473D02*
X0146513Y0372473D01*
X0146513Y0374071D02*
X0233465Y0374071D01*
X0233465Y0375670D02*
X0146513Y0375670D01*
X0146513Y0377268D02*
X0233465Y0377268D01*
X0233465Y0378867D02*
X0146513Y0378867D01*
X0146513Y0380465D02*
X0233465Y0380465D01*
X0233465Y0382064D02*
X0146513Y0382064D01*
X0146513Y0383662D02*
X0233465Y0383662D01*
X0233465Y0385261D02*
X0146513Y0385261D01*
X0146513Y0386859D02*
X0233465Y0386859D01*
X0233465Y0388458D02*
X0146513Y0388458D01*
X0146513Y0390056D02*
X0233465Y0390056D01*
X0233465Y0391655D02*
X0146513Y0391655D01*
X0146801Y0393253D02*
X0233177Y0393253D01*
X0278963Y0337305D02*
X0312869Y0337305D01*
X0312349Y0335707D02*
X0277801Y0335707D01*
X0277064Y0334692D02*
X0277064Y0334692D01*
X0276260Y0334108D02*
X0311830Y0334108D01*
X0311311Y0332510D02*
X0274034Y0332510D01*
X0274081Y0332525D02*
X0274081Y0332525D01*
X0279631Y0338904D02*
X0313388Y0338904D01*
X0313898Y0340502D02*
X0280150Y0340502D01*
X0280372Y0342101D02*
X0314237Y0342101D01*
X0314577Y0343699D02*
X0280372Y0343699D01*
X0280372Y0345298D02*
X0314917Y0345298D01*
X0315257Y0346896D02*
X0280372Y0346896D01*
X0280372Y0348495D02*
X0315596Y0348495D01*
X0315936Y0350093D02*
X0280372Y0350093D01*
X0280372Y0351692D02*
X0316276Y0351692D01*
X0316598Y0353290D02*
X0280372Y0353290D01*
X0280372Y0354889D02*
X0316766Y0354889D01*
X0316934Y0356487D02*
X0280372Y0356487D01*
X0280372Y0358086D02*
X0317102Y0358086D01*
X0317270Y0359684D02*
X0280372Y0359684D01*
X0280372Y0361283D02*
X0317438Y0361283D01*
X0317606Y0362881D02*
X0280372Y0362881D01*
X0280372Y0364480D02*
X0317774Y0364480D01*
X0317941Y0366078D02*
X0280372Y0366078D01*
X0280372Y0367677D02*
X0317983Y0367677D01*
X0318024Y0369276D02*
X0299941Y0369276D01*
X0299711Y0369180D02*
X0302398Y0370294D01*
X0304455Y0372350D01*
X0305568Y0375038D01*
X0305568Y0377947D01*
X0304455Y0380634D01*
X0302398Y0382691D01*
X0299711Y0383804D01*
X0296802Y0383804D01*
X0294115Y0382691D01*
X0292058Y0380634D01*
X0290945Y0377947D01*
X0290945Y0375038D01*
X0292058Y0372350D01*
X0294115Y0370294D01*
X0296802Y0369180D01*
X0299711Y0369180D01*
X0296573Y0369276D02*
X0280372Y0369276D01*
X0280372Y0370874D02*
X0293534Y0370874D01*
X0292007Y0372473D02*
X0280372Y0372473D01*
X0280372Y0374071D02*
X0291345Y0374071D01*
X0290945Y0375670D02*
X0280372Y0375670D01*
X0280415Y0377268D02*
X0290945Y0377268D01*
X0291326Y0378867D02*
X0280569Y0378867D01*
X0280934Y0380465D02*
X0291988Y0380465D01*
X0293488Y0382064D02*
X0281299Y0382064D01*
X0281983Y0383662D02*
X0296460Y0383662D01*
X0300054Y0383662D02*
X0316498Y0383662D01*
X0317183Y0382064D02*
X0303026Y0382064D01*
X0304525Y0380465D02*
X0317548Y0380465D01*
X0317913Y0378867D02*
X0305187Y0378867D01*
X0305568Y0377268D02*
X0318067Y0377268D01*
X0318110Y0375670D02*
X0305568Y0375670D01*
X0305168Y0374071D02*
X0318110Y0374071D01*
X0318108Y0372473D02*
X0304506Y0372473D01*
X0302979Y0370874D02*
X0318066Y0370874D01*
X0315729Y0385261D02*
X0282753Y0385261D01*
X0283792Y0386859D02*
X0314690Y0386859D01*
X0315369Y0386008D02*
X0315369Y0386008D01*
X0313415Y0388458D02*
X0285067Y0388458D01*
X0286760Y0390056D02*
X0311722Y0390056D01*
X0309702Y0391655D02*
X0288780Y0391655D01*
X0292100Y0393253D02*
X0306382Y0393253D01*
X0310791Y0330911D02*
X0069187Y0330911D01*
X0069706Y0329313D02*
X0310272Y0329313D01*
X0309712Y0327714D02*
X0070266Y0327714D01*
X0070978Y0326116D02*
X0309000Y0326116D01*
X0308288Y0324517D02*
X0071690Y0324517D01*
X0072401Y0322919D02*
X0307577Y0322919D01*
X0306865Y0321320D02*
X0073113Y0321320D01*
X0073825Y0319722D02*
X0306153Y0319722D01*
X0305442Y0318123D02*
X0074536Y0318123D01*
X0068667Y0332510D02*
X0105943Y0332510D01*
X0103718Y0334108D02*
X0068148Y0334108D01*
X0067629Y0335707D02*
X0102177Y0335707D01*
X0102914Y0334692D02*
X0102914Y0334692D01*
X0102914Y0334692D01*
X0101015Y0337305D02*
X0067109Y0337305D01*
X0066590Y0338904D02*
X0100347Y0338904D01*
X0100746Y0337676D02*
X0100746Y0337676D01*
X0099828Y0340502D02*
X0066080Y0340502D01*
X0065741Y0342101D02*
X0099606Y0342101D01*
X0099606Y0343699D02*
X0065401Y0343699D01*
X0065061Y0345298D02*
X0099606Y0345298D01*
X0099606Y0346896D02*
X0064721Y0346896D01*
X0064382Y0348495D02*
X0099606Y0348495D01*
X0099606Y0350093D02*
X0064042Y0350093D01*
X0063702Y0351692D02*
X0099606Y0351692D01*
X0099606Y0353290D02*
X0063380Y0353290D01*
X0063212Y0354889D02*
X0099606Y0354889D01*
X0099606Y0356487D02*
X0063044Y0356487D01*
X0062876Y0358086D02*
X0099606Y0358086D01*
X0099606Y0359684D02*
X0062708Y0359684D01*
X0062540Y0361283D02*
X0099606Y0361283D01*
X0099606Y0362881D02*
X0062372Y0362881D01*
X0062204Y0364480D02*
X0099606Y0364480D01*
X0099606Y0366078D02*
X0062037Y0366078D01*
X0061995Y0367677D02*
X0099606Y0367677D01*
X0099606Y0369276D02*
X0083405Y0369276D01*
X0083176Y0369180D02*
X0085863Y0370294D01*
X0087920Y0372350D01*
X0089033Y0375038D01*
X0089033Y0377947D01*
X0087920Y0380634D01*
X0085863Y0382691D01*
X0083176Y0383804D01*
X0080267Y0383804D01*
X0077579Y0382691D01*
X0075523Y0380634D01*
X0074409Y0377947D01*
X0074409Y0375038D01*
X0075523Y0372350D01*
X0077579Y0370294D01*
X0080267Y0369180D01*
X0083176Y0369180D01*
X0080037Y0369276D02*
X0061954Y0369276D01*
X0061912Y0370874D02*
X0076999Y0370874D01*
X0075472Y0372473D02*
X0061870Y0372473D01*
X0061868Y0374071D02*
X0074810Y0374071D01*
X0074409Y0375670D02*
X0061868Y0375670D01*
X0061911Y0377268D02*
X0074409Y0377268D01*
X0074791Y0378867D02*
X0062065Y0378867D01*
X0062430Y0380465D02*
X0075453Y0380465D01*
X0076952Y0382064D02*
X0062795Y0382064D01*
X0063480Y0383662D02*
X0079924Y0383662D01*
X0083518Y0383662D02*
X0097994Y0383662D01*
X0098679Y0382064D02*
X0086490Y0382064D01*
X0087990Y0380465D02*
X0099044Y0380465D01*
X0099409Y0378867D02*
X0088652Y0378867D01*
X0089033Y0377268D02*
X0099563Y0377268D01*
X0099606Y0375670D02*
X0089033Y0375670D01*
X0088633Y0374071D02*
X0099606Y0374071D01*
X0099606Y0372473D02*
X0087971Y0372473D01*
X0086444Y0370874D02*
X0099606Y0370874D01*
X0097225Y0385261D02*
X0064249Y0385261D01*
X0065288Y0386859D02*
X0096186Y0386859D01*
X0094911Y0388458D02*
X0066563Y0388458D01*
X0068256Y0390056D02*
X0093218Y0390056D01*
X0091198Y0391655D02*
X0070276Y0391655D01*
X0073596Y0393253D02*
X0087878Y0393253D01*
X0350336Y0083142D02*
X0351295Y0083142D01*
X0351295Y0081543D02*
X0350336Y0081543D01*
D37*
X0347469Y0080429D02*
X0347632Y0079319D01*
X0349084Y0069433D01*
X0349275Y0062828D01*
X0361411Y0062828D02*
X0361643Y0073343D01*
X0361643Y0078854D01*
X0361643Y0092240D01*
X0371091Y0098776D01*
X0371091Y0118776D02*
X0366367Y0119012D01*
X0229359Y0211138D01*
X0228946Y0226886D01*
X0219123Y0226886D02*
X0219910Y0148146D01*
X0212036Y0141847D02*
X0202981Y0141847D01*
X0200619Y0140272D01*
X0201013Y0212713D01*
X0198946Y0226886D01*
X0194713Y0216650D01*
X0149044Y0216650D01*
X0141957Y0211138D01*
X0052981Y0212713D01*
X0046682Y0219012D01*
X0046682Y0236335D01*
X0041957Y0241059D01*
X0041957Y0250705D01*
X0019910Y0274917D01*
X0133296Y0164681D02*
X0128788Y0131847D01*
X0144083Y0178579D02*
X0152981Y0178067D01*
X0187627Y0141847D01*
X0201800Y0122949D01*
X0201800Y0114287D01*
X0190776Y0107988D01*
X0175816Y0107988D01*
X0212036Y0141847D02*
X0218335Y0135547D01*
X0228572Y0135547D01*
X0271091Y0174130D01*
X0280540Y0182791D02*
X0290118Y0192146D01*
X0325422Y0157595D01*
X0336446Y0157791D01*
X0276389Y0136062D02*
X0347469Y0093028D01*
X0347469Y0080429D01*
X0276389Y0136062D02*
X0228572Y0135547D01*
X0290118Y0192146D02*
X0348257Y0248933D01*
X0356131Y0258382D01*
X0219123Y0226886D02*
X0208946Y0226886D01*
D38*
X0189202Y0203264D03*
X0178965Y0200902D03*
X0169517Y0203264D03*
X0176603Y0182791D03*
X0179753Y0164681D03*
X0190383Y0150508D03*
X0195894Y0115862D03*
X0188414Y0103264D03*
X0191564Y0091453D03*
X0175816Y0107988D03*
X0216761Y0099327D03*
X0242745Y0098539D03*
X0242745Y0114287D03*
X0256918Y0118224D03*
X0257706Y0103264D03*
X0272666Y0108776D03*
X0239989Y0039878D03*
X0248257Y0034760D03*
X0245698Y0017043D03*
X0247863Y0009760D03*
X0235461Y0009366D03*
X0223650Y0027673D03*
X0225816Y0039878D03*
X0210265Y0020587D03*
X0187036Y0033382D03*
X0107312Y0137909D03*
X0116761Y0146571D03*
X0117548Y0152083D03*
X0118335Y0157595D03*
X0101800Y0158382D03*
X0148257Y0172555D03*
X0151406Y0209563D03*
X0219910Y0148146D03*
X0248257Y0214287D03*
X0249044Y0220587D03*
X0293139Y0210350D03*
X0295501Y0204839D03*
X0044320Y0199327D03*
X0023060Y0258382D03*
D39*
X0019910Y0274917D03*
X0187627Y0141847D03*
X0200619Y0140272D03*
X0228572Y0135547D03*
X0271091Y0174130D03*
X0280540Y0182791D03*
X0356131Y0258382D03*
D40*
X0256131Y0306413D02*
X0256918Y0309563D01*
X0257194Y0311532D01*
X0256131Y0306413D02*
X0189989Y0248933D01*
X0189989Y0236335D01*
X0193139Y0233185D01*
X0198946Y0226886D01*
M02*
