G75*
%MOIN*%
%OFA0B0*%
%FSLAX25Y25*%
%IPPOS*%
%LPD*%
%AMOC8*
5,1,8,0,0,1.08239X$1,22.5*
%
%ADD10C,0.00000*%
%ADD11C,0.00400*%
%ADD12C,0.00500*%
%ADD13C,0.00600*%
%ADD14C,0.00300*%
%ADD15C,0.00118*%
%ADD16R,0.02000X0.07362*%
%ADD17R,0.02500X0.03346*%
%ADD18C,0.01000*%
%ADD19C,0.00250*%
%ADD20C,0.00984*%
D10*
X0036446Y0055626D02*
X0036446Y0230683D01*
X0033563Y0237643D02*
X0013779Y0257427D01*
X0013380Y0257835D01*
X0012991Y0258253D01*
X0012613Y0258680D01*
X0012245Y0259117D01*
X0011887Y0259562D01*
X0011541Y0260015D01*
X0011205Y0260477D01*
X0010881Y0260947D01*
X0010568Y0261425D01*
X0010267Y0261909D01*
X0009977Y0262401D01*
X0009700Y0262900D01*
X0009435Y0263406D01*
X0009182Y0263918D01*
X0008941Y0264435D01*
X0008713Y0264959D01*
X0008498Y0265487D01*
X0008295Y0266021D01*
X0008106Y0266559D01*
X0007930Y0267102D01*
X0007766Y0267649D01*
X0007616Y0268200D01*
X0007480Y0268754D01*
X0007357Y0269312D01*
X0007247Y0269872D01*
X0007151Y0270435D01*
X0007068Y0271000D01*
X0007000Y0271566D01*
X0006944Y0272134D01*
X0006903Y0272704D01*
X0006876Y0273274D01*
X0006862Y0273845D01*
X0006862Y0274415D01*
X0006876Y0274986D01*
X0006903Y0275556D01*
X0006944Y0276126D01*
X0007000Y0276694D01*
X0007068Y0277260D01*
X0007151Y0277825D01*
X0007247Y0278388D01*
X0007357Y0278948D01*
X0007480Y0279506D01*
X0007616Y0280060D01*
X0007766Y0280611D01*
X0007930Y0281158D01*
X0008106Y0281701D01*
X0008295Y0282239D01*
X0008498Y0282773D01*
X0008713Y0283301D01*
X0008941Y0283825D01*
X0009182Y0284342D01*
X0009435Y0284854D01*
X0009700Y0285360D01*
X0009977Y0285859D01*
X0010267Y0286351D01*
X0010568Y0286835D01*
X0010881Y0287313D01*
X0011205Y0287783D01*
X0011541Y0288245D01*
X0011887Y0288698D01*
X0012245Y0289143D01*
X0012613Y0289580D01*
X0012991Y0290007D01*
X0013380Y0290425D01*
X0013779Y0290833D01*
X0019742Y0296797D01*
X0019743Y0296796D02*
X0020151Y0297195D01*
X0020569Y0297584D01*
X0020996Y0297962D01*
X0021433Y0298330D01*
X0021878Y0298688D01*
X0022331Y0299034D01*
X0022793Y0299370D01*
X0023263Y0299694D01*
X0023741Y0300007D01*
X0024225Y0300308D01*
X0024717Y0300598D01*
X0025216Y0300875D01*
X0025722Y0301140D01*
X0026234Y0301393D01*
X0026751Y0301634D01*
X0027275Y0301862D01*
X0027803Y0302077D01*
X0028337Y0302280D01*
X0028875Y0302469D01*
X0029418Y0302645D01*
X0029965Y0302809D01*
X0030516Y0302959D01*
X0031070Y0303095D01*
X0031628Y0303218D01*
X0032188Y0303328D01*
X0032751Y0303424D01*
X0033316Y0303507D01*
X0033882Y0303575D01*
X0034450Y0303631D01*
X0035020Y0303672D01*
X0035590Y0303699D01*
X0036161Y0303713D01*
X0036731Y0303713D01*
X0037302Y0303699D01*
X0037872Y0303672D01*
X0038442Y0303631D01*
X0039010Y0303575D01*
X0039576Y0303507D01*
X0040141Y0303424D01*
X0040704Y0303328D01*
X0041264Y0303218D01*
X0041822Y0303095D01*
X0042376Y0302959D01*
X0042927Y0302809D01*
X0043474Y0302645D01*
X0044017Y0302469D01*
X0044555Y0302280D01*
X0045089Y0302077D01*
X0045617Y0301862D01*
X0046141Y0301634D01*
X0046658Y0301393D01*
X0047170Y0301140D01*
X0047676Y0300875D01*
X0048175Y0300598D01*
X0048667Y0300308D01*
X0049151Y0300007D01*
X0049629Y0299694D01*
X0050099Y0299370D01*
X0050561Y0299034D01*
X0051014Y0298688D01*
X0051459Y0298330D01*
X0051896Y0297962D01*
X0052323Y0297584D01*
X0052741Y0297195D01*
X0053149Y0296796D01*
X0053149Y0296797D02*
X0112303Y0237643D01*
X0119263Y0234760D02*
X0186052Y0234760D01*
X0186052Y0246571D01*
X0193926Y0246571D02*
X0193926Y0234760D01*
X0268589Y0234760D01*
X0268589Y0234759D02*
X0268823Y0234762D01*
X0269057Y0234770D01*
X0269291Y0234784D01*
X0269525Y0234804D01*
X0269758Y0234829D01*
X0269990Y0234859D01*
X0270221Y0234895D01*
X0270452Y0234937D01*
X0270681Y0234984D01*
X0270910Y0235036D01*
X0271137Y0235094D01*
X0271362Y0235158D01*
X0271586Y0235226D01*
X0271808Y0235300D01*
X0272029Y0235380D01*
X0272247Y0235464D01*
X0272464Y0235554D01*
X0272678Y0235648D01*
X0272890Y0235748D01*
X0273099Y0235853D01*
X0273306Y0235963D01*
X0273511Y0236078D01*
X0273712Y0236197D01*
X0273911Y0236322D01*
X0274106Y0236451D01*
X0274299Y0236584D01*
X0274488Y0236722D01*
X0274674Y0236865D01*
X0274856Y0237012D01*
X0275035Y0237163D01*
X0275210Y0237319D01*
X0275381Y0237478D01*
X0275549Y0237642D01*
X0275549Y0237643D02*
X0334703Y0296797D01*
X0334703Y0296796D02*
X0335111Y0297195D01*
X0335529Y0297584D01*
X0335956Y0297962D01*
X0336393Y0298330D01*
X0336838Y0298688D01*
X0337291Y0299034D01*
X0337753Y0299370D01*
X0338223Y0299694D01*
X0338701Y0300007D01*
X0339185Y0300308D01*
X0339677Y0300598D01*
X0340176Y0300875D01*
X0340682Y0301140D01*
X0341194Y0301393D01*
X0341711Y0301634D01*
X0342235Y0301862D01*
X0342763Y0302077D01*
X0343297Y0302280D01*
X0343835Y0302469D01*
X0344378Y0302645D01*
X0344925Y0302809D01*
X0345476Y0302959D01*
X0346030Y0303095D01*
X0346588Y0303218D01*
X0347148Y0303328D01*
X0347711Y0303424D01*
X0348276Y0303507D01*
X0348842Y0303575D01*
X0349410Y0303631D01*
X0349980Y0303672D01*
X0350550Y0303699D01*
X0351121Y0303713D01*
X0351691Y0303713D01*
X0352262Y0303699D01*
X0352832Y0303672D01*
X0353402Y0303631D01*
X0353970Y0303575D01*
X0354536Y0303507D01*
X0355101Y0303424D01*
X0355664Y0303328D01*
X0356224Y0303218D01*
X0356782Y0303095D01*
X0357336Y0302959D01*
X0357887Y0302809D01*
X0358434Y0302645D01*
X0358977Y0302469D01*
X0359515Y0302280D01*
X0360049Y0302077D01*
X0360577Y0301862D01*
X0361101Y0301634D01*
X0361618Y0301393D01*
X0362130Y0301140D01*
X0362636Y0300875D01*
X0363135Y0300598D01*
X0363627Y0300308D01*
X0364111Y0300007D01*
X0364589Y0299694D01*
X0365059Y0299370D01*
X0365521Y0299034D01*
X0365974Y0298688D01*
X0366419Y0298330D01*
X0366856Y0297962D01*
X0367283Y0297584D01*
X0367701Y0297195D01*
X0368109Y0296796D01*
X0368110Y0296797D02*
X0374073Y0290833D01*
X0374472Y0290425D01*
X0374861Y0290007D01*
X0375239Y0289580D01*
X0375607Y0289143D01*
X0375965Y0288698D01*
X0376311Y0288245D01*
X0376647Y0287783D01*
X0376971Y0287313D01*
X0377284Y0286835D01*
X0377585Y0286351D01*
X0377875Y0285859D01*
X0378152Y0285360D01*
X0378417Y0284854D01*
X0378670Y0284342D01*
X0378911Y0283825D01*
X0379139Y0283301D01*
X0379354Y0282773D01*
X0379557Y0282239D01*
X0379746Y0281701D01*
X0379922Y0281158D01*
X0380086Y0280611D01*
X0380236Y0280060D01*
X0380372Y0279506D01*
X0380495Y0278948D01*
X0380605Y0278388D01*
X0380701Y0277825D01*
X0380784Y0277260D01*
X0380852Y0276694D01*
X0380908Y0276126D01*
X0380949Y0275556D01*
X0380976Y0274986D01*
X0380990Y0274415D01*
X0380990Y0273845D01*
X0380976Y0273274D01*
X0380949Y0272704D01*
X0380908Y0272134D01*
X0380852Y0271566D01*
X0380784Y0271000D01*
X0380701Y0270435D01*
X0380605Y0269872D01*
X0380495Y0269312D01*
X0380372Y0268754D01*
X0380236Y0268200D01*
X0380086Y0267649D01*
X0379922Y0267102D01*
X0379746Y0266559D01*
X0379557Y0266021D01*
X0379354Y0265487D01*
X0379139Y0264959D01*
X0378911Y0264435D01*
X0378670Y0263918D01*
X0378417Y0263406D01*
X0378152Y0262900D01*
X0377875Y0262401D01*
X0377585Y0261909D01*
X0377284Y0261425D01*
X0376971Y0260947D01*
X0376647Y0260477D01*
X0376311Y0260015D01*
X0375965Y0259562D01*
X0375607Y0259117D01*
X0375239Y0258680D01*
X0374861Y0258253D01*
X0374472Y0257835D01*
X0374073Y0257427D01*
X0354289Y0237643D01*
X0351406Y0230683D02*
X0351406Y0149274D01*
X0355528Y0141265D02*
X0374844Y0127468D01*
X0378965Y0119459D02*
X0378965Y0055626D01*
X0378966Y0055626D02*
X0378963Y0055388D01*
X0378955Y0055150D01*
X0378940Y0054913D01*
X0378920Y0054676D01*
X0378894Y0054440D01*
X0378863Y0054204D01*
X0378826Y0053969D01*
X0378783Y0053735D01*
X0378734Y0053502D01*
X0378680Y0053270D01*
X0378620Y0053040D01*
X0378555Y0052811D01*
X0378484Y0052584D01*
X0378408Y0052359D01*
X0378326Y0052136D01*
X0378239Y0051914D01*
X0378147Y0051695D01*
X0378049Y0051478D01*
X0377947Y0051264D01*
X0377839Y0051052D01*
X0377725Y0050842D01*
X0377607Y0050636D01*
X0377484Y0050432D01*
X0377356Y0050232D01*
X0377224Y0050035D01*
X0377086Y0049840D01*
X0376944Y0049650D01*
X0376797Y0049462D01*
X0376646Y0049279D01*
X0376491Y0049099D01*
X0376331Y0048923D01*
X0376167Y0048751D01*
X0375998Y0048582D01*
X0375826Y0048418D01*
X0375650Y0048258D01*
X0375470Y0048103D01*
X0375287Y0047952D01*
X0375099Y0047805D01*
X0374909Y0047663D01*
X0374714Y0047525D01*
X0374517Y0047393D01*
X0374317Y0047265D01*
X0374113Y0047142D01*
X0373907Y0047024D01*
X0373697Y0046910D01*
X0373485Y0046802D01*
X0373271Y0046700D01*
X0373054Y0046602D01*
X0372835Y0046510D01*
X0372613Y0046423D01*
X0372390Y0046341D01*
X0372165Y0046265D01*
X0371938Y0046194D01*
X0371709Y0046129D01*
X0371479Y0046069D01*
X0371247Y0046015D01*
X0371014Y0045966D01*
X0370780Y0045923D01*
X0370545Y0045886D01*
X0370309Y0045855D01*
X0370073Y0045829D01*
X0369836Y0045809D01*
X0369599Y0045794D01*
X0369361Y0045786D01*
X0369123Y0045783D01*
X0369123Y0045784D02*
X0331861Y0045784D01*
X0324901Y0042901D02*
X0291297Y0009296D01*
X0284337Y0006413D02*
X0112391Y0006413D01*
X0112151Y0006416D01*
X0111910Y0006425D01*
X0111670Y0006439D01*
X0111431Y0006460D01*
X0111192Y0006486D01*
X0110953Y0006519D01*
X0110716Y0006557D01*
X0110479Y0006600D01*
X0110244Y0006650D01*
X0110010Y0006705D01*
X0109777Y0006766D01*
X0109546Y0006833D01*
X0109317Y0006905D01*
X0109089Y0006983D01*
X0108864Y0007067D01*
X0108640Y0007156D01*
X0108419Y0007250D01*
X0108200Y0007350D01*
X0107984Y0007455D01*
X0107770Y0007565D01*
X0107559Y0007681D01*
X0107351Y0007801D01*
X0107146Y0007927D01*
X0106944Y0008057D01*
X0106746Y0008193D01*
X0106550Y0008333D01*
X0106358Y0008478D01*
X0106170Y0008628D01*
X0105986Y0008782D01*
X0105805Y0008941D01*
X0105628Y0009104D01*
X0105456Y0009271D01*
X0105287Y0009443D01*
X0105123Y0009619D01*
X0104963Y0009798D01*
X0104807Y0009982D01*
X0104656Y0010169D01*
X0104510Y0010359D01*
X0104368Y0010554D01*
X0104231Y0010751D01*
X0104099Y0010952D01*
X0103972Y0011157D01*
X0103850Y0011364D01*
X0103733Y0011574D01*
X0103621Y0011787D01*
X0103514Y0012002D01*
X0103413Y0012221D01*
X0103317Y0012441D01*
X0103227Y0012664D01*
X0103142Y0012889D01*
X0103062Y0013116D01*
X0102988Y0013345D01*
X0102920Y0013575D01*
X0102857Y0013808D01*
X0102800Y0014041D01*
X0102749Y0014276D01*
X0102704Y0014512D01*
X0098533Y0037685D01*
X0104437Y0022396D02*
X0104439Y0022493D01*
X0104445Y0022590D01*
X0104455Y0022686D01*
X0104469Y0022782D01*
X0104487Y0022878D01*
X0104508Y0022972D01*
X0104534Y0023066D01*
X0104563Y0023158D01*
X0104597Y0023249D01*
X0104633Y0023339D01*
X0104674Y0023427D01*
X0104718Y0023513D01*
X0104766Y0023598D01*
X0104817Y0023680D01*
X0104871Y0023761D01*
X0104929Y0023839D01*
X0104990Y0023914D01*
X0105053Y0023987D01*
X0105120Y0024058D01*
X0105190Y0024125D01*
X0105262Y0024190D01*
X0105337Y0024251D01*
X0105415Y0024310D01*
X0105494Y0024365D01*
X0105576Y0024417D01*
X0105660Y0024465D01*
X0105746Y0024510D01*
X0105834Y0024552D01*
X0105923Y0024590D01*
X0106014Y0024624D01*
X0106106Y0024654D01*
X0106199Y0024681D01*
X0106294Y0024703D01*
X0106389Y0024722D01*
X0106485Y0024737D01*
X0106581Y0024748D01*
X0106678Y0024755D01*
X0106775Y0024758D01*
X0106872Y0024757D01*
X0106969Y0024752D01*
X0107065Y0024743D01*
X0107161Y0024730D01*
X0107257Y0024713D01*
X0107352Y0024692D01*
X0107445Y0024668D01*
X0107538Y0024639D01*
X0107630Y0024607D01*
X0107720Y0024571D01*
X0107808Y0024532D01*
X0107895Y0024488D01*
X0107980Y0024442D01*
X0108063Y0024391D01*
X0108144Y0024338D01*
X0108222Y0024281D01*
X0108299Y0024221D01*
X0108372Y0024158D01*
X0108443Y0024092D01*
X0108511Y0024023D01*
X0108577Y0023951D01*
X0108639Y0023877D01*
X0108698Y0023800D01*
X0108754Y0023721D01*
X0108807Y0023639D01*
X0108857Y0023556D01*
X0108902Y0023470D01*
X0108945Y0023383D01*
X0108984Y0023294D01*
X0109019Y0023204D01*
X0109050Y0023112D01*
X0109077Y0023019D01*
X0109101Y0022925D01*
X0109121Y0022830D01*
X0109137Y0022734D01*
X0109149Y0022638D01*
X0109157Y0022541D01*
X0109161Y0022444D01*
X0109161Y0022348D01*
X0109157Y0022251D01*
X0109149Y0022154D01*
X0109137Y0022058D01*
X0109121Y0021962D01*
X0109101Y0021867D01*
X0109077Y0021773D01*
X0109050Y0021680D01*
X0109019Y0021588D01*
X0108984Y0021498D01*
X0108945Y0021409D01*
X0108902Y0021322D01*
X0108857Y0021236D01*
X0108807Y0021153D01*
X0108754Y0021071D01*
X0108698Y0020992D01*
X0108639Y0020915D01*
X0108577Y0020841D01*
X0108511Y0020769D01*
X0108443Y0020700D01*
X0108372Y0020634D01*
X0108299Y0020571D01*
X0108222Y0020511D01*
X0108144Y0020454D01*
X0108063Y0020401D01*
X0107980Y0020350D01*
X0107895Y0020304D01*
X0107808Y0020260D01*
X0107720Y0020221D01*
X0107630Y0020185D01*
X0107538Y0020153D01*
X0107445Y0020124D01*
X0107352Y0020100D01*
X0107257Y0020079D01*
X0107161Y0020062D01*
X0107065Y0020049D01*
X0106969Y0020040D01*
X0106872Y0020035D01*
X0106775Y0020034D01*
X0106678Y0020037D01*
X0106581Y0020044D01*
X0106485Y0020055D01*
X0106389Y0020070D01*
X0106294Y0020089D01*
X0106199Y0020111D01*
X0106106Y0020138D01*
X0106014Y0020168D01*
X0105923Y0020202D01*
X0105834Y0020240D01*
X0105746Y0020282D01*
X0105660Y0020327D01*
X0105576Y0020375D01*
X0105494Y0020427D01*
X0105415Y0020482D01*
X0105337Y0020541D01*
X0105262Y0020602D01*
X0105190Y0020667D01*
X0105120Y0020734D01*
X0105053Y0020805D01*
X0104990Y0020878D01*
X0104929Y0020953D01*
X0104871Y0021031D01*
X0104817Y0021112D01*
X0104766Y0021194D01*
X0104718Y0021279D01*
X0104674Y0021365D01*
X0104633Y0021453D01*
X0104597Y0021543D01*
X0104563Y0021634D01*
X0104534Y0021726D01*
X0104508Y0021820D01*
X0104487Y0021914D01*
X0104469Y0022010D01*
X0104455Y0022106D01*
X0104445Y0022202D01*
X0104439Y0022299D01*
X0104437Y0022396D01*
X0098534Y0037685D02*
X0098489Y0037921D01*
X0098438Y0038156D01*
X0098381Y0038389D01*
X0098318Y0038622D01*
X0098250Y0038852D01*
X0098176Y0039081D01*
X0098096Y0039308D01*
X0098011Y0039533D01*
X0097921Y0039756D01*
X0097825Y0039976D01*
X0097724Y0040195D01*
X0097617Y0040410D01*
X0097505Y0040623D01*
X0097388Y0040833D01*
X0097266Y0041040D01*
X0097139Y0041245D01*
X0097007Y0041446D01*
X0096870Y0041643D01*
X0096728Y0041838D01*
X0096582Y0042028D01*
X0096431Y0042215D01*
X0096275Y0042399D01*
X0096115Y0042578D01*
X0095951Y0042754D01*
X0095782Y0042926D01*
X0095610Y0043093D01*
X0095433Y0043256D01*
X0095252Y0043415D01*
X0095068Y0043569D01*
X0094880Y0043719D01*
X0094688Y0043864D01*
X0094492Y0044004D01*
X0094294Y0044140D01*
X0094092Y0044270D01*
X0093887Y0044396D01*
X0093679Y0044516D01*
X0093468Y0044632D01*
X0093254Y0044742D01*
X0093038Y0044847D01*
X0092819Y0044947D01*
X0092598Y0045041D01*
X0092374Y0045130D01*
X0092149Y0045214D01*
X0091921Y0045292D01*
X0091692Y0045364D01*
X0091461Y0045431D01*
X0091228Y0045492D01*
X0090994Y0045547D01*
X0090759Y0045597D01*
X0090522Y0045640D01*
X0090285Y0045678D01*
X0090046Y0045711D01*
X0089807Y0045737D01*
X0089568Y0045758D01*
X0089328Y0045772D01*
X0089087Y0045781D01*
X0088847Y0045784D01*
X0046288Y0045784D01*
X0042351Y0055626D02*
X0042353Y0055751D01*
X0042359Y0055876D01*
X0042369Y0056000D01*
X0042383Y0056124D01*
X0042400Y0056248D01*
X0042422Y0056371D01*
X0042448Y0056493D01*
X0042477Y0056615D01*
X0042510Y0056735D01*
X0042548Y0056854D01*
X0042588Y0056973D01*
X0042633Y0057089D01*
X0042681Y0057204D01*
X0042733Y0057318D01*
X0042789Y0057430D01*
X0042848Y0057540D01*
X0042910Y0057648D01*
X0042976Y0057755D01*
X0043045Y0057859D01*
X0043118Y0057960D01*
X0043193Y0058060D01*
X0043272Y0058157D01*
X0043354Y0058251D01*
X0043439Y0058343D01*
X0043526Y0058432D01*
X0043617Y0058518D01*
X0043710Y0058601D01*
X0043806Y0058682D01*
X0043904Y0058759D01*
X0044004Y0058833D01*
X0044107Y0058904D01*
X0044212Y0058971D01*
X0044320Y0059036D01*
X0044429Y0059096D01*
X0044540Y0059154D01*
X0044653Y0059207D01*
X0044767Y0059257D01*
X0044883Y0059304D01*
X0045000Y0059346D01*
X0045119Y0059385D01*
X0045239Y0059421D01*
X0045360Y0059452D01*
X0045482Y0059480D01*
X0045604Y0059503D01*
X0045728Y0059523D01*
X0045852Y0059539D01*
X0045976Y0059551D01*
X0046101Y0059559D01*
X0046226Y0059563D01*
X0046350Y0059563D01*
X0046475Y0059559D01*
X0046600Y0059551D01*
X0046724Y0059539D01*
X0046848Y0059523D01*
X0046972Y0059503D01*
X0047094Y0059480D01*
X0047216Y0059452D01*
X0047337Y0059421D01*
X0047457Y0059385D01*
X0047576Y0059346D01*
X0047693Y0059304D01*
X0047809Y0059257D01*
X0047923Y0059207D01*
X0048036Y0059154D01*
X0048147Y0059096D01*
X0048257Y0059036D01*
X0048364Y0058971D01*
X0048469Y0058904D01*
X0048572Y0058833D01*
X0048672Y0058759D01*
X0048770Y0058682D01*
X0048866Y0058601D01*
X0048959Y0058518D01*
X0049050Y0058432D01*
X0049137Y0058343D01*
X0049222Y0058251D01*
X0049304Y0058157D01*
X0049383Y0058060D01*
X0049458Y0057960D01*
X0049531Y0057859D01*
X0049600Y0057755D01*
X0049666Y0057648D01*
X0049728Y0057540D01*
X0049787Y0057430D01*
X0049843Y0057318D01*
X0049895Y0057204D01*
X0049943Y0057089D01*
X0049988Y0056973D01*
X0050028Y0056854D01*
X0050066Y0056735D01*
X0050099Y0056615D01*
X0050128Y0056493D01*
X0050154Y0056371D01*
X0050176Y0056248D01*
X0050193Y0056124D01*
X0050207Y0056000D01*
X0050217Y0055876D01*
X0050223Y0055751D01*
X0050225Y0055626D01*
X0050223Y0055501D01*
X0050217Y0055376D01*
X0050207Y0055252D01*
X0050193Y0055128D01*
X0050176Y0055004D01*
X0050154Y0054881D01*
X0050128Y0054759D01*
X0050099Y0054637D01*
X0050066Y0054517D01*
X0050028Y0054398D01*
X0049988Y0054279D01*
X0049943Y0054163D01*
X0049895Y0054048D01*
X0049843Y0053934D01*
X0049787Y0053822D01*
X0049728Y0053712D01*
X0049666Y0053604D01*
X0049600Y0053497D01*
X0049531Y0053393D01*
X0049458Y0053292D01*
X0049383Y0053192D01*
X0049304Y0053095D01*
X0049222Y0053001D01*
X0049137Y0052909D01*
X0049050Y0052820D01*
X0048959Y0052734D01*
X0048866Y0052651D01*
X0048770Y0052570D01*
X0048672Y0052493D01*
X0048572Y0052419D01*
X0048469Y0052348D01*
X0048364Y0052281D01*
X0048256Y0052216D01*
X0048147Y0052156D01*
X0048036Y0052098D01*
X0047923Y0052045D01*
X0047809Y0051995D01*
X0047693Y0051948D01*
X0047576Y0051906D01*
X0047457Y0051867D01*
X0047337Y0051831D01*
X0047216Y0051800D01*
X0047094Y0051772D01*
X0046972Y0051749D01*
X0046848Y0051729D01*
X0046724Y0051713D01*
X0046600Y0051701D01*
X0046475Y0051693D01*
X0046350Y0051689D01*
X0046226Y0051689D01*
X0046101Y0051693D01*
X0045976Y0051701D01*
X0045852Y0051713D01*
X0045728Y0051729D01*
X0045604Y0051749D01*
X0045482Y0051772D01*
X0045360Y0051800D01*
X0045239Y0051831D01*
X0045119Y0051867D01*
X0045000Y0051906D01*
X0044883Y0051948D01*
X0044767Y0051995D01*
X0044653Y0052045D01*
X0044540Y0052098D01*
X0044429Y0052156D01*
X0044319Y0052216D01*
X0044212Y0052281D01*
X0044107Y0052348D01*
X0044004Y0052419D01*
X0043904Y0052493D01*
X0043806Y0052570D01*
X0043710Y0052651D01*
X0043617Y0052734D01*
X0043526Y0052820D01*
X0043439Y0052909D01*
X0043354Y0053001D01*
X0043272Y0053095D01*
X0043193Y0053192D01*
X0043118Y0053292D01*
X0043045Y0053393D01*
X0042976Y0053497D01*
X0042910Y0053604D01*
X0042848Y0053712D01*
X0042789Y0053822D01*
X0042733Y0053934D01*
X0042681Y0054048D01*
X0042633Y0054163D01*
X0042588Y0054279D01*
X0042548Y0054398D01*
X0042510Y0054517D01*
X0042477Y0054637D01*
X0042448Y0054759D01*
X0042422Y0054881D01*
X0042400Y0055004D01*
X0042383Y0055128D01*
X0042369Y0055252D01*
X0042359Y0055376D01*
X0042353Y0055501D01*
X0042351Y0055626D01*
X0036445Y0055626D02*
X0036448Y0055388D01*
X0036456Y0055150D01*
X0036471Y0054913D01*
X0036491Y0054676D01*
X0036517Y0054440D01*
X0036548Y0054204D01*
X0036585Y0053969D01*
X0036628Y0053735D01*
X0036677Y0053502D01*
X0036731Y0053270D01*
X0036791Y0053040D01*
X0036856Y0052811D01*
X0036927Y0052584D01*
X0037003Y0052359D01*
X0037085Y0052136D01*
X0037172Y0051914D01*
X0037264Y0051695D01*
X0037362Y0051478D01*
X0037464Y0051264D01*
X0037572Y0051052D01*
X0037686Y0050842D01*
X0037804Y0050636D01*
X0037927Y0050432D01*
X0038055Y0050232D01*
X0038187Y0050035D01*
X0038325Y0049840D01*
X0038467Y0049650D01*
X0038614Y0049462D01*
X0038765Y0049279D01*
X0038920Y0049099D01*
X0039080Y0048923D01*
X0039244Y0048751D01*
X0039413Y0048582D01*
X0039585Y0048418D01*
X0039761Y0048258D01*
X0039941Y0048103D01*
X0040124Y0047952D01*
X0040312Y0047805D01*
X0040502Y0047663D01*
X0040697Y0047525D01*
X0040894Y0047393D01*
X0041094Y0047265D01*
X0041298Y0047142D01*
X0041504Y0047024D01*
X0041714Y0046910D01*
X0041926Y0046802D01*
X0042140Y0046700D01*
X0042357Y0046602D01*
X0042576Y0046510D01*
X0042798Y0046423D01*
X0043021Y0046341D01*
X0043246Y0046265D01*
X0043473Y0046194D01*
X0043702Y0046129D01*
X0043932Y0046069D01*
X0044164Y0046015D01*
X0044397Y0045966D01*
X0044631Y0045923D01*
X0044866Y0045886D01*
X0045102Y0045855D01*
X0045338Y0045829D01*
X0045575Y0045809D01*
X0045812Y0045794D01*
X0046050Y0045786D01*
X0046288Y0045783D01*
X0080146Y0140272D02*
X0080148Y0140420D01*
X0080154Y0140568D01*
X0080164Y0140716D01*
X0080178Y0140863D01*
X0080196Y0141010D01*
X0080217Y0141156D01*
X0080243Y0141302D01*
X0080273Y0141447D01*
X0080306Y0141591D01*
X0080344Y0141734D01*
X0080385Y0141876D01*
X0080430Y0142017D01*
X0080478Y0142157D01*
X0080531Y0142296D01*
X0080587Y0142433D01*
X0080647Y0142568D01*
X0080710Y0142702D01*
X0080777Y0142834D01*
X0080848Y0142964D01*
X0080922Y0143092D01*
X0080999Y0143218D01*
X0081080Y0143342D01*
X0081164Y0143464D01*
X0081251Y0143583D01*
X0081342Y0143700D01*
X0081436Y0143815D01*
X0081532Y0143927D01*
X0081632Y0144037D01*
X0081734Y0144143D01*
X0081840Y0144247D01*
X0081948Y0144348D01*
X0082059Y0144446D01*
X0082172Y0144542D01*
X0082288Y0144634D01*
X0082406Y0144723D01*
X0082527Y0144808D01*
X0082650Y0144891D01*
X0082775Y0144970D01*
X0082902Y0145046D01*
X0083031Y0145118D01*
X0083162Y0145187D01*
X0083295Y0145252D01*
X0083430Y0145313D01*
X0083566Y0145371D01*
X0083703Y0145426D01*
X0083842Y0145476D01*
X0083983Y0145523D01*
X0084124Y0145566D01*
X0084267Y0145606D01*
X0084411Y0145641D01*
X0084555Y0145673D01*
X0084701Y0145700D01*
X0084847Y0145724D01*
X0084994Y0145744D01*
X0085141Y0145760D01*
X0085288Y0145772D01*
X0085436Y0145780D01*
X0085584Y0145784D01*
X0085732Y0145784D01*
X0085880Y0145780D01*
X0086028Y0145772D01*
X0086175Y0145760D01*
X0086322Y0145744D01*
X0086469Y0145724D01*
X0086615Y0145700D01*
X0086761Y0145673D01*
X0086905Y0145641D01*
X0087049Y0145606D01*
X0087192Y0145566D01*
X0087333Y0145523D01*
X0087474Y0145476D01*
X0087613Y0145426D01*
X0087750Y0145371D01*
X0087886Y0145313D01*
X0088021Y0145252D01*
X0088154Y0145187D01*
X0088285Y0145118D01*
X0088414Y0145046D01*
X0088541Y0144970D01*
X0088666Y0144891D01*
X0088789Y0144808D01*
X0088910Y0144723D01*
X0089028Y0144634D01*
X0089144Y0144542D01*
X0089257Y0144446D01*
X0089368Y0144348D01*
X0089476Y0144247D01*
X0089582Y0144143D01*
X0089684Y0144037D01*
X0089784Y0143927D01*
X0089880Y0143815D01*
X0089974Y0143700D01*
X0090065Y0143583D01*
X0090152Y0143464D01*
X0090236Y0143342D01*
X0090317Y0143218D01*
X0090394Y0143092D01*
X0090468Y0142964D01*
X0090539Y0142834D01*
X0090606Y0142702D01*
X0090669Y0142568D01*
X0090729Y0142433D01*
X0090785Y0142296D01*
X0090838Y0142157D01*
X0090886Y0142017D01*
X0090931Y0141876D01*
X0090972Y0141734D01*
X0091010Y0141591D01*
X0091043Y0141447D01*
X0091073Y0141302D01*
X0091099Y0141156D01*
X0091120Y0141010D01*
X0091138Y0140863D01*
X0091152Y0140716D01*
X0091162Y0140568D01*
X0091168Y0140420D01*
X0091170Y0140272D01*
X0091168Y0140124D01*
X0091162Y0139976D01*
X0091152Y0139828D01*
X0091138Y0139681D01*
X0091120Y0139534D01*
X0091099Y0139388D01*
X0091073Y0139242D01*
X0091043Y0139097D01*
X0091010Y0138953D01*
X0090972Y0138810D01*
X0090931Y0138668D01*
X0090886Y0138527D01*
X0090838Y0138387D01*
X0090785Y0138248D01*
X0090729Y0138111D01*
X0090669Y0137976D01*
X0090606Y0137842D01*
X0090539Y0137710D01*
X0090468Y0137580D01*
X0090394Y0137452D01*
X0090317Y0137326D01*
X0090236Y0137202D01*
X0090152Y0137080D01*
X0090065Y0136961D01*
X0089974Y0136844D01*
X0089880Y0136729D01*
X0089784Y0136617D01*
X0089684Y0136507D01*
X0089582Y0136401D01*
X0089476Y0136297D01*
X0089368Y0136196D01*
X0089257Y0136098D01*
X0089144Y0136002D01*
X0089028Y0135910D01*
X0088910Y0135821D01*
X0088789Y0135736D01*
X0088666Y0135653D01*
X0088541Y0135574D01*
X0088414Y0135498D01*
X0088285Y0135426D01*
X0088154Y0135357D01*
X0088021Y0135292D01*
X0087886Y0135231D01*
X0087750Y0135173D01*
X0087613Y0135118D01*
X0087474Y0135068D01*
X0087333Y0135021D01*
X0087192Y0134978D01*
X0087049Y0134938D01*
X0086905Y0134903D01*
X0086761Y0134871D01*
X0086615Y0134844D01*
X0086469Y0134820D01*
X0086322Y0134800D01*
X0086175Y0134784D01*
X0086028Y0134772D01*
X0085880Y0134764D01*
X0085732Y0134760D01*
X0085584Y0134760D01*
X0085436Y0134764D01*
X0085288Y0134772D01*
X0085141Y0134784D01*
X0084994Y0134800D01*
X0084847Y0134820D01*
X0084701Y0134844D01*
X0084555Y0134871D01*
X0084411Y0134903D01*
X0084267Y0134938D01*
X0084124Y0134978D01*
X0083983Y0135021D01*
X0083842Y0135068D01*
X0083703Y0135118D01*
X0083566Y0135173D01*
X0083430Y0135231D01*
X0083295Y0135292D01*
X0083162Y0135357D01*
X0083031Y0135426D01*
X0082902Y0135498D01*
X0082775Y0135574D01*
X0082650Y0135653D01*
X0082527Y0135736D01*
X0082406Y0135821D01*
X0082288Y0135910D01*
X0082172Y0136002D01*
X0082059Y0136098D01*
X0081948Y0136196D01*
X0081840Y0136297D01*
X0081734Y0136401D01*
X0081632Y0136507D01*
X0081532Y0136617D01*
X0081436Y0136729D01*
X0081342Y0136844D01*
X0081251Y0136961D01*
X0081164Y0137080D01*
X0081080Y0137202D01*
X0080999Y0137326D01*
X0080922Y0137452D01*
X0080848Y0137580D01*
X0080777Y0137710D01*
X0080710Y0137842D01*
X0080647Y0137976D01*
X0080587Y0138111D01*
X0080531Y0138248D01*
X0080478Y0138387D01*
X0080430Y0138527D01*
X0080385Y0138668D01*
X0080344Y0138810D01*
X0080306Y0138953D01*
X0080273Y0139097D01*
X0080243Y0139242D01*
X0080217Y0139388D01*
X0080196Y0139534D01*
X0080178Y0139681D01*
X0080164Y0139828D01*
X0080154Y0139976D01*
X0080148Y0140124D01*
X0080146Y0140272D01*
X0036446Y0230683D02*
X0036443Y0230917D01*
X0036435Y0231151D01*
X0036421Y0231385D01*
X0036401Y0231619D01*
X0036376Y0231852D01*
X0036346Y0232084D01*
X0036310Y0232315D01*
X0036268Y0232546D01*
X0036221Y0232775D01*
X0036169Y0233004D01*
X0036111Y0233231D01*
X0036047Y0233456D01*
X0035979Y0233680D01*
X0035905Y0233902D01*
X0035825Y0234123D01*
X0035741Y0234341D01*
X0035651Y0234558D01*
X0035557Y0234772D01*
X0035457Y0234984D01*
X0035352Y0235193D01*
X0035242Y0235400D01*
X0035127Y0235605D01*
X0035008Y0235806D01*
X0034883Y0236005D01*
X0034754Y0236200D01*
X0034621Y0236393D01*
X0034483Y0236582D01*
X0034340Y0236768D01*
X0034193Y0236950D01*
X0034042Y0237129D01*
X0033886Y0237304D01*
X0033727Y0237475D01*
X0033563Y0237643D01*
X0101406Y0343028D02*
X0101406Y0376492D01*
X0101400Y0376968D01*
X0101383Y0377443D01*
X0101354Y0377918D01*
X0101314Y0378392D01*
X0101262Y0378865D01*
X0101199Y0379336D01*
X0101125Y0379806D01*
X0101039Y0380274D01*
X0100942Y0380740D01*
X0100834Y0381203D01*
X0100715Y0381663D01*
X0100584Y0382121D01*
X0100443Y0382575D01*
X0100290Y0383026D01*
X0100127Y0383472D01*
X0099953Y0383915D01*
X0099768Y0384353D01*
X0099573Y0384787D01*
X0099367Y0385216D01*
X0099151Y0385640D01*
X0098925Y0386059D01*
X0098689Y0386472D01*
X0098443Y0386879D01*
X0098187Y0387280D01*
X0097921Y0387674D01*
X0097646Y0388063D01*
X0097362Y0388444D01*
X0097069Y0388818D01*
X0096767Y0389186D01*
X0096455Y0389546D01*
X0096136Y0389898D01*
X0095808Y0390242D01*
X0095471Y0390579D01*
X0095127Y0390907D01*
X0094775Y0391226D01*
X0094415Y0391538D01*
X0094047Y0391840D01*
X0093673Y0392133D01*
X0093292Y0392417D01*
X0092903Y0392692D01*
X0092509Y0392958D01*
X0092108Y0393214D01*
X0091701Y0393460D01*
X0091288Y0393696D01*
X0090869Y0393922D01*
X0090445Y0394138D01*
X0090016Y0394344D01*
X0089582Y0394539D01*
X0089144Y0394724D01*
X0088701Y0394898D01*
X0088255Y0395061D01*
X0087804Y0395214D01*
X0087350Y0395355D01*
X0086892Y0395486D01*
X0086432Y0395605D01*
X0085969Y0395713D01*
X0085503Y0395810D01*
X0085035Y0395896D01*
X0084565Y0395970D01*
X0084094Y0396033D01*
X0083621Y0396085D01*
X0083147Y0396125D01*
X0082672Y0396154D01*
X0082197Y0396171D01*
X0081721Y0396177D01*
X0079753Y0396177D01*
X0079277Y0396171D01*
X0078802Y0396154D01*
X0078327Y0396125D01*
X0077853Y0396085D01*
X0077380Y0396033D01*
X0076909Y0395970D01*
X0076439Y0395896D01*
X0075971Y0395810D01*
X0075505Y0395713D01*
X0075042Y0395605D01*
X0074582Y0395486D01*
X0074124Y0395355D01*
X0073670Y0395214D01*
X0073219Y0395061D01*
X0072773Y0394898D01*
X0072330Y0394724D01*
X0071892Y0394539D01*
X0071458Y0394344D01*
X0071029Y0394138D01*
X0070605Y0393922D01*
X0070186Y0393696D01*
X0069773Y0393460D01*
X0069366Y0393214D01*
X0068965Y0392958D01*
X0068571Y0392692D01*
X0068182Y0392417D01*
X0067801Y0392133D01*
X0067427Y0391840D01*
X0067059Y0391538D01*
X0066699Y0391226D01*
X0066347Y0390907D01*
X0066003Y0390579D01*
X0065666Y0390242D01*
X0065338Y0389898D01*
X0065019Y0389546D01*
X0064707Y0389186D01*
X0064405Y0388818D01*
X0064112Y0388444D01*
X0063828Y0388063D01*
X0063553Y0387674D01*
X0063287Y0387280D01*
X0063031Y0386879D01*
X0062785Y0386472D01*
X0062549Y0386059D01*
X0062323Y0385640D01*
X0062107Y0385216D01*
X0061901Y0384787D01*
X0061706Y0384353D01*
X0061521Y0383915D01*
X0061347Y0383472D01*
X0061184Y0383026D01*
X0061031Y0382575D01*
X0060890Y0382121D01*
X0060759Y0381663D01*
X0060640Y0381203D01*
X0060532Y0380740D01*
X0060435Y0380274D01*
X0060349Y0379806D01*
X0060275Y0379336D01*
X0060212Y0378865D01*
X0060160Y0378392D01*
X0060120Y0377918D01*
X0060091Y0377443D01*
X0060074Y0376968D01*
X0060068Y0376492D01*
X0060068Y0372555D01*
X0076209Y0376492D02*
X0076211Y0376640D01*
X0076217Y0376788D01*
X0076227Y0376936D01*
X0076241Y0377083D01*
X0076259Y0377230D01*
X0076280Y0377376D01*
X0076306Y0377522D01*
X0076336Y0377667D01*
X0076369Y0377811D01*
X0076407Y0377954D01*
X0076448Y0378096D01*
X0076493Y0378237D01*
X0076541Y0378377D01*
X0076594Y0378516D01*
X0076650Y0378653D01*
X0076710Y0378788D01*
X0076773Y0378922D01*
X0076840Y0379054D01*
X0076911Y0379184D01*
X0076985Y0379312D01*
X0077062Y0379438D01*
X0077143Y0379562D01*
X0077227Y0379684D01*
X0077314Y0379803D01*
X0077405Y0379920D01*
X0077499Y0380035D01*
X0077595Y0380147D01*
X0077695Y0380257D01*
X0077797Y0380363D01*
X0077903Y0380467D01*
X0078011Y0380568D01*
X0078122Y0380666D01*
X0078235Y0380762D01*
X0078351Y0380854D01*
X0078469Y0380943D01*
X0078590Y0381028D01*
X0078713Y0381111D01*
X0078838Y0381190D01*
X0078965Y0381266D01*
X0079094Y0381338D01*
X0079225Y0381407D01*
X0079358Y0381472D01*
X0079493Y0381533D01*
X0079629Y0381591D01*
X0079766Y0381646D01*
X0079905Y0381696D01*
X0080046Y0381743D01*
X0080187Y0381786D01*
X0080330Y0381826D01*
X0080474Y0381861D01*
X0080618Y0381893D01*
X0080764Y0381920D01*
X0080910Y0381944D01*
X0081057Y0381964D01*
X0081204Y0381980D01*
X0081351Y0381992D01*
X0081499Y0382000D01*
X0081647Y0382004D01*
X0081795Y0382004D01*
X0081943Y0382000D01*
X0082091Y0381992D01*
X0082238Y0381980D01*
X0082385Y0381964D01*
X0082532Y0381944D01*
X0082678Y0381920D01*
X0082824Y0381893D01*
X0082968Y0381861D01*
X0083112Y0381826D01*
X0083255Y0381786D01*
X0083396Y0381743D01*
X0083537Y0381696D01*
X0083676Y0381646D01*
X0083813Y0381591D01*
X0083949Y0381533D01*
X0084084Y0381472D01*
X0084217Y0381407D01*
X0084348Y0381338D01*
X0084477Y0381266D01*
X0084604Y0381190D01*
X0084729Y0381111D01*
X0084852Y0381028D01*
X0084973Y0380943D01*
X0085091Y0380854D01*
X0085207Y0380762D01*
X0085320Y0380666D01*
X0085431Y0380568D01*
X0085539Y0380467D01*
X0085645Y0380363D01*
X0085747Y0380257D01*
X0085847Y0380147D01*
X0085943Y0380035D01*
X0086037Y0379920D01*
X0086128Y0379803D01*
X0086215Y0379684D01*
X0086299Y0379562D01*
X0086380Y0379438D01*
X0086457Y0379312D01*
X0086531Y0379184D01*
X0086602Y0379054D01*
X0086669Y0378922D01*
X0086732Y0378788D01*
X0086792Y0378653D01*
X0086848Y0378516D01*
X0086901Y0378377D01*
X0086949Y0378237D01*
X0086994Y0378096D01*
X0087035Y0377954D01*
X0087073Y0377811D01*
X0087106Y0377667D01*
X0087136Y0377522D01*
X0087162Y0377376D01*
X0087183Y0377230D01*
X0087201Y0377083D01*
X0087215Y0376936D01*
X0087225Y0376788D01*
X0087231Y0376640D01*
X0087233Y0376492D01*
X0087231Y0376344D01*
X0087225Y0376196D01*
X0087215Y0376048D01*
X0087201Y0375901D01*
X0087183Y0375754D01*
X0087162Y0375608D01*
X0087136Y0375462D01*
X0087106Y0375317D01*
X0087073Y0375173D01*
X0087035Y0375030D01*
X0086994Y0374888D01*
X0086949Y0374747D01*
X0086901Y0374607D01*
X0086848Y0374468D01*
X0086792Y0374331D01*
X0086732Y0374196D01*
X0086669Y0374062D01*
X0086602Y0373930D01*
X0086531Y0373800D01*
X0086457Y0373672D01*
X0086380Y0373546D01*
X0086299Y0373422D01*
X0086215Y0373300D01*
X0086128Y0373181D01*
X0086037Y0373064D01*
X0085943Y0372949D01*
X0085847Y0372837D01*
X0085747Y0372727D01*
X0085645Y0372621D01*
X0085539Y0372517D01*
X0085431Y0372416D01*
X0085320Y0372318D01*
X0085207Y0372222D01*
X0085091Y0372130D01*
X0084973Y0372041D01*
X0084852Y0371956D01*
X0084729Y0371873D01*
X0084604Y0371794D01*
X0084477Y0371718D01*
X0084348Y0371646D01*
X0084217Y0371577D01*
X0084084Y0371512D01*
X0083949Y0371451D01*
X0083813Y0371393D01*
X0083676Y0371338D01*
X0083537Y0371288D01*
X0083396Y0371241D01*
X0083255Y0371198D01*
X0083112Y0371158D01*
X0082968Y0371123D01*
X0082824Y0371091D01*
X0082678Y0371064D01*
X0082532Y0371040D01*
X0082385Y0371020D01*
X0082238Y0371004D01*
X0082091Y0370992D01*
X0081943Y0370984D01*
X0081795Y0370980D01*
X0081647Y0370980D01*
X0081499Y0370984D01*
X0081351Y0370992D01*
X0081204Y0371004D01*
X0081057Y0371020D01*
X0080910Y0371040D01*
X0080764Y0371064D01*
X0080618Y0371091D01*
X0080474Y0371123D01*
X0080330Y0371158D01*
X0080187Y0371198D01*
X0080046Y0371241D01*
X0079905Y0371288D01*
X0079766Y0371338D01*
X0079629Y0371393D01*
X0079493Y0371451D01*
X0079358Y0371512D01*
X0079225Y0371577D01*
X0079094Y0371646D01*
X0078965Y0371718D01*
X0078838Y0371794D01*
X0078713Y0371873D01*
X0078590Y0371956D01*
X0078469Y0372041D01*
X0078351Y0372130D01*
X0078235Y0372222D01*
X0078122Y0372318D01*
X0078011Y0372416D01*
X0077903Y0372517D01*
X0077797Y0372621D01*
X0077695Y0372727D01*
X0077595Y0372837D01*
X0077499Y0372949D01*
X0077405Y0373064D01*
X0077314Y0373181D01*
X0077227Y0373300D01*
X0077143Y0373422D01*
X0077062Y0373546D01*
X0076985Y0373672D01*
X0076911Y0373800D01*
X0076840Y0373930D01*
X0076773Y0374062D01*
X0076710Y0374196D01*
X0076650Y0374331D01*
X0076594Y0374468D01*
X0076541Y0374607D01*
X0076493Y0374747D01*
X0076448Y0374888D01*
X0076407Y0375030D01*
X0076369Y0375173D01*
X0076336Y0375317D01*
X0076306Y0375462D01*
X0076280Y0375608D01*
X0076259Y0375754D01*
X0076241Y0375901D01*
X0076227Y0376048D01*
X0076217Y0376196D01*
X0076211Y0376344D01*
X0076209Y0376492D01*
X0101406Y0343028D02*
X0101409Y0342790D01*
X0101417Y0342552D01*
X0101432Y0342315D01*
X0101452Y0342078D01*
X0101478Y0341842D01*
X0101509Y0341606D01*
X0101546Y0341371D01*
X0101589Y0341137D01*
X0101638Y0340904D01*
X0101692Y0340672D01*
X0101752Y0340442D01*
X0101817Y0340213D01*
X0101888Y0339986D01*
X0101964Y0339761D01*
X0102046Y0339538D01*
X0102133Y0339316D01*
X0102225Y0339097D01*
X0102323Y0338880D01*
X0102425Y0338666D01*
X0102533Y0338454D01*
X0102647Y0338244D01*
X0102765Y0338038D01*
X0102888Y0337834D01*
X0103016Y0337634D01*
X0103148Y0337437D01*
X0103286Y0337242D01*
X0103428Y0337052D01*
X0103575Y0336864D01*
X0103726Y0336681D01*
X0103881Y0336501D01*
X0104041Y0336325D01*
X0104205Y0336153D01*
X0104374Y0335984D01*
X0104546Y0335820D01*
X0104722Y0335660D01*
X0104902Y0335505D01*
X0105085Y0335354D01*
X0105273Y0335207D01*
X0105463Y0335065D01*
X0105658Y0334927D01*
X0105855Y0334795D01*
X0106055Y0334667D01*
X0106259Y0334544D01*
X0106465Y0334426D01*
X0106675Y0334312D01*
X0106887Y0334204D01*
X0107101Y0334102D01*
X0107318Y0334004D01*
X0107537Y0333912D01*
X0107759Y0333825D01*
X0107982Y0333743D01*
X0108207Y0333667D01*
X0108434Y0333596D01*
X0108663Y0333531D01*
X0108893Y0333471D01*
X0109125Y0333417D01*
X0109358Y0333368D01*
X0109592Y0333325D01*
X0109827Y0333288D01*
X0110063Y0333257D01*
X0110299Y0333231D01*
X0110536Y0333211D01*
X0110773Y0333196D01*
X0111011Y0333188D01*
X0111249Y0333185D01*
X0140776Y0333185D01*
X0140900Y0333187D01*
X0141023Y0333193D01*
X0141147Y0333202D01*
X0141269Y0333216D01*
X0141392Y0333233D01*
X0141514Y0333255D01*
X0141635Y0333280D01*
X0141755Y0333309D01*
X0141874Y0333341D01*
X0141993Y0333378D01*
X0142110Y0333418D01*
X0142225Y0333461D01*
X0142340Y0333509D01*
X0142452Y0333560D01*
X0142563Y0333614D01*
X0142673Y0333672D01*
X0142780Y0333733D01*
X0142886Y0333798D01*
X0142989Y0333866D01*
X0143090Y0333937D01*
X0143189Y0334011D01*
X0143286Y0334088D01*
X0143380Y0334169D01*
X0143471Y0334252D01*
X0143560Y0334338D01*
X0143646Y0334427D01*
X0143729Y0334518D01*
X0143810Y0334612D01*
X0143887Y0334709D01*
X0143961Y0334808D01*
X0144032Y0334909D01*
X0144100Y0335012D01*
X0144165Y0335118D01*
X0144226Y0335225D01*
X0144284Y0335335D01*
X0144338Y0335446D01*
X0144389Y0335558D01*
X0144437Y0335673D01*
X0144480Y0335788D01*
X0144520Y0335905D01*
X0144557Y0336024D01*
X0144589Y0336143D01*
X0144618Y0336263D01*
X0144643Y0336384D01*
X0144665Y0336506D01*
X0144682Y0336629D01*
X0144696Y0336751D01*
X0144705Y0336875D01*
X0144711Y0336998D01*
X0144713Y0337122D01*
X0144713Y0392240D01*
X0144715Y0392364D01*
X0144721Y0392487D01*
X0144730Y0392611D01*
X0144744Y0392733D01*
X0144761Y0392856D01*
X0144783Y0392978D01*
X0144808Y0393099D01*
X0144837Y0393219D01*
X0144869Y0393338D01*
X0144906Y0393457D01*
X0144946Y0393574D01*
X0144989Y0393689D01*
X0145037Y0393804D01*
X0145088Y0393916D01*
X0145142Y0394027D01*
X0145200Y0394137D01*
X0145261Y0394244D01*
X0145326Y0394350D01*
X0145394Y0394453D01*
X0145465Y0394554D01*
X0145539Y0394653D01*
X0145616Y0394750D01*
X0145697Y0394844D01*
X0145780Y0394935D01*
X0145866Y0395024D01*
X0145955Y0395110D01*
X0146046Y0395193D01*
X0146140Y0395274D01*
X0146237Y0395351D01*
X0146336Y0395425D01*
X0146437Y0395496D01*
X0146540Y0395564D01*
X0146646Y0395629D01*
X0146753Y0395690D01*
X0146863Y0395748D01*
X0146974Y0395802D01*
X0147086Y0395853D01*
X0147201Y0395901D01*
X0147316Y0395944D01*
X0147433Y0395984D01*
X0147552Y0396021D01*
X0147671Y0396053D01*
X0147791Y0396082D01*
X0147912Y0396107D01*
X0148034Y0396129D01*
X0148157Y0396146D01*
X0148279Y0396160D01*
X0148403Y0396169D01*
X0148526Y0396175D01*
X0148650Y0396177D01*
X0231328Y0396177D01*
X0231452Y0396175D01*
X0231575Y0396169D01*
X0231699Y0396160D01*
X0231821Y0396146D01*
X0231944Y0396129D01*
X0232066Y0396107D01*
X0232187Y0396082D01*
X0232307Y0396053D01*
X0232426Y0396021D01*
X0232545Y0395984D01*
X0232662Y0395944D01*
X0232777Y0395901D01*
X0232892Y0395853D01*
X0233004Y0395802D01*
X0233115Y0395748D01*
X0233225Y0395690D01*
X0233332Y0395629D01*
X0233438Y0395564D01*
X0233541Y0395496D01*
X0233642Y0395425D01*
X0233741Y0395351D01*
X0233838Y0395274D01*
X0233932Y0395193D01*
X0234023Y0395110D01*
X0234112Y0395024D01*
X0234198Y0394935D01*
X0234281Y0394844D01*
X0234362Y0394750D01*
X0234439Y0394653D01*
X0234513Y0394554D01*
X0234584Y0394453D01*
X0234652Y0394350D01*
X0234717Y0394244D01*
X0234778Y0394137D01*
X0234836Y0394027D01*
X0234890Y0393916D01*
X0234941Y0393804D01*
X0234989Y0393689D01*
X0235032Y0393574D01*
X0235072Y0393457D01*
X0235109Y0393338D01*
X0235141Y0393219D01*
X0235170Y0393099D01*
X0235195Y0392978D01*
X0235217Y0392856D01*
X0235234Y0392733D01*
X0235248Y0392611D01*
X0235257Y0392487D01*
X0235263Y0392364D01*
X0235265Y0392240D01*
X0235265Y0337122D01*
X0235267Y0336998D01*
X0235273Y0336875D01*
X0235282Y0336751D01*
X0235296Y0336629D01*
X0235313Y0336506D01*
X0235335Y0336384D01*
X0235360Y0336263D01*
X0235389Y0336143D01*
X0235421Y0336024D01*
X0235458Y0335905D01*
X0235498Y0335788D01*
X0235541Y0335673D01*
X0235589Y0335558D01*
X0235640Y0335446D01*
X0235694Y0335335D01*
X0235752Y0335225D01*
X0235813Y0335118D01*
X0235878Y0335012D01*
X0235946Y0334909D01*
X0236017Y0334808D01*
X0236091Y0334709D01*
X0236168Y0334612D01*
X0236249Y0334518D01*
X0236332Y0334427D01*
X0236418Y0334338D01*
X0236507Y0334252D01*
X0236598Y0334169D01*
X0236692Y0334088D01*
X0236789Y0334011D01*
X0236888Y0333937D01*
X0236989Y0333866D01*
X0237092Y0333798D01*
X0237198Y0333733D01*
X0237305Y0333672D01*
X0237415Y0333614D01*
X0237526Y0333560D01*
X0237638Y0333509D01*
X0237753Y0333461D01*
X0237868Y0333418D01*
X0237985Y0333378D01*
X0238104Y0333341D01*
X0238223Y0333309D01*
X0238343Y0333280D01*
X0238464Y0333255D01*
X0238586Y0333233D01*
X0238709Y0333216D01*
X0238831Y0333202D01*
X0238955Y0333193D01*
X0239078Y0333187D01*
X0239202Y0333185D01*
X0268729Y0333185D01*
X0268967Y0333188D01*
X0269205Y0333196D01*
X0269442Y0333211D01*
X0269679Y0333231D01*
X0269915Y0333257D01*
X0270151Y0333288D01*
X0270386Y0333325D01*
X0270620Y0333368D01*
X0270853Y0333417D01*
X0271085Y0333471D01*
X0271315Y0333531D01*
X0271544Y0333596D01*
X0271771Y0333667D01*
X0271996Y0333743D01*
X0272219Y0333825D01*
X0272441Y0333912D01*
X0272660Y0334004D01*
X0272877Y0334102D01*
X0273091Y0334204D01*
X0273303Y0334312D01*
X0273513Y0334426D01*
X0273719Y0334544D01*
X0273923Y0334667D01*
X0274123Y0334795D01*
X0274320Y0334927D01*
X0274515Y0335065D01*
X0274705Y0335207D01*
X0274893Y0335354D01*
X0275076Y0335505D01*
X0275256Y0335660D01*
X0275432Y0335820D01*
X0275604Y0335984D01*
X0275773Y0336153D01*
X0275937Y0336325D01*
X0276097Y0336501D01*
X0276252Y0336681D01*
X0276403Y0336864D01*
X0276550Y0337052D01*
X0276692Y0337242D01*
X0276830Y0337437D01*
X0276962Y0337634D01*
X0277090Y0337834D01*
X0277213Y0338038D01*
X0277331Y0338244D01*
X0277445Y0338454D01*
X0277553Y0338666D01*
X0277655Y0338880D01*
X0277753Y0339097D01*
X0277845Y0339316D01*
X0277932Y0339538D01*
X0278014Y0339761D01*
X0278090Y0339986D01*
X0278161Y0340213D01*
X0278226Y0340442D01*
X0278286Y0340672D01*
X0278340Y0340904D01*
X0278389Y0341137D01*
X0278432Y0341371D01*
X0278469Y0341606D01*
X0278500Y0341842D01*
X0278526Y0342078D01*
X0278546Y0342315D01*
X0278561Y0342552D01*
X0278569Y0342790D01*
X0278572Y0343028D01*
X0278572Y0376492D01*
X0278578Y0376968D01*
X0278595Y0377443D01*
X0278624Y0377918D01*
X0278664Y0378392D01*
X0278716Y0378865D01*
X0278779Y0379336D01*
X0278853Y0379806D01*
X0278939Y0380274D01*
X0279036Y0380740D01*
X0279144Y0381203D01*
X0279263Y0381663D01*
X0279394Y0382121D01*
X0279535Y0382575D01*
X0279688Y0383026D01*
X0279851Y0383472D01*
X0280025Y0383915D01*
X0280210Y0384353D01*
X0280405Y0384787D01*
X0280611Y0385216D01*
X0280827Y0385640D01*
X0281053Y0386059D01*
X0281289Y0386472D01*
X0281535Y0386879D01*
X0281791Y0387280D01*
X0282057Y0387674D01*
X0282332Y0388063D01*
X0282616Y0388444D01*
X0282909Y0388818D01*
X0283211Y0389186D01*
X0283523Y0389546D01*
X0283842Y0389898D01*
X0284170Y0390242D01*
X0284507Y0390579D01*
X0284851Y0390907D01*
X0285203Y0391226D01*
X0285563Y0391538D01*
X0285931Y0391840D01*
X0286305Y0392133D01*
X0286686Y0392417D01*
X0287075Y0392692D01*
X0287469Y0392958D01*
X0287870Y0393214D01*
X0288277Y0393460D01*
X0288690Y0393696D01*
X0289109Y0393922D01*
X0289533Y0394138D01*
X0289962Y0394344D01*
X0290396Y0394539D01*
X0290834Y0394724D01*
X0291277Y0394898D01*
X0291723Y0395061D01*
X0292174Y0395214D01*
X0292628Y0395355D01*
X0293086Y0395486D01*
X0293546Y0395605D01*
X0294009Y0395713D01*
X0294475Y0395810D01*
X0294943Y0395896D01*
X0295413Y0395970D01*
X0295884Y0396033D01*
X0296357Y0396085D01*
X0296831Y0396125D01*
X0297306Y0396154D01*
X0297781Y0396171D01*
X0298257Y0396177D01*
X0300225Y0396177D01*
X0300701Y0396171D01*
X0301176Y0396154D01*
X0301651Y0396125D01*
X0302125Y0396085D01*
X0302598Y0396033D01*
X0303069Y0395970D01*
X0303539Y0395896D01*
X0304007Y0395810D01*
X0304473Y0395713D01*
X0304936Y0395605D01*
X0305396Y0395486D01*
X0305854Y0395355D01*
X0306308Y0395214D01*
X0306759Y0395061D01*
X0307205Y0394898D01*
X0307648Y0394724D01*
X0308086Y0394539D01*
X0308520Y0394344D01*
X0308949Y0394138D01*
X0309373Y0393922D01*
X0309792Y0393696D01*
X0310205Y0393460D01*
X0310612Y0393214D01*
X0311013Y0392958D01*
X0311407Y0392692D01*
X0311796Y0392417D01*
X0312177Y0392133D01*
X0312551Y0391840D01*
X0312919Y0391538D01*
X0313279Y0391226D01*
X0313631Y0390907D01*
X0313975Y0390579D01*
X0314312Y0390242D01*
X0314640Y0389898D01*
X0314959Y0389546D01*
X0315271Y0389186D01*
X0315573Y0388818D01*
X0315866Y0388444D01*
X0316150Y0388063D01*
X0316425Y0387674D01*
X0316691Y0387280D01*
X0316947Y0386879D01*
X0317193Y0386472D01*
X0317429Y0386059D01*
X0317655Y0385640D01*
X0317871Y0385216D01*
X0318077Y0384787D01*
X0318272Y0384353D01*
X0318457Y0383915D01*
X0318631Y0383472D01*
X0318794Y0383026D01*
X0318947Y0382575D01*
X0319088Y0382121D01*
X0319219Y0381663D01*
X0319338Y0381203D01*
X0319446Y0380740D01*
X0319543Y0380274D01*
X0319629Y0379806D01*
X0319703Y0379336D01*
X0319766Y0378865D01*
X0319818Y0378392D01*
X0319858Y0377918D01*
X0319887Y0377443D01*
X0319904Y0376968D01*
X0319910Y0376492D01*
X0319910Y0372555D01*
X0292745Y0376492D02*
X0292747Y0376640D01*
X0292753Y0376788D01*
X0292763Y0376936D01*
X0292777Y0377083D01*
X0292795Y0377230D01*
X0292816Y0377376D01*
X0292842Y0377522D01*
X0292872Y0377667D01*
X0292905Y0377811D01*
X0292943Y0377954D01*
X0292984Y0378096D01*
X0293029Y0378237D01*
X0293077Y0378377D01*
X0293130Y0378516D01*
X0293186Y0378653D01*
X0293246Y0378788D01*
X0293309Y0378922D01*
X0293376Y0379054D01*
X0293447Y0379184D01*
X0293521Y0379312D01*
X0293598Y0379438D01*
X0293679Y0379562D01*
X0293763Y0379684D01*
X0293850Y0379803D01*
X0293941Y0379920D01*
X0294035Y0380035D01*
X0294131Y0380147D01*
X0294231Y0380257D01*
X0294333Y0380363D01*
X0294439Y0380467D01*
X0294547Y0380568D01*
X0294658Y0380666D01*
X0294771Y0380762D01*
X0294887Y0380854D01*
X0295005Y0380943D01*
X0295126Y0381028D01*
X0295249Y0381111D01*
X0295374Y0381190D01*
X0295501Y0381266D01*
X0295630Y0381338D01*
X0295761Y0381407D01*
X0295894Y0381472D01*
X0296029Y0381533D01*
X0296165Y0381591D01*
X0296302Y0381646D01*
X0296441Y0381696D01*
X0296582Y0381743D01*
X0296723Y0381786D01*
X0296866Y0381826D01*
X0297010Y0381861D01*
X0297154Y0381893D01*
X0297300Y0381920D01*
X0297446Y0381944D01*
X0297593Y0381964D01*
X0297740Y0381980D01*
X0297887Y0381992D01*
X0298035Y0382000D01*
X0298183Y0382004D01*
X0298331Y0382004D01*
X0298479Y0382000D01*
X0298627Y0381992D01*
X0298774Y0381980D01*
X0298921Y0381964D01*
X0299068Y0381944D01*
X0299214Y0381920D01*
X0299360Y0381893D01*
X0299504Y0381861D01*
X0299648Y0381826D01*
X0299791Y0381786D01*
X0299932Y0381743D01*
X0300073Y0381696D01*
X0300212Y0381646D01*
X0300349Y0381591D01*
X0300485Y0381533D01*
X0300620Y0381472D01*
X0300753Y0381407D01*
X0300884Y0381338D01*
X0301013Y0381266D01*
X0301140Y0381190D01*
X0301265Y0381111D01*
X0301388Y0381028D01*
X0301509Y0380943D01*
X0301627Y0380854D01*
X0301743Y0380762D01*
X0301856Y0380666D01*
X0301967Y0380568D01*
X0302075Y0380467D01*
X0302181Y0380363D01*
X0302283Y0380257D01*
X0302383Y0380147D01*
X0302479Y0380035D01*
X0302573Y0379920D01*
X0302664Y0379803D01*
X0302751Y0379684D01*
X0302835Y0379562D01*
X0302916Y0379438D01*
X0302993Y0379312D01*
X0303067Y0379184D01*
X0303138Y0379054D01*
X0303205Y0378922D01*
X0303268Y0378788D01*
X0303328Y0378653D01*
X0303384Y0378516D01*
X0303437Y0378377D01*
X0303485Y0378237D01*
X0303530Y0378096D01*
X0303571Y0377954D01*
X0303609Y0377811D01*
X0303642Y0377667D01*
X0303672Y0377522D01*
X0303698Y0377376D01*
X0303719Y0377230D01*
X0303737Y0377083D01*
X0303751Y0376936D01*
X0303761Y0376788D01*
X0303767Y0376640D01*
X0303769Y0376492D01*
X0303767Y0376344D01*
X0303761Y0376196D01*
X0303751Y0376048D01*
X0303737Y0375901D01*
X0303719Y0375754D01*
X0303698Y0375608D01*
X0303672Y0375462D01*
X0303642Y0375317D01*
X0303609Y0375173D01*
X0303571Y0375030D01*
X0303530Y0374888D01*
X0303485Y0374747D01*
X0303437Y0374607D01*
X0303384Y0374468D01*
X0303328Y0374331D01*
X0303268Y0374196D01*
X0303205Y0374062D01*
X0303138Y0373930D01*
X0303067Y0373800D01*
X0302993Y0373672D01*
X0302916Y0373546D01*
X0302835Y0373422D01*
X0302751Y0373300D01*
X0302664Y0373181D01*
X0302573Y0373064D01*
X0302479Y0372949D01*
X0302383Y0372837D01*
X0302283Y0372727D01*
X0302181Y0372621D01*
X0302075Y0372517D01*
X0301967Y0372416D01*
X0301856Y0372318D01*
X0301743Y0372222D01*
X0301627Y0372130D01*
X0301509Y0372041D01*
X0301388Y0371956D01*
X0301265Y0371873D01*
X0301140Y0371794D01*
X0301013Y0371718D01*
X0300884Y0371646D01*
X0300753Y0371577D01*
X0300620Y0371512D01*
X0300485Y0371451D01*
X0300349Y0371393D01*
X0300212Y0371338D01*
X0300073Y0371288D01*
X0299932Y0371241D01*
X0299791Y0371198D01*
X0299648Y0371158D01*
X0299504Y0371123D01*
X0299360Y0371091D01*
X0299214Y0371064D01*
X0299068Y0371040D01*
X0298921Y0371020D01*
X0298774Y0371004D01*
X0298627Y0370992D01*
X0298479Y0370984D01*
X0298331Y0370980D01*
X0298183Y0370980D01*
X0298035Y0370984D01*
X0297887Y0370992D01*
X0297740Y0371004D01*
X0297593Y0371020D01*
X0297446Y0371040D01*
X0297300Y0371064D01*
X0297154Y0371091D01*
X0297010Y0371123D01*
X0296866Y0371158D01*
X0296723Y0371198D01*
X0296582Y0371241D01*
X0296441Y0371288D01*
X0296302Y0371338D01*
X0296165Y0371393D01*
X0296029Y0371451D01*
X0295894Y0371512D01*
X0295761Y0371577D01*
X0295630Y0371646D01*
X0295501Y0371718D01*
X0295374Y0371794D01*
X0295249Y0371873D01*
X0295126Y0371956D01*
X0295005Y0372041D01*
X0294887Y0372130D01*
X0294771Y0372222D01*
X0294658Y0372318D01*
X0294547Y0372416D01*
X0294439Y0372517D01*
X0294333Y0372621D01*
X0294231Y0372727D01*
X0294131Y0372837D01*
X0294035Y0372949D01*
X0293941Y0373064D01*
X0293850Y0373181D01*
X0293763Y0373300D01*
X0293679Y0373422D01*
X0293598Y0373546D01*
X0293521Y0373672D01*
X0293447Y0373800D01*
X0293376Y0373930D01*
X0293309Y0374062D01*
X0293246Y0374196D01*
X0293186Y0374331D01*
X0293130Y0374468D01*
X0293077Y0374607D01*
X0293029Y0374747D01*
X0292984Y0374888D01*
X0292943Y0375030D01*
X0292905Y0375173D01*
X0292872Y0375317D01*
X0292842Y0375462D01*
X0292816Y0375608D01*
X0292795Y0375754D01*
X0292777Y0375901D01*
X0292763Y0376048D01*
X0292753Y0376196D01*
X0292747Y0376344D01*
X0292745Y0376492D01*
X0319910Y0372555D02*
X0319873Y0369511D01*
X0319763Y0366468D01*
X0319579Y0363429D01*
X0319322Y0360396D01*
X0318991Y0357369D01*
X0318588Y0354352D01*
X0318112Y0351345D01*
X0317563Y0348350D01*
X0316942Y0345370D01*
X0316249Y0342405D01*
X0315485Y0339458D01*
X0314650Y0336530D01*
X0313744Y0333624D01*
X0312768Y0330740D01*
X0311723Y0327880D01*
X0310609Y0325047D01*
X0309427Y0322241D01*
X0308178Y0319465D01*
X0306861Y0316720D01*
X0305479Y0314007D01*
X0304032Y0311329D01*
X0302520Y0308686D01*
X0300945Y0306081D01*
X0299308Y0303514D01*
X0297609Y0300988D01*
X0295849Y0298503D01*
X0294030Y0296062D01*
X0292152Y0293666D01*
X0290218Y0291315D01*
X0288226Y0289012D01*
X0286180Y0286758D01*
X0284080Y0284554D01*
X0281927Y0282401D01*
X0279723Y0280301D01*
X0277469Y0278255D01*
X0275166Y0276263D01*
X0272815Y0274329D01*
X0270419Y0272451D01*
X0267978Y0270632D01*
X0265493Y0268872D01*
X0262967Y0267173D01*
X0260400Y0265536D01*
X0257795Y0263961D01*
X0255152Y0262449D01*
X0252474Y0261002D01*
X0249761Y0259620D01*
X0247016Y0258303D01*
X0244240Y0257054D01*
X0241434Y0255872D01*
X0238601Y0254758D01*
X0235741Y0253713D01*
X0232857Y0252737D01*
X0229951Y0251831D01*
X0227023Y0250996D01*
X0224076Y0250232D01*
X0221111Y0249539D01*
X0218131Y0248918D01*
X0215136Y0248369D01*
X0212129Y0247893D01*
X0209112Y0247490D01*
X0206085Y0247159D01*
X0203052Y0246902D01*
X0200013Y0246718D01*
X0196970Y0246608D01*
X0193926Y0246571D01*
X0119263Y0234759D02*
X0119029Y0234762D01*
X0118795Y0234770D01*
X0118561Y0234784D01*
X0118327Y0234804D01*
X0118094Y0234829D01*
X0117862Y0234859D01*
X0117631Y0234895D01*
X0117400Y0234937D01*
X0117171Y0234984D01*
X0116942Y0235036D01*
X0116715Y0235094D01*
X0116490Y0235158D01*
X0116266Y0235226D01*
X0116044Y0235300D01*
X0115823Y0235380D01*
X0115605Y0235464D01*
X0115388Y0235554D01*
X0115174Y0235648D01*
X0114962Y0235748D01*
X0114753Y0235853D01*
X0114546Y0235963D01*
X0114341Y0236078D01*
X0114140Y0236197D01*
X0113941Y0236322D01*
X0113746Y0236451D01*
X0113553Y0236584D01*
X0113364Y0236722D01*
X0113178Y0236865D01*
X0112996Y0237012D01*
X0112817Y0237163D01*
X0112642Y0237319D01*
X0112471Y0237478D01*
X0112303Y0237642D01*
X0186052Y0246571D02*
X0183008Y0246608D01*
X0179965Y0246718D01*
X0176926Y0246902D01*
X0173893Y0247159D01*
X0170866Y0247490D01*
X0167849Y0247893D01*
X0164842Y0248369D01*
X0161847Y0248918D01*
X0158867Y0249539D01*
X0155902Y0250232D01*
X0152955Y0250996D01*
X0150027Y0251831D01*
X0147121Y0252737D01*
X0144237Y0253713D01*
X0141377Y0254758D01*
X0138544Y0255872D01*
X0135738Y0257054D01*
X0132962Y0258303D01*
X0130217Y0259620D01*
X0127504Y0261002D01*
X0124826Y0262449D01*
X0122183Y0263961D01*
X0119578Y0265536D01*
X0117011Y0267173D01*
X0114485Y0268872D01*
X0112000Y0270632D01*
X0109559Y0272451D01*
X0107163Y0274329D01*
X0104812Y0276263D01*
X0102509Y0278255D01*
X0100255Y0280301D01*
X0098051Y0282401D01*
X0095898Y0284554D01*
X0093798Y0286758D01*
X0091752Y0289012D01*
X0089760Y0291315D01*
X0087826Y0293666D01*
X0085948Y0296062D01*
X0084129Y0298503D01*
X0082369Y0300988D01*
X0080670Y0303514D01*
X0079033Y0306081D01*
X0077458Y0308686D01*
X0075946Y0311329D01*
X0074499Y0314007D01*
X0073117Y0316720D01*
X0071800Y0319465D01*
X0070551Y0322241D01*
X0069369Y0325047D01*
X0068255Y0327880D01*
X0067210Y0330740D01*
X0066234Y0333624D01*
X0065328Y0336530D01*
X0064493Y0339458D01*
X0063729Y0342405D01*
X0063036Y0345370D01*
X0062415Y0348350D01*
X0061866Y0351345D01*
X0061390Y0354352D01*
X0060987Y0357369D01*
X0060656Y0360396D01*
X0060399Y0363429D01*
X0060215Y0366468D01*
X0060105Y0369511D01*
X0060068Y0372555D01*
X0296682Y0140272D02*
X0296684Y0140420D01*
X0296690Y0140568D01*
X0296700Y0140716D01*
X0296714Y0140863D01*
X0296732Y0141010D01*
X0296753Y0141156D01*
X0296779Y0141302D01*
X0296809Y0141447D01*
X0296842Y0141591D01*
X0296880Y0141734D01*
X0296921Y0141876D01*
X0296966Y0142017D01*
X0297014Y0142157D01*
X0297067Y0142296D01*
X0297123Y0142433D01*
X0297183Y0142568D01*
X0297246Y0142702D01*
X0297313Y0142834D01*
X0297384Y0142964D01*
X0297458Y0143092D01*
X0297535Y0143218D01*
X0297616Y0143342D01*
X0297700Y0143464D01*
X0297787Y0143583D01*
X0297878Y0143700D01*
X0297972Y0143815D01*
X0298068Y0143927D01*
X0298168Y0144037D01*
X0298270Y0144143D01*
X0298376Y0144247D01*
X0298484Y0144348D01*
X0298595Y0144446D01*
X0298708Y0144542D01*
X0298824Y0144634D01*
X0298942Y0144723D01*
X0299063Y0144808D01*
X0299186Y0144891D01*
X0299311Y0144970D01*
X0299438Y0145046D01*
X0299567Y0145118D01*
X0299698Y0145187D01*
X0299831Y0145252D01*
X0299966Y0145313D01*
X0300102Y0145371D01*
X0300239Y0145426D01*
X0300378Y0145476D01*
X0300519Y0145523D01*
X0300660Y0145566D01*
X0300803Y0145606D01*
X0300947Y0145641D01*
X0301091Y0145673D01*
X0301237Y0145700D01*
X0301383Y0145724D01*
X0301530Y0145744D01*
X0301677Y0145760D01*
X0301824Y0145772D01*
X0301972Y0145780D01*
X0302120Y0145784D01*
X0302268Y0145784D01*
X0302416Y0145780D01*
X0302564Y0145772D01*
X0302711Y0145760D01*
X0302858Y0145744D01*
X0303005Y0145724D01*
X0303151Y0145700D01*
X0303297Y0145673D01*
X0303441Y0145641D01*
X0303585Y0145606D01*
X0303728Y0145566D01*
X0303869Y0145523D01*
X0304010Y0145476D01*
X0304149Y0145426D01*
X0304286Y0145371D01*
X0304422Y0145313D01*
X0304557Y0145252D01*
X0304690Y0145187D01*
X0304821Y0145118D01*
X0304950Y0145046D01*
X0305077Y0144970D01*
X0305202Y0144891D01*
X0305325Y0144808D01*
X0305446Y0144723D01*
X0305564Y0144634D01*
X0305680Y0144542D01*
X0305793Y0144446D01*
X0305904Y0144348D01*
X0306012Y0144247D01*
X0306118Y0144143D01*
X0306220Y0144037D01*
X0306320Y0143927D01*
X0306416Y0143815D01*
X0306510Y0143700D01*
X0306601Y0143583D01*
X0306688Y0143464D01*
X0306772Y0143342D01*
X0306853Y0143218D01*
X0306930Y0143092D01*
X0307004Y0142964D01*
X0307075Y0142834D01*
X0307142Y0142702D01*
X0307205Y0142568D01*
X0307265Y0142433D01*
X0307321Y0142296D01*
X0307374Y0142157D01*
X0307422Y0142017D01*
X0307467Y0141876D01*
X0307508Y0141734D01*
X0307546Y0141591D01*
X0307579Y0141447D01*
X0307609Y0141302D01*
X0307635Y0141156D01*
X0307656Y0141010D01*
X0307674Y0140863D01*
X0307688Y0140716D01*
X0307698Y0140568D01*
X0307704Y0140420D01*
X0307706Y0140272D01*
X0307704Y0140124D01*
X0307698Y0139976D01*
X0307688Y0139828D01*
X0307674Y0139681D01*
X0307656Y0139534D01*
X0307635Y0139388D01*
X0307609Y0139242D01*
X0307579Y0139097D01*
X0307546Y0138953D01*
X0307508Y0138810D01*
X0307467Y0138668D01*
X0307422Y0138527D01*
X0307374Y0138387D01*
X0307321Y0138248D01*
X0307265Y0138111D01*
X0307205Y0137976D01*
X0307142Y0137842D01*
X0307075Y0137710D01*
X0307004Y0137580D01*
X0306930Y0137452D01*
X0306853Y0137326D01*
X0306772Y0137202D01*
X0306688Y0137080D01*
X0306601Y0136961D01*
X0306510Y0136844D01*
X0306416Y0136729D01*
X0306320Y0136617D01*
X0306220Y0136507D01*
X0306118Y0136401D01*
X0306012Y0136297D01*
X0305904Y0136196D01*
X0305793Y0136098D01*
X0305680Y0136002D01*
X0305564Y0135910D01*
X0305446Y0135821D01*
X0305325Y0135736D01*
X0305202Y0135653D01*
X0305077Y0135574D01*
X0304950Y0135498D01*
X0304821Y0135426D01*
X0304690Y0135357D01*
X0304557Y0135292D01*
X0304422Y0135231D01*
X0304286Y0135173D01*
X0304149Y0135118D01*
X0304010Y0135068D01*
X0303869Y0135021D01*
X0303728Y0134978D01*
X0303585Y0134938D01*
X0303441Y0134903D01*
X0303297Y0134871D01*
X0303151Y0134844D01*
X0303005Y0134820D01*
X0302858Y0134800D01*
X0302711Y0134784D01*
X0302564Y0134772D01*
X0302416Y0134764D01*
X0302268Y0134760D01*
X0302120Y0134760D01*
X0301972Y0134764D01*
X0301824Y0134772D01*
X0301677Y0134784D01*
X0301530Y0134800D01*
X0301383Y0134820D01*
X0301237Y0134844D01*
X0301091Y0134871D01*
X0300947Y0134903D01*
X0300803Y0134938D01*
X0300660Y0134978D01*
X0300519Y0135021D01*
X0300378Y0135068D01*
X0300239Y0135118D01*
X0300102Y0135173D01*
X0299966Y0135231D01*
X0299831Y0135292D01*
X0299698Y0135357D01*
X0299567Y0135426D01*
X0299438Y0135498D01*
X0299311Y0135574D01*
X0299186Y0135653D01*
X0299063Y0135736D01*
X0298942Y0135821D01*
X0298824Y0135910D01*
X0298708Y0136002D01*
X0298595Y0136098D01*
X0298484Y0136196D01*
X0298376Y0136297D01*
X0298270Y0136401D01*
X0298168Y0136507D01*
X0298068Y0136617D01*
X0297972Y0136729D01*
X0297878Y0136844D01*
X0297787Y0136961D01*
X0297700Y0137080D01*
X0297616Y0137202D01*
X0297535Y0137326D01*
X0297458Y0137452D01*
X0297384Y0137580D01*
X0297313Y0137710D01*
X0297246Y0137842D01*
X0297183Y0137976D01*
X0297123Y0138111D01*
X0297067Y0138248D01*
X0297014Y0138387D01*
X0296966Y0138527D01*
X0296921Y0138668D01*
X0296880Y0138810D01*
X0296842Y0138953D01*
X0296809Y0139097D01*
X0296779Y0139242D01*
X0296753Y0139388D01*
X0296732Y0139534D01*
X0296714Y0139681D01*
X0296700Y0139828D01*
X0296690Y0139976D01*
X0296684Y0140124D01*
X0296682Y0140272D01*
X0345715Y0059295D02*
X0345717Y0059369D01*
X0345723Y0059443D01*
X0345733Y0059516D01*
X0345747Y0059589D01*
X0345764Y0059661D01*
X0345786Y0059731D01*
X0345811Y0059801D01*
X0345840Y0059869D01*
X0345873Y0059935D01*
X0345909Y0060000D01*
X0345949Y0060062D01*
X0345991Y0060123D01*
X0346037Y0060181D01*
X0346086Y0060236D01*
X0346138Y0060289D01*
X0346193Y0060339D01*
X0346250Y0060385D01*
X0346310Y0060429D01*
X0346372Y0060469D01*
X0346436Y0060506D01*
X0346502Y0060540D01*
X0346570Y0060570D01*
X0346639Y0060596D01*
X0346710Y0060619D01*
X0346781Y0060637D01*
X0346854Y0060652D01*
X0346927Y0060663D01*
X0347001Y0060670D01*
X0347075Y0060673D01*
X0347148Y0060672D01*
X0347222Y0060667D01*
X0347296Y0060658D01*
X0347369Y0060645D01*
X0347441Y0060628D01*
X0347512Y0060608D01*
X0347582Y0060583D01*
X0347650Y0060555D01*
X0347717Y0060524D01*
X0347782Y0060488D01*
X0347845Y0060450D01*
X0347906Y0060408D01*
X0347965Y0060362D01*
X0348021Y0060314D01*
X0348074Y0060263D01*
X0348124Y0060209D01*
X0348172Y0060152D01*
X0348216Y0060093D01*
X0348258Y0060031D01*
X0348296Y0059968D01*
X0348330Y0059902D01*
X0348361Y0059835D01*
X0348388Y0059766D01*
X0348411Y0059696D01*
X0348431Y0059625D01*
X0348447Y0059552D01*
X0348459Y0059479D01*
X0348467Y0059406D01*
X0348471Y0059332D01*
X0348471Y0059258D01*
X0348467Y0059184D01*
X0348459Y0059111D01*
X0348447Y0059038D01*
X0348431Y0058965D01*
X0348411Y0058894D01*
X0348388Y0058824D01*
X0348361Y0058755D01*
X0348330Y0058688D01*
X0348296Y0058622D01*
X0348258Y0058559D01*
X0348216Y0058497D01*
X0348172Y0058438D01*
X0348124Y0058381D01*
X0348074Y0058327D01*
X0348021Y0058276D01*
X0347965Y0058228D01*
X0347906Y0058182D01*
X0347845Y0058140D01*
X0347782Y0058102D01*
X0347717Y0058066D01*
X0347650Y0058035D01*
X0347582Y0058007D01*
X0347512Y0057982D01*
X0347441Y0057962D01*
X0347369Y0057945D01*
X0347296Y0057932D01*
X0347222Y0057923D01*
X0347148Y0057918D01*
X0347075Y0057917D01*
X0347001Y0057920D01*
X0346927Y0057927D01*
X0346854Y0057938D01*
X0346781Y0057953D01*
X0346710Y0057971D01*
X0346639Y0057994D01*
X0346570Y0058020D01*
X0346502Y0058050D01*
X0346436Y0058084D01*
X0346372Y0058121D01*
X0346310Y0058161D01*
X0346250Y0058205D01*
X0346193Y0058251D01*
X0346138Y0058301D01*
X0346086Y0058354D01*
X0346037Y0058409D01*
X0345991Y0058467D01*
X0345949Y0058528D01*
X0345909Y0058590D01*
X0345873Y0058655D01*
X0345840Y0058721D01*
X0345811Y0058789D01*
X0345786Y0058859D01*
X0345764Y0058929D01*
X0345747Y0059001D01*
X0345733Y0059074D01*
X0345723Y0059147D01*
X0345717Y0059221D01*
X0345715Y0059295D01*
X0331861Y0045784D02*
X0331627Y0045781D01*
X0331393Y0045773D01*
X0331159Y0045759D01*
X0330925Y0045739D01*
X0330692Y0045714D01*
X0330460Y0045684D01*
X0330229Y0045648D01*
X0329998Y0045606D01*
X0329769Y0045559D01*
X0329540Y0045507D01*
X0329313Y0045449D01*
X0329088Y0045385D01*
X0328864Y0045317D01*
X0328642Y0045243D01*
X0328421Y0045163D01*
X0328203Y0045079D01*
X0327986Y0044989D01*
X0327772Y0044895D01*
X0327560Y0044795D01*
X0327351Y0044690D01*
X0327144Y0044580D01*
X0326939Y0044465D01*
X0326738Y0044346D01*
X0326539Y0044221D01*
X0326344Y0044092D01*
X0326151Y0043959D01*
X0325962Y0043821D01*
X0325776Y0043678D01*
X0325594Y0043531D01*
X0325415Y0043380D01*
X0325240Y0043224D01*
X0325069Y0043065D01*
X0324901Y0042901D01*
X0362215Y0059295D02*
X0362217Y0059369D01*
X0362223Y0059443D01*
X0362233Y0059516D01*
X0362247Y0059589D01*
X0362264Y0059661D01*
X0362286Y0059731D01*
X0362311Y0059801D01*
X0362340Y0059869D01*
X0362373Y0059935D01*
X0362409Y0060000D01*
X0362449Y0060062D01*
X0362491Y0060123D01*
X0362537Y0060181D01*
X0362586Y0060236D01*
X0362638Y0060289D01*
X0362693Y0060339D01*
X0362750Y0060385D01*
X0362810Y0060429D01*
X0362872Y0060469D01*
X0362936Y0060506D01*
X0363002Y0060540D01*
X0363070Y0060570D01*
X0363139Y0060596D01*
X0363210Y0060619D01*
X0363281Y0060637D01*
X0363354Y0060652D01*
X0363427Y0060663D01*
X0363501Y0060670D01*
X0363575Y0060673D01*
X0363648Y0060672D01*
X0363722Y0060667D01*
X0363796Y0060658D01*
X0363869Y0060645D01*
X0363941Y0060628D01*
X0364012Y0060608D01*
X0364082Y0060583D01*
X0364150Y0060555D01*
X0364217Y0060524D01*
X0364282Y0060488D01*
X0364345Y0060450D01*
X0364406Y0060408D01*
X0364465Y0060362D01*
X0364521Y0060314D01*
X0364574Y0060263D01*
X0364624Y0060209D01*
X0364672Y0060152D01*
X0364716Y0060093D01*
X0364758Y0060031D01*
X0364796Y0059968D01*
X0364830Y0059902D01*
X0364861Y0059835D01*
X0364888Y0059766D01*
X0364911Y0059696D01*
X0364931Y0059625D01*
X0364947Y0059552D01*
X0364959Y0059479D01*
X0364967Y0059406D01*
X0364971Y0059332D01*
X0364971Y0059258D01*
X0364967Y0059184D01*
X0364959Y0059111D01*
X0364947Y0059038D01*
X0364931Y0058965D01*
X0364911Y0058894D01*
X0364888Y0058824D01*
X0364861Y0058755D01*
X0364830Y0058688D01*
X0364796Y0058622D01*
X0364758Y0058559D01*
X0364716Y0058497D01*
X0364672Y0058438D01*
X0364624Y0058381D01*
X0364574Y0058327D01*
X0364521Y0058276D01*
X0364465Y0058228D01*
X0364406Y0058182D01*
X0364345Y0058140D01*
X0364282Y0058102D01*
X0364217Y0058066D01*
X0364150Y0058035D01*
X0364082Y0058007D01*
X0364012Y0057982D01*
X0363941Y0057962D01*
X0363869Y0057945D01*
X0363796Y0057932D01*
X0363722Y0057923D01*
X0363648Y0057918D01*
X0363575Y0057917D01*
X0363501Y0057920D01*
X0363427Y0057927D01*
X0363354Y0057938D01*
X0363281Y0057953D01*
X0363210Y0057971D01*
X0363139Y0057994D01*
X0363070Y0058020D01*
X0363002Y0058050D01*
X0362936Y0058084D01*
X0362872Y0058121D01*
X0362810Y0058161D01*
X0362750Y0058205D01*
X0362693Y0058251D01*
X0362638Y0058301D01*
X0362586Y0058354D01*
X0362537Y0058409D01*
X0362491Y0058467D01*
X0362449Y0058528D01*
X0362409Y0058590D01*
X0362373Y0058655D01*
X0362340Y0058721D01*
X0362311Y0058789D01*
X0362286Y0058859D01*
X0362264Y0058929D01*
X0362247Y0059001D01*
X0362233Y0059074D01*
X0362223Y0059147D01*
X0362217Y0059221D01*
X0362215Y0059295D01*
X0378966Y0119459D02*
X0378963Y0119699D01*
X0378954Y0119939D01*
X0378940Y0120178D01*
X0378919Y0120417D01*
X0378893Y0120656D01*
X0378861Y0120893D01*
X0378823Y0121130D01*
X0378779Y0121366D01*
X0378730Y0121601D01*
X0378675Y0121834D01*
X0378614Y0122066D01*
X0378548Y0122297D01*
X0378476Y0122526D01*
X0378399Y0122753D01*
X0378315Y0122978D01*
X0378227Y0123201D01*
X0378133Y0123422D01*
X0378034Y0123640D01*
X0377929Y0123856D01*
X0377820Y0124069D01*
X0377705Y0124280D01*
X0377585Y0124488D01*
X0377460Y0124692D01*
X0377329Y0124894D01*
X0377195Y0125092D01*
X0377055Y0125287D01*
X0376911Y0125479D01*
X0376762Y0125667D01*
X0376608Y0125851D01*
X0376450Y0126032D01*
X0376288Y0126208D01*
X0376121Y0126381D01*
X0375950Y0126549D01*
X0375775Y0126714D01*
X0375597Y0126874D01*
X0375414Y0127029D01*
X0375228Y0127180D01*
X0375038Y0127327D01*
X0374844Y0127469D01*
X0355528Y0141264D02*
X0355334Y0141406D01*
X0355144Y0141553D01*
X0354958Y0141704D01*
X0354775Y0141859D01*
X0354597Y0142019D01*
X0354422Y0142184D01*
X0354251Y0142352D01*
X0354084Y0142525D01*
X0353922Y0142701D01*
X0353764Y0142882D01*
X0353610Y0143066D01*
X0353461Y0143254D01*
X0353317Y0143446D01*
X0353177Y0143641D01*
X0353043Y0143839D01*
X0352912Y0144041D01*
X0352787Y0144245D01*
X0352667Y0144453D01*
X0352552Y0144664D01*
X0352443Y0144877D01*
X0352338Y0145093D01*
X0352239Y0145311D01*
X0352145Y0145532D01*
X0352057Y0145755D01*
X0351973Y0145980D01*
X0351896Y0146207D01*
X0351824Y0146436D01*
X0351758Y0146667D01*
X0351697Y0146899D01*
X0351642Y0147132D01*
X0351593Y0147367D01*
X0351549Y0147603D01*
X0351511Y0147840D01*
X0351479Y0148077D01*
X0351453Y0148316D01*
X0351432Y0148555D01*
X0351418Y0148794D01*
X0351409Y0149034D01*
X0351406Y0149274D01*
X0337627Y0224917D02*
X0337629Y0225042D01*
X0337635Y0225167D01*
X0337645Y0225291D01*
X0337659Y0225415D01*
X0337676Y0225539D01*
X0337698Y0225662D01*
X0337724Y0225784D01*
X0337753Y0225906D01*
X0337786Y0226026D01*
X0337824Y0226145D01*
X0337864Y0226264D01*
X0337909Y0226380D01*
X0337957Y0226495D01*
X0338009Y0226609D01*
X0338065Y0226721D01*
X0338124Y0226831D01*
X0338186Y0226939D01*
X0338252Y0227046D01*
X0338321Y0227150D01*
X0338394Y0227251D01*
X0338469Y0227351D01*
X0338548Y0227448D01*
X0338630Y0227542D01*
X0338715Y0227634D01*
X0338802Y0227723D01*
X0338893Y0227809D01*
X0338986Y0227892D01*
X0339082Y0227973D01*
X0339180Y0228050D01*
X0339280Y0228124D01*
X0339383Y0228195D01*
X0339488Y0228262D01*
X0339596Y0228327D01*
X0339705Y0228387D01*
X0339816Y0228445D01*
X0339929Y0228498D01*
X0340043Y0228548D01*
X0340159Y0228595D01*
X0340276Y0228637D01*
X0340395Y0228676D01*
X0340515Y0228712D01*
X0340636Y0228743D01*
X0340758Y0228771D01*
X0340880Y0228794D01*
X0341004Y0228814D01*
X0341128Y0228830D01*
X0341252Y0228842D01*
X0341377Y0228850D01*
X0341502Y0228854D01*
X0341626Y0228854D01*
X0341751Y0228850D01*
X0341876Y0228842D01*
X0342000Y0228830D01*
X0342124Y0228814D01*
X0342248Y0228794D01*
X0342370Y0228771D01*
X0342492Y0228743D01*
X0342613Y0228712D01*
X0342733Y0228676D01*
X0342852Y0228637D01*
X0342969Y0228595D01*
X0343085Y0228548D01*
X0343199Y0228498D01*
X0343312Y0228445D01*
X0343423Y0228387D01*
X0343533Y0228327D01*
X0343640Y0228262D01*
X0343745Y0228195D01*
X0343848Y0228124D01*
X0343948Y0228050D01*
X0344046Y0227973D01*
X0344142Y0227892D01*
X0344235Y0227809D01*
X0344326Y0227723D01*
X0344413Y0227634D01*
X0344498Y0227542D01*
X0344580Y0227448D01*
X0344659Y0227351D01*
X0344734Y0227251D01*
X0344807Y0227150D01*
X0344876Y0227046D01*
X0344942Y0226939D01*
X0345004Y0226831D01*
X0345063Y0226721D01*
X0345119Y0226609D01*
X0345171Y0226495D01*
X0345219Y0226380D01*
X0345264Y0226264D01*
X0345304Y0226145D01*
X0345342Y0226026D01*
X0345375Y0225906D01*
X0345404Y0225784D01*
X0345430Y0225662D01*
X0345452Y0225539D01*
X0345469Y0225415D01*
X0345483Y0225291D01*
X0345493Y0225167D01*
X0345499Y0225042D01*
X0345501Y0224917D01*
X0345499Y0224792D01*
X0345493Y0224667D01*
X0345483Y0224543D01*
X0345469Y0224419D01*
X0345452Y0224295D01*
X0345430Y0224172D01*
X0345404Y0224050D01*
X0345375Y0223928D01*
X0345342Y0223808D01*
X0345304Y0223689D01*
X0345264Y0223570D01*
X0345219Y0223454D01*
X0345171Y0223339D01*
X0345119Y0223225D01*
X0345063Y0223113D01*
X0345004Y0223003D01*
X0344942Y0222895D01*
X0344876Y0222788D01*
X0344807Y0222684D01*
X0344734Y0222583D01*
X0344659Y0222483D01*
X0344580Y0222386D01*
X0344498Y0222292D01*
X0344413Y0222200D01*
X0344326Y0222111D01*
X0344235Y0222025D01*
X0344142Y0221942D01*
X0344046Y0221861D01*
X0343948Y0221784D01*
X0343848Y0221710D01*
X0343745Y0221639D01*
X0343640Y0221572D01*
X0343532Y0221507D01*
X0343423Y0221447D01*
X0343312Y0221389D01*
X0343199Y0221336D01*
X0343085Y0221286D01*
X0342969Y0221239D01*
X0342852Y0221197D01*
X0342733Y0221158D01*
X0342613Y0221122D01*
X0342492Y0221091D01*
X0342370Y0221063D01*
X0342248Y0221040D01*
X0342124Y0221020D01*
X0342000Y0221004D01*
X0341876Y0220992D01*
X0341751Y0220984D01*
X0341626Y0220980D01*
X0341502Y0220980D01*
X0341377Y0220984D01*
X0341252Y0220992D01*
X0341128Y0221004D01*
X0341004Y0221020D01*
X0340880Y0221040D01*
X0340758Y0221063D01*
X0340636Y0221091D01*
X0340515Y0221122D01*
X0340395Y0221158D01*
X0340276Y0221197D01*
X0340159Y0221239D01*
X0340043Y0221286D01*
X0339929Y0221336D01*
X0339816Y0221389D01*
X0339705Y0221447D01*
X0339595Y0221507D01*
X0339488Y0221572D01*
X0339383Y0221639D01*
X0339280Y0221710D01*
X0339180Y0221784D01*
X0339082Y0221861D01*
X0338986Y0221942D01*
X0338893Y0222025D01*
X0338802Y0222111D01*
X0338715Y0222200D01*
X0338630Y0222292D01*
X0338548Y0222386D01*
X0338469Y0222483D01*
X0338394Y0222583D01*
X0338321Y0222684D01*
X0338252Y0222788D01*
X0338186Y0222895D01*
X0338124Y0223003D01*
X0338065Y0223113D01*
X0338009Y0223225D01*
X0337957Y0223339D01*
X0337909Y0223454D01*
X0337864Y0223570D01*
X0337824Y0223689D01*
X0337786Y0223808D01*
X0337753Y0223928D01*
X0337724Y0224050D01*
X0337698Y0224172D01*
X0337676Y0224295D01*
X0337659Y0224419D01*
X0337645Y0224543D01*
X0337635Y0224667D01*
X0337629Y0224792D01*
X0337627Y0224917D01*
X0351406Y0230683D02*
X0351409Y0230917D01*
X0351417Y0231151D01*
X0351431Y0231385D01*
X0351451Y0231619D01*
X0351476Y0231852D01*
X0351506Y0232084D01*
X0351542Y0232315D01*
X0351584Y0232546D01*
X0351631Y0232775D01*
X0351683Y0233004D01*
X0351741Y0233231D01*
X0351805Y0233456D01*
X0351873Y0233680D01*
X0351947Y0233902D01*
X0352027Y0234123D01*
X0352111Y0234341D01*
X0352201Y0234558D01*
X0352295Y0234772D01*
X0352395Y0234984D01*
X0352500Y0235193D01*
X0352610Y0235400D01*
X0352725Y0235605D01*
X0352844Y0235806D01*
X0352969Y0236005D01*
X0353098Y0236200D01*
X0353231Y0236393D01*
X0353369Y0236582D01*
X0353512Y0236768D01*
X0353659Y0236950D01*
X0353810Y0237129D01*
X0353966Y0237304D01*
X0354125Y0237475D01*
X0354289Y0237643D01*
X0291297Y0009296D02*
X0291129Y0009132D01*
X0290958Y0008973D01*
X0290783Y0008817D01*
X0290604Y0008666D01*
X0290422Y0008519D01*
X0290236Y0008376D01*
X0290047Y0008238D01*
X0289854Y0008105D01*
X0289659Y0007976D01*
X0289460Y0007851D01*
X0289259Y0007732D01*
X0289054Y0007617D01*
X0288847Y0007507D01*
X0288638Y0007402D01*
X0288426Y0007302D01*
X0288212Y0007208D01*
X0287995Y0007118D01*
X0287777Y0007034D01*
X0287556Y0006954D01*
X0287334Y0006880D01*
X0287110Y0006812D01*
X0286885Y0006748D01*
X0286658Y0006690D01*
X0286429Y0006638D01*
X0286200Y0006591D01*
X0285969Y0006549D01*
X0285738Y0006513D01*
X0285506Y0006483D01*
X0285273Y0006458D01*
X0285039Y0006438D01*
X0284805Y0006424D01*
X0284571Y0006416D01*
X0284337Y0006413D01*
X0133361Y0027496D02*
X0133363Y0027593D01*
X0133369Y0027690D01*
X0133379Y0027786D01*
X0133393Y0027882D01*
X0133411Y0027978D01*
X0133432Y0028072D01*
X0133458Y0028166D01*
X0133487Y0028258D01*
X0133521Y0028349D01*
X0133557Y0028439D01*
X0133598Y0028527D01*
X0133642Y0028613D01*
X0133690Y0028698D01*
X0133741Y0028780D01*
X0133795Y0028861D01*
X0133853Y0028939D01*
X0133914Y0029014D01*
X0133977Y0029087D01*
X0134044Y0029158D01*
X0134114Y0029225D01*
X0134186Y0029290D01*
X0134261Y0029351D01*
X0134339Y0029410D01*
X0134418Y0029465D01*
X0134500Y0029517D01*
X0134584Y0029565D01*
X0134670Y0029610D01*
X0134758Y0029652D01*
X0134847Y0029690D01*
X0134938Y0029724D01*
X0135030Y0029754D01*
X0135123Y0029781D01*
X0135218Y0029803D01*
X0135313Y0029822D01*
X0135409Y0029837D01*
X0135505Y0029848D01*
X0135602Y0029855D01*
X0135699Y0029858D01*
X0135796Y0029857D01*
X0135893Y0029852D01*
X0135989Y0029843D01*
X0136085Y0029830D01*
X0136181Y0029813D01*
X0136276Y0029792D01*
X0136369Y0029768D01*
X0136462Y0029739D01*
X0136554Y0029707D01*
X0136644Y0029671D01*
X0136732Y0029632D01*
X0136819Y0029588D01*
X0136904Y0029542D01*
X0136987Y0029491D01*
X0137068Y0029438D01*
X0137146Y0029381D01*
X0137223Y0029321D01*
X0137296Y0029258D01*
X0137367Y0029192D01*
X0137435Y0029123D01*
X0137501Y0029051D01*
X0137563Y0028977D01*
X0137622Y0028900D01*
X0137678Y0028821D01*
X0137731Y0028739D01*
X0137781Y0028656D01*
X0137826Y0028570D01*
X0137869Y0028483D01*
X0137908Y0028394D01*
X0137943Y0028304D01*
X0137974Y0028212D01*
X0138001Y0028119D01*
X0138025Y0028025D01*
X0138045Y0027930D01*
X0138061Y0027834D01*
X0138073Y0027738D01*
X0138081Y0027641D01*
X0138085Y0027544D01*
X0138085Y0027448D01*
X0138081Y0027351D01*
X0138073Y0027254D01*
X0138061Y0027158D01*
X0138045Y0027062D01*
X0138025Y0026967D01*
X0138001Y0026873D01*
X0137974Y0026780D01*
X0137943Y0026688D01*
X0137908Y0026598D01*
X0137869Y0026509D01*
X0137826Y0026422D01*
X0137781Y0026336D01*
X0137731Y0026253D01*
X0137678Y0026171D01*
X0137622Y0026092D01*
X0137563Y0026015D01*
X0137501Y0025941D01*
X0137435Y0025869D01*
X0137367Y0025800D01*
X0137296Y0025734D01*
X0137223Y0025671D01*
X0137146Y0025611D01*
X0137068Y0025554D01*
X0136987Y0025501D01*
X0136904Y0025450D01*
X0136819Y0025404D01*
X0136732Y0025360D01*
X0136644Y0025321D01*
X0136554Y0025285D01*
X0136462Y0025253D01*
X0136369Y0025224D01*
X0136276Y0025200D01*
X0136181Y0025179D01*
X0136085Y0025162D01*
X0135989Y0025149D01*
X0135893Y0025140D01*
X0135796Y0025135D01*
X0135699Y0025134D01*
X0135602Y0025137D01*
X0135505Y0025144D01*
X0135409Y0025155D01*
X0135313Y0025170D01*
X0135218Y0025189D01*
X0135123Y0025211D01*
X0135030Y0025238D01*
X0134938Y0025268D01*
X0134847Y0025302D01*
X0134758Y0025340D01*
X0134670Y0025382D01*
X0134584Y0025427D01*
X0134500Y0025475D01*
X0134418Y0025527D01*
X0134339Y0025582D01*
X0134261Y0025641D01*
X0134186Y0025702D01*
X0134114Y0025767D01*
X0134044Y0025834D01*
X0133977Y0025905D01*
X0133914Y0025978D01*
X0133853Y0026053D01*
X0133795Y0026131D01*
X0133741Y0026212D01*
X0133690Y0026294D01*
X0133642Y0026379D01*
X0133598Y0026465D01*
X0133557Y0026553D01*
X0133521Y0026643D01*
X0133487Y0026734D01*
X0133458Y0026826D01*
X0133432Y0026920D01*
X0133411Y0027014D01*
X0133393Y0027110D01*
X0133379Y0027206D01*
X0133369Y0027302D01*
X0133363Y0027399D01*
X0133361Y0027496D01*
D11*
X0208677Y0061771D02*
X0209444Y0061003D01*
X0210979Y0061003D01*
X0211746Y0061771D01*
X0213281Y0061003D02*
X0213281Y0065607D01*
X0216350Y0061003D01*
X0216350Y0065607D01*
X0217885Y0064840D02*
X0218652Y0065607D01*
X0220187Y0065607D01*
X0220954Y0064840D01*
X0220954Y0064072D01*
X0217885Y0061003D01*
X0220954Y0061003D01*
X0211746Y0064840D02*
X0210979Y0065607D01*
X0209444Y0065607D01*
X0208677Y0064840D01*
X0208677Y0061771D01*
X0236806Y0224586D02*
X0238341Y0224586D01*
X0239108Y0225353D01*
X0240643Y0224586D02*
X0240643Y0229190D01*
X0243712Y0224586D01*
X0243712Y0229190D01*
X0245247Y0227655D02*
X0246781Y0229190D01*
X0246781Y0224586D01*
X0245247Y0224586D02*
X0248316Y0224586D01*
X0239108Y0228422D02*
X0238341Y0229190D01*
X0236806Y0229190D01*
X0236039Y0228422D01*
X0236039Y0225353D01*
X0236806Y0224586D01*
X0226381Y0300176D02*
X0224847Y0300176D01*
X0224079Y0300944D01*
X0224079Y0302478D02*
X0225614Y0303246D01*
X0226381Y0303246D01*
X0227149Y0302478D01*
X0227149Y0300944D01*
X0226381Y0300176D01*
X0224079Y0302478D02*
X0224079Y0304780D01*
X0227149Y0304780D01*
X0221010Y0304780D02*
X0221010Y0300176D01*
X0219476Y0300176D02*
X0222545Y0300176D01*
X0219476Y0303246D02*
X0221010Y0304780D01*
X0217941Y0304013D02*
X0214872Y0300944D01*
X0215639Y0300176D01*
X0217174Y0300176D01*
X0217941Y0300944D01*
X0217941Y0304013D01*
X0217174Y0304780D01*
X0215639Y0304780D01*
X0214872Y0304013D01*
X0214872Y0300944D01*
X0213337Y0300176D02*
X0210268Y0300176D01*
X0211802Y0300176D02*
X0211802Y0304780D01*
X0210268Y0303246D01*
X0207198Y0304780D02*
X0207198Y0300176D01*
X0205664Y0300176D02*
X0208733Y0300176D01*
X0205664Y0303246D02*
X0207198Y0304780D01*
X0204129Y0304013D02*
X0204129Y0303246D01*
X0203362Y0302478D01*
X0201060Y0302478D01*
X0199525Y0300944D02*
X0199525Y0304013D01*
X0198758Y0304780D01*
X0197223Y0304780D01*
X0196456Y0304013D01*
X0196456Y0300944D01*
X0197223Y0300176D01*
X0198758Y0300176D01*
X0199525Y0300944D01*
X0201060Y0300176D02*
X0203362Y0300176D01*
X0204129Y0300944D01*
X0204129Y0301711D01*
X0203362Y0302478D01*
X0204129Y0304013D02*
X0203362Y0304780D01*
X0201060Y0304780D01*
X0201060Y0300176D01*
X0194921Y0300176D02*
X0193387Y0301711D01*
X0194154Y0301711D02*
X0191852Y0301711D01*
X0191852Y0300176D02*
X0191852Y0304780D01*
X0194154Y0304780D01*
X0194921Y0304013D01*
X0194921Y0302478D01*
X0194154Y0301711D01*
X0175148Y0361781D02*
X0175148Y0366385D01*
X0172079Y0366385D02*
X0172079Y0361781D01*
X0173613Y0363315D01*
X0175148Y0361781D01*
X0170544Y0362548D02*
X0169777Y0361781D01*
X0168242Y0361781D01*
X0167475Y0362548D01*
X0168242Y0364083D02*
X0169777Y0364083D01*
X0170544Y0363315D01*
X0170544Y0362548D01*
X0168242Y0364083D02*
X0167475Y0364850D01*
X0167475Y0365617D01*
X0168242Y0366385D01*
X0169777Y0366385D01*
X0170544Y0365617D01*
X0169777Y0369281D02*
X0170544Y0370048D01*
X0170544Y0373117D01*
X0169777Y0373885D01*
X0168242Y0373885D01*
X0167475Y0373117D01*
X0167475Y0370048D01*
X0168242Y0369281D01*
X0169777Y0369281D01*
X0172079Y0369281D02*
X0172079Y0373885D01*
X0175148Y0373885D01*
X0176683Y0373885D02*
X0179752Y0373885D01*
X0178217Y0373885D02*
X0178217Y0369281D01*
X0173613Y0371583D02*
X0172079Y0371583D01*
X0165940Y0370815D02*
X0165940Y0370048D01*
X0165173Y0369281D01*
X0163638Y0369281D01*
X0162871Y0370048D01*
X0163638Y0371583D02*
X0165173Y0371583D01*
X0165940Y0370815D01*
X0165940Y0373117D02*
X0165173Y0373885D01*
X0163638Y0373885D01*
X0162871Y0373117D01*
X0162871Y0372350D01*
X0163638Y0371583D01*
X0360126Y0124603D02*
X0360126Y0121534D01*
X0360126Y0123069D02*
X0364730Y0123069D01*
X0364730Y0119999D02*
X0360126Y0119999D01*
X0360126Y0116930D02*
X0364730Y0119999D01*
X0364730Y0116930D02*
X0360126Y0116930D01*
X0360126Y0115395D02*
X0360126Y0113861D01*
X0360126Y0114628D02*
X0364730Y0114628D01*
X0364730Y0113861D02*
X0364730Y0115395D01*
X0360126Y0104898D02*
X0360126Y0101829D01*
X0360126Y0103363D02*
X0364730Y0103363D01*
X0364730Y0100294D02*
X0360126Y0097225D01*
X0360126Y0095690D02*
X0360126Y0092621D01*
X0364730Y0092621D01*
X0364730Y0095690D01*
X0364730Y0097225D02*
X0360126Y0100294D01*
X0362428Y0094156D02*
X0362428Y0092621D01*
X0361702Y0057536D02*
X0358633Y0057536D01*
X0358633Y0052932D01*
X0361702Y0052932D01*
X0363237Y0052932D02*
X0363237Y0057536D01*
X0365539Y0057536D01*
X0366306Y0056769D01*
X0366306Y0055234D01*
X0365539Y0054467D01*
X0363237Y0054467D01*
X0364771Y0054467D02*
X0366306Y0052932D01*
X0360167Y0055234D02*
X0358633Y0055234D01*
X0357098Y0052932D02*
X0357098Y0057536D01*
X0354029Y0057536D02*
X0354029Y0052932D01*
X0355563Y0054467D01*
X0357098Y0052932D01*
X0352494Y0053700D02*
X0352494Y0056769D01*
X0351727Y0057536D01*
X0350192Y0057536D01*
X0349425Y0056769D01*
X0349425Y0053700D01*
X0350192Y0052932D01*
X0351727Y0052932D01*
X0352494Y0053700D01*
X0347890Y0055234D02*
X0347123Y0054467D01*
X0344821Y0054467D01*
X0344821Y0052932D02*
X0344821Y0057536D01*
X0347123Y0057536D01*
X0347890Y0056769D01*
X0347890Y0055234D01*
D12*
X0215973Y0246571D02*
X0215973Y0249327D01*
X0215973Y0246571D02*
X0204162Y0246571D01*
X0204162Y0249327D01*
X0203769Y0259957D02*
X0216367Y0259957D01*
X0216367Y0262319D01*
X0213217Y0262319D01*
X0213217Y0263106D01*
X0206131Y0263106D01*
X0206131Y0262319D01*
X0203769Y0262319D01*
X0203769Y0259957D01*
X0206131Y0262319D02*
X0213217Y0262319D01*
X0213217Y0263106D02*
X0231721Y0263106D01*
X0231721Y0343815D01*
X0227784Y0343815D01*
X0227784Y0341847D01*
X0217942Y0341847D01*
X0217942Y0358382D01*
X0202194Y0358382D01*
X0202194Y0341847D01*
X0217942Y0341847D01*
X0223847Y0351689D02*
X0223847Y0353658D01*
X0196288Y0353658D01*
X0196288Y0351689D01*
X0223847Y0351689D01*
X0217942Y0369406D02*
X0217942Y0373736D01*
X0202194Y0373736D01*
X0202194Y0369406D01*
X0268729Y0344996D02*
X0268706Y0343093D01*
X0268637Y0341192D01*
X0268522Y0339292D01*
X0268361Y0337396D01*
X0268155Y0335505D01*
X0267903Y0333619D01*
X0267605Y0331740D01*
X0267262Y0329868D01*
X0266874Y0328005D01*
X0266441Y0326152D01*
X0265963Y0324310D01*
X0265441Y0322481D01*
X0264875Y0320664D01*
X0264265Y0318862D01*
X0263612Y0317074D01*
X0262916Y0315304D01*
X0262177Y0313550D01*
X0261396Y0311815D01*
X0260574Y0310099D01*
X0259710Y0308404D01*
X0258805Y0306730D01*
X0257860Y0305078D01*
X0256876Y0303450D01*
X0255853Y0301845D01*
X0254791Y0300267D01*
X0253691Y0298714D01*
X0252554Y0297188D01*
X0251381Y0295690D01*
X0250171Y0294221D01*
X0248927Y0292782D01*
X0247648Y0291373D01*
X0246335Y0289995D01*
X0244990Y0288650D01*
X0243612Y0287337D01*
X0242203Y0286058D01*
X0240764Y0284814D01*
X0239295Y0283604D01*
X0237797Y0282431D01*
X0236271Y0281294D01*
X0234718Y0280194D01*
X0233140Y0279132D01*
X0231535Y0278109D01*
X0229907Y0277125D01*
X0228255Y0276180D01*
X0226581Y0275275D01*
X0224886Y0274411D01*
X0223170Y0273589D01*
X0221435Y0272808D01*
X0219681Y0272069D01*
X0217911Y0271373D01*
X0216123Y0270720D01*
X0214321Y0270110D01*
X0212504Y0269544D01*
X0210675Y0269022D01*
X0208833Y0268544D01*
X0206980Y0268111D01*
X0205117Y0267723D01*
X0203245Y0267380D01*
X0201366Y0267082D01*
X0199480Y0266830D01*
X0197589Y0266624D01*
X0195693Y0266463D01*
X0193793Y0266348D01*
X0191892Y0266279D01*
X0189989Y0266256D01*
X0188414Y0263106D02*
X0188414Y0343815D01*
X0192351Y0343815D01*
X0192351Y0341847D01*
X0202194Y0341847D01*
X0189989Y0266256D02*
X0188086Y0266279D01*
X0186185Y0266348D01*
X0184285Y0266463D01*
X0182389Y0266624D01*
X0180498Y0266830D01*
X0178612Y0267082D01*
X0176733Y0267380D01*
X0174861Y0267723D01*
X0172998Y0268111D01*
X0171145Y0268544D01*
X0169303Y0269022D01*
X0167474Y0269544D01*
X0165657Y0270110D01*
X0163855Y0270720D01*
X0162067Y0271373D01*
X0160297Y0272069D01*
X0158543Y0272808D01*
X0156808Y0273589D01*
X0155092Y0274411D01*
X0153397Y0275275D01*
X0151723Y0276180D01*
X0150071Y0277125D01*
X0148443Y0278109D01*
X0146838Y0279132D01*
X0145260Y0280194D01*
X0143707Y0281294D01*
X0142181Y0282431D01*
X0140683Y0283604D01*
X0139214Y0284814D01*
X0137775Y0286058D01*
X0136366Y0287337D01*
X0134988Y0288650D01*
X0133643Y0289995D01*
X0132330Y0291373D01*
X0131051Y0292782D01*
X0129807Y0294221D01*
X0128597Y0295690D01*
X0127424Y0297188D01*
X0126287Y0298714D01*
X0125187Y0300267D01*
X0124125Y0301845D01*
X0123102Y0303450D01*
X0122118Y0305078D01*
X0121173Y0306730D01*
X0120268Y0308404D01*
X0119404Y0310099D01*
X0118582Y0311815D01*
X0117801Y0313550D01*
X0117062Y0315304D01*
X0116366Y0317074D01*
X0115713Y0318862D01*
X0115103Y0320664D01*
X0114537Y0322481D01*
X0114015Y0324310D01*
X0113537Y0326152D01*
X0113104Y0328005D01*
X0112716Y0329868D01*
X0112373Y0331740D01*
X0112075Y0333619D01*
X0111823Y0335505D01*
X0111617Y0337396D01*
X0111456Y0339292D01*
X0111341Y0341192D01*
X0111272Y0343093D01*
X0111249Y0344996D01*
X0188414Y0263106D02*
X0206131Y0263106D01*
X0242894Y0318982D02*
X0243645Y0318982D01*
X0244396Y0319732D01*
X0244396Y0323485D01*
X0245146Y0323485D02*
X0243645Y0323485D01*
X0246748Y0323485D02*
X0246748Y0318982D01*
X0246748Y0320483D02*
X0249000Y0320483D01*
X0249750Y0321233D01*
X0249750Y0322735D01*
X0249000Y0323485D01*
X0246748Y0323485D01*
X0251352Y0321984D02*
X0252853Y0323485D01*
X0252853Y0318982D01*
X0251352Y0318982D02*
X0254354Y0318982D01*
X0255955Y0319732D02*
X0258958Y0322735D01*
X0258958Y0319732D01*
X0258207Y0318982D01*
X0256706Y0318982D01*
X0255955Y0319732D01*
X0255955Y0322735D01*
X0256706Y0323485D01*
X0258207Y0323485D01*
X0258958Y0322735D01*
X0242894Y0318982D02*
X0242144Y0319732D01*
X0146296Y0169181D02*
X0146296Y0160181D01*
X0120296Y0160181D01*
X0120296Y0169181D01*
X0146296Y0169181D01*
X0143296Y0160181D02*
X0143296Y0158681D01*
X0123296Y0158681D01*
X0123296Y0160181D01*
X0143296Y0160181D01*
X0143296Y0159955D02*
X0123296Y0159955D01*
X0123296Y0159456D02*
X0143296Y0159456D01*
X0143296Y0158958D02*
X0123296Y0158958D01*
D13*
X0121583Y0173579D02*
X0119083Y0176079D01*
X0119083Y0191079D01*
X0121583Y0193579D01*
X0126583Y0193579D01*
X0129083Y0191079D01*
X0129083Y0176079D01*
X0126583Y0173579D01*
X0121583Y0173579D01*
X0129083Y0176079D02*
X0131583Y0173579D01*
X0136583Y0173579D01*
X0139083Y0176079D01*
X0139083Y0191079D01*
X0136583Y0193579D01*
X0131583Y0193579D01*
X0129083Y0191079D01*
X0139083Y0191079D02*
X0141583Y0193579D01*
X0146583Y0193579D01*
X0149083Y0191079D01*
X0149083Y0176079D01*
X0146583Y0173579D01*
X0141583Y0173579D01*
X0139083Y0176079D01*
X0156280Y0207000D02*
X0162280Y0207000D01*
X0162340Y0207002D01*
X0162401Y0207007D01*
X0162460Y0207016D01*
X0162519Y0207029D01*
X0162578Y0207045D01*
X0162635Y0207065D01*
X0162690Y0207088D01*
X0162745Y0207115D01*
X0162797Y0207144D01*
X0162848Y0207177D01*
X0162897Y0207213D01*
X0162943Y0207251D01*
X0162987Y0207293D01*
X0163029Y0207337D01*
X0163067Y0207383D01*
X0163103Y0207432D01*
X0163136Y0207483D01*
X0163165Y0207535D01*
X0163192Y0207590D01*
X0163215Y0207645D01*
X0163235Y0207702D01*
X0163251Y0207761D01*
X0163264Y0207820D01*
X0163273Y0207879D01*
X0163278Y0207940D01*
X0163280Y0208000D01*
X0163280Y0219000D01*
X0163278Y0219060D01*
X0163273Y0219121D01*
X0163264Y0219180D01*
X0163251Y0219239D01*
X0163235Y0219298D01*
X0163215Y0219355D01*
X0163192Y0219410D01*
X0163165Y0219465D01*
X0163136Y0219517D01*
X0163103Y0219568D01*
X0163067Y0219617D01*
X0163029Y0219663D01*
X0162987Y0219707D01*
X0162943Y0219749D01*
X0162897Y0219787D01*
X0162848Y0219823D01*
X0162797Y0219856D01*
X0162745Y0219885D01*
X0162690Y0219912D01*
X0162635Y0219935D01*
X0162578Y0219955D01*
X0162519Y0219971D01*
X0162460Y0219984D01*
X0162401Y0219993D01*
X0162340Y0219998D01*
X0162280Y0220000D01*
X0156280Y0220000D01*
X0156220Y0219998D01*
X0156159Y0219993D01*
X0156100Y0219984D01*
X0156041Y0219971D01*
X0155982Y0219955D01*
X0155925Y0219935D01*
X0155870Y0219912D01*
X0155815Y0219885D01*
X0155763Y0219856D01*
X0155712Y0219823D01*
X0155663Y0219787D01*
X0155617Y0219749D01*
X0155573Y0219707D01*
X0155531Y0219663D01*
X0155493Y0219617D01*
X0155457Y0219568D01*
X0155424Y0219517D01*
X0155395Y0219465D01*
X0155368Y0219410D01*
X0155345Y0219355D01*
X0155325Y0219298D01*
X0155309Y0219239D01*
X0155296Y0219180D01*
X0155287Y0219121D01*
X0155282Y0219060D01*
X0155280Y0219000D01*
X0155280Y0208000D01*
X0155282Y0207940D01*
X0155287Y0207879D01*
X0155296Y0207820D01*
X0155309Y0207761D01*
X0155325Y0207702D01*
X0155345Y0207645D01*
X0155368Y0207590D01*
X0155395Y0207535D01*
X0155424Y0207483D01*
X0155457Y0207432D01*
X0155493Y0207383D01*
X0155531Y0207337D01*
X0155573Y0207293D01*
X0155617Y0207251D01*
X0155663Y0207213D01*
X0155712Y0207177D01*
X0155763Y0207144D01*
X0155815Y0207115D01*
X0155870Y0207088D01*
X0155925Y0207065D01*
X0155982Y0207045D01*
X0156041Y0207029D01*
X0156100Y0207016D01*
X0156159Y0207007D01*
X0156220Y0207002D01*
X0156280Y0207000D01*
X0165517Y0208000D02*
X0165517Y0219000D01*
X0165519Y0219060D01*
X0165524Y0219121D01*
X0165533Y0219180D01*
X0165546Y0219239D01*
X0165562Y0219298D01*
X0165582Y0219355D01*
X0165605Y0219410D01*
X0165632Y0219465D01*
X0165661Y0219517D01*
X0165694Y0219568D01*
X0165730Y0219617D01*
X0165768Y0219663D01*
X0165810Y0219707D01*
X0165854Y0219749D01*
X0165900Y0219787D01*
X0165949Y0219823D01*
X0166000Y0219856D01*
X0166052Y0219885D01*
X0166107Y0219912D01*
X0166162Y0219935D01*
X0166219Y0219955D01*
X0166278Y0219971D01*
X0166337Y0219984D01*
X0166396Y0219993D01*
X0166457Y0219998D01*
X0166517Y0220000D01*
X0172517Y0220000D01*
X0172577Y0219998D01*
X0172638Y0219993D01*
X0172697Y0219984D01*
X0172756Y0219971D01*
X0172815Y0219955D01*
X0172872Y0219935D01*
X0172927Y0219912D01*
X0172982Y0219885D01*
X0173034Y0219856D01*
X0173085Y0219823D01*
X0173134Y0219787D01*
X0173180Y0219749D01*
X0173224Y0219707D01*
X0173266Y0219663D01*
X0173304Y0219617D01*
X0173340Y0219568D01*
X0173373Y0219517D01*
X0173402Y0219465D01*
X0173429Y0219410D01*
X0173452Y0219355D01*
X0173472Y0219298D01*
X0173488Y0219239D01*
X0173501Y0219180D01*
X0173510Y0219121D01*
X0173515Y0219060D01*
X0173517Y0219000D01*
X0173517Y0208000D01*
X0173515Y0207940D01*
X0173510Y0207879D01*
X0173501Y0207820D01*
X0173488Y0207761D01*
X0173472Y0207702D01*
X0173452Y0207645D01*
X0173429Y0207590D01*
X0173402Y0207535D01*
X0173373Y0207483D01*
X0173340Y0207432D01*
X0173304Y0207383D01*
X0173266Y0207337D01*
X0173224Y0207293D01*
X0173180Y0207251D01*
X0173134Y0207213D01*
X0173085Y0207177D01*
X0173034Y0207144D01*
X0172982Y0207115D01*
X0172927Y0207088D01*
X0172872Y0207065D01*
X0172815Y0207045D01*
X0172756Y0207029D01*
X0172697Y0207016D01*
X0172638Y0207007D01*
X0172577Y0207002D01*
X0172517Y0207000D01*
X0166517Y0207000D01*
X0166457Y0207002D01*
X0166396Y0207007D01*
X0166337Y0207016D01*
X0166278Y0207029D01*
X0166219Y0207045D01*
X0166162Y0207065D01*
X0166107Y0207088D01*
X0166052Y0207115D01*
X0166000Y0207144D01*
X0165949Y0207177D01*
X0165900Y0207213D01*
X0165854Y0207251D01*
X0165810Y0207293D01*
X0165768Y0207337D01*
X0165730Y0207383D01*
X0165694Y0207432D01*
X0165661Y0207483D01*
X0165632Y0207535D01*
X0165605Y0207590D01*
X0165582Y0207645D01*
X0165562Y0207702D01*
X0165546Y0207761D01*
X0165533Y0207820D01*
X0165524Y0207879D01*
X0165519Y0207940D01*
X0165517Y0208000D01*
X0174965Y0208000D02*
X0174965Y0219000D01*
X0174967Y0219060D01*
X0174972Y0219121D01*
X0174981Y0219180D01*
X0174994Y0219239D01*
X0175010Y0219298D01*
X0175030Y0219355D01*
X0175053Y0219410D01*
X0175080Y0219465D01*
X0175109Y0219517D01*
X0175142Y0219568D01*
X0175178Y0219617D01*
X0175216Y0219663D01*
X0175258Y0219707D01*
X0175302Y0219749D01*
X0175348Y0219787D01*
X0175397Y0219823D01*
X0175448Y0219856D01*
X0175500Y0219885D01*
X0175555Y0219912D01*
X0175610Y0219935D01*
X0175667Y0219955D01*
X0175726Y0219971D01*
X0175785Y0219984D01*
X0175844Y0219993D01*
X0175905Y0219998D01*
X0175965Y0220000D01*
X0181965Y0220000D01*
X0182025Y0219998D01*
X0182086Y0219993D01*
X0182145Y0219984D01*
X0182204Y0219971D01*
X0182263Y0219955D01*
X0182320Y0219935D01*
X0182375Y0219912D01*
X0182430Y0219885D01*
X0182482Y0219856D01*
X0182533Y0219823D01*
X0182582Y0219787D01*
X0182628Y0219749D01*
X0182672Y0219707D01*
X0182714Y0219663D01*
X0182752Y0219617D01*
X0182788Y0219568D01*
X0182821Y0219517D01*
X0182850Y0219465D01*
X0182877Y0219410D01*
X0182900Y0219355D01*
X0182920Y0219298D01*
X0182936Y0219239D01*
X0182949Y0219180D01*
X0182958Y0219121D01*
X0182963Y0219060D01*
X0182965Y0219000D01*
X0182965Y0208000D01*
X0182963Y0207940D01*
X0182958Y0207879D01*
X0182949Y0207820D01*
X0182936Y0207761D01*
X0182920Y0207702D01*
X0182900Y0207645D01*
X0182877Y0207590D01*
X0182850Y0207535D01*
X0182821Y0207483D01*
X0182788Y0207432D01*
X0182752Y0207383D01*
X0182714Y0207337D01*
X0182672Y0207293D01*
X0182628Y0207251D01*
X0182582Y0207213D01*
X0182533Y0207177D01*
X0182482Y0207144D01*
X0182430Y0207115D01*
X0182375Y0207088D01*
X0182320Y0207065D01*
X0182263Y0207045D01*
X0182204Y0207029D01*
X0182145Y0207016D01*
X0182086Y0207007D01*
X0182025Y0207002D01*
X0181965Y0207000D01*
X0175965Y0207000D01*
X0175905Y0207002D01*
X0175844Y0207007D01*
X0175785Y0207016D01*
X0175726Y0207029D01*
X0175667Y0207045D01*
X0175610Y0207065D01*
X0175555Y0207088D01*
X0175500Y0207115D01*
X0175448Y0207144D01*
X0175397Y0207177D01*
X0175348Y0207213D01*
X0175302Y0207251D01*
X0175258Y0207293D01*
X0175216Y0207337D01*
X0175178Y0207383D01*
X0175142Y0207432D01*
X0175109Y0207483D01*
X0175080Y0207535D01*
X0175053Y0207590D01*
X0175030Y0207645D01*
X0175010Y0207702D01*
X0174994Y0207761D01*
X0174981Y0207820D01*
X0174972Y0207879D01*
X0174967Y0207940D01*
X0174965Y0208000D01*
X0176446Y0221886D02*
X0181446Y0221886D01*
X0183946Y0224386D01*
X0186446Y0221886D01*
X0191446Y0221886D01*
X0193946Y0224386D01*
X0193946Y0229386D01*
X0191446Y0231886D01*
X0186446Y0231886D01*
X0183946Y0229386D01*
X0183946Y0224386D01*
X0186202Y0220000D02*
X0192202Y0220000D01*
X0192262Y0219998D01*
X0192323Y0219993D01*
X0192382Y0219984D01*
X0192441Y0219971D01*
X0192500Y0219955D01*
X0192557Y0219935D01*
X0192612Y0219912D01*
X0192667Y0219885D01*
X0192719Y0219856D01*
X0192770Y0219823D01*
X0192819Y0219787D01*
X0192865Y0219749D01*
X0192909Y0219707D01*
X0192951Y0219663D01*
X0192989Y0219617D01*
X0193025Y0219568D01*
X0193058Y0219517D01*
X0193087Y0219465D01*
X0193114Y0219410D01*
X0193137Y0219355D01*
X0193157Y0219298D01*
X0193173Y0219239D01*
X0193186Y0219180D01*
X0193195Y0219121D01*
X0193200Y0219060D01*
X0193202Y0219000D01*
X0193202Y0208000D01*
X0193200Y0207940D01*
X0193195Y0207879D01*
X0193186Y0207820D01*
X0193173Y0207761D01*
X0193157Y0207702D01*
X0193137Y0207645D01*
X0193114Y0207590D01*
X0193087Y0207535D01*
X0193058Y0207483D01*
X0193025Y0207432D01*
X0192989Y0207383D01*
X0192951Y0207337D01*
X0192909Y0207293D01*
X0192865Y0207251D01*
X0192819Y0207213D01*
X0192770Y0207177D01*
X0192719Y0207144D01*
X0192667Y0207115D01*
X0192612Y0207088D01*
X0192557Y0207065D01*
X0192500Y0207045D01*
X0192441Y0207029D01*
X0192382Y0207016D01*
X0192323Y0207007D01*
X0192262Y0207002D01*
X0192202Y0207000D01*
X0186202Y0207000D01*
X0186142Y0207002D01*
X0186081Y0207007D01*
X0186022Y0207016D01*
X0185963Y0207029D01*
X0185904Y0207045D01*
X0185847Y0207065D01*
X0185792Y0207088D01*
X0185737Y0207115D01*
X0185685Y0207144D01*
X0185634Y0207177D01*
X0185585Y0207213D01*
X0185539Y0207251D01*
X0185495Y0207293D01*
X0185453Y0207337D01*
X0185415Y0207383D01*
X0185379Y0207432D01*
X0185346Y0207483D01*
X0185317Y0207535D01*
X0185290Y0207590D01*
X0185267Y0207645D01*
X0185247Y0207702D01*
X0185231Y0207761D01*
X0185218Y0207820D01*
X0185209Y0207879D01*
X0185204Y0207940D01*
X0185202Y0208000D01*
X0185202Y0219000D01*
X0185204Y0219060D01*
X0185209Y0219121D01*
X0185218Y0219180D01*
X0185231Y0219239D01*
X0185247Y0219298D01*
X0185267Y0219355D01*
X0185290Y0219410D01*
X0185317Y0219465D01*
X0185346Y0219517D01*
X0185379Y0219568D01*
X0185415Y0219617D01*
X0185453Y0219663D01*
X0185495Y0219707D01*
X0185539Y0219749D01*
X0185585Y0219787D01*
X0185634Y0219823D01*
X0185685Y0219856D01*
X0185737Y0219885D01*
X0185792Y0219912D01*
X0185847Y0219935D01*
X0185904Y0219955D01*
X0185963Y0219971D01*
X0186022Y0219984D01*
X0186081Y0219993D01*
X0186142Y0219998D01*
X0186202Y0220000D01*
X0193946Y0224386D02*
X0196446Y0221886D01*
X0201446Y0221886D01*
X0203946Y0224386D01*
X0206446Y0221886D01*
X0211446Y0221886D01*
X0213946Y0224386D01*
X0216446Y0221886D01*
X0221446Y0221886D01*
X0223946Y0224386D01*
X0226446Y0221886D01*
X0231446Y0221886D01*
X0233946Y0224386D01*
X0233946Y0229386D01*
X0231446Y0231886D01*
X0226446Y0231886D01*
X0223946Y0229386D01*
X0223946Y0224386D01*
X0223946Y0229386D02*
X0221446Y0231886D01*
X0216446Y0231886D01*
X0213946Y0229386D01*
X0213946Y0224386D01*
X0213946Y0229386D02*
X0211446Y0231886D01*
X0206446Y0231886D01*
X0203946Y0229386D01*
X0203946Y0224386D01*
X0203946Y0229386D02*
X0201446Y0231886D01*
X0196446Y0231886D01*
X0193946Y0229386D01*
X0183946Y0229386D02*
X0181446Y0231886D01*
X0176446Y0231886D01*
X0173946Y0229386D01*
X0173946Y0224386D01*
X0176446Y0221886D01*
X0173946Y0224386D02*
X0171446Y0221886D01*
X0166446Y0221886D01*
X0163946Y0224386D01*
X0161446Y0221886D01*
X0156446Y0221886D01*
X0153946Y0224386D01*
X0151446Y0221886D01*
X0146446Y0221886D01*
X0143946Y0224386D01*
X0141446Y0221886D01*
X0136446Y0221886D01*
X0133946Y0224386D01*
X0131446Y0221886D01*
X0126446Y0221886D01*
X0123946Y0224386D01*
X0121446Y0221886D01*
X0116446Y0221886D01*
X0113946Y0224386D01*
X0111446Y0221886D01*
X0106446Y0221886D01*
X0103946Y0224386D01*
X0101446Y0221886D01*
X0096446Y0221886D01*
X0093946Y0224386D01*
X0091446Y0221886D01*
X0086446Y0221886D01*
X0083946Y0224386D01*
X0081446Y0221886D01*
X0076446Y0221886D01*
X0073946Y0224386D01*
X0071446Y0221886D01*
X0066446Y0221886D01*
X0063946Y0224386D01*
X0061446Y0221886D01*
X0056446Y0221886D01*
X0053946Y0224386D01*
X0053946Y0229386D01*
X0056446Y0231886D01*
X0061446Y0231886D01*
X0063946Y0229386D01*
X0066446Y0231886D01*
X0071446Y0231886D01*
X0073946Y0229386D01*
X0073946Y0224386D01*
X0073946Y0229386D02*
X0076446Y0231886D01*
X0081446Y0231886D01*
X0083946Y0229386D01*
X0086446Y0231886D01*
X0091446Y0231886D01*
X0093946Y0229386D01*
X0096446Y0231886D01*
X0101446Y0231886D01*
X0103946Y0229386D01*
X0103946Y0224386D01*
X0103946Y0229386D02*
X0106446Y0231886D01*
X0111446Y0231886D01*
X0113946Y0229386D01*
X0116446Y0231886D01*
X0121446Y0231886D01*
X0123946Y0229386D01*
X0126446Y0231886D01*
X0131446Y0231886D01*
X0133946Y0229386D01*
X0133946Y0224386D01*
X0133946Y0229386D02*
X0136446Y0231886D01*
X0141446Y0231886D01*
X0143946Y0229386D01*
X0146446Y0231886D01*
X0151446Y0231886D01*
X0153946Y0229386D01*
X0156446Y0231886D01*
X0161446Y0231886D01*
X0163946Y0229386D01*
X0163946Y0224386D01*
X0163946Y0229386D02*
X0166446Y0231886D01*
X0171446Y0231886D01*
X0173946Y0229386D01*
X0153946Y0229386D02*
X0153946Y0224386D01*
X0143946Y0224386D02*
X0143946Y0229386D01*
X0123946Y0229386D02*
X0123946Y0224386D01*
X0113946Y0224386D02*
X0113946Y0229386D01*
X0093946Y0229386D02*
X0093946Y0224386D01*
X0083946Y0224386D02*
X0083946Y0229386D01*
X0063946Y0229386D02*
X0063946Y0224386D01*
X0121111Y0142870D02*
X0121111Y0130862D01*
X0123178Y0130862D01*
X0123178Y0140803D01*
X0142272Y0140803D01*
X0142272Y0130862D01*
X0144339Y0130862D01*
X0144339Y0142870D01*
X0121111Y0142870D01*
X0121111Y0130862D02*
X0121111Y0127221D01*
X0130757Y0127221D01*
X0130757Y0125154D01*
X0121111Y0125154D01*
X0121111Y0127221D01*
X0125099Y0124209D02*
X0125099Y0116965D01*
X0141493Y0116965D01*
X0141493Y0124209D01*
X0125099Y0124209D01*
X0127296Y0120587D02*
X0133296Y0120587D01*
X0133296Y0123087D01*
X0134694Y0125154D02*
X0130757Y0125154D01*
X0129296Y0123087D02*
X0133296Y0120587D01*
X0133296Y0118087D01*
X0133296Y0120587D02*
X0129296Y0118087D01*
X0129296Y0123087D01*
X0133296Y0120587D02*
X0135796Y0120587D01*
X0134694Y0125154D02*
X0134694Y0127221D01*
X0144339Y0127221D01*
X0144339Y0130862D01*
X0144339Y0127221D02*
X0144339Y0125154D01*
X0134694Y0125154D01*
X0127627Y0103714D02*
X0127718Y0103589D01*
X0127812Y0103467D01*
X0127910Y0103348D01*
X0128010Y0103231D01*
X0128114Y0103117D01*
X0128220Y0103005D01*
X0128329Y0102897D01*
X0128441Y0102791D01*
X0128556Y0102688D01*
X0128673Y0102588D01*
X0128793Y0102490D01*
X0128915Y0102397D01*
X0129039Y0102306D01*
X0129166Y0102218D01*
X0129295Y0102134D01*
X0129427Y0102053D01*
X0129560Y0101976D01*
X0129695Y0101902D01*
X0129832Y0101831D01*
X0129971Y0101764D01*
X0130111Y0101701D01*
X0130254Y0101641D01*
X0130397Y0101585D01*
X0130542Y0101533D01*
X0130688Y0101484D01*
X0130836Y0101439D01*
X0130984Y0101398D01*
X0131134Y0101361D01*
X0131284Y0101327D01*
X0131436Y0101298D01*
X0131588Y0101272D01*
X0131740Y0101250D01*
X0131893Y0101233D01*
X0132047Y0101219D01*
X0132201Y0101209D01*
X0132355Y0101203D01*
X0132509Y0101201D01*
X0137245Y0110884D02*
X0137151Y0111003D01*
X0137053Y0111119D01*
X0136953Y0111233D01*
X0136849Y0111344D01*
X0136743Y0111452D01*
X0136635Y0111558D01*
X0136523Y0111660D01*
X0136409Y0111760D01*
X0136293Y0111858D01*
X0136174Y0111952D01*
X0136053Y0112043D01*
X0135929Y0112131D01*
X0135803Y0112216D01*
X0135676Y0112297D01*
X0135546Y0112376D01*
X0135414Y0112451D01*
X0135281Y0112522D01*
X0135145Y0112591D01*
X0135008Y0112656D01*
X0134870Y0112717D01*
X0134729Y0112775D01*
X0134588Y0112829D01*
X0134445Y0112880D01*
X0134301Y0112927D01*
X0134156Y0112971D01*
X0134009Y0113010D01*
X0133862Y0113046D01*
X0133714Y0113079D01*
X0133565Y0113107D01*
X0133415Y0113132D01*
X0133265Y0113153D01*
X0133115Y0113170D01*
X0132963Y0113184D01*
X0132812Y0113193D01*
X0132661Y0113199D01*
X0132509Y0113201D01*
X0137309Y0103601D02*
X0137217Y0103482D01*
X0137123Y0103365D01*
X0137025Y0103251D01*
X0136925Y0103139D01*
X0136821Y0103029D01*
X0136716Y0102923D01*
X0136607Y0102818D01*
X0136496Y0102717D01*
X0136382Y0102619D01*
X0136266Y0102523D01*
X0136148Y0102430D01*
X0136027Y0102341D01*
X0135904Y0102254D01*
X0135779Y0102171D01*
X0135652Y0102090D01*
X0135523Y0102013D01*
X0135392Y0101939D01*
X0135259Y0101868D01*
X0135125Y0101801D01*
X0134989Y0101737D01*
X0134851Y0101677D01*
X0134712Y0101620D01*
X0134571Y0101567D01*
X0134429Y0101517D01*
X0134286Y0101470D01*
X0134142Y0101428D01*
X0133997Y0101388D01*
X0133851Y0101353D01*
X0133704Y0101321D01*
X0133556Y0101293D01*
X0133408Y0101269D01*
X0133259Y0101248D01*
X0133109Y0101231D01*
X0132960Y0101218D01*
X0132810Y0101209D01*
X0132659Y0101203D01*
X0132509Y0101201D01*
X0127773Y0110884D02*
X0127867Y0111003D01*
X0127965Y0111119D01*
X0128065Y0111233D01*
X0128169Y0111344D01*
X0128275Y0111452D01*
X0128383Y0111558D01*
X0128495Y0111660D01*
X0128609Y0111760D01*
X0128725Y0111858D01*
X0128844Y0111952D01*
X0128965Y0112043D01*
X0129089Y0112131D01*
X0129215Y0112216D01*
X0129342Y0112297D01*
X0129472Y0112376D01*
X0129604Y0112451D01*
X0129737Y0112522D01*
X0129873Y0112591D01*
X0130010Y0112656D01*
X0130148Y0112717D01*
X0130289Y0112775D01*
X0130430Y0112829D01*
X0130573Y0112880D01*
X0130717Y0112927D01*
X0130862Y0112971D01*
X0131009Y0113010D01*
X0131156Y0113046D01*
X0131304Y0113079D01*
X0131453Y0113107D01*
X0131603Y0113132D01*
X0131753Y0113153D01*
X0131903Y0113170D01*
X0132055Y0113184D01*
X0132206Y0113193D01*
X0132357Y0113199D01*
X0132509Y0113201D01*
X0132415Y0082410D02*
X0131347Y0081343D01*
X0131347Y0077072D01*
X0132415Y0076005D01*
X0134550Y0076005D01*
X0135617Y0077072D01*
X0135617Y0081343D02*
X0134550Y0082410D01*
X0132415Y0082410D01*
X0129172Y0081343D02*
X0128104Y0082410D01*
X0125969Y0082410D01*
X0124902Y0081343D01*
X0122740Y0082410D02*
X0120605Y0082410D01*
X0121672Y0082410D02*
X0121672Y0076005D01*
X0120605Y0076005D02*
X0122740Y0076005D01*
X0124902Y0076005D02*
X0129172Y0080275D01*
X0129172Y0081343D01*
X0129172Y0076005D02*
X0124902Y0076005D01*
X0111984Y0076005D02*
X0111984Y0082410D01*
X0107714Y0082410D02*
X0111984Y0076005D01*
X0107714Y0076005D02*
X0107714Y0082410D01*
X0105538Y0082410D02*
X0101268Y0082410D01*
X0101268Y0076005D01*
X0105538Y0076005D01*
X0103403Y0079208D02*
X0101268Y0079208D01*
X0099093Y0082410D02*
X0099093Y0076005D01*
X0094823Y0076005D02*
X0094823Y0082410D01*
X0096958Y0080275D01*
X0099093Y0082410D01*
X0092661Y0082410D02*
X0090526Y0082410D01*
X0091593Y0082410D02*
X0091593Y0076005D01*
X0090526Y0076005D02*
X0092661Y0076005D01*
X0088350Y0076005D02*
X0086215Y0078140D01*
X0087283Y0078140D02*
X0084080Y0078140D01*
X0084080Y0076005D02*
X0084080Y0082410D01*
X0087283Y0082410D01*
X0088350Y0081343D01*
X0088350Y0079208D01*
X0087283Y0078140D01*
X0081905Y0079208D02*
X0077635Y0079208D01*
X0075459Y0082410D02*
X0075459Y0076005D01*
X0071189Y0082410D01*
X0071189Y0076005D01*
X0069014Y0076005D02*
X0064744Y0076005D01*
X0064744Y0082410D01*
X0069014Y0082410D01*
X0066879Y0079208D02*
X0064744Y0079208D01*
X0062568Y0082410D02*
X0058298Y0082410D01*
X0058298Y0076005D01*
X0062568Y0076005D01*
X0060433Y0079208D02*
X0058298Y0079208D01*
X0056123Y0079208D02*
X0051853Y0079208D01*
X0049677Y0081343D02*
X0048610Y0082410D01*
X0046475Y0082410D01*
X0045407Y0081343D01*
X0045407Y0077072D01*
X0046475Y0076005D01*
X0048610Y0076005D01*
X0049677Y0077072D01*
X0051853Y0076005D02*
X0051853Y0082410D01*
X0056123Y0082410D02*
X0056123Y0076005D01*
X0055619Y0058658D02*
X0053119Y0056158D01*
X0053119Y0051158D01*
X0055619Y0048658D01*
X0060619Y0048658D01*
X0063119Y0051158D01*
X0063119Y0056158D01*
X0060619Y0058658D01*
X0055619Y0058658D01*
X0063119Y0056158D02*
X0065619Y0058658D01*
X0070619Y0058658D01*
X0073119Y0056158D01*
X0075619Y0058658D01*
X0080619Y0058658D01*
X0083119Y0056158D01*
X0085619Y0058658D01*
X0090619Y0058658D01*
X0093119Y0056158D01*
X0095619Y0058658D01*
X0100619Y0058658D01*
X0103119Y0056158D01*
X0105619Y0058658D01*
X0110619Y0058658D01*
X0113119Y0056158D01*
X0115619Y0058658D01*
X0120619Y0058658D01*
X0123119Y0056158D01*
X0125619Y0058658D01*
X0130619Y0058658D01*
X0133119Y0056158D01*
X0135619Y0058658D01*
X0140619Y0058658D01*
X0143119Y0056158D01*
X0145619Y0058658D01*
X0150619Y0058658D01*
X0153119Y0056158D01*
X0155619Y0058658D01*
X0160619Y0058658D01*
X0163119Y0056158D01*
X0165619Y0058658D01*
X0170619Y0058658D01*
X0173119Y0056158D01*
X0175619Y0058658D01*
X0180619Y0058658D01*
X0183119Y0056158D01*
X0185619Y0058658D01*
X0190619Y0058658D01*
X0193119Y0056158D01*
X0195619Y0058658D01*
X0200619Y0058658D01*
X0203119Y0056158D01*
X0205619Y0058658D01*
X0210619Y0058658D01*
X0213119Y0056158D01*
X0215619Y0058658D01*
X0220619Y0058658D01*
X0223119Y0056158D01*
X0225619Y0058658D01*
X0230619Y0058658D01*
X0233119Y0056158D01*
X0233119Y0051158D01*
X0230619Y0048658D01*
X0225619Y0048658D01*
X0223119Y0051158D01*
X0220619Y0048658D01*
X0215619Y0048658D01*
X0213119Y0051158D01*
X0213119Y0056158D01*
X0213119Y0051158D02*
X0210619Y0048658D01*
X0205619Y0048658D01*
X0203119Y0051158D01*
X0200619Y0048658D01*
X0195619Y0048658D01*
X0193119Y0051158D01*
X0190619Y0048658D01*
X0185619Y0048658D01*
X0183119Y0051158D01*
X0183119Y0056158D01*
X0183119Y0051158D02*
X0180619Y0048658D01*
X0175619Y0048658D01*
X0173119Y0051158D01*
X0170619Y0048658D01*
X0165619Y0048658D01*
X0163119Y0051158D01*
X0160619Y0048658D01*
X0155619Y0048658D01*
X0153119Y0051158D01*
X0153119Y0056158D01*
X0153119Y0051158D02*
X0150619Y0048658D01*
X0145619Y0048658D01*
X0143119Y0051158D01*
X0140619Y0048658D01*
X0135619Y0048658D01*
X0133119Y0051158D01*
X0130619Y0048658D01*
X0125619Y0048658D01*
X0123119Y0051158D01*
X0123119Y0056158D01*
X0123119Y0051158D02*
X0120619Y0048658D01*
X0115619Y0048658D01*
X0113119Y0051158D01*
X0110619Y0048658D01*
X0105619Y0048658D01*
X0103119Y0051158D01*
X0100619Y0048658D01*
X0095619Y0048658D01*
X0093119Y0051158D01*
X0093119Y0056158D01*
X0093119Y0051158D02*
X0090619Y0048658D01*
X0085619Y0048658D01*
X0083119Y0051158D01*
X0080619Y0048658D01*
X0075619Y0048658D01*
X0073119Y0051158D01*
X0070619Y0048658D01*
X0065619Y0048658D01*
X0063119Y0051158D01*
X0073119Y0051158D02*
X0073119Y0056158D01*
X0083119Y0056158D02*
X0083119Y0051158D01*
X0103119Y0051158D02*
X0103119Y0056158D01*
X0113119Y0056158D02*
X0113119Y0051158D01*
X0133119Y0051158D02*
X0133119Y0056158D01*
X0143119Y0056158D02*
X0143119Y0051158D01*
X0145306Y0076005D02*
X0144238Y0077072D01*
X0145306Y0076005D02*
X0147441Y0076005D01*
X0148508Y0077072D01*
X0148508Y0078140D01*
X0147441Y0079208D01*
X0145306Y0079208D01*
X0144238Y0080275D01*
X0144238Y0081343D01*
X0145306Y0082410D01*
X0147441Y0082410D01*
X0148508Y0081343D01*
X0150684Y0082410D02*
X0150684Y0076005D01*
X0150684Y0079208D02*
X0151751Y0080275D01*
X0153886Y0080275D01*
X0154954Y0079208D01*
X0154954Y0076005D01*
X0157129Y0076005D02*
X0159264Y0076005D01*
X0158197Y0076005D02*
X0158197Y0080275D01*
X0157129Y0080275D01*
X0158197Y0082410D02*
X0158197Y0083478D01*
X0161426Y0079208D02*
X0162494Y0080275D01*
X0164629Y0080275D01*
X0165696Y0079208D01*
X0165696Y0078140D01*
X0161426Y0078140D01*
X0161426Y0077072D02*
X0161426Y0079208D01*
X0161426Y0077072D02*
X0162494Y0076005D01*
X0164629Y0076005D01*
X0167872Y0076005D02*
X0170007Y0076005D01*
X0168939Y0076005D02*
X0168939Y0082410D01*
X0167872Y0082410D01*
X0172169Y0079208D02*
X0173236Y0080275D01*
X0176439Y0080275D01*
X0176439Y0082410D02*
X0176439Y0076005D01*
X0173236Y0076005D01*
X0172169Y0077072D01*
X0172169Y0079208D01*
X0185060Y0080275D02*
X0187195Y0076005D01*
X0189330Y0080275D01*
X0191505Y0081343D02*
X0192573Y0082410D01*
X0194708Y0082410D01*
X0195775Y0081343D01*
X0191505Y0077072D01*
X0192573Y0076005D01*
X0194708Y0076005D01*
X0195775Y0077072D01*
X0195775Y0081343D01*
X0191505Y0081343D02*
X0191505Y0077072D01*
X0197951Y0077072D02*
X0197951Y0076005D01*
X0199018Y0076005D01*
X0199018Y0077072D01*
X0197951Y0077072D01*
X0201173Y0076005D02*
X0205444Y0080275D01*
X0205444Y0081343D01*
X0204376Y0082410D01*
X0202241Y0082410D01*
X0201173Y0081343D01*
X0201173Y0076005D02*
X0205444Y0076005D01*
X0203119Y0056158D02*
X0203119Y0051158D01*
X0193119Y0051158D02*
X0193119Y0056158D01*
X0173119Y0056158D02*
X0173119Y0051158D01*
X0163119Y0051158D02*
X0163119Y0056158D01*
X0198626Y0115772D02*
X0198626Y0119872D01*
X0204426Y0128172D02*
X0206026Y0129772D01*
X0201826Y0160672D02*
X0201826Y0164672D01*
X0173526Y0141772D02*
X0169526Y0141772D01*
X0223119Y0056158D02*
X0223119Y0051158D01*
X0246013Y0072811D02*
X0248513Y0070311D01*
X0253513Y0070311D01*
X0256013Y0072811D01*
X0256013Y0077811D01*
X0253513Y0080311D01*
X0248513Y0080311D01*
X0246013Y0077811D01*
X0246013Y0072811D01*
X0317560Y0174067D02*
X0328560Y0174067D01*
X0328620Y0174069D01*
X0328681Y0174074D01*
X0328740Y0174083D01*
X0328799Y0174096D01*
X0328858Y0174112D01*
X0328915Y0174132D01*
X0328970Y0174155D01*
X0329025Y0174182D01*
X0329077Y0174211D01*
X0329128Y0174244D01*
X0329177Y0174280D01*
X0329223Y0174318D01*
X0329267Y0174360D01*
X0329309Y0174404D01*
X0329347Y0174450D01*
X0329383Y0174499D01*
X0329416Y0174550D01*
X0329445Y0174602D01*
X0329472Y0174657D01*
X0329495Y0174712D01*
X0329515Y0174769D01*
X0329531Y0174828D01*
X0329544Y0174887D01*
X0329553Y0174946D01*
X0329558Y0175007D01*
X0329560Y0175067D01*
X0329560Y0181067D01*
X0329558Y0181127D01*
X0329553Y0181188D01*
X0329544Y0181247D01*
X0329531Y0181306D01*
X0329515Y0181365D01*
X0329495Y0181422D01*
X0329472Y0181477D01*
X0329445Y0181532D01*
X0329416Y0181584D01*
X0329383Y0181635D01*
X0329347Y0181684D01*
X0329309Y0181730D01*
X0329267Y0181774D01*
X0329223Y0181816D01*
X0329177Y0181854D01*
X0329128Y0181890D01*
X0329077Y0181923D01*
X0329025Y0181952D01*
X0328970Y0181979D01*
X0328915Y0182002D01*
X0328858Y0182022D01*
X0328799Y0182038D01*
X0328740Y0182051D01*
X0328681Y0182060D01*
X0328620Y0182065D01*
X0328560Y0182067D01*
X0317560Y0182067D01*
X0317500Y0182065D01*
X0317439Y0182060D01*
X0317380Y0182051D01*
X0317321Y0182038D01*
X0317262Y0182022D01*
X0317205Y0182002D01*
X0317150Y0181979D01*
X0317095Y0181952D01*
X0317043Y0181923D01*
X0316992Y0181890D01*
X0316943Y0181854D01*
X0316897Y0181816D01*
X0316853Y0181774D01*
X0316811Y0181730D01*
X0316773Y0181684D01*
X0316737Y0181635D01*
X0316704Y0181584D01*
X0316675Y0181532D01*
X0316648Y0181477D01*
X0316625Y0181422D01*
X0316605Y0181365D01*
X0316589Y0181306D01*
X0316576Y0181247D01*
X0316567Y0181188D01*
X0316562Y0181127D01*
X0316560Y0181067D01*
X0316560Y0175067D01*
X0316562Y0175007D01*
X0316567Y0174946D01*
X0316576Y0174887D01*
X0316589Y0174828D01*
X0316605Y0174769D01*
X0316625Y0174712D01*
X0316648Y0174657D01*
X0316675Y0174602D01*
X0316704Y0174550D01*
X0316737Y0174499D01*
X0316773Y0174450D01*
X0316811Y0174404D01*
X0316853Y0174360D01*
X0316897Y0174318D01*
X0316943Y0174280D01*
X0316992Y0174244D01*
X0317043Y0174211D01*
X0317095Y0174182D01*
X0317150Y0174155D01*
X0317205Y0174132D01*
X0317262Y0174112D01*
X0317321Y0174096D01*
X0317380Y0174083D01*
X0317439Y0174074D01*
X0317500Y0174069D01*
X0317560Y0174067D01*
X0317560Y0184303D02*
X0328560Y0184303D01*
X0328620Y0184305D01*
X0328681Y0184310D01*
X0328740Y0184319D01*
X0328799Y0184332D01*
X0328858Y0184348D01*
X0328915Y0184368D01*
X0328970Y0184391D01*
X0329025Y0184418D01*
X0329077Y0184447D01*
X0329128Y0184480D01*
X0329177Y0184516D01*
X0329223Y0184554D01*
X0329267Y0184596D01*
X0329309Y0184640D01*
X0329347Y0184686D01*
X0329383Y0184735D01*
X0329416Y0184786D01*
X0329445Y0184838D01*
X0329472Y0184893D01*
X0329495Y0184948D01*
X0329515Y0185005D01*
X0329531Y0185064D01*
X0329544Y0185123D01*
X0329553Y0185182D01*
X0329558Y0185243D01*
X0329560Y0185303D01*
X0329560Y0191303D01*
X0329558Y0191363D01*
X0329553Y0191424D01*
X0329544Y0191483D01*
X0329531Y0191542D01*
X0329515Y0191601D01*
X0329495Y0191658D01*
X0329472Y0191713D01*
X0329445Y0191768D01*
X0329416Y0191820D01*
X0329383Y0191871D01*
X0329347Y0191920D01*
X0329309Y0191966D01*
X0329267Y0192010D01*
X0329223Y0192052D01*
X0329177Y0192090D01*
X0329128Y0192126D01*
X0329077Y0192159D01*
X0329025Y0192188D01*
X0328970Y0192215D01*
X0328915Y0192238D01*
X0328858Y0192258D01*
X0328799Y0192274D01*
X0328740Y0192287D01*
X0328681Y0192296D01*
X0328620Y0192301D01*
X0328560Y0192303D01*
X0317560Y0192303D01*
X0317500Y0192301D01*
X0317439Y0192296D01*
X0317380Y0192287D01*
X0317321Y0192274D01*
X0317262Y0192258D01*
X0317205Y0192238D01*
X0317150Y0192215D01*
X0317095Y0192188D01*
X0317043Y0192159D01*
X0316992Y0192126D01*
X0316943Y0192090D01*
X0316897Y0192052D01*
X0316853Y0192010D01*
X0316811Y0191966D01*
X0316773Y0191920D01*
X0316737Y0191871D01*
X0316704Y0191820D01*
X0316675Y0191768D01*
X0316648Y0191713D01*
X0316625Y0191658D01*
X0316605Y0191601D01*
X0316589Y0191542D01*
X0316576Y0191483D01*
X0316567Y0191424D01*
X0316562Y0191363D01*
X0316560Y0191303D01*
X0316560Y0185303D01*
X0316562Y0185243D01*
X0316567Y0185182D01*
X0316576Y0185123D01*
X0316589Y0185064D01*
X0316605Y0185005D01*
X0316625Y0184948D01*
X0316648Y0184893D01*
X0316675Y0184838D01*
X0316704Y0184786D01*
X0316737Y0184735D01*
X0316773Y0184686D01*
X0316811Y0184640D01*
X0316853Y0184596D01*
X0316897Y0184554D01*
X0316943Y0184516D01*
X0316992Y0184480D01*
X0317043Y0184447D01*
X0317095Y0184418D01*
X0317150Y0184391D01*
X0317205Y0184368D01*
X0317262Y0184348D01*
X0317321Y0184332D01*
X0317380Y0184319D01*
X0317439Y0184310D01*
X0317500Y0184305D01*
X0317560Y0184303D01*
X0317560Y0193752D02*
X0328560Y0193752D01*
X0328620Y0193754D01*
X0328681Y0193759D01*
X0328740Y0193768D01*
X0328799Y0193781D01*
X0328858Y0193797D01*
X0328915Y0193817D01*
X0328970Y0193840D01*
X0329025Y0193867D01*
X0329077Y0193896D01*
X0329128Y0193929D01*
X0329177Y0193965D01*
X0329223Y0194003D01*
X0329267Y0194045D01*
X0329309Y0194089D01*
X0329347Y0194135D01*
X0329383Y0194184D01*
X0329416Y0194235D01*
X0329445Y0194287D01*
X0329472Y0194342D01*
X0329495Y0194397D01*
X0329515Y0194454D01*
X0329531Y0194513D01*
X0329544Y0194572D01*
X0329553Y0194631D01*
X0329558Y0194692D01*
X0329560Y0194752D01*
X0329560Y0200752D01*
X0329558Y0200812D01*
X0329553Y0200873D01*
X0329544Y0200932D01*
X0329531Y0200991D01*
X0329515Y0201050D01*
X0329495Y0201107D01*
X0329472Y0201162D01*
X0329445Y0201217D01*
X0329416Y0201269D01*
X0329383Y0201320D01*
X0329347Y0201369D01*
X0329309Y0201415D01*
X0329267Y0201459D01*
X0329223Y0201501D01*
X0329177Y0201539D01*
X0329128Y0201575D01*
X0329077Y0201608D01*
X0329025Y0201637D01*
X0328970Y0201664D01*
X0328915Y0201687D01*
X0328858Y0201707D01*
X0328799Y0201723D01*
X0328740Y0201736D01*
X0328681Y0201745D01*
X0328620Y0201750D01*
X0328560Y0201752D01*
X0317560Y0201752D01*
X0317500Y0201750D01*
X0317439Y0201745D01*
X0317380Y0201736D01*
X0317321Y0201723D01*
X0317262Y0201707D01*
X0317205Y0201687D01*
X0317150Y0201664D01*
X0317095Y0201637D01*
X0317043Y0201608D01*
X0316992Y0201575D01*
X0316943Y0201539D01*
X0316897Y0201501D01*
X0316853Y0201459D01*
X0316811Y0201415D01*
X0316773Y0201369D01*
X0316737Y0201320D01*
X0316704Y0201269D01*
X0316675Y0201217D01*
X0316648Y0201162D01*
X0316625Y0201107D01*
X0316605Y0201050D01*
X0316589Y0200991D01*
X0316576Y0200932D01*
X0316567Y0200873D01*
X0316562Y0200812D01*
X0316560Y0200752D01*
X0316560Y0194752D01*
X0316562Y0194692D01*
X0316567Y0194631D01*
X0316576Y0194572D01*
X0316589Y0194513D01*
X0316605Y0194454D01*
X0316625Y0194397D01*
X0316648Y0194342D01*
X0316675Y0194287D01*
X0316704Y0194235D01*
X0316737Y0194184D01*
X0316773Y0194135D01*
X0316811Y0194089D01*
X0316853Y0194045D01*
X0316897Y0194003D01*
X0316943Y0193965D01*
X0316992Y0193929D01*
X0317043Y0193896D01*
X0317095Y0193867D01*
X0317150Y0193840D01*
X0317205Y0193817D01*
X0317262Y0193797D01*
X0317321Y0193781D01*
X0317380Y0193768D01*
X0317439Y0193759D01*
X0317500Y0193754D01*
X0317560Y0193752D01*
X0317560Y0203201D02*
X0328560Y0203201D01*
X0328620Y0203203D01*
X0328681Y0203208D01*
X0328740Y0203217D01*
X0328799Y0203230D01*
X0328858Y0203246D01*
X0328915Y0203266D01*
X0328970Y0203289D01*
X0329025Y0203316D01*
X0329077Y0203345D01*
X0329128Y0203378D01*
X0329177Y0203414D01*
X0329223Y0203452D01*
X0329267Y0203494D01*
X0329309Y0203538D01*
X0329347Y0203584D01*
X0329383Y0203633D01*
X0329416Y0203684D01*
X0329445Y0203736D01*
X0329472Y0203791D01*
X0329495Y0203846D01*
X0329515Y0203903D01*
X0329531Y0203962D01*
X0329544Y0204021D01*
X0329553Y0204080D01*
X0329558Y0204141D01*
X0329560Y0204201D01*
X0329560Y0210201D01*
X0329558Y0210261D01*
X0329553Y0210322D01*
X0329544Y0210381D01*
X0329531Y0210440D01*
X0329515Y0210499D01*
X0329495Y0210556D01*
X0329472Y0210611D01*
X0329445Y0210666D01*
X0329416Y0210718D01*
X0329383Y0210769D01*
X0329347Y0210818D01*
X0329309Y0210864D01*
X0329267Y0210908D01*
X0329223Y0210950D01*
X0329177Y0210988D01*
X0329128Y0211024D01*
X0329077Y0211057D01*
X0329025Y0211086D01*
X0328970Y0211113D01*
X0328915Y0211136D01*
X0328858Y0211156D01*
X0328799Y0211172D01*
X0328740Y0211185D01*
X0328681Y0211194D01*
X0328620Y0211199D01*
X0328560Y0211201D01*
X0317560Y0211201D01*
X0317500Y0211199D01*
X0317439Y0211194D01*
X0317380Y0211185D01*
X0317321Y0211172D01*
X0317262Y0211156D01*
X0317205Y0211136D01*
X0317150Y0211113D01*
X0317095Y0211086D01*
X0317043Y0211057D01*
X0316992Y0211024D01*
X0316943Y0210988D01*
X0316897Y0210950D01*
X0316853Y0210908D01*
X0316811Y0210864D01*
X0316773Y0210818D01*
X0316737Y0210769D01*
X0316704Y0210718D01*
X0316675Y0210666D01*
X0316648Y0210611D01*
X0316625Y0210556D01*
X0316605Y0210499D01*
X0316589Y0210440D01*
X0316576Y0210381D01*
X0316567Y0210322D01*
X0316562Y0210261D01*
X0316560Y0210201D01*
X0316560Y0204201D01*
X0316562Y0204141D01*
X0316567Y0204080D01*
X0316576Y0204021D01*
X0316589Y0203962D01*
X0316605Y0203903D01*
X0316625Y0203846D01*
X0316648Y0203791D01*
X0316675Y0203736D01*
X0316704Y0203684D01*
X0316737Y0203633D01*
X0316773Y0203584D01*
X0316811Y0203538D01*
X0316853Y0203494D01*
X0316897Y0203452D01*
X0316943Y0203414D01*
X0316992Y0203378D01*
X0317043Y0203345D01*
X0317095Y0203316D01*
X0317150Y0203289D01*
X0317205Y0203266D01*
X0317262Y0203246D01*
X0317321Y0203230D01*
X0317380Y0203217D01*
X0317439Y0203208D01*
X0317500Y0203203D01*
X0317560Y0203201D01*
X0331446Y0205291D02*
X0333946Y0202791D01*
X0338946Y0202791D01*
X0341446Y0205291D01*
X0341446Y0210291D01*
X0338946Y0212791D01*
X0333946Y0212791D01*
X0331446Y0210291D01*
X0331446Y0205291D01*
X0333946Y0202791D02*
X0331446Y0200291D01*
X0331446Y0195291D01*
X0333946Y0192791D01*
X0338946Y0192791D01*
X0341446Y0195291D01*
X0341446Y0200291D01*
X0338946Y0202791D01*
X0338946Y0192791D02*
X0341446Y0190291D01*
X0341446Y0185291D01*
X0338946Y0182791D01*
X0341446Y0180291D01*
X0341446Y0175291D01*
X0338946Y0172791D01*
X0341446Y0170291D01*
X0341446Y0165291D01*
X0338946Y0162791D01*
X0341446Y0160291D01*
X0341446Y0155291D01*
X0338946Y0152791D01*
X0333946Y0152791D01*
X0331446Y0155291D01*
X0331446Y0160291D01*
X0333946Y0162791D01*
X0331446Y0165291D01*
X0331446Y0170291D01*
X0333946Y0172791D01*
X0338946Y0172791D01*
X0333946Y0172791D02*
X0331446Y0175291D01*
X0331446Y0180291D01*
X0333946Y0182791D01*
X0331446Y0185291D01*
X0331446Y0190291D01*
X0333946Y0192791D01*
X0333946Y0182791D02*
X0338946Y0182791D01*
X0338946Y0162791D02*
X0333946Y0162791D01*
X0368591Y0123776D02*
X0373591Y0123776D01*
X0376091Y0121276D01*
X0376091Y0116276D01*
X0373591Y0113776D01*
X0376091Y0111276D01*
X0376091Y0106276D01*
X0373591Y0103776D01*
X0376091Y0101276D01*
X0376091Y0096276D01*
X0373591Y0093776D01*
X0368591Y0093776D01*
X0366091Y0096276D01*
X0366091Y0101276D01*
X0368591Y0103776D01*
X0366091Y0106276D01*
X0366091Y0111276D01*
X0368591Y0113776D01*
X0366091Y0116276D01*
X0366091Y0121276D01*
X0368591Y0123776D01*
X0368591Y0113776D02*
X0373591Y0113776D01*
X0373591Y0103776D02*
X0368591Y0103776D01*
X0259694Y0306532D02*
X0254694Y0306532D01*
X0252194Y0309032D01*
X0249694Y0306532D01*
X0244694Y0306532D01*
X0242194Y0309032D01*
X0242194Y0314032D01*
X0244694Y0316532D01*
X0249694Y0316532D01*
X0252194Y0314032D01*
X0254694Y0316532D01*
X0259694Y0316532D01*
X0262194Y0314032D01*
X0262194Y0309032D01*
X0259694Y0306532D01*
X0252194Y0309032D02*
X0252194Y0314032D01*
X0177666Y0280567D02*
X0177666Y0275567D01*
X0175166Y0273067D01*
X0170166Y0273067D01*
X0167666Y0275567D01*
X0167666Y0280567D01*
X0170166Y0283067D01*
X0175166Y0283067D01*
X0177666Y0280567D01*
D14*
X0149164Y0197630D02*
X0149647Y0197146D01*
X0149647Y0195211D01*
X0149164Y0194727D01*
X0148196Y0194727D01*
X0147713Y0195211D01*
X0147713Y0197146D01*
X0148196Y0197630D01*
X0149164Y0197630D01*
X0146701Y0197146D02*
X0146217Y0197630D01*
X0145250Y0197630D01*
X0144766Y0197146D01*
X0144766Y0196662D01*
X0145250Y0196178D01*
X0146217Y0196178D01*
X0146701Y0195695D01*
X0146701Y0195211D01*
X0146217Y0194727D01*
X0145250Y0194727D01*
X0144766Y0195211D01*
X0143769Y0194727D02*
X0142802Y0194727D01*
X0143285Y0194727D02*
X0143285Y0197630D01*
X0142802Y0197630D02*
X0143769Y0197630D01*
X0141790Y0197630D02*
X0141790Y0194727D01*
X0139855Y0194727D02*
X0139855Y0197630D01*
X0140823Y0196662D01*
X0141790Y0197630D01*
X0137642Y0197630D02*
X0135707Y0195695D01*
X0136190Y0196178D02*
X0137642Y0194727D01*
X0135707Y0194727D02*
X0135707Y0197630D01*
X0134695Y0197146D02*
X0134211Y0197630D01*
X0133244Y0197630D01*
X0132760Y0197146D01*
X0132760Y0195211D01*
X0133244Y0194727D01*
X0134211Y0194727D01*
X0134695Y0195211D01*
X0131749Y0195211D02*
X0131265Y0194727D01*
X0130297Y0194727D01*
X0129814Y0195211D01*
X0130297Y0196178D02*
X0131265Y0196178D01*
X0131749Y0195695D01*
X0131749Y0195211D01*
X0130297Y0196178D02*
X0129814Y0196662D01*
X0129814Y0197146D01*
X0130297Y0197630D01*
X0131265Y0197630D01*
X0131749Y0197146D01*
X0127405Y0197630D02*
X0125470Y0197630D01*
X0126438Y0197630D02*
X0126438Y0194727D01*
X0124459Y0195211D02*
X0123975Y0194727D01*
X0123008Y0194727D01*
X0122524Y0195211D01*
X0123008Y0196178D02*
X0123975Y0196178D01*
X0124459Y0195695D01*
X0124459Y0195211D01*
X0123008Y0196178D02*
X0122524Y0196662D01*
X0122524Y0197146D01*
X0123008Y0197630D01*
X0123975Y0197630D01*
X0124459Y0197146D01*
X0121512Y0197146D02*
X0121512Y0196178D01*
X0121029Y0195695D01*
X0119577Y0195695D01*
X0119577Y0194727D02*
X0119577Y0197630D01*
X0121029Y0197630D01*
X0121512Y0197146D01*
X0120545Y0195695D02*
X0121512Y0194727D01*
X0121029Y0173220D02*
X0120061Y0173220D01*
X0119577Y0172736D01*
X0119577Y0170802D01*
X0120061Y0170318D01*
X0121029Y0170318D01*
X0121512Y0170802D01*
X0121512Y0171769D01*
X0120545Y0171769D01*
X0121512Y0172736D02*
X0121029Y0173220D01*
X0122524Y0173220D02*
X0124459Y0170318D01*
X0124459Y0173220D01*
X0125470Y0173220D02*
X0126922Y0173220D01*
X0127405Y0172736D01*
X0127405Y0170802D01*
X0126922Y0170318D01*
X0125470Y0170318D01*
X0125470Y0173220D01*
X0122524Y0173220D02*
X0122524Y0170318D01*
X0128832Y0170318D02*
X0128832Y0173220D01*
X0129799Y0172253D01*
X0130766Y0173220D01*
X0130766Y0170318D01*
X0131778Y0170802D02*
X0132262Y0170318D01*
X0133229Y0170318D01*
X0133713Y0170802D01*
X0133713Y0172736D01*
X0133229Y0173220D01*
X0132262Y0173220D01*
X0131778Y0172736D01*
X0131778Y0170802D01*
X0134725Y0170802D02*
X0135208Y0170318D01*
X0136176Y0170318D01*
X0136660Y0170802D01*
X0136660Y0171285D01*
X0136176Y0171769D01*
X0135208Y0171769D01*
X0134725Y0172253D01*
X0134725Y0172736D01*
X0135208Y0173220D01*
X0136176Y0173220D01*
X0136660Y0172736D01*
X0137671Y0173220D02*
X0138639Y0173220D01*
X0138155Y0173220D02*
X0138155Y0170318D01*
X0137671Y0170318D02*
X0138639Y0170318D01*
X0140837Y0171285D02*
X0141805Y0170318D01*
X0142772Y0171285D01*
X0142772Y0173220D01*
X0143784Y0172736D02*
X0143784Y0170802D01*
X0144268Y0170318D01*
X0145235Y0170318D01*
X0145719Y0170802D01*
X0146730Y0170802D02*
X0147214Y0170318D01*
X0148182Y0170318D01*
X0148665Y0170802D01*
X0148665Y0172736D02*
X0148182Y0173220D01*
X0147214Y0173220D01*
X0146730Y0172736D01*
X0146730Y0170802D01*
X0145719Y0172736D02*
X0145235Y0173220D01*
X0144268Y0173220D01*
X0143784Y0172736D01*
X0140837Y0173220D02*
X0140837Y0171285D01*
X0141600Y0157472D02*
X0143535Y0157472D01*
X0143535Y0156988D01*
X0141600Y0155053D01*
X0141600Y0154570D01*
X0140588Y0154570D02*
X0138653Y0154570D01*
X0139621Y0154570D02*
X0139621Y0157472D01*
X0138653Y0156505D01*
X0137642Y0156988D02*
X0135707Y0155053D01*
X0136190Y0154570D01*
X0137158Y0154570D01*
X0137642Y0155053D01*
X0137642Y0156988D01*
X0137158Y0157472D01*
X0136190Y0157472D01*
X0135707Y0156988D01*
X0135707Y0155053D01*
X0134695Y0156021D02*
X0132760Y0156021D01*
X0134211Y0157472D01*
X0134211Y0154570D01*
X0131749Y0154570D02*
X0130297Y0156021D01*
X0129814Y0155537D02*
X0131749Y0157472D01*
X0129814Y0157472D02*
X0129814Y0154570D01*
X0128802Y0155053D02*
X0128318Y0154570D01*
X0127351Y0154570D01*
X0126867Y0155053D01*
X0127351Y0156021D02*
X0128318Y0156021D01*
X0128802Y0155537D01*
X0128802Y0155053D01*
X0127351Y0156021D02*
X0126867Y0156505D01*
X0126867Y0156988D01*
X0127351Y0157472D01*
X0128318Y0157472D01*
X0128802Y0156988D01*
X0125856Y0156988D02*
X0125372Y0157472D01*
X0124404Y0157472D01*
X0123921Y0156988D01*
X0125856Y0156988D02*
X0125856Y0156505D01*
X0123921Y0154570D01*
X0125856Y0154570D01*
X0127748Y0147236D02*
X0128232Y0147236D01*
X0128232Y0144334D01*
X0128715Y0144334D02*
X0127748Y0144334D01*
X0126736Y0144817D02*
X0126736Y0145785D01*
X0126253Y0146268D01*
X0125285Y0146268D01*
X0124801Y0145785D01*
X0124801Y0144817D01*
X0125285Y0144334D01*
X0126253Y0144334D01*
X0126736Y0144817D01*
X0123790Y0144817D02*
X0123306Y0144334D01*
X0122338Y0144334D01*
X0121855Y0144817D01*
X0122338Y0145785D02*
X0121855Y0146268D01*
X0121855Y0146752D01*
X0122338Y0147236D01*
X0123306Y0147236D01*
X0123790Y0146752D01*
X0123306Y0145785D02*
X0123790Y0145301D01*
X0123790Y0144817D01*
X0123306Y0145785D02*
X0122338Y0145785D01*
X0129712Y0145785D02*
X0130196Y0146268D01*
X0131163Y0146268D01*
X0131647Y0145785D01*
X0131647Y0145301D01*
X0129712Y0145301D01*
X0129712Y0144817D02*
X0129712Y0145785D01*
X0129712Y0144817D02*
X0130196Y0144334D01*
X0131163Y0144334D01*
X0132659Y0144334D02*
X0132659Y0146268D01*
X0134110Y0146268D01*
X0134594Y0145785D01*
X0134594Y0144334D01*
X0135605Y0144817D02*
X0136089Y0144334D01*
X0137056Y0144334D01*
X0137540Y0144817D01*
X0137540Y0145785D01*
X0137056Y0146268D01*
X0136089Y0146268D01*
X0135605Y0145785D01*
X0135605Y0144817D01*
X0138552Y0144334D02*
X0139519Y0144334D01*
X0139035Y0144334D02*
X0139035Y0146268D01*
X0138552Y0146268D01*
X0139035Y0147236D02*
X0139035Y0147720D01*
X0140516Y0145785D02*
X0141000Y0146268D01*
X0142451Y0146268D01*
X0142451Y0147236D02*
X0142451Y0144334D01*
X0141000Y0144334D01*
X0140516Y0144817D01*
X0140516Y0145785D01*
X0149553Y0149521D02*
X0151405Y0147669D01*
X0151405Y0150138D01*
X0152639Y0151352D02*
X0152639Y0151969D01*
X0153256Y0151969D01*
X0153256Y0151352D01*
X0152639Y0151352D01*
X0152639Y0153194D02*
X0153256Y0153194D01*
X0152639Y0153194D02*
X0150170Y0155662D01*
X0149553Y0155662D01*
X0149553Y0153194D01*
X0149553Y0149521D02*
X0153256Y0149521D01*
X0153256Y0156877D02*
X0149553Y0156877D01*
X0150788Y0158728D02*
X0152022Y0156877D01*
X0153256Y0158728D01*
X0164716Y0159788D02*
X0165950Y0161023D01*
X0165950Y0157319D01*
X0164716Y0157319D02*
X0167184Y0157319D01*
X0168399Y0157319D02*
X0168399Y0161023D01*
X0170250Y0159788D02*
X0168399Y0158554D01*
X0170250Y0157319D01*
X0165578Y0150984D02*
X0165578Y0149750D01*
X0164961Y0148536D02*
X0167430Y0148536D01*
X0167430Y0146684D01*
X0166812Y0146067D01*
X0164961Y0146067D01*
X0163726Y0143618D02*
X0167430Y0143618D01*
X0167430Y0142384D02*
X0167430Y0144853D01*
X0164961Y0142384D02*
X0163726Y0143618D01*
X0166812Y0141159D02*
X0167430Y0141159D01*
X0167430Y0140542D01*
X0166812Y0140542D01*
X0166812Y0141159D01*
X0166812Y0139328D02*
X0167430Y0138711D01*
X0167430Y0137476D01*
X0166812Y0136859D01*
X0164344Y0139328D01*
X0166812Y0139328D01*
X0164344Y0139328D02*
X0163726Y0138711D01*
X0163726Y0137476D01*
X0164344Y0136859D01*
X0166812Y0136859D01*
X0167430Y0149750D02*
X0163726Y0149750D01*
X0163726Y0152219D01*
X0183094Y0149275D02*
X0184839Y0151021D01*
X0186585Y0151021D01*
X0186585Y0149275D01*
X0184839Y0147529D01*
X0186149Y0148839D02*
X0184403Y0150584D01*
X0188317Y0149289D02*
X0190062Y0147543D01*
X0189190Y0148416D02*
X0186571Y0145798D01*
X0188303Y0144066D02*
X0190048Y0145812D01*
X0190485Y0145375D01*
X0190485Y0144503D01*
X0191357Y0144503D01*
X0191357Y0143630D01*
X0190048Y0142321D01*
X0189175Y0143193D02*
X0190485Y0144503D01*
X0192216Y0142771D02*
X0193089Y0142771D01*
X0193962Y0141898D01*
X0193962Y0141025D01*
X0193525Y0140589D01*
X0191780Y0142335D01*
X0192216Y0142771D02*
X0191343Y0141898D01*
X0191343Y0141025D01*
X0192216Y0140153D01*
X0193948Y0139294D02*
X0193948Y0138421D01*
X0195257Y0137112D01*
X0194821Y0136675D02*
X0197003Y0138857D01*
X0195693Y0140167D01*
X0194820Y0140167D01*
X0193948Y0139294D01*
X0193511Y0137112D02*
X0193948Y0136675D01*
X0194821Y0136675D01*
X0196552Y0136689D02*
X0197425Y0136689D01*
X0198734Y0135380D01*
X0199171Y0135817D02*
X0197861Y0134507D01*
X0196552Y0135817D01*
X0196552Y0136689D01*
X0198298Y0137562D02*
X0199171Y0136689D01*
X0199171Y0135817D01*
X0200466Y0135394D02*
X0200902Y0135831D01*
X0201775Y0135831D01*
X0202648Y0134958D01*
X0202648Y0134085D01*
X0202211Y0133649D01*
X0201338Y0133649D01*
X0200466Y0134522D01*
X0200466Y0135394D01*
X0200466Y0134522D02*
X0199593Y0134522D01*
X0199156Y0134085D01*
X0199156Y0133212D01*
X0200029Y0132339D01*
X0200902Y0132339D01*
X0201339Y0132776D01*
X0201338Y0133649D01*
X0202634Y0132354D02*
X0204379Y0130608D01*
X0204816Y0131044D02*
X0203070Y0129299D01*
X0201324Y0131044D02*
X0203070Y0132790D01*
X0204816Y0132790D01*
X0204816Y0131044D01*
X0214540Y0127738D02*
X0217676Y0124602D01*
X0214540Y0127738D01*
X0216108Y0127738D02*
X0216108Y0124602D01*
X0216108Y0127738D01*
X0217676Y0127738D02*
X0214540Y0124602D01*
X0217676Y0127738D01*
X0217676Y0126170D02*
X0214540Y0126170D01*
X0217676Y0126170D01*
X0224186Y0133709D02*
X0223569Y0134327D01*
X0223569Y0135561D01*
X0224186Y0136178D01*
X0226655Y0133709D01*
X0227272Y0134327D01*
X0227272Y0135561D01*
X0226655Y0136178D01*
X0224186Y0136178D01*
X0224186Y0133709D02*
X0226655Y0133709D01*
X0226655Y0137393D02*
X0226655Y0138010D01*
X0227272Y0138010D01*
X0227272Y0137393D01*
X0226655Y0137393D01*
X0227272Y0139234D02*
X0227272Y0141703D01*
X0227272Y0140469D02*
X0223569Y0140469D01*
X0224803Y0139234D01*
X0224803Y0142917D02*
X0226655Y0142917D01*
X0227272Y0143534D01*
X0227272Y0145386D01*
X0224803Y0145386D01*
X0225420Y0146600D02*
X0225420Y0147835D01*
X0223569Y0149069D02*
X0223569Y0146600D01*
X0227272Y0146600D01*
X0222548Y0160361D02*
X0222548Y0162829D01*
X0222548Y0164044D02*
X0218844Y0164044D01*
X0220079Y0165278D01*
X0218844Y0166513D01*
X0222548Y0166513D01*
X0222548Y0161595D02*
X0218844Y0161595D01*
X0220079Y0160361D01*
X0213886Y0172172D02*
X0213886Y0174640D01*
X0213886Y0175855D02*
X0210183Y0175855D01*
X0211417Y0177089D01*
X0210183Y0178324D01*
X0213886Y0178324D01*
X0213886Y0173406D02*
X0210183Y0173406D01*
X0211417Y0172172D01*
X0191820Y0183304D02*
X0191820Y0187007D01*
X0190586Y0185772D01*
X0189352Y0187007D01*
X0189352Y0183304D01*
X0188137Y0183304D02*
X0185668Y0183304D01*
X0186903Y0183304D02*
X0186903Y0187007D01*
X0185668Y0185772D01*
X0180009Y0178345D02*
X0180009Y0174642D01*
X0177541Y0174642D02*
X0177541Y0178345D01*
X0178775Y0177111D01*
X0180009Y0178345D01*
X0175092Y0178345D02*
X0175092Y0174642D01*
X0176326Y0174642D02*
X0173857Y0174642D01*
X0173857Y0177111D02*
X0175092Y0178345D01*
X0173990Y0122440D02*
X0171521Y0122440D01*
X0170307Y0121823D02*
X0167838Y0119354D01*
X0168455Y0118737D01*
X0169689Y0118737D01*
X0170307Y0119354D01*
X0170307Y0121823D01*
X0169689Y0122440D01*
X0168455Y0122440D01*
X0167838Y0121823D01*
X0167838Y0119354D01*
X0166623Y0119354D02*
X0166006Y0118737D01*
X0164772Y0118737D01*
X0164155Y0119354D01*
X0166623Y0121823D01*
X0166623Y0119354D01*
X0164155Y0119354D02*
X0164155Y0121823D01*
X0164772Y0122440D01*
X0166006Y0122440D01*
X0166623Y0121823D01*
X0162940Y0120588D02*
X0160472Y0120588D01*
X0162323Y0122440D01*
X0162323Y0118737D01*
X0159257Y0118737D02*
X0159257Y0122440D01*
X0156788Y0122440D02*
X0156788Y0118737D01*
X0155574Y0118737D02*
X0153105Y0118737D01*
X0154340Y0118737D02*
X0154340Y0122440D01*
X0153105Y0121205D01*
X0156788Y0122440D02*
X0159257Y0118737D01*
X0171521Y0118737D02*
X0171521Y0119354D01*
X0173990Y0121823D01*
X0173990Y0122440D01*
X0180340Y0114566D02*
X0178489Y0112714D01*
X0180957Y0112714D01*
X0182172Y0111480D02*
X0182789Y0111480D01*
X0182789Y0110863D01*
X0182172Y0110863D01*
X0182172Y0111480D01*
X0184013Y0111480D02*
X0184013Y0110863D01*
X0184013Y0111480D02*
X0186482Y0113949D01*
X0186482Y0114566D01*
X0184013Y0114566D01*
X0180340Y0114566D02*
X0180340Y0110863D01*
X0187696Y0110863D02*
X0187696Y0114566D01*
X0189548Y0113331D02*
X0187696Y0112097D01*
X0189548Y0110863D01*
X0196876Y0098030D02*
X0195024Y0096179D01*
X0197493Y0096179D01*
X0198707Y0094944D02*
X0199324Y0094944D01*
X0199324Y0094327D01*
X0198707Y0094327D01*
X0198707Y0094944D01*
X0200549Y0094944D02*
X0200549Y0094327D01*
X0200549Y0094944D02*
X0203018Y0097413D01*
X0203018Y0098030D01*
X0200549Y0098030D01*
X0196876Y0098030D02*
X0196876Y0094327D01*
X0204232Y0094327D02*
X0204232Y0098030D01*
X0206083Y0096796D02*
X0204232Y0095562D01*
X0206083Y0094327D01*
X0217164Y0111650D02*
X0219633Y0111650D01*
X0220848Y0111650D02*
X0220848Y0115353D01*
X0222082Y0114119D01*
X0223316Y0115353D01*
X0223316Y0111650D01*
X0218399Y0111650D02*
X0218399Y0115353D01*
X0217164Y0114119D01*
X0237441Y0068897D02*
X0236824Y0068279D01*
X0236824Y0065811D01*
X0237441Y0065193D01*
X0238675Y0065193D01*
X0239292Y0065811D01*
X0240507Y0065193D02*
X0240507Y0068897D01*
X0239292Y0068279D02*
X0238675Y0068897D01*
X0237441Y0068897D01*
X0240507Y0067045D02*
X0242976Y0067045D01*
X0244190Y0067045D02*
X0245424Y0067045D01*
X0244190Y0068897D02*
X0244190Y0065193D01*
X0246659Y0065193D01*
X0247873Y0065193D02*
X0247873Y0068897D01*
X0250342Y0068897D01*
X0251556Y0068897D02*
X0254025Y0065193D01*
X0254025Y0068897D01*
X0255239Y0067045D02*
X0257708Y0067045D01*
X0258923Y0067662D02*
X0259540Y0067045D01*
X0260774Y0067045D01*
X0261391Y0066428D01*
X0261391Y0065811D01*
X0260774Y0065193D01*
X0259540Y0065193D01*
X0258923Y0065811D01*
X0258923Y0067662D02*
X0258923Y0068279D01*
X0259540Y0068897D01*
X0260774Y0068897D01*
X0261391Y0068279D01*
X0262606Y0068897D02*
X0262606Y0065193D01*
X0263840Y0066428D01*
X0265074Y0065193D01*
X0265074Y0068897D01*
X0251556Y0068897D02*
X0251556Y0065193D01*
X0250342Y0065193D02*
X0247873Y0065193D01*
X0247873Y0067045D02*
X0249108Y0067045D01*
X0246659Y0068897D02*
X0244190Y0068897D01*
X0242976Y0068897D02*
X0242976Y0065193D01*
X0235165Y0045464D02*
X0235165Y0042562D01*
X0235165Y0043529D02*
X0236616Y0044497D01*
X0235165Y0043529D02*
X0236616Y0042562D01*
X0234153Y0044981D02*
X0232218Y0043046D01*
X0232218Y0042562D01*
X0230723Y0042562D02*
X0230723Y0045464D01*
X0229272Y0044013D01*
X0231207Y0044013D01*
X0232218Y0045464D02*
X0234153Y0045464D01*
X0234153Y0044981D01*
X0233150Y0029519D02*
X0234117Y0028552D01*
X0234117Y0026617D01*
X0235129Y0027101D02*
X0235612Y0026617D01*
X0236580Y0026617D01*
X0237064Y0027101D01*
X0237064Y0027584D01*
X0236580Y0028068D01*
X0235129Y0028068D01*
X0235129Y0027101D01*
X0235129Y0028068D02*
X0236096Y0029036D01*
X0237064Y0029519D01*
X0238075Y0028552D02*
X0239043Y0029519D01*
X0239043Y0026617D01*
X0240010Y0026617D02*
X0238075Y0026617D01*
X0241022Y0026617D02*
X0242957Y0026617D01*
X0241989Y0026617D02*
X0241989Y0029519D01*
X0241022Y0028552D01*
X0243968Y0028552D02*
X0244936Y0029519D01*
X0244936Y0026617D01*
X0245903Y0026617D02*
X0243968Y0026617D01*
X0246915Y0026617D02*
X0246915Y0028552D01*
X0247882Y0029519D01*
X0248850Y0028552D01*
X0248850Y0026617D01*
X0249861Y0026617D02*
X0251796Y0028552D01*
X0251796Y0029036D01*
X0251312Y0029519D01*
X0250345Y0029519D01*
X0249861Y0029036D01*
X0248850Y0028068D02*
X0246915Y0028068D01*
X0249861Y0026617D02*
X0251796Y0026617D01*
X0253558Y0024008D02*
X0252106Y0022556D01*
X0254041Y0022556D01*
X0255053Y0021589D02*
X0255053Y0021105D01*
X0255053Y0021589D02*
X0256988Y0023524D01*
X0256988Y0024008D01*
X0255053Y0024008D01*
X0253558Y0024008D02*
X0253558Y0021105D01*
X0258000Y0021105D02*
X0258000Y0024008D01*
X0259451Y0023040D02*
X0258000Y0022073D01*
X0259451Y0021105D01*
X0263278Y0020908D02*
X0265213Y0020908D01*
X0264246Y0020908D02*
X0264246Y0023811D01*
X0263278Y0022843D01*
X0266225Y0022843D02*
X0266225Y0021392D01*
X0266709Y0020908D01*
X0268160Y0020908D01*
X0268160Y0022843D01*
X0269171Y0022360D02*
X0270139Y0022360D01*
X0271106Y0023811D02*
X0269171Y0023811D01*
X0269171Y0020908D01*
X0275466Y0013968D02*
X0274499Y0013001D01*
X0275466Y0013968D02*
X0275466Y0011066D01*
X0274499Y0011066D02*
X0276434Y0011066D01*
X0277445Y0011550D02*
X0277929Y0011066D01*
X0279380Y0011066D01*
X0279380Y0013001D01*
X0280392Y0012517D02*
X0281359Y0012517D01*
X0280392Y0011066D02*
X0280392Y0013968D01*
X0282327Y0013968D01*
X0277445Y0013001D02*
X0277445Y0011550D01*
X0259254Y0009064D02*
X0257803Y0008096D01*
X0259254Y0007129D01*
X0257803Y0007129D02*
X0257803Y0010031D01*
X0256791Y0010031D02*
X0256791Y0009548D01*
X0254856Y0007613D01*
X0254856Y0007129D01*
X0253361Y0007129D02*
X0253361Y0010031D01*
X0251910Y0008580D01*
X0253845Y0008580D01*
X0254856Y0010031D02*
X0256791Y0010031D01*
X0244687Y0009261D02*
X0243236Y0008293D01*
X0244687Y0007326D01*
X0243236Y0007326D02*
X0243236Y0010228D01*
X0242224Y0010228D02*
X0242224Y0009744D01*
X0240289Y0007809D01*
X0240289Y0007326D01*
X0238794Y0007326D02*
X0238794Y0010228D01*
X0237343Y0008777D01*
X0239278Y0008777D01*
X0240289Y0010228D02*
X0242224Y0010228D01*
X0232182Y0026617D02*
X0232182Y0028552D01*
X0233150Y0029519D01*
X0234117Y0028068D02*
X0232182Y0028068D01*
X0231171Y0028068D02*
X0230687Y0027584D01*
X0229236Y0027584D01*
X0229236Y0026617D02*
X0229236Y0029519D01*
X0230687Y0029519D01*
X0231171Y0029036D01*
X0231171Y0028068D01*
X0228224Y0029519D02*
X0226289Y0029519D01*
X0227257Y0029519D02*
X0227257Y0026617D01*
X0164909Y0014412D02*
X0162974Y0014412D01*
X0163941Y0014412D02*
X0163941Y0017315D01*
X0162974Y0016347D01*
X0161962Y0015863D02*
X0161962Y0014896D01*
X0161478Y0014412D01*
X0160511Y0014412D01*
X0160027Y0014896D01*
X0160027Y0015863D02*
X0160995Y0016347D01*
X0161478Y0016347D01*
X0161962Y0015863D01*
X0161962Y0017315D02*
X0160027Y0017315D01*
X0160027Y0015863D01*
X0150100Y0023751D02*
X0150100Y0025686D01*
X0150100Y0024718D02*
X0147198Y0024718D01*
X0148165Y0023751D01*
X0147682Y0026697D02*
X0147198Y0027181D01*
X0147198Y0028148D01*
X0147682Y0028632D01*
X0149617Y0026697D01*
X0150100Y0027181D01*
X0150100Y0028148D01*
X0149617Y0028632D01*
X0147682Y0028632D01*
X0147682Y0029644D02*
X0147198Y0030127D01*
X0147198Y0031095D01*
X0147682Y0031579D01*
X0149617Y0029644D01*
X0150100Y0030127D01*
X0150100Y0031095D01*
X0149617Y0031579D01*
X0147682Y0031579D01*
X0147198Y0032590D02*
X0150100Y0032590D01*
X0149133Y0032590D02*
X0148165Y0034041D01*
X0149133Y0032590D02*
X0150100Y0034041D01*
X0149617Y0029644D02*
X0147682Y0029644D01*
X0147682Y0026697D02*
X0149617Y0026697D01*
X0134940Y0034885D02*
X0133489Y0035852D01*
X0134940Y0036820D01*
X0133489Y0037787D02*
X0133489Y0034885D01*
X0132477Y0035368D02*
X0131993Y0034885D01*
X0131026Y0034885D01*
X0130542Y0035368D01*
X0132477Y0037303D01*
X0132477Y0035368D01*
X0130542Y0035368D02*
X0130542Y0037303D01*
X0131026Y0037787D01*
X0131993Y0037787D01*
X0132477Y0037303D01*
X0129530Y0037303D02*
X0127595Y0035368D01*
X0128079Y0034885D01*
X0129047Y0034885D01*
X0129530Y0035368D01*
X0129530Y0037303D01*
X0129047Y0037787D01*
X0128079Y0037787D01*
X0127595Y0037303D01*
X0127595Y0035368D01*
X0126584Y0034885D02*
X0124649Y0034885D01*
X0125616Y0034885D02*
X0125616Y0037787D01*
X0124649Y0036820D01*
X0123738Y0066406D02*
X0121886Y0066406D01*
X0121269Y0067023D01*
X0121886Y0067640D01*
X0123738Y0067640D01*
X0123738Y0068258D02*
X0123738Y0066406D01*
X0124952Y0067023D02*
X0125570Y0066406D01*
X0127421Y0066406D01*
X0128636Y0066406D02*
X0129253Y0066406D01*
X0129253Y0067023D01*
X0128636Y0067023D01*
X0128636Y0066406D01*
X0127421Y0068875D02*
X0125570Y0068875D01*
X0124952Y0068258D01*
X0124952Y0067023D01*
X0123738Y0068258D02*
X0123121Y0068875D01*
X0121886Y0068875D01*
X0120055Y0070109D02*
X0120055Y0066406D01*
X0117586Y0066406D02*
X0117586Y0070109D01*
X0118821Y0068875D01*
X0120055Y0070109D01*
X0116362Y0067023D02*
X0116362Y0066406D01*
X0115745Y0066406D01*
X0115745Y0067023D01*
X0116362Y0067023D01*
X0113296Y0068258D02*
X0112061Y0068258D01*
X0110837Y0067023D02*
X0110837Y0066406D01*
X0110220Y0066406D01*
X0110220Y0067023D01*
X0110837Y0067023D01*
X0112061Y0066406D02*
X0112061Y0070109D01*
X0114530Y0070109D01*
X0109005Y0069492D02*
X0108388Y0070109D01*
X0106537Y0070109D01*
X0106537Y0066406D01*
X0108388Y0066406D01*
X0109005Y0067023D01*
X0109005Y0069492D01*
X0101639Y0070109D02*
X0100405Y0069492D01*
X0099170Y0068258D01*
X0101022Y0068258D01*
X0101639Y0067640D01*
X0101639Y0067023D01*
X0101022Y0066406D01*
X0099788Y0066406D01*
X0099170Y0067023D01*
X0099170Y0068258D01*
X0097956Y0066406D02*
X0095487Y0066406D01*
X0096722Y0066406D02*
X0096722Y0070109D01*
X0095487Y0068875D01*
X0094273Y0069492D02*
X0091804Y0067023D01*
X0092421Y0066406D01*
X0093656Y0066406D01*
X0094273Y0067023D01*
X0094273Y0069492D01*
X0093656Y0070109D01*
X0092421Y0070109D01*
X0091804Y0069492D01*
X0091804Y0067023D01*
X0090590Y0066406D02*
X0088121Y0066406D01*
X0090590Y0068875D01*
X0090590Y0069492D01*
X0089973Y0070109D01*
X0088738Y0070109D01*
X0088121Y0069492D01*
X0083223Y0069492D02*
X0080755Y0067023D01*
X0081372Y0066406D01*
X0082606Y0066406D01*
X0083223Y0067023D01*
X0083223Y0069492D01*
X0082606Y0070109D01*
X0081372Y0070109D01*
X0080755Y0069492D01*
X0080755Y0067023D01*
X0079530Y0067023D02*
X0079530Y0066406D01*
X0078913Y0066406D01*
X0078913Y0067023D01*
X0079530Y0067023D01*
X0077699Y0068258D02*
X0075230Y0068258D01*
X0077082Y0070109D01*
X0077082Y0066406D01*
X0070332Y0069492D02*
X0070332Y0070109D01*
X0070332Y0069492D02*
X0069098Y0068258D01*
X0069098Y0066406D01*
X0069098Y0068258D02*
X0067864Y0069492D01*
X0067864Y0070109D01*
X0066649Y0069492D02*
X0066649Y0068875D01*
X0066032Y0068258D01*
X0064181Y0068258D01*
X0066032Y0068258D02*
X0066649Y0067640D01*
X0066649Y0067023D01*
X0066032Y0066406D01*
X0064181Y0066406D01*
X0064181Y0070109D01*
X0066032Y0070109D01*
X0066649Y0069492D01*
X0059283Y0069492D02*
X0058666Y0070109D01*
X0057431Y0070109D01*
X0056814Y0069492D01*
X0056814Y0067023D01*
X0057431Y0066406D01*
X0058666Y0066406D01*
X0059283Y0067023D01*
X0055600Y0067023D02*
X0054983Y0066406D01*
X0053748Y0066406D01*
X0053131Y0067023D01*
X0053131Y0069492D01*
X0053748Y0070109D01*
X0054983Y0070109D01*
X0055600Y0069492D01*
X0107235Y0112437D02*
X0109704Y0112437D01*
X0110918Y0112437D02*
X0110918Y0116141D01*
X0112770Y0114906D02*
X0110918Y0113672D01*
X0112770Y0112437D01*
X0110970Y0109699D02*
X0110970Y0107230D01*
X0114674Y0107230D01*
X0114674Y0106016D02*
X0112205Y0106016D01*
X0112822Y0107230D02*
X0112822Y0108465D01*
X0114674Y0106016D02*
X0114674Y0104164D01*
X0114056Y0103547D01*
X0112205Y0103547D01*
X0110970Y0101098D02*
X0114674Y0101098D01*
X0114674Y0099864D02*
X0114674Y0102333D01*
X0112205Y0099864D02*
X0110970Y0101098D01*
X0114056Y0098640D02*
X0114674Y0098640D01*
X0114674Y0098022D01*
X0114056Y0098022D01*
X0114056Y0098640D01*
X0114056Y0096808D02*
X0114674Y0096191D01*
X0114674Y0094957D01*
X0114056Y0094339D01*
X0111588Y0096808D01*
X0114056Y0096808D01*
X0111588Y0096808D02*
X0110970Y0096191D01*
X0110970Y0094957D01*
X0111588Y0094339D01*
X0114056Y0094339D01*
X0121737Y0104052D02*
X0123672Y0104052D01*
X0122704Y0105020D02*
X0122704Y0103085D01*
X0108470Y0112437D02*
X0108470Y0116141D01*
X0107235Y0114906D01*
X0093085Y0188815D02*
X0091233Y0190050D01*
X0093085Y0191284D01*
X0091233Y0192519D02*
X0091233Y0188815D01*
X0090019Y0188815D02*
X0087550Y0188815D01*
X0088785Y0188815D02*
X0088785Y0192519D01*
X0087550Y0191284D01*
X0050894Y0191122D02*
X0047191Y0191122D01*
X0048425Y0192974D02*
X0049660Y0191122D01*
X0050894Y0192974D01*
X0050894Y0189908D02*
X0050894Y0187439D01*
X0050894Y0188674D02*
X0047191Y0188674D01*
X0048425Y0187439D01*
X0044751Y0240093D02*
X0044751Y0242028D01*
X0043784Y0241060D02*
X0045719Y0241060D01*
X0047065Y0248655D02*
X0047065Y0252358D01*
X0044597Y0252358D01*
X0043382Y0252358D02*
X0040914Y0249889D01*
X0040914Y0249272D01*
X0041531Y0248655D01*
X0042765Y0248655D01*
X0043382Y0249272D01*
X0043382Y0252358D02*
X0040914Y0252358D01*
X0028955Y0266765D02*
X0028955Y0270468D01*
X0026486Y0270468D01*
X0025272Y0270468D02*
X0022803Y0270468D01*
X0024038Y0270468D02*
X0024038Y0266765D01*
X0025272Y0267999D01*
X0017980Y0260925D02*
X0017980Y0258990D01*
X0017012Y0259958D02*
X0018947Y0259958D01*
X0057375Y0284875D02*
X0057375Y0288578D01*
X0056141Y0288578D02*
X0058610Y0288578D01*
X0058610Y0286110D02*
X0057375Y0284875D01*
X0078976Y0265744D02*
X0081444Y0265744D01*
X0078976Y0263275D01*
X0078976Y0262658D01*
X0079593Y0262041D01*
X0080827Y0262041D01*
X0081444Y0262658D01*
X0305660Y0189709D02*
X0306895Y0190944D01*
X0306895Y0187241D01*
X0308129Y0187241D02*
X0305660Y0187241D01*
X0309344Y0187241D02*
X0309344Y0190944D01*
X0311195Y0189709D02*
X0309344Y0188475D01*
X0311195Y0187241D01*
X0310918Y0212437D02*
X0310918Y0216141D01*
X0312770Y0214906D02*
X0310918Y0213672D01*
X0312770Y0212437D01*
X0309704Y0212437D02*
X0307235Y0212437D01*
X0308470Y0212437D02*
X0308470Y0216141D01*
X0307235Y0214906D01*
X0337594Y0245505D02*
X0336977Y0246122D01*
X0336977Y0246740D01*
X0337594Y0247357D01*
X0336977Y0247974D01*
X0336977Y0248591D01*
X0337594Y0249208D01*
X0338828Y0249208D01*
X0339445Y0248591D01*
X0340660Y0249208D02*
X0343128Y0249208D01*
X0343128Y0245505D01*
X0339445Y0246122D02*
X0338828Y0245505D01*
X0337594Y0245505D01*
X0337594Y0247357D02*
X0338211Y0247357D01*
X0340027Y0237303D02*
X0340027Y0235368D01*
X0339059Y0236336D02*
X0340994Y0236336D01*
X0345893Y0211394D02*
X0345893Y0208926D01*
X0344041Y0210777D01*
X0347744Y0210777D01*
X0347744Y0207711D02*
X0347744Y0205242D01*
X0344041Y0205242D01*
X0344659Y0200371D02*
X0345276Y0200371D01*
X0345893Y0199754D01*
X0346510Y0200371D01*
X0347127Y0200371D01*
X0347744Y0199754D01*
X0347744Y0198519D01*
X0347127Y0197902D01*
X0347744Y0196688D02*
X0347744Y0194219D01*
X0344041Y0194219D01*
X0344659Y0197902D02*
X0344041Y0198519D01*
X0344041Y0199754D01*
X0344659Y0200371D01*
X0345893Y0199754D02*
X0345893Y0199136D01*
X0345276Y0190135D02*
X0344659Y0190135D01*
X0344041Y0189517D01*
X0344041Y0188283D01*
X0344659Y0187666D01*
X0345276Y0190135D02*
X0347744Y0187666D01*
X0347744Y0190135D01*
X0347744Y0186451D02*
X0347744Y0183983D01*
X0344041Y0183983D01*
X0344041Y0179451D02*
X0347744Y0179451D01*
X0347744Y0178217D02*
X0347744Y0180686D01*
X0345276Y0178217D02*
X0344041Y0179451D01*
X0347744Y0177003D02*
X0347744Y0174534D01*
X0344041Y0174534D01*
X0344041Y0170450D02*
X0346510Y0170450D01*
X0347744Y0169215D01*
X0346510Y0167981D01*
X0344041Y0167981D01*
X0344041Y0166766D02*
X0344041Y0164298D01*
X0345893Y0164298D01*
X0345276Y0165532D01*
X0345276Y0166149D01*
X0345893Y0166766D01*
X0347127Y0166766D01*
X0347744Y0166149D01*
X0347744Y0164915D01*
X0347127Y0164298D01*
X0347127Y0161267D02*
X0344659Y0161267D01*
X0344041Y0160650D01*
X0344041Y0158799D01*
X0347744Y0158799D01*
X0347744Y0160650D01*
X0347127Y0161267D01*
X0347744Y0157584D02*
X0344041Y0157584D01*
X0344041Y0155116D02*
X0347744Y0157584D01*
X0347744Y0155116D02*
X0344041Y0155116D01*
X0344659Y0153901D02*
X0344041Y0153284D01*
X0344041Y0152050D01*
X0344659Y0151432D01*
X0347127Y0151432D01*
X0347744Y0152050D01*
X0347744Y0153284D01*
X0347127Y0153901D01*
X0345893Y0153901D01*
X0345893Y0152667D01*
X0309174Y0259678D02*
X0307939Y0259678D01*
X0307322Y0260296D01*
X0307322Y0260913D01*
X0307939Y0261530D01*
X0307322Y0262147D01*
X0307322Y0262764D01*
X0307939Y0263382D01*
X0309174Y0263382D01*
X0309791Y0262764D01*
X0308556Y0261530D02*
X0307939Y0261530D01*
X0309791Y0260296D02*
X0309174Y0259678D01*
X0332349Y0284088D02*
X0334200Y0285939D01*
X0331731Y0285939D01*
X0332349Y0284088D02*
X0332349Y0287791D01*
X0360428Y0272043D02*
X0360428Y0268340D01*
X0362280Y0270191D01*
X0359811Y0270191D01*
X0363494Y0272043D02*
X0365963Y0272043D01*
X0365963Y0268340D01*
X0373705Y0271769D02*
X0375640Y0271769D01*
X0374673Y0272736D02*
X0374673Y0270802D01*
D15*
X0221091Y0342634D02*
X0199044Y0343421D01*
X0199831Y0344996D02*
X0220304Y0344209D01*
X0219517Y0345784D02*
X0200619Y0346571D01*
X0200619Y0348146D02*
X0219517Y0347358D01*
X0219517Y0348933D02*
X0200619Y0349721D01*
X0200619Y0351295D02*
X0219517Y0350508D01*
D16*
X0138796Y0120646D03*
D17*
X0142743Y0120587D03*
X0123849Y0120587D03*
D18*
X0132508Y0099201D02*
X0132700Y0099203D01*
X0132892Y0099210D01*
X0133084Y0099222D01*
X0133276Y0099238D01*
X0133467Y0099259D01*
X0133657Y0099284D01*
X0133847Y0099314D01*
X0134036Y0099348D01*
X0134224Y0099387D01*
X0134411Y0099431D01*
X0134597Y0099479D01*
X0134782Y0099531D01*
X0134966Y0099588D01*
X0135148Y0099649D01*
X0135328Y0099715D01*
X0135507Y0099785D01*
X0135685Y0099859D01*
X0135860Y0099937D01*
X0136034Y0100020D01*
X0136205Y0100107D01*
X0136374Y0100197D01*
X0136541Y0100292D01*
X0136706Y0100391D01*
X0136869Y0100494D01*
X0137028Y0100601D01*
X0137186Y0100711D01*
X0137340Y0100825D01*
X0137492Y0100943D01*
X0137641Y0101065D01*
X0137787Y0101190D01*
X0137929Y0101318D01*
X0138069Y0101450D01*
X0138206Y0101585D01*
X0138339Y0101724D01*
X0138469Y0101865D01*
X0138595Y0102010D01*
X0138718Y0102158D01*
X0138837Y0102308D01*
X0138953Y0102462D01*
X0139065Y0102618D01*
X0139173Y0102777D01*
X0139278Y0102938D01*
X0139378Y0103102D01*
X0139474Y0103268D01*
X0139567Y0103436D01*
X0139455Y0111170D02*
X0139356Y0111339D01*
X0139252Y0111505D01*
X0139145Y0111669D01*
X0139034Y0111830D01*
X0138919Y0111988D01*
X0138800Y0112143D01*
X0138677Y0112296D01*
X0138551Y0112445D01*
X0138421Y0112591D01*
X0138287Y0112734D01*
X0138150Y0112874D01*
X0138010Y0113010D01*
X0137866Y0113143D01*
X0137719Y0113272D01*
X0137569Y0113398D01*
X0137416Y0113519D01*
X0137260Y0113638D01*
X0137101Y0113752D01*
X0136940Y0113862D01*
X0136775Y0113968D01*
X0136609Y0114071D01*
X0136439Y0114169D01*
X0136268Y0114263D01*
X0136094Y0114353D01*
X0135918Y0114438D01*
X0135740Y0114520D01*
X0135560Y0114596D01*
X0135378Y0114669D01*
X0135195Y0114737D01*
X0135010Y0114800D01*
X0134823Y0114859D01*
X0134635Y0114913D01*
X0134446Y0114963D01*
X0134256Y0115008D01*
X0134064Y0115048D01*
X0133872Y0115084D01*
X0133679Y0115115D01*
X0133485Y0115141D01*
X0133290Y0115163D01*
X0133095Y0115179D01*
X0132900Y0115191D01*
X0132704Y0115199D01*
X0132509Y0115201D01*
X0132316Y0115199D01*
X0132123Y0115192D01*
X0131931Y0115180D01*
X0131738Y0115164D01*
X0131546Y0115143D01*
X0131355Y0115117D01*
X0131165Y0115087D01*
X0130975Y0115052D01*
X0130786Y0115013D01*
X0130598Y0114969D01*
X0130411Y0114921D01*
X0130225Y0114868D01*
X0130041Y0114811D01*
X0129858Y0114749D01*
X0129677Y0114683D01*
X0129497Y0114612D01*
X0129319Y0114538D01*
X0129143Y0114459D01*
X0128969Y0114375D01*
X0128797Y0114288D01*
X0128627Y0114196D01*
X0128460Y0114100D01*
X0128294Y0114001D01*
X0128131Y0113897D01*
X0127971Y0113790D01*
X0127814Y0113678D01*
X0127659Y0113563D01*
X0127507Y0113444D01*
X0127358Y0113322D01*
X0127211Y0113196D01*
X0127068Y0113066D01*
X0126928Y0112933D01*
X0126792Y0112797D01*
X0126658Y0112657D01*
X0126529Y0112515D01*
X0126402Y0112369D01*
X0126363Y0102079D02*
X0126490Y0101931D01*
X0126620Y0101786D01*
X0126753Y0101645D01*
X0126890Y0101506D01*
X0127030Y0101371D01*
X0127174Y0101240D01*
X0127321Y0101112D01*
X0127470Y0100987D01*
X0127623Y0100866D01*
X0127778Y0100749D01*
X0127937Y0100636D01*
X0128098Y0100527D01*
X0128262Y0100422D01*
X0128428Y0100320D01*
X0128597Y0100223D01*
X0128767Y0100130D01*
X0128941Y0100041D01*
X0129116Y0099956D01*
X0129293Y0099876D01*
X0129472Y0099800D01*
X0129653Y0099728D01*
X0129836Y0099661D01*
X0130020Y0099598D01*
X0130206Y0099540D01*
X0130393Y0099486D01*
X0130581Y0099437D01*
X0130771Y0099392D01*
X0130961Y0099352D01*
X0131153Y0099317D01*
X0131345Y0099286D01*
X0131538Y0099260D01*
X0131732Y0099239D01*
X0131926Y0099222D01*
X0132120Y0099210D01*
X0132314Y0099203D01*
X0132509Y0099201D01*
D19*
X0039225Y0246153D02*
X0038251Y0246153D01*
X0038251Y0246988D01*
X0039225Y0246988D01*
X0039225Y0246153D01*
X0017966Y0266626D02*
X0016991Y0266626D01*
X0016991Y0267461D01*
X0017966Y0267461D01*
X0017966Y0266626D01*
X0344689Y0243978D02*
X0345525Y0243978D01*
X0345525Y0243004D01*
X0344689Y0243004D01*
X0344689Y0243978D01*
X0368312Y0264912D02*
X0369147Y0264912D01*
X0369147Y0265886D01*
X0368312Y0265886D01*
X0368312Y0264912D01*
D20*
X0366850Y0265817D03*
X0346986Y0243073D03*
X0039156Y0248450D03*
X0017896Y0268922D03*
M02*
